<?xml version="1.0" encoding="UTF-8"?>
<svg height="314.72mm" viewBox="0.0 0.0 408.36 314.72" width="408.36mm" xmlns="http://www.w3.org/2000/svg" xmlns:cc="http://creativecommons.org/ns#" xmlns:dc="http://purl.org/dc/elements/1.1/" xmlns:inkscape="http://www.inkscape.org/namespaces/inkscape" xmlns:rdf="http://www.w3.org/1999/02/22-rdf-syntax-ns#" xmlns:svg="http://www.w3.org/2000/svg" xmlns:xlink="http://www.w3.org/1999/xlink">
<!--
BasedBox - Fully closed box on a base


This box is more of a building block than a finished item.
Use a vector graphics programm (like Inkscape) to add holes or adjust the base
plate. The width of the "brim" can also be adjusted with the **edge_width**
 parameter in the **Finger Joints Settings**.


Created with Boxes.py (https://festi.info/boxes.py)
Creation date: 2020-11-30 07:58:22
Command line (remove spaces between dashes): boxes BasedBox - -FingerJoint_angle=90.0 - -FingerJoint_style=rectangular - -FingerJoint_surroundingspaces=2.0 - -FingerJoint_edge_width=1.0 - -FingerJoint_finger=2.0 - -FingerJoint_play=0.0 - -FingerJoint_space=2.0 - -FingerJoint_width=1.0 - -x=180 - -y=210 - -h=30 - -outside=0 - -outside=1 - -thickness=4.0 - -format=svg - -tabs=0.0 - -debug=0 - -reference=100 - -burn=0.09
Url: http://www.festi.info/BasedBox?FingerJoint_angle=90.0&FingerJoint_style=rectangular&FingerJoint_surroundingspaces=2.0&FingerJoint_edge_width=1.0&FingerJoint_finger=2.0&FingerJoint_play=0.0&FingerJoint_space=2.0&FingerJoint_width=1.0&x=180&y=210&h=30&outside=0&outside=1&thickness=4.0&format=svg&tabs=0.0&debug=0&reference=100&burn=0.09&render=1
SettingsUrl: http://www.festi.info/BasedBox?FingerJoint_angle=90.0&FingerJoint_style=rectangular&FingerJoint_surroundingspaces=2.0&FingerJoint_edge_width=1.0&FingerJoint_finger=2.0&FingerJoint_play=0.0&FingerJoint_space=2.0&FingerJoint_width=1.0&x=180&y=210&h=30&outside=0&outside=1&thickness=4.0&format=svg&tabs=0.0&debug=0&reference=100&burn=0.09
-->
<title>BasedBox</title>
<metadata>
<rdf:RDF><cc:Work>
<dc:title>Box - BasedBox</dc:title>
<dc:date>2020-11-30 07:58:22</dc:date>
<dc:source>http://www.festi.info/BasedBox?FingerJoint_angle=90.0&amp;FingerJoint_style=rectangular&amp;FingerJoint_surroundingspaces=2.0&amp;FingerJoint_edge_width=1.0&amp;FingerJoint_finger=2.0&amp;FingerJoint_play=0.0&amp;FingerJoint_space=2.0&amp;FingerJoint_width=1.0&amp;x=180&amp;y=210&amp;h=30&amp;outside=0&amp;outside=1&amp;thickness=4.0&amp;format=svg&amp;tabs=0.0&amp;debug=0&amp;reference=100&amp;burn=0.09&amp;render=1</dc:source>
<dc:description>Fully closed box on a base

This box is more of a building block than a finished item.
Use a vector graphics programm (like Inkscape) to add holes or adjust the base
plate. The width of the "brim" can also be adjusted with the **edge_width**
 parameter in the **Finger Joints Settings**.

Created with Boxes.py (https://festi.info/boxes.py)
Command line: boxes BasedBox --FingerJoint_angle=90.0 --FingerJoint_style=rectangular --FingerJoint_surroundingspaces=2.0 --FingerJoint_edge_width=1.0 --FingerJoint_finger=2.0 --FingerJoint_play=0.0 --FingerJoint_space=2.0 --FingerJoint_width=1.0 --x=180 --y=210 --h=30 --outside=0 --outside=1 --thickness=4.0 --format=svg --tabs=0.0 --debug=0 --reference=100 --burn=0.09
Url: http://www.festi.info/BasedBox?FingerJoint_angle=90.0&amp;FingerJoint_style=rectangular&amp;FingerJoint_surroundingspaces=2.0&amp;FingerJoint_edge_width=1.0&amp;FingerJoint_finger=2.0&amp;FingerJoint_play=0.0&amp;FingerJoint_space=2.0&amp;FingerJoint_width=1.0&amp;x=180&amp;y=210&amp;h=30&amp;outside=0&amp;outside=1&amp;thickness=4.0&amp;format=svg&amp;tabs=0.0&amp;debug=0&amp;reference=100&amp;burn=0.09&amp;render=1
SettingsUrl: http://www.festi.info/BasedBox?FingerJoint_angle=90.0&amp;FingerJoint_style=rectangular&amp;FingerJoint_surroundingspaces=2.0&amp;FingerJoint_edge_width=1.0&amp;FingerJoint_finger=2.0&amp;FingerJoint_play=0.0&amp;FingerJoint_space=2.0&amp;FingerJoint_width=1.0&amp;x=180&amp;y=210&amp;h=30&amp;outside=0&amp;outside=1&amp;thickness=4.0&amp;format=svg&amp;tabs=0.0&amp;debug=0&amp;reference=100&amp;burn=0.09
</dc:description>
</cc:Work></rdf:RDF></metadata>
<g id="p-0" style="fill:none;stroke-linecap:round;stroke-linejoin:round;">
  <path d="M 10.090 304.720 H 110.090 V 294.720 H 10.090 V 304.720 Z" stroke="rgb(0,0,0)" stroke-width="0.18"/>
  <text alignment-baseline="hanging" font-size="10px" style="font-family: sans-serif ; font-weight: normal; font-style: normal; fill: rgb(0,0,0)" text-anchor="middle" transform="matrix( 1.000 0.000 0.000 1.000 60.090 294.720 )">100mm</text>
</g>
<g id="p-1" style="fill:none;stroke-linecap:round;stroke-linejoin:round;">
  <path d="M 14.090 288.540 H 24.000 C 24.090 288.540 24.000 288.450 24.000 288.540 V 292.450 C 24.000 292.500 24.040 292.540 24.090 292.540 H 32.090 C 32.140 292.540 32.180 292.500 32.180 292.450 V 288.540 C 32.180 288.450 32.090 288.540 32.180 288.540 H 40.000 C 40.090 288.540 40.000 288.450 40.000 288.540 V 292.450 C 40.000 292.500 40.040 292.540 40.090 292.540 H 48.090 C 48.140 292.540 48.180 292.500 48.180 292.450 V 288.540 C 48.180 288.450 48.090 288.540 48.180 288.540 H 56.000 C 56.090 288.540 56.000 288.450 56.000 288.540 V 292.450 C 56.000 292.500 56.040 292.540 56.090 292.540 H 64.090 C 64.140 292.540 64.180 292.500 64.180 292.450 V 288.540 C 64.180 288.450 64.090 288.540 64.180 288.540 H 72.000 C 72.090 288.540 72.000 288.450 72.000 288.540 V 292.450 C 72.000 292.500 72.040 292.540 72.090 292.540 H 80.090 C 80.140 292.540 80.180 292.500 80.180 292.450 V 288.540 C 80.180 288.450 80.090 288.540 80.180 288.540 H 88.000 C 88.090 288.540 88.000 288.450 88.000 288.540 V 292.450 C 88.000 292.500 88.040 292.540 88.090 292.540 H 96.090 C 96.140 292.540 96.180 292.500 96.180 292.450 V 288.540 C 96.180 288.450 96.090 288.540 96.180 288.540 H 104.000 C 104.090 288.540 104.000 288.450 104.000 288.540 V 292.450 C 104.000 292.500 104.040 292.540 104.090 292.540 H 112.090 C 112.140 292.540 112.180 292.500 112.180 292.450 V 288.540 C 112.180 288.450 112.090 288.540 112.180 288.540 H 120.000 C 120.090 288.540 120.000 288.450 120.000 288.540 V 292.450 C 120.000 292.500 120.040 292.540 120.090 292.540 H 128.090 C 128.140 292.540 128.180 292.500 128.180 292.450 V 288.540 C 128.180 288.450 128.090 288.540 128.180 288.540 H 136.000 C 136.090 288.540 136.000 288.450 136.000 288.540 V 292.450 C 136.000 292.500 136.040 292.540 136.090 292.540 H 144.090 C 144.140 292.540 144.180 292.500 144.180 292.450 V 288.540 C 144.180 288.450 144.090 288.540 144.180 288.540 H 152.000 C 152.090 288.540 152.000 288.450 152.000 288.540 V 292.450 C 152.000 292.500 152.040 292.540 152.090 292.540 H 160.090 C 160.140 292.540 160.180 292.500 160.180 292.450 V 288.540 C 160.180 288.450 160.090 288.540 160.180 288.540 H 168.000 C 168.090 288.540 168.000 288.450 168.000 288.540 V 292.450 C 168.000 292.500 168.040 292.540 168.090 292.540 H 176.090 C 176.140 292.540 176.180 292.500 176.180 292.450 V 288.540 C 176.180 288.450 176.090 288.540 176.180 288.540 H 186.090 H 190.090 C 190.140 288.540 190.180 288.500 190.180 288.450 V 277.450 V 266.450 V 262.450 C 190.180 262.400 190.140 262.360 190.090 262.360 H 186.090 H 176.090 C 176.040 262.360 176.000 262.400 176.000 262.450 V 266.360 C 176.000 266.450 176.090 266.360 176.000 266.360 H 168.180 C 168.090 266.360 168.180 266.450 168.180 266.360 V 262.450 C 168.180 262.400 168.140 262.360 168.090 262.360 H 160.090 C 160.040 262.360 160.000 262.400 160.000 262.450 V 266.360 C 160.000 266.450 160.090 266.360 160.000 266.360 H 152.180 C 152.090 266.360 152.180 266.450 152.180 266.360 V 262.450 C 152.180 262.400 152.140 262.360 152.090 262.360 H 144.090 C 144.040 262.360 144.000 262.400 144.000 262.450 V 266.360 C 144.000 266.450 144.090 266.360 144.000 266.360 H 136.180 C 136.090 266.360 136.180 266.450 136.180 266.360 V 262.450 C 136.180 262.400 136.140 262.360 136.090 262.360 H 128.090 C 128.040 262.360 128.000 262.400 128.000 262.450 V 266.360 C 128.000 266.450 128.090 266.360 128.000 266.360 H 120.180 C 120.090 266.360 120.180 266.450 120.180 266.360 V 262.450 C 120.180 262.400 120.140 262.360 120.090 262.360 H 112.090 C 112.040 262.360 112.000 262.400 112.000 262.450 V 266.360 C 112.000 266.450 112.090 266.360 112.000 266.360 H 104.180 C 104.090 266.360 104.180 266.450 104.180 266.360 V 262.450 C 104.180 262.400 104.140 262.360 104.090 262.360 H 96.090 C 96.040 262.360 96.000 262.400 96.000 262.450 V 266.360 C 96.000 266.450 96.090 266.360 96.000 266.360 H 88.180 C 88.090 266.360 88.180 266.450 88.180 266.360 V 262.450 C 88.180 262.400 88.140 262.360 88.090 262.360 H 80.090 C 80.040 262.360 80.000 262.400 80.000 262.450 V 266.360 C 80.000 266.450 80.090 266.360 80.000 266.360 H 72.180 C 72.090 266.360 72.180 266.450 72.180 266.360 V 262.450 C 72.180 262.400 72.140 262.360 72.090 262.360 H 64.090 C 64.040 262.360 64.000 262.400 64.000 262.450 V 266.360 C 64.000 266.450 64.090 266.360 64.000 266.360 H 56.180 C 56.090 266.360 56.180 266.450 56.180 266.360 V 262.450 C 56.180 262.400 56.140 262.360 56.090 262.360 H 48.090 C 48.040 262.360 48.000 262.400 48.000 262.450 V 266.360 C 48.000 266.450 48.090 266.360 48.000 266.360 H 40.180 C 40.090 266.360 40.180 266.450 40.180 266.360 V 262.450 C 40.180 262.400 40.140 262.360 40.090 262.360 H 32.090 C 32.040 262.360 32.000 262.400 32.000 262.450 V 266.360 C 32.000 266.450 32.090 266.360 32.000 266.360 H 24.180 C 24.090 266.360 24.180 266.450 24.180 266.360 V 262.450 C 24.180 262.400 24.140 262.360 24.090 262.360 H 14.090 H 10.090 C 10.040 262.360 10.000 262.400 10.000 262.450 V 266.450 V 277.450 V 288.450 C 10.000 288.500 10.040 288.540 10.090 288.540 H 14.090 Z" stroke="rgb(0,0,0)" stroke-width="0.18"/>
</g>
<g id="p-2" style="fill:none;stroke-linecap:round;stroke-linejoin:round;">
  <path d="M 196.270 288.540 H 205.180 C 205.270 288.540 205.180 288.450 205.180 288.540 V 292.450 C 205.180 292.500 205.220 292.540 205.270 292.540 H 213.270 C 213.320 292.540 213.360 292.500 213.360 292.450 V 288.540 C 213.360 288.450 213.270 288.540 213.360 288.540 H 221.180 C 221.270 288.540 221.180 288.450 221.180 288.540 V 292.450 C 221.180 292.500 221.220 292.540 221.270 292.540 H 229.270 C 229.320 292.540 229.360 292.500 229.360 292.450 V 288.540 C 229.360 288.450 229.270 288.540 229.360 288.540 H 237.180 C 237.270 288.540 237.180 288.450 237.180 288.540 V 292.450 C 237.180 292.500 237.220 292.540 237.270 292.540 H 245.270 C 245.320 292.540 245.360 292.500 245.360 292.450 V 288.540 C 245.360 288.450 245.270 288.540 245.360 288.540 H 253.180 C 253.270 288.540 253.180 288.450 253.180 288.540 V 292.450 C 253.180 292.500 253.220 292.540 253.270 292.540 H 261.270 C 261.320 292.540 261.360 292.500 261.360 292.450 V 288.540 C 261.360 288.450 261.270 288.540 261.360 288.540 H 269.180 C 269.270 288.540 269.180 288.450 269.180 288.540 V 292.450 C 269.180 292.500 269.220 292.540 269.270 292.540 H 277.270 C 277.320 292.540 277.360 292.500 277.360 292.450 V 288.540 C 277.360 288.450 277.270 288.540 277.360 288.540 H 285.180 C 285.270 288.540 285.180 288.450 285.180 288.540 V 292.450 C 285.180 292.500 285.220 292.540 285.270 292.540 H 293.270 C 293.320 292.540 293.360 292.500 293.360 292.450 V 288.540 C 293.360 288.450 293.270 288.540 293.360 288.540 H 301.180 C 301.270 288.540 301.180 288.450 301.180 288.540 V 292.450 C 301.180 292.500 301.220 292.540 301.270 292.540 H 309.270 C 309.320 292.540 309.360 292.500 309.360 292.450 V 288.540 C 309.360 288.450 309.270 288.540 309.360 288.540 H 317.180 C 317.270 288.540 317.180 288.450 317.180 288.540 V 292.450 C 317.180 292.500 317.220 292.540 317.270 292.540 H 325.270 C 325.320 292.540 325.360 292.500 325.360 292.450 V 288.540 C 325.360 288.450 325.270 288.540 325.360 288.540 H 333.180 C 333.270 288.540 333.180 288.450 333.180 288.540 V 292.450 C 333.180 292.500 333.220 292.540 333.270 292.540 H 341.270 C 341.320 292.540 341.360 292.500 341.360 292.450 V 288.540 C 341.360 288.450 341.270 288.540 341.360 288.540 H 349.180 C 349.270 288.540 349.180 288.450 349.180 288.540 V 292.450 C 349.180 292.500 349.220 292.540 349.270 292.540 H 357.270 C 357.320 292.540 357.360 292.500 357.360 292.450 V 288.540 C 357.360 288.450 357.270 288.540 357.360 288.540 H 365.180 C 365.270 288.540 365.180 288.450 365.180 288.540 V 292.450 C 365.180 292.500 365.220 292.540 365.270 292.540 H 373.270 C 373.320 292.540 373.360 292.500 373.360 292.450 V 288.540 C 373.360 288.450 373.270 288.540 373.360 288.540 H 381.180 C 381.270 288.540 381.180 288.450 381.180 288.540 V 292.450 C 381.180 292.500 381.220 292.540 381.270 292.540 H 389.270 C 389.320 292.540 389.360 292.500 389.360 292.450 V 288.540 C 389.360 288.450 389.270 288.540 389.360 288.540 H 398.270 C 398.320 288.540 398.360 288.500 398.360 288.450 V 277.450 V 266.450 V 262.450 C 398.360 262.400 398.320 262.360 398.270 262.360 H 389.270 C 389.220 262.360 389.180 262.400 389.180 262.450 V 266.360 C 389.180 266.450 389.270 266.360 389.180 266.360 H 381.360 C 381.270 266.360 381.360 266.450 381.360 266.360 V 262.450 C 381.360 262.400 381.320 262.360 381.270 262.360 H 373.270 C 373.220 262.360 373.180 262.400 373.180 262.450 V 266.360 C 373.180 266.450 373.270 266.360 373.180 266.360 H 365.360 C 365.270 266.360 365.360 266.450 365.360 266.360 V 262.450 C 365.360 262.400 365.320 262.360 365.270 262.360 H 357.270 C 357.220 262.360 357.180 262.400 357.180 262.450 V 266.360 C 357.180 266.450 357.270 266.360 357.180 266.360 H 349.360 C 349.270 266.360 349.360 266.450 349.360 266.360 V 262.450 C 349.360 262.400 349.320 262.360 349.270 262.360 H 341.270 C 341.220 262.360 341.180 262.400 341.180 262.450 V 266.360 C 341.180 266.450 341.270 266.360 341.180 266.360 H 333.360 C 333.270 266.360 333.360 266.450 333.360 266.360 V 262.450 C 333.360 262.400 333.320 262.360 333.270 262.360 H 325.270 C 325.220 262.360 325.180 262.400 325.180 262.450 V 266.360 C 325.180 266.450 325.270 266.360 325.180 266.360 H 317.360 C 317.270 266.360 317.360 266.450 317.360 266.360 V 262.450 C 317.360 262.400 317.320 262.360 317.270 262.360 H 309.270 C 309.220 262.360 309.180 262.400 309.180 262.450 V 266.360 C 309.180 266.450 309.270 266.360 309.180 266.360 H 301.360 C 301.270 266.360 301.360 266.450 301.360 266.360 V 262.450 C 301.360 262.400 301.320 262.360 301.270 262.360 H 293.270 C 293.220 262.360 293.180 262.400 293.180 262.450 V 266.360 C 293.180 266.450 293.270 266.360 293.180 266.360 H 285.360 C 285.270 266.360 285.360 266.450 285.360 266.360 V 262.450 C 285.360 262.400 285.320 262.360 285.270 262.360 H 277.270 C 277.220 262.360 277.180 262.400 277.180 262.450 V 266.360 C 277.180 266.450 277.270 266.360 277.180 266.360 H 269.360 C 269.270 266.360 269.360 266.450 269.360 266.360 V 262.450 C 269.360 262.400 269.320 262.360 269.270 262.360 H 261.270 C 261.220 262.360 261.180 262.400 261.180 262.450 V 266.360 C 261.180 266.450 261.270 266.360 261.180 266.360 H 253.360 C 253.270 266.360 253.360 266.450 253.360 266.360 V 262.450 C 253.360 262.400 253.320 262.360 253.270 262.360 H 245.270 C 245.220 262.360 245.180 262.400 245.180 262.450 V 266.360 C 245.180 266.450 245.270 266.360 245.180 266.360 H 237.360 C 237.270 266.360 237.360 266.450 237.360 266.360 V 262.450 C 237.360 262.400 237.320 262.360 237.270 262.360 H 229.270 C 229.220 262.360 229.180 262.400 229.180 262.450 V 266.360 C 229.180 266.450 229.270 266.360 229.180 266.360 H 221.360 C 221.270 266.360 221.360 266.450 221.360 266.360 V 262.450 C 221.360 262.400 221.320 262.360 221.270 262.360 H 213.270 C 213.220 262.360 213.180 262.400 213.180 262.450 V 266.360 C 213.180 266.450 213.270 266.360 213.180 266.360 H 205.360 C 205.270 266.360 205.360 266.450 205.360 266.360 V 262.450 C 205.360 262.400 205.320 262.360 205.270 262.360 H 196.270 C 196.220 262.360 196.180 262.400 196.180 262.450 V 266.450 V 277.450 V 288.450 C 196.180 288.500 196.220 288.540 196.270 288.540 Z" stroke="rgb(0,0,0)" stroke-width="0.18"/>
</g>
<g id="p-3" style="fill:none;stroke-linecap:round;stroke-linejoin:round;">
  <path d="M 196.270 256.360 H 205.180 C 205.270 256.360 205.180 256.270 205.180 256.360 V 260.270 C 205.180 260.320 205.220 260.360 205.270 260.360 H 213.270 C 213.320 260.360 213.360 260.320 213.360 260.270 V 256.360 C 213.360 256.270 213.270 256.360 213.360 256.360 H 221.180 C 221.270 256.360 221.180 256.270 221.180 256.360 V 260.270 C 221.180 260.320 221.220 260.360 221.270 260.360 H 229.270 C 229.320 260.360 229.360 260.320 229.360 260.270 V 256.360 C 229.360 256.270 229.270 256.360 229.360 256.360 H 237.180 C 237.270 256.360 237.180 256.270 237.180 256.360 V 260.270 C 237.180 260.320 237.220 260.360 237.270 260.360 H 245.270 C 245.320 260.360 245.360 260.320 245.360 260.270 V 256.360 C 245.360 256.270 245.270 256.360 245.360 256.360 H 253.180 C 253.270 256.360 253.180 256.270 253.180 256.360 V 260.270 C 253.180 260.320 253.220 260.360 253.270 260.360 H 261.270 C 261.320 260.360 261.360 260.320 261.360 260.270 V 256.360 C 261.360 256.270 261.270 256.360 261.360 256.360 H 269.180 C 269.270 256.360 269.180 256.270 269.180 256.360 V 260.270 C 269.180 260.320 269.220 260.360 269.270 260.360 H 277.270 C 277.320 260.360 277.360 260.320 277.360 260.270 V 256.360 C 277.360 256.270 277.270 256.360 277.360 256.360 H 285.180 C 285.270 256.360 285.180 256.270 285.180 256.360 V 260.270 C 285.180 260.320 285.220 260.360 285.270 260.360 H 293.270 C 293.320 260.360 293.360 260.320 293.360 260.270 V 256.360 C 293.360 256.270 293.270 256.360 293.360 256.360 H 301.180 C 301.270 256.360 301.180 256.270 301.180 256.360 V 260.270 C 301.180 260.320 301.220 260.360 301.270 260.360 H 309.270 C 309.320 260.360 309.360 260.320 309.360 260.270 V 256.360 C 309.360 256.270 309.270 256.360 309.360 256.360 H 317.180 C 317.270 256.360 317.180 256.270 317.180 256.360 V 260.270 C 317.180 260.320 317.220 260.360 317.270 260.360 H 325.270 C 325.320 260.360 325.360 260.320 325.360 260.270 V 256.360 C 325.360 256.270 325.270 256.360 325.360 256.360 H 333.180 C 333.270 256.360 333.180 256.270 333.180 256.360 V 260.270 C 333.180 260.320 333.220 260.360 333.270 260.360 H 341.270 C 341.320 260.360 341.360 260.320 341.360 260.270 V 256.360 C 341.360 256.270 341.270 256.360 341.360 256.360 H 349.180 C 349.270 256.360 349.180 256.270 349.180 256.360 V 260.270 C 349.180 260.320 349.220 260.360 349.270 260.360 H 357.270 C 357.320 260.360 357.360 260.320 357.360 260.270 V 256.360 C 357.360 256.270 357.270 256.360 357.360 256.360 H 365.180 C 365.270 256.360 365.180 256.270 365.180 256.360 V 260.270 C 365.180 260.320 365.220 260.360 365.270 260.360 H 373.270 C 373.320 260.360 373.360 260.320 373.360 260.270 V 256.360 C 373.360 256.270 373.270 256.360 373.360 256.360 H 381.180 C 381.270 256.360 381.180 256.270 381.180 256.360 V 260.270 C 381.180 260.320 381.220 260.360 381.270 260.360 H 389.270 C 389.320 260.360 389.360 260.320 389.360 260.270 V 256.360 C 389.360 256.270 389.270 256.360 389.360 256.360 H 398.270 C 398.320 256.360 398.360 256.320 398.360 256.270 V 245.270 V 234.270 V 230.270 C 398.360 230.220 398.320 230.180 398.270 230.180 H 389.270 C 389.220 230.180 389.180 230.220 389.180 230.270 V 234.180 C 389.180 234.270 389.270 234.180 389.180 234.180 H 381.360 C 381.270 234.180 381.360 234.270 381.360 234.180 V 230.270 C 381.360 230.220 381.320 230.180 381.270 230.180 H 373.270 C 373.220 230.180 373.180 230.220 373.180 230.270 V 234.180 C 373.180 234.270 373.270 234.180 373.180 234.180 H 365.360 C 365.270 234.180 365.360 234.270 365.360 234.180 V 230.270 C 365.360 230.220 365.320 230.180 365.270 230.180 H 357.270 C 357.220 230.180 357.180 230.220 357.180 230.270 V 234.180 C 357.180 234.270 357.270 234.180 357.180 234.180 H 349.360 C 349.270 234.180 349.360 234.270 349.360 234.180 V 230.270 C 349.360 230.220 349.320 230.180 349.270 230.180 H 341.270 C 341.220 230.180 341.180 230.220 341.180 230.270 V 234.180 C 341.180 234.270 341.270 234.180 341.180 234.180 H 333.360 C 333.270 234.180 333.360 234.270 333.360 234.180 V 230.270 C 333.360 230.220 333.320 230.180 333.270 230.180 H 325.270 C 325.220 230.180 325.180 230.220 325.180 230.270 V 234.180 C 325.180 234.270 325.270 234.180 325.180 234.180 H 317.360 C 317.270 234.180 317.360 234.270 317.360 234.180 V 230.270 C 317.360 230.220 317.320 230.180 317.270 230.180 H 309.270 C 309.220 230.180 309.180 230.220 309.180 230.270 V 234.180 C 309.180 234.270 309.270 234.180 309.180 234.180 H 301.360 C 301.270 234.180 301.360 234.270 301.360 234.180 V 230.270 C 301.360 230.220 301.320 230.180 301.270 230.180 H 293.270 C 293.220 230.180 293.180 230.220 293.180 230.270 V 234.180 C 293.180 234.270 293.270 234.180 293.180 234.180 H 285.360 C 285.270 234.180 285.360 234.270 285.360 234.180 V 230.270 C 285.360 230.220 285.320 230.180 285.270 230.180 H 277.270 C 277.220 230.180 277.180 230.220 277.180 230.270 V 234.180 C 277.180 234.270 277.270 234.180 277.180 234.180 H 269.360 C 269.270 234.180 269.360 234.270 269.360 234.180 V 230.270 C 269.360 230.220 269.320 230.180 269.270 230.180 H 261.270 C 261.220 230.180 261.180 230.220 261.180 230.270 V 234.180 C 261.180 234.270 261.270 234.180 261.180 234.180 H 253.360 C 253.270 234.180 253.360 234.270 253.360 234.180 V 230.270 C 253.360 230.220 253.320 230.180 253.270 230.180 H 245.270 C 245.220 230.180 245.180 230.220 245.180 230.270 V 234.180 C 245.180 234.270 245.270 234.180 245.180 234.180 H 237.360 C 237.270 234.180 237.360 234.270 237.360 234.180 V 230.270 C 237.360 230.220 237.320 230.180 237.270 230.180 H 229.270 C 229.220 230.180 229.180 230.220 229.180 230.270 V 234.180 C 229.180 234.270 229.270 234.180 229.180 234.180 H 221.360 C 221.270 234.180 221.360 234.270 221.360 234.180 V 230.270 C 221.360 230.220 221.320 230.180 221.270 230.180 H 213.270 C 213.220 230.180 213.180 230.220 213.180 230.270 V 234.180 C 213.180 234.270 213.270 234.180 213.180 234.180 H 205.360 C 205.270 234.180 205.360 234.270 205.360 234.180 V 230.270 C 205.360 230.220 205.320 230.180 205.270 230.180 H 196.270 C 196.220 230.180 196.180 230.220 196.180 230.270 V 234.270 V 245.270 V 256.270 C 196.180 256.320 196.220 256.360 196.270 256.360 Z" stroke="rgb(0,0,0)" stroke-width="0.18"/>
</g>
<g id="p-4" style="fill:none;stroke-linecap:round;stroke-linejoin:round;">
  <path d="M 14.090 256.360 H 24.000 C 24.090 256.360 24.000 256.270 24.000 256.360 V 260.270 C 24.000 260.320 24.040 260.360 24.090 260.360 H 32.090 C 32.140 260.360 32.180 260.320 32.180 260.270 V 256.360 C 32.180 256.270 32.090 256.360 32.180 256.360 H 40.000 C 40.090 256.360 40.000 256.270 40.000 256.360 V 260.270 C 40.000 260.320 40.040 260.360 40.090 260.360 H 48.090 C 48.140 260.360 48.180 260.320 48.180 260.270 V 256.360 C 48.180 256.270 48.090 256.360 48.180 256.360 H 56.000 C 56.090 256.360 56.000 256.270 56.000 256.360 V 260.270 C 56.000 260.320 56.040 260.360 56.090 260.360 H 64.090 C 64.140 260.360 64.180 260.320 64.180 260.270 V 256.360 C 64.180 256.270 64.090 256.360 64.180 256.360 H 72.000 C 72.090 256.360 72.000 256.270 72.000 256.360 V 260.270 C 72.000 260.320 72.040 260.360 72.090 260.360 H 80.090 C 80.140 260.360 80.180 260.320 80.180 260.270 V 256.360 C 80.180 256.270 80.090 256.360 80.180 256.360 H 88.000 C 88.090 256.360 88.000 256.270 88.000 256.360 V 260.270 C 88.000 260.320 88.040 260.360 88.090 260.360 H 96.090 C 96.140 260.360 96.180 260.320 96.180 260.270 V 256.360 C 96.180 256.270 96.090 256.360 96.180 256.360 H 104.000 C 104.090 256.360 104.000 256.270 104.000 256.360 V 260.270 C 104.000 260.320 104.040 260.360 104.090 260.360 H 112.090 C 112.140 260.360 112.180 260.320 112.180 260.270 V 256.360 C 112.180 256.270 112.090 256.360 112.180 256.360 H 120.000 C 120.090 256.360 120.000 256.270 120.000 256.360 V 260.270 C 120.000 260.320 120.040 260.360 120.090 260.360 H 128.090 C 128.140 260.360 128.180 260.320 128.180 260.270 V 256.360 C 128.180 256.270 128.090 256.360 128.180 256.360 H 136.000 C 136.090 256.360 136.000 256.270 136.000 256.360 V 260.270 C 136.000 260.320 136.040 260.360 136.090 260.360 H 144.090 C 144.140 260.360 144.180 260.320 144.180 260.270 V 256.360 C 144.180 256.270 144.090 256.360 144.180 256.360 H 152.000 C 152.090 256.360 152.000 256.270 152.000 256.360 V 260.270 C 152.000 260.320 152.040 260.360 152.090 260.360 H 160.090 C 160.140 260.360 160.180 260.320 160.180 260.270 V 256.360 C 160.180 256.270 160.090 256.360 160.180 256.360 H 168.000 C 168.090 256.360 168.000 256.270 168.000 256.360 V 260.270 C 168.000 260.320 168.040 260.360 168.090 260.360 H 176.090 C 176.140 260.360 176.180 260.320 176.180 260.270 V 256.360 C 176.180 256.270 176.090 256.360 176.180 256.360 H 186.090 H 190.090 C 190.140 256.360 190.180 256.320 190.180 256.270 V 245.270 V 234.270 V 230.270 C 190.180 230.220 190.140 230.180 190.090 230.180 H 186.090 H 176.090 C 176.040 230.180 176.000 230.220 176.000 230.270 V 234.180 C 176.000 234.270 176.090 234.180 176.000 234.180 H 168.180 C 168.090 234.180 168.180 234.270 168.180 234.180 V 230.270 C 168.180 230.220 168.140 230.180 168.090 230.180 H 160.090 C 160.040 230.180 160.000 230.220 160.000 230.270 V 234.180 C 160.000 234.270 160.090 234.180 160.000 234.180 H 152.180 C 152.090 234.180 152.180 234.270 152.180 234.180 V 230.270 C 152.180 230.220 152.140 230.180 152.090 230.180 H 144.090 C 144.040 230.180 144.000 230.220 144.000 230.270 V 234.180 C 144.000 234.270 144.090 234.180 144.000 234.180 H 136.180 C 136.090 234.180 136.180 234.270 136.180 234.180 V 230.270 C 136.180 230.220 136.140 230.180 136.090 230.180 H 128.090 C 128.040 230.180 128.000 230.220 128.000 230.270 V 234.180 C 128.000 234.270 128.090 234.180 128.000 234.180 H 120.180 C 120.090 234.180 120.180 234.270 120.180 234.180 V 230.270 C 120.180 230.220 120.140 230.180 120.090 230.180 H 112.090 C 112.040 230.180 112.000 230.220 112.000 230.270 V 234.180 C 112.000 234.270 112.090 234.180 112.000 234.180 H 104.180 C 104.090 234.180 104.180 234.270 104.180 234.180 V 230.270 C 104.180 230.220 104.140 230.180 104.090 230.180 H 96.090 C 96.040 230.180 96.000 230.220 96.000 230.270 V 234.180 C 96.000 234.270 96.090 234.180 96.000 234.180 H 88.180 C 88.090 234.180 88.180 234.270 88.180 234.180 V 230.270 C 88.180 230.220 88.140 230.180 88.090 230.180 H 80.090 C 80.040 230.180 80.000 230.220 80.000 230.270 V 234.180 C 80.000 234.270 80.090 234.180 80.000 234.180 H 72.180 C 72.090 234.180 72.180 234.270 72.180 234.180 V 230.270 C 72.180 230.220 72.140 230.180 72.090 230.180 H 64.090 C 64.040 230.180 64.000 230.220 64.000 230.270 V 234.180 C 64.000 234.270 64.090 234.180 64.000 234.180 H 56.180 C 56.090 234.180 56.180 234.270 56.180 234.180 V 230.270 C 56.180 230.220 56.140 230.180 56.090 230.180 H 48.090 C 48.040 230.180 48.000 230.220 48.000 230.270 V 234.180 C 48.000 234.270 48.090 234.180 48.000 234.180 H 40.180 C 40.090 234.180 40.180 234.270 40.180 234.180 V 230.270 C 40.180 230.220 40.140 230.180 40.090 230.180 H 32.090 C 32.040 230.180 32.000 230.220 32.000 230.270 V 234.180 C 32.000 234.270 32.090 234.180 32.000 234.180 H 24.180 C 24.090 234.180 24.180 234.270 24.180 234.180 V 230.270 C 24.180 230.220 24.140 230.180 24.090 230.180 H 14.090 H 10.090 C 10.040 230.180 10.000 230.220 10.000 230.270 V 234.270 V 245.270 V 256.270 C 10.000 256.320 10.040 256.360 10.090 256.360 H 14.090 Z" stroke="rgb(0,0,0)" stroke-width="0.18"/>
</g>
<g id="p-5" style="fill:none;stroke-linecap:round;stroke-linejoin:round;">
  <path d="M 14.090 224.180 H 24.000 C 24.090 224.180 24.000 224.090 24.000 224.180 V 228.090 C 24.000 228.140 24.040 228.180 24.090 228.180 H 32.090 C 32.140 228.180 32.180 228.140 32.180 228.090 V 224.180 C 32.180 224.090 32.090 224.180 32.180 224.180 H 40.000 C 40.090 224.180 40.000 224.090 40.000 224.180 V 228.090 C 40.000 228.140 40.040 228.180 40.090 228.180 H 48.090 C 48.140 228.180 48.180 228.140 48.180 228.090 V 224.180 C 48.180 224.090 48.090 224.180 48.180 224.180 H 56.000 C 56.090 224.180 56.000 224.090 56.000 224.180 V 228.090 C 56.000 228.140 56.040 228.180 56.090 228.180 H 64.090 C 64.140 228.180 64.180 228.140 64.180 228.090 V 224.180 C 64.180 224.090 64.090 224.180 64.180 224.180 H 72.000 C 72.090 224.180 72.000 224.090 72.000 224.180 V 228.090 C 72.000 228.140 72.040 228.180 72.090 228.180 H 80.090 C 80.140 228.180 80.180 228.140 80.180 228.090 V 224.180 C 80.180 224.090 80.090 224.180 80.180 224.180 H 88.000 C 88.090 224.180 88.000 224.090 88.000 224.180 V 228.090 C 88.000 228.140 88.040 228.180 88.090 228.180 H 96.090 C 96.140 228.180 96.180 228.140 96.180 228.090 V 224.180 C 96.180 224.090 96.090 224.180 96.180 224.180 H 104.000 C 104.090 224.180 104.000 224.090 104.000 224.180 V 228.090 C 104.000 228.140 104.040 228.180 104.090 228.180 H 112.090 C 112.140 228.180 112.180 228.140 112.180 228.090 V 224.180 C 112.180 224.090 112.090 224.180 112.180 224.180 H 120.000 C 120.090 224.180 120.000 224.090 120.000 224.180 V 228.090 C 120.000 228.140 120.040 228.180 120.090 228.180 H 128.090 C 128.140 228.180 128.180 228.140 128.180 228.090 V 224.180 C 128.180 224.090 128.090 224.180 128.180 224.180 H 136.000 C 136.090 224.180 136.000 224.090 136.000 224.180 V 228.090 C 136.000 228.140 136.040 228.180 136.090 228.180 H 144.090 C 144.140 228.180 144.180 228.140 144.180 228.090 V 224.180 C 144.180 224.090 144.090 224.180 144.180 224.180 H 152.000 C 152.090 224.180 152.000 224.090 152.000 224.180 V 228.090 C 152.000 228.140 152.040 228.180 152.090 228.180 H 160.090 C 160.140 228.180 160.180 228.140 160.180 228.090 V 224.180 C 160.180 224.090 160.090 224.180 160.180 224.180 H 168.000 C 168.090 224.180 168.000 224.090 168.000 224.180 V 228.090 C 168.000 228.140 168.040 228.180 168.090 228.180 H 176.090 C 176.140 228.180 176.180 228.140 176.180 228.090 V 224.180 C 176.180 224.090 176.090 224.180 176.180 224.180 H 186.090 C 186.140 224.180 186.180 224.140 186.180 224.090 V 215.180 C 186.180 215.090 186.090 215.180 186.180 215.180 H 190.090 C 190.140 215.180 190.180 215.140 190.180 215.090 V 207.090 C 190.180 207.040 190.140 207.000 190.090 207.000 H 186.180 C 186.090 207.000 186.180 207.090 186.180 207.000 V 199.180 C 186.180 199.090 186.090 199.180 186.180 199.180 H 190.090 C 190.140 199.180 190.180 199.140 190.180 199.090 V 191.090 C 190.180 191.040 190.140 191.000 190.090 191.000 H 186.180 C 186.090 191.000 186.180 191.090 186.180 191.000 V 183.180 C 186.180 183.090 186.090 183.180 186.180 183.180 H 190.090 C 190.140 183.180 190.180 183.140 190.180 183.090 V 175.090 C 190.180 175.040 190.140 175.000 190.090 175.000 H 186.180 C 186.090 175.000 186.180 175.090 186.180 175.000 V 167.180 C 186.180 167.090 186.090 167.180 186.180 167.180 H 190.090 C 190.140 167.180 190.180 167.140 190.180 167.090 V 159.090 C 190.180 159.040 190.140 159.000 190.090 159.000 H 186.180 C 186.090 159.000 186.180 159.090 186.180 159.000 V 151.180 C 186.180 151.090 186.090 151.180 186.180 151.180 H 190.090 C 190.140 151.180 190.180 151.140 190.180 151.090 V 143.090 C 190.180 143.040 190.140 143.000 190.090 143.000 H 186.180 C 186.090 143.000 186.180 143.090 186.180 143.000 V 135.180 C 186.180 135.090 186.090 135.180 186.180 135.180 H 190.090 C 190.140 135.180 190.180 135.140 190.180 135.090 V 127.090 C 190.180 127.040 190.140 127.000 190.090 127.000 H 186.180 C 186.090 127.000 186.180 127.090 186.180 127.000 V 119.180 C 186.180 119.090 186.090 119.180 186.180 119.180 H 190.090 C 190.140 119.180 190.180 119.140 190.180 119.090 V 111.090 C 190.180 111.040 190.140 111.000 190.090 111.000 H 186.180 C 186.090 111.000 186.180 111.090 186.180 111.000 V 103.180 C 186.180 103.090 186.090 103.180 186.180 103.180 H 190.090 C 190.140 103.180 190.180 103.140 190.180 103.090 V 95.090 C 190.180 95.040 190.140 95.000 190.090 95.000 H 186.180 C 186.090 95.000 186.180 95.090 186.180 95.000 V 87.180 C 186.180 87.090 186.090 87.180 186.180 87.180 H 190.090 C 190.140 87.180 190.180 87.140 190.180 87.090 V 79.090 C 190.180 79.040 190.140 79.000 190.090 79.000 H 186.180 C 186.090 79.000 186.180 79.090 186.180 79.000 V 71.180 C 186.180 71.090 186.090 71.180 186.180 71.180 H 190.090 C 190.140 71.180 190.180 71.140 190.180 71.090 V 63.090 C 190.180 63.040 190.140 63.000 190.090 63.000 H 186.180 C 186.090 63.000 186.180 63.090 186.180 63.000 V 55.180 C 186.180 55.090 186.090 55.180 186.180 55.180 H 190.090 C 190.140 55.180 190.180 55.140 190.180 55.090 V 47.090 C 190.180 47.040 190.140 47.000 190.090 47.000 H 186.180 C 186.090 47.000 186.180 47.090 186.180 47.000 V 39.180 C 186.180 39.090 186.090 39.180 186.180 39.180 H 190.090 C 190.140 39.180 190.180 39.140 190.180 39.090 V 31.090 C 190.180 31.040 190.140 31.000 190.090 31.000 H 186.180 C 186.090 31.000 186.180 31.090 186.180 31.000 V 22.090 C 186.180 22.040 186.140 22.000 186.090 22.000 H 176.180 C 176.090 22.000 176.180 22.090 176.180 22.000 V 18.090 C 176.180 18.040 176.140 18.000 176.090 18.000 H 168.090 C 168.040 18.000 168.000 18.040 168.000 18.090 V 22.000 C 168.000 22.090 168.090 22.000 168.000 22.000 H 160.180 C 160.090 22.000 160.180 22.090 160.180 22.000 V 18.090 C 160.180 18.040 160.140 18.000 160.090 18.000 H 152.090 C 152.040 18.000 152.000 18.040 152.000 18.090 V 22.000 C 152.000 22.090 152.090 22.000 152.000 22.000 H 144.180 C 144.090 22.000 144.180 22.090 144.180 22.000 V 18.090 C 144.180 18.040 144.140 18.000 144.090 18.000 H 136.090 C 136.040 18.000 136.000 18.040 136.000 18.090 V 22.000 C 136.000 22.090 136.090 22.000 136.000 22.000 H 128.180 C 128.090 22.000 128.180 22.090 128.180 22.000 V 18.090 C 128.180 18.040 128.140 18.000 128.090 18.000 H 120.090 C 120.040 18.000 120.000 18.040 120.000 18.090 V 22.000 C 120.000 22.090 120.090 22.000 120.000 22.000 H 112.180 C 112.090 22.000 112.180 22.090 112.180 22.000 V 18.090 C 112.180 18.040 112.140 18.000 112.090 18.000 H 104.090 C 104.040 18.000 104.000 18.040 104.000 18.090 V 22.000 C 104.000 22.090 104.090 22.000 104.000 22.000 H 96.180 C 96.090 22.000 96.180 22.090 96.180 22.000 V 18.090 C 96.180 18.040 96.140 18.000 96.090 18.000 H 88.090 C 88.040 18.000 88.000 18.040 88.000 18.090 V 22.000 C 88.000 22.090 88.090 22.000 88.000 22.000 H 80.180 C 80.090 22.000 80.180 22.090 80.180 22.000 V 18.090 C 80.180 18.040 80.140 18.000 80.090 18.000 H 72.090 C 72.040 18.000 72.000 18.040 72.000 18.090 V 22.000 C 72.000 22.090 72.090 22.000 72.000 22.000 H 64.180 C 64.090 22.000 64.180 22.090 64.180 22.000 V 18.090 C 64.180 18.040 64.140 18.000 64.090 18.000 H 56.090 C 56.040 18.000 56.000 18.040 56.000 18.090 V 22.000 C 56.000 22.090 56.090 22.000 56.000 22.000 H 48.180 C 48.090 22.000 48.180 22.090 48.180 22.000 V 18.090 C 48.180 18.040 48.140 18.000 48.090 18.000 H 40.090 C 40.040 18.000 40.000 18.040 40.000 18.090 V 22.000 C 40.000 22.090 40.090 22.000 40.000 22.000 H 32.180 C 32.090 22.000 32.180 22.090 32.180 22.000 V 18.090 C 32.180 18.040 32.140 18.000 32.090 18.000 H 24.090 C 24.040 18.000 24.000 18.040 24.000 18.090 V 22.000 C 24.000 22.090 24.090 22.000 24.000 22.000 H 14.090 C 14.040 22.000 14.000 22.040 14.000 22.090 V 31.000 C 14.000 31.090 14.090 31.000 14.000 31.000 H 10.090 C 10.040 31.000 10.000 31.040 10.000 31.090 V 39.090 C 10.000 39.140 10.040 39.180 10.090 39.180 H 14.000 C 14.090 39.180 14.000 39.090 14.000 39.180 V 47.000 C 14.000 47.090 14.090 47.000 14.000 47.000 H 10.090 C 10.040 47.000 10.000 47.040 10.000 47.090 V 55.090 C 10.000 55.140 10.040 55.180 10.090 55.180 H 14.000 C 14.090 55.180 14.000 55.090 14.000 55.180 V 63.000 C 14.000 63.090 14.090 63.000 14.000 63.000 H 10.090 C 10.040 63.000 10.000 63.040 10.000 63.090 V 71.090 C 10.000 71.140 10.040 71.180 10.090 71.180 H 14.000 C 14.090 71.180 14.000 71.090 14.000 71.180 V 79.000 C 14.000 79.090 14.090 79.000 14.000 79.000 H 10.090 C 10.040 79.000 10.000 79.040 10.000 79.090 V 87.090 C 10.000 87.140 10.040 87.180 10.090 87.180 H 14.000 C 14.090 87.180 14.000 87.090 14.000 87.180 V 95.000 C 14.000 95.090 14.090 95.000 14.000 95.000 H 10.090 C 10.040 95.000 10.000 95.040 10.000 95.090 V 103.090 C 10.000 103.140 10.040 103.180 10.090 103.180 H 14.000 C 14.090 103.180 14.000 103.090 14.000 103.180 V 111.000 C 14.000 111.090 14.090 111.000 14.000 111.000 H 10.090 C 10.040 111.000 10.000 111.040 10.000 111.090 V 119.090 C 10.000 119.140 10.040 119.180 10.090 119.180 H 14.000 C 14.090 119.180 14.000 119.090 14.000 119.180 V 127.000 C 14.000 127.090 14.090 127.000 14.000 127.000 H 10.090 C 10.040 127.000 10.000 127.040 10.000 127.090 V 135.090 C 10.000 135.140 10.040 135.180 10.090 135.180 H 14.000 C 14.090 135.180 14.000 135.090 14.000 135.180 V 143.000 C 14.000 143.090 14.090 143.000 14.000 143.000 H 10.090 C 10.040 143.000 10.000 143.040 10.000 143.090 V 151.090 C 10.000 151.140 10.040 151.180 10.090 151.180 H 14.000 C 14.090 151.180 14.000 151.090 14.000 151.180 V 159.000 C 14.000 159.090 14.090 159.000 14.000 159.000 H 10.090 C 10.040 159.000 10.000 159.040 10.000 159.090 V 167.090 C 10.000 167.140 10.040 167.180 10.090 167.180 H 14.000 C 14.090 167.180 14.000 167.090 14.000 167.180 V 175.000 C 14.000 175.090 14.090 175.000 14.000 175.000 H 10.090 C 10.040 175.000 10.000 175.040 10.000 175.090 V 183.090 C 10.000 183.140 10.040 183.180 10.090 183.180 H 14.000 C 14.090 183.180 14.000 183.090 14.000 183.180 V 191.000 C 14.000 191.090 14.090 191.000 14.000 191.000 H 10.090 C 10.040 191.000 10.000 191.040 10.000 191.090 V 199.090 C 10.000 199.140 10.040 199.180 10.090 199.180 H 14.000 C 14.090 199.180 14.000 199.090 14.000 199.180 V 207.000 C 14.000 207.090 14.090 207.000 14.000 207.000 H 10.090 C 10.040 207.000 10.000 207.040 10.000 207.090 V 215.090 C 10.000 215.140 10.040 215.180 10.090 215.180 H 14.000 C 14.090 215.180 14.000 215.090 14.000 215.180 V 224.090 C 14.000 224.140 14.040 224.180 14.090 224.180 Z" stroke="rgb(0,0,0)" stroke-width="0.18"/>
</g>
<g id="p-6" style="fill:none;stroke-linecap:round;stroke-linejoin:round;">
  <path d="M 214.270 224.000 H 210.360 C 210.270 224.000 210.360 224.090 210.360 224.000 V 220.180 C 210.360 220.090 210.270 220.180 210.360 220.180 H 218.180 C 218.270 220.180 218.180 220.090 218.180 220.180 V 224.000 C 218.180 224.090 218.270 224.000 218.180 224.000 H 214.270 Z" stroke="rgb(0,0,255)" stroke-width="0.18"/>
  <path d="M 230.270 224.000 H 226.360 C 226.270 224.000 226.360 224.090 226.360 224.000 V 220.180 C 226.360 220.090 226.270 220.180 226.360 220.180 H 234.180 C 234.270 220.180 234.180 220.090 234.180 220.180 V 224.000 C 234.180 224.090 234.270 224.000 234.180 224.000 H 230.270 Z" stroke="rgb(0,0,255)" stroke-width="0.18"/>
  <path d="M 246.270 224.000 H 242.360 C 242.270 224.000 242.360 224.090 242.360 224.000 V 220.180 C 242.360 220.090 242.270 220.180 242.360 220.180 H 250.180 C 250.270 220.180 250.180 220.090 250.180 220.180 V 224.000 C 250.180 224.090 250.270 224.000 250.180 224.000 H 246.270 Z" stroke="rgb(0,0,255)" stroke-width="0.18"/>
  <path d="M 262.270 224.000 H 258.360 C 258.270 224.000 258.360 224.090 258.360 224.000 V 220.180 C 258.360 220.090 258.270 220.180 258.360 220.180 H 266.180 C 266.270 220.180 266.180 220.090 266.180 220.180 V 224.000 C 266.180 224.090 266.270 224.000 266.180 224.000 H 262.270 Z" stroke="rgb(0,0,255)" stroke-width="0.18"/>
  <path d="M 278.270 224.000 H 274.360 C 274.270 224.000 274.360 224.090 274.360 224.000 V 220.180 C 274.360 220.090 274.270 220.180 274.360 220.180 H 282.180 C 282.270 220.180 282.180 220.090 282.180 220.180 V 224.000 C 282.180 224.090 282.270 224.000 282.180 224.000 H 278.270 Z" stroke="rgb(0,0,255)" stroke-width="0.18"/>
  <path d="M 294.270 224.000 H 290.360 C 290.270 224.000 290.360 224.090 290.360 224.000 V 220.180 C 290.360 220.090 290.270 220.180 290.360 220.180 H 298.180 C 298.270 220.180 298.180 220.090 298.180 220.180 V 224.000 C 298.180 224.090 298.270 224.000 298.180 224.000 H 294.270 Z" stroke="rgb(0,0,255)" stroke-width="0.18"/>
  <path d="M 310.270 224.000 H 306.360 C 306.270 224.000 306.360 224.090 306.360 224.000 V 220.180 C 306.360 220.090 306.270 220.180 306.360 220.180 H 314.180 C 314.270 220.180 314.180 220.090 314.180 220.180 V 224.000 C 314.180 224.090 314.270 224.000 314.180 224.000 H 310.270 Z" stroke="rgb(0,0,255)" stroke-width="0.18"/>
  <path d="M 326.270 224.000 H 322.360 C 322.270 224.000 322.360 224.090 322.360 224.000 V 220.180 C 322.360 220.090 322.270 220.180 322.360 220.180 H 330.180 C 330.270 220.180 330.180 220.090 330.180 220.180 V 224.000 C 330.180 224.090 330.270 224.000 330.180 224.000 H 326.270 Z" stroke="rgb(0,0,255)" stroke-width="0.18"/>
  <path d="M 342.270 224.000 H 338.360 C 338.270 224.000 338.360 224.090 338.360 224.000 V 220.180 C 338.360 220.090 338.270 220.180 338.360 220.180 H 346.180 C 346.270 220.180 346.180 220.090 346.180 220.180 V 224.000 C 346.180 224.090 346.270 224.000 346.180 224.000 H 342.270 Z" stroke="rgb(0,0,255)" stroke-width="0.18"/>
  <path d="M 358.270 224.000 H 354.360 C 354.270 224.000 354.360 224.090 354.360 224.000 V 220.180 C 354.360 220.090 354.270 220.180 354.360 220.180 H 362.180 C 362.270 220.180 362.180 220.090 362.180 220.180 V 224.000 C 362.180 224.090 362.270 224.000 362.180 224.000 H 358.270 Z" stroke="rgb(0,0,255)" stroke-width="0.18"/>
  <path d="M 200.270 228.180 H 372.270 H 380.270 C 380.320 228.180 380.360 228.140 380.360 228.090 V 220.090 V 18.090 V 10.090 C 380.360 10.040 380.320 10.000 380.270 10.000 H 372.270 H 200.270 H 192.270 C 192.220 10.000 192.180 10.040 192.180 10.090 V 18.090 V 220.090 V 228.090 C 192.180 228.140 192.220 228.180 192.270 228.180 H 200.270 Z" stroke="rgb(0,0,0)" stroke-width="0.18"/>
  <path d="M 376.180 207.090 V 211.000 C 376.180 211.090 376.270 211.000 376.180 211.000 H 372.360 C 372.270 211.000 372.360 211.090 372.360 211.000 V 203.180 C 372.360 203.090 372.270 203.180 372.360 203.180 H 376.180 C 376.270 203.180 376.180 203.090 376.180 203.180 V 207.090 Z" stroke="rgb(0,0,255)" stroke-width="0.18"/>
  <path d="M 376.180 191.090 V 195.000 C 376.180 195.090 376.270 195.000 376.180 195.000 H 372.360 C 372.270 195.000 372.360 195.090 372.360 195.000 V 187.180 C 372.360 187.090 372.270 187.180 372.360 187.180 H 376.180 C 376.270 187.180 376.180 187.090 376.180 187.180 V 191.090 Z" stroke="rgb(0,0,255)" stroke-width="0.18"/>
  <path d="M 376.180 175.090 V 179.000 C 376.180 179.090 376.270 179.000 376.180 179.000 H 372.360 C 372.270 179.000 372.360 179.090 372.360 179.000 V 171.180 C 372.360 171.090 372.270 171.180 372.360 171.180 H 376.180 C 376.270 171.180 376.180 171.090 376.180 171.180 V 175.090 Z" stroke="rgb(0,0,255)" stroke-width="0.18"/>
  <path d="M 376.180 159.090 V 163.000 C 376.180 163.090 376.270 163.000 376.180 163.000 H 372.360 C 372.270 163.000 372.360 163.090 372.360 163.000 V 155.180 C 372.360 155.090 372.270 155.180 372.360 155.180 H 376.180 C 376.270 155.180 376.180 155.090 376.180 155.180 V 159.090 Z" stroke="rgb(0,0,255)" stroke-width="0.18"/>
  <path d="M 376.180 143.090 V 147.000 C 376.180 147.090 376.270 147.000 376.180 147.000 H 372.360 C 372.270 147.000 372.360 147.090 372.360 147.000 V 139.180 C 372.360 139.090 372.270 139.180 372.360 139.180 H 376.180 C 376.270 139.180 376.180 139.090 376.180 139.180 V 143.090 Z" stroke="rgb(0,0,255)" stroke-width="0.18"/>
  <path d="M 376.180 127.090 V 131.000 C 376.180 131.090 376.270 131.000 376.180 131.000 H 372.360 C 372.270 131.000 372.360 131.090 372.360 131.000 V 123.180 C 372.360 123.090 372.270 123.180 372.360 123.180 H 376.180 C 376.270 123.180 376.180 123.090 376.180 123.180 V 127.090 Z" stroke="rgb(0,0,255)" stroke-width="0.18"/>
  <path d="M 376.180 111.090 V 115.000 C 376.180 115.090 376.270 115.000 376.180 115.000 H 372.360 C 372.270 115.000 372.360 115.090 372.360 115.000 V 107.180 C 372.360 107.090 372.270 107.180 372.360 107.180 H 376.180 C 376.270 107.180 376.180 107.090 376.180 107.180 V 111.090 Z" stroke="rgb(0,0,255)" stroke-width="0.18"/>
  <path d="M 376.180 95.090 V 99.000 C 376.180 99.090 376.270 99.000 376.180 99.000 H 372.360 C 372.270 99.000 372.360 99.090 372.360 99.000 V 91.180 C 372.360 91.090 372.270 91.180 372.360 91.180 H 376.180 C 376.270 91.180 376.180 91.090 376.180 91.180 V 95.090 Z" stroke="rgb(0,0,255)" stroke-width="0.18"/>
  <path d="M 376.180 79.090 V 83.000 C 376.180 83.090 376.270 83.000 376.180 83.000 H 372.360 C 372.270 83.000 372.360 83.090 372.360 83.000 V 75.180 C 372.360 75.090 372.270 75.180 372.360 75.180 H 376.180 C 376.270 75.180 376.180 75.090 376.180 75.180 V 79.090 Z" stroke="rgb(0,0,255)" stroke-width="0.18"/>
  <path d="M 376.180 63.090 V 67.000 C 376.180 67.090 376.270 67.000 376.180 67.000 H 372.360 C 372.270 67.000 372.360 67.090 372.360 67.000 V 59.180 C 372.360 59.090 372.270 59.180 372.360 59.180 H 376.180 C 376.270 59.180 376.180 59.090 376.180 59.180 V 63.090 Z" stroke="rgb(0,0,255)" stroke-width="0.18"/>
  <path d="M 376.180 47.090 V 51.000 C 376.180 51.090 376.270 51.000 376.180 51.000 H 372.360 C 372.270 51.000 372.360 51.090 372.360 51.000 V 43.180 C 372.360 43.090 372.270 43.180 372.360 43.180 H 376.180 C 376.270 43.180 376.180 43.090 376.180 43.180 V 47.090 Z" stroke="rgb(0,0,255)" stroke-width="0.18"/>
  <path d="M 376.180 31.090 V 35.000 C 376.180 35.090 376.270 35.000 376.180 35.000 H 372.360 C 372.270 35.000 372.360 35.090 372.360 35.000 V 27.180 C 372.360 27.090 372.270 27.180 372.360 27.180 H 376.180 C 376.270 27.180 376.180 27.090 376.180 27.180 V 31.090 Z" stroke="rgb(0,0,255)" stroke-width="0.18"/>
  <path d="M 358.270 14.180 H 362.180 C 362.270 14.180 362.180 14.090 362.180 14.180 V 18.000 C 362.180 18.090 362.270 18.000 362.180 18.000 H 354.360 C 354.270 18.000 354.360 18.090 354.360 18.000 V 14.180 C 354.360 14.090 354.270 14.180 354.360 14.180 H 358.270 Z" stroke="rgb(0,0,255)" stroke-width="0.18"/>
  <path d="M 342.270 14.180 H 346.180 C 346.270 14.180 346.180 14.090 346.180 14.180 V 18.000 C 346.180 18.090 346.270 18.000 346.180 18.000 H 338.360 C 338.270 18.000 338.360 18.090 338.360 18.000 V 14.180 C 338.360 14.090 338.270 14.180 338.360 14.180 H 342.270 Z" stroke="rgb(0,0,255)" stroke-width="0.18"/>
  <path d="M 326.270 14.180 H 330.180 C 330.270 14.180 330.180 14.090 330.180 14.180 V 18.000 C 330.180 18.090 330.270 18.000 330.180 18.000 H 322.360 C 322.270 18.000 322.360 18.090 322.360 18.000 V 14.180 C 322.360 14.090 322.270 14.180 322.360 14.180 H 326.270 Z" stroke="rgb(0,0,255)" stroke-width="0.18"/>
  <path d="M 310.270 14.180 H 314.180 C 314.270 14.180 314.180 14.090 314.180 14.180 V 18.000 C 314.180 18.090 314.270 18.000 314.180 18.000 H 306.360 C 306.270 18.000 306.360 18.090 306.360 18.000 V 14.180 C 306.360 14.090 306.270 14.180 306.360 14.180 H 310.270 Z" stroke="rgb(0,0,255)" stroke-width="0.18"/>
  <path d="M 294.270 14.180 H 298.180 C 298.270 14.180 298.180 14.090 298.180 14.180 V 18.000 C 298.180 18.090 298.270 18.000 298.180 18.000 H 290.360 C 290.270 18.000 290.360 18.090 290.360 18.000 V 14.180 C 290.360 14.090 290.270 14.180 290.360 14.180 H 294.270 Z" stroke="rgb(0,0,255)" stroke-width="0.18"/>
  <path d="M 278.270 14.180 H 282.180 C 282.270 14.180 282.180 14.090 282.180 14.180 V 18.000 C 282.180 18.090 282.270 18.000 282.180 18.000 H 274.360 C 274.270 18.000 274.360 18.090 274.360 18.000 V 14.180 C 274.360 14.090 274.270 14.180 274.360 14.180 H 278.270 Z" stroke="rgb(0,0,255)" stroke-width="0.18"/>
  <path d="M 262.270 14.180 H 266.180 C 266.270 14.180 266.180 14.090 266.180 14.180 V 18.000 C 266.180 18.090 266.270 18.000 266.180 18.000 H 258.360 C 258.270 18.000 258.360 18.090 258.360 18.000 V 14.180 C 258.360 14.090 258.270 14.180 258.360 14.180 H 262.270 Z" stroke="rgb(0,0,255)" stroke-width="0.18"/>
  <path d="M 246.270 14.180 H 250.180 C 250.270 14.180 250.180 14.090 250.180 14.180 V 18.000 C 250.180 18.090 250.270 18.000 250.180 18.000 H 242.360 C 242.270 18.000 242.360 18.090 242.360 18.000 V 14.180 C 242.360 14.090 242.270 14.180 242.360 14.180 H 246.270 Z" stroke="rgb(0,0,255)" stroke-width="0.18"/>
  <path d="M 230.270 14.180 H 234.180 C 234.270 14.180 234.180 14.090 234.180 14.180 V 18.000 C 234.180 18.090 234.270 18.000 234.180 18.000 H 226.360 C 226.270 18.000 226.360 18.090 226.360 18.000 V 14.180 C 226.360 14.090 226.270 14.180 226.360 14.180 H 230.270 Z" stroke="rgb(0,0,255)" stroke-width="0.18"/>
  <path d="M 214.270 14.180 H 218.180 C 218.270 14.180 218.180 14.090 218.180 14.180 V 18.000 C 218.180 18.090 218.270 18.000 218.180 18.000 H 210.360 C 210.270 18.000 210.360 18.090 210.360 18.000 V 14.180 C 210.360 14.090 210.270 14.180 210.360 14.180 H 214.270 Z" stroke="rgb(0,0,255)" stroke-width="0.18"/>
  <path d="M 196.360 31.090 V 27.180 C 196.360 27.090 196.270 27.180 196.360 27.180 H 200.180 C 200.270 27.180 200.180 27.090 200.180 27.180 V 35.000 C 200.180 35.090 200.270 35.000 200.180 35.000 H 196.360 C 196.270 35.000 196.360 35.090 196.360 35.000 V 31.090 Z" stroke="rgb(0,0,255)" stroke-width="0.18"/>
  <path d="M 196.360 47.090 V 43.180 C 196.360 43.090 196.270 43.180 196.360 43.180 H 200.180 C 200.270 43.180 200.180 43.090 200.180 43.180 V 51.000 C 200.180 51.090 200.270 51.000 200.180 51.000 H 196.360 C 196.270 51.000 196.360 51.090 196.360 51.000 V 47.090 Z" stroke="rgb(0,0,255)" stroke-width="0.18"/>
  <path d="M 196.360 63.090 V 59.180 C 196.360 59.090 196.270 59.180 196.360 59.180 H 200.180 C 200.270 59.180 200.180 59.090 200.180 59.180 V 67.000 C 200.180 67.090 200.270 67.000 200.180 67.000 H 196.360 C 196.270 67.000 196.360 67.090 196.360 67.000 V 63.090 Z" stroke="rgb(0,0,255)" stroke-width="0.18"/>
  <path d="M 196.360 79.090 V 75.180 C 196.360 75.090 196.270 75.180 196.360 75.180 H 200.180 C 200.270 75.180 200.180 75.090 200.180 75.180 V 83.000 C 200.180 83.090 200.270 83.000 200.180 83.000 H 196.360 C 196.270 83.000 196.360 83.090 196.360 83.000 V 79.090 Z" stroke="rgb(0,0,255)" stroke-width="0.18"/>
  <path d="M 196.360 95.090 V 91.180 C 196.360 91.090 196.270 91.180 196.360 91.180 H 200.180 C 200.270 91.180 200.180 91.090 200.180 91.180 V 99.000 C 200.180 99.090 200.270 99.000 200.180 99.000 H 196.360 C 196.270 99.000 196.360 99.090 196.360 99.000 V 95.090 Z" stroke="rgb(0,0,255)" stroke-width="0.18"/>
  <path d="M 196.360 111.090 V 107.180 C 196.360 107.090 196.270 107.180 196.360 107.180 H 200.180 C 200.270 107.180 200.180 107.090 200.180 107.180 V 115.000 C 200.180 115.090 200.270 115.000 200.180 115.000 H 196.360 C 196.270 115.000 196.360 115.090 196.360 115.000 V 111.090 Z" stroke="rgb(0,0,255)" stroke-width="0.18"/>
  <path d="M 196.360 127.090 V 123.180 C 196.360 123.090 196.270 123.180 196.360 123.180 H 200.180 C 200.270 123.180 200.180 123.090 200.180 123.180 V 131.000 C 200.180 131.090 200.270 131.000 200.180 131.000 H 196.360 C 196.270 131.000 196.360 131.090 196.360 131.000 V 127.090 Z" stroke="rgb(0,0,255)" stroke-width="0.18"/>
  <path d="M 196.360 143.090 V 139.180 C 196.360 139.090 196.270 139.180 196.360 139.180 H 200.180 C 200.270 139.180 200.180 139.090 200.180 139.180 V 147.000 C 200.180 147.090 200.270 147.000 200.180 147.000 H 196.360 C 196.270 147.000 196.360 147.090 196.360 147.000 V 143.090 Z" stroke="rgb(0,0,255)" stroke-width="0.18"/>
  <path d="M 196.360 159.090 V 155.180 C 196.360 155.090 196.270 155.180 196.360 155.180 H 200.180 C 200.270 155.180 200.180 155.090 200.180 155.180 V 163.000 C 200.180 163.090 200.270 163.000 200.180 163.000 H 196.360 C 196.270 163.000 196.360 163.090 196.360 163.000 V 159.090 Z" stroke="rgb(0,0,255)" stroke-width="0.18"/>
  <path d="M 196.360 175.090 V 171.180 C 196.360 171.090 196.270 171.180 196.360 171.180 H 200.180 C 200.270 171.180 200.180 171.090 200.180 171.180 V 179.000 C 200.180 179.090 200.270 179.000 200.180 179.000 H 196.360 C 196.270 179.000 196.360 179.090 196.360 179.000 V 175.090 Z" stroke="rgb(0,0,255)" stroke-width="0.18"/>
  <path d="M 196.360 191.090 V 187.180 C 196.360 187.090 196.270 187.180 196.360 187.180 H 200.180 C 200.270 187.180 200.180 187.090 200.180 187.180 V 195.000 C 200.180 195.090 200.270 195.000 200.180 195.000 H 196.360 C 196.270 195.000 196.360 195.090 196.360 195.000 V 191.090 Z" stroke="rgb(0,0,255)" stroke-width="0.18"/>
  <path d="M 196.360 207.090 V 203.180 C 196.360 203.090 196.270 203.180 196.360 203.180 H 200.180 C 200.270 203.180 200.180 203.090 200.180 203.180 V 211.000 C 200.180 211.090 200.270 211.000 200.180 211.000 H 196.360 C 196.270 211.000 196.360 211.090 196.360 211.000 V 207.090 Z" stroke="rgb(0,0,255)" stroke-width="0.18"/>
</g>
</svg>