<?xml version="1.0" encoding="UTF-8"?>
<svg height="336.72mm" viewBox="0.0 0.0 433.36 336.72" width="433.36mm" xmlns="http://www.w3.org/2000/svg" xmlns:cc="http://creativecommons.org/ns#" xmlns:dc="http://purl.org/dc/elements/1.1/" xmlns:inkscape="http://www.inkscape.org/namespaces/inkscape" xmlns:rdf="http://www.w3.org/1999/02/22-rdf-syntax-ns#" xmlns:svg="http://www.w3.org/2000/svg" xmlns:xlink="http://www.w3.org/1999/xlink">
<!--
ClosedBox - Fully closed box

Created with Boxes.py (https://festi.info/boxes.py)
Creation date: 2020-11-30 07:53:54
Command line (remove spaces between dashes): boxes ClosedBox - -FingerJoint_angle=90.0 - -FingerJoint_style=rectangular - -FingerJoint_surroundingspaces=2.0 - -FingerJoint_edge_width=1.0 - -FingerJoint_finger=2.0 - -FingerJoint_play=0.0 - -FingerJoint_space=2.0 - -FingerJoint_width=1.0 - -x=191 - -y=220 - -h=40 - -outside=0 - -outside=1 - -thickness=4.0 - -format=svg - -tabs=0.0 - -debug=0 - -reference=100 - -burn=0.09
Url: http://www.festi.info/ClosedBox?FingerJoint_angle=90.0&FingerJoint_style=rectangular&FingerJoint_surroundingspaces=2.0&FingerJoint_edge_width=1.0&FingerJoint_finger=2.0&FingerJoint_play=0.0&FingerJoint_space=2.0&FingerJoint_width=1.0&x=191&y=220&h=40&outside=0&outside=1&thickness=4.0&format=svg&tabs=0.0&debug=0&reference=100&burn=0.09&render=1
SettingsUrl: http://www.festi.info/ClosedBox?FingerJoint_angle=90.0&FingerJoint_style=rectangular&FingerJoint_surroundingspaces=2.0&FingerJoint_edge_width=1.0&FingerJoint_finger=2.0&FingerJoint_play=0.0&FingerJoint_space=2.0&FingerJoint_width=1.0&x=191&y=220&h=40&outside=0&outside=1&thickness=4.0&format=svg&tabs=0.0&debug=0&reference=100&burn=0.09
-->
<title>ClosedBox</title>
<metadata>
<rdf:RDF><cc:Work>
<dc:title>Box - ClosedBox</dc:title>
<dc:date>2020-11-30 07:53:54</dc:date>
<dc:source>http://www.festi.info/ClosedBox?FingerJoint_angle=90.0&amp;FingerJoint_style=rectangular&amp;FingerJoint_surroundingspaces=2.0&amp;FingerJoint_edge_width=1.0&amp;FingerJoint_finger=2.0&amp;FingerJoint_play=0.0&amp;FingerJoint_space=2.0&amp;FingerJoint_width=1.0&amp;x=191&amp;y=220&amp;h=40&amp;outside=0&amp;outside=1&amp;thickness=4.0&amp;format=svg&amp;tabs=0.0&amp;debug=0&amp;reference=100&amp;burn=0.09&amp;render=1</dc:source>
<dc:description>Fully closed box

Created with Boxes.py (https://festi.info/boxes.py)
Command line: boxes ClosedBox --FingerJoint_angle=90.0 --FingerJoint_style=rectangular --FingerJoint_surroundingspaces=2.0 --FingerJoint_edge_width=1.0 --FingerJoint_finger=2.0 --FingerJoint_play=0.0 --FingerJoint_space=2.0 --FingerJoint_width=1.0 --x=191 --y=220 --h=40 --outside=0 --outside=1 --thickness=4.0 --format=svg --tabs=0.0 --debug=0 --reference=100 --burn=0.09
Url: http://www.festi.info/ClosedBox?FingerJoint_angle=90.0&amp;FingerJoint_style=rectangular&amp;FingerJoint_surroundingspaces=2.0&amp;FingerJoint_edge_width=1.0&amp;FingerJoint_finger=2.0&amp;FingerJoint_play=0.0&amp;FingerJoint_space=2.0&amp;FingerJoint_width=1.0&amp;x=191&amp;y=220&amp;h=40&amp;outside=0&amp;outside=1&amp;thickness=4.0&amp;format=svg&amp;tabs=0.0&amp;debug=0&amp;reference=100&amp;burn=0.09&amp;render=1
SettingsUrl: http://www.festi.info/ClosedBox?FingerJoint_angle=90.0&amp;FingerJoint_style=rectangular&amp;FingerJoint_surroundingspaces=2.0&amp;FingerJoint_edge_width=1.0&amp;FingerJoint_finger=2.0&amp;FingerJoint_play=0.0&amp;FingerJoint_space=2.0&amp;FingerJoint_width=1.0&amp;x=191&amp;y=220&amp;h=40&amp;outside=0&amp;outside=1&amp;thickness=4.0&amp;format=svg&amp;tabs=0.0&amp;debug=0&amp;reference=100&amp;burn=0.09
</dc:description>
</cc:Work></rdf:RDF></metadata>
<g id="p-0" style="fill:none;stroke-linecap:round;stroke-linejoin:round;">
  <path d="M 10.090 326.720 H 110.090 V 316.720 H 10.090 V 326.720 Z" stroke="rgb(0,0,0)" stroke-width="0.18"/>
  <text alignment-baseline="hanging" font-size="10px" style="font-family: sans-serif ; font-weight: normal; font-style: normal; fill: rgb(0,0,0)" text-anchor="middle" transform="matrix( 1.000 0.000 0.000 1.000 60.090 316.720 )">100mm</text>
</g>
<g id="p-1" style="fill:none;stroke-linecap:round;stroke-linejoin:round;">
  <path d="M 14.090 314.540 H 29.590 C 29.640 314.540 29.680 314.500 29.680 314.450 V 310.540 C 29.680 310.450 29.590 310.540 29.680 310.540 H 37.500 C 37.590 310.540 37.500 310.450 37.500 310.540 V 314.450 C 37.500 314.500 37.540 314.540 37.590 314.540 H 45.590 C 45.640 314.540 45.680 314.500 45.680 314.450 V 310.540 C 45.680 310.450 45.590 310.540 45.680 310.540 H 53.500 C 53.590 310.540 53.500 310.450 53.500 310.540 V 314.450 C 53.500 314.500 53.540 314.540 53.590 314.540 H 61.590 C 61.640 314.540 61.680 314.500 61.680 314.450 V 310.540 C 61.680 310.450 61.590 310.540 61.680 310.540 H 69.500 C 69.590 310.540 69.500 310.450 69.500 310.540 V 314.450 C 69.500 314.500 69.540 314.540 69.590 314.540 H 77.590 C 77.640 314.540 77.680 314.500 77.680 314.450 V 310.540 C 77.680 310.450 77.590 310.540 77.680 310.540 H 85.500 C 85.590 310.540 85.500 310.450 85.500 310.540 V 314.450 C 85.500 314.500 85.540 314.540 85.590 314.540 H 93.590 C 93.640 314.540 93.680 314.500 93.680 314.450 V 310.540 C 93.680 310.450 93.590 310.540 93.680 310.540 H 101.500 C 101.590 310.540 101.500 310.450 101.500 310.540 V 314.450 C 101.500 314.500 101.540 314.540 101.590 314.540 H 109.590 C 109.640 314.540 109.680 314.500 109.680 314.450 V 310.540 C 109.680 310.450 109.590 310.540 109.680 310.540 H 117.500 C 117.590 310.540 117.500 310.450 117.500 310.540 V 314.450 C 117.500 314.500 117.540 314.540 117.590 314.540 H 125.590 C 125.640 314.540 125.680 314.500 125.680 314.450 V 310.540 C 125.680 310.450 125.590 310.540 125.680 310.540 H 133.500 C 133.590 310.540 133.500 310.450 133.500 310.540 V 314.450 C 133.500 314.500 133.540 314.540 133.590 314.540 H 141.590 C 141.640 314.540 141.680 314.500 141.680 314.450 V 310.540 C 141.680 310.450 141.590 310.540 141.680 310.540 H 149.500 C 149.590 310.540 149.500 310.450 149.500 310.540 V 314.450 C 149.500 314.500 149.540 314.540 149.590 314.540 H 157.590 C 157.640 314.540 157.680 314.500 157.680 314.450 V 310.540 C 157.680 310.450 157.590 310.540 157.680 310.540 H 165.500 C 165.590 310.540 165.500 310.450 165.500 310.540 V 314.450 C 165.500 314.500 165.540 314.540 165.590 314.540 H 173.590 C 173.640 314.540 173.680 314.500 173.680 314.450 V 310.540 C 173.680 310.450 173.590 310.540 173.680 310.540 H 181.500 C 181.590 310.540 181.500 310.450 181.500 310.540 V 314.450 C 181.500 314.500 181.540 314.540 181.590 314.540 H 197.090 H 201.090 C 201.140 314.540 201.180 314.500 201.180 314.450 V 310.450 V 298.450 C 201.180 298.400 201.140 298.360 201.090 298.360 H 197.180 C 197.090 298.360 197.180 298.450 197.180 298.360 V 290.540 C 197.180 290.450 197.090 290.540 197.180 290.540 H 201.090 C 201.140 290.540 201.180 290.500 201.180 290.450 V 278.450 V 274.450 C 201.180 274.400 201.140 274.360 201.090 274.360 H 197.090 H 181.590 C 181.540 274.360 181.500 274.400 181.500 274.450 V 278.360 C 181.500 278.450 181.590 278.360 181.500 278.360 H 173.680 C 173.590 278.360 173.680 278.450 173.680 278.360 V 274.450 C 173.680 274.400 173.640 274.360 173.590 274.360 H 165.590 C 165.540 274.360 165.500 274.400 165.500 274.450 V 278.360 C 165.500 278.450 165.590 278.360 165.500 278.360 H 157.680 C 157.590 278.360 157.680 278.450 157.680 278.360 V 274.450 C 157.680 274.400 157.640 274.360 157.590 274.360 H 149.590 C 149.540 274.360 149.500 274.400 149.500 274.450 V 278.360 C 149.500 278.450 149.590 278.360 149.500 278.360 H 141.680 C 141.590 278.360 141.680 278.450 141.680 278.360 V 274.450 C 141.680 274.400 141.640 274.360 141.590 274.360 H 133.590 C 133.540 274.360 133.500 274.400 133.500 274.450 V 278.360 C 133.500 278.450 133.590 278.360 133.500 278.360 H 125.680 C 125.590 278.360 125.680 278.450 125.680 278.360 V 274.450 C 125.680 274.400 125.640 274.360 125.590 274.360 H 117.590 C 117.540 274.360 117.500 274.400 117.500 274.450 V 278.360 C 117.500 278.450 117.590 278.360 117.500 278.360 H 109.680 C 109.590 278.360 109.680 278.450 109.680 278.360 V 274.450 C 109.680 274.400 109.640 274.360 109.590 274.360 H 101.590 C 101.540 274.360 101.500 274.400 101.500 274.450 V 278.360 C 101.500 278.450 101.590 278.360 101.500 278.360 H 93.680 C 93.590 278.360 93.680 278.450 93.680 278.360 V 274.450 C 93.680 274.400 93.640 274.360 93.590 274.360 H 85.590 C 85.540 274.360 85.500 274.400 85.500 274.450 V 278.360 C 85.500 278.450 85.590 278.360 85.500 278.360 H 77.680 C 77.590 278.360 77.680 278.450 77.680 278.360 V 274.450 C 77.680 274.400 77.640 274.360 77.590 274.360 H 69.590 C 69.540 274.360 69.500 274.400 69.500 274.450 V 278.360 C 69.500 278.450 69.590 278.360 69.500 278.360 H 61.680 C 61.590 278.360 61.680 278.450 61.680 278.360 V 274.450 C 61.680 274.400 61.640 274.360 61.590 274.360 H 53.590 C 53.540 274.360 53.500 274.400 53.500 274.450 V 278.360 C 53.500 278.450 53.590 278.360 53.500 278.360 H 45.680 C 45.590 278.360 45.680 278.450 45.680 278.360 V 274.450 C 45.680 274.400 45.640 274.360 45.590 274.360 H 37.590 C 37.540 274.360 37.500 274.400 37.500 274.450 V 278.360 C 37.500 278.450 37.590 278.360 37.500 278.360 H 29.680 C 29.590 278.360 29.680 278.450 29.680 278.360 V 274.450 C 29.680 274.400 29.640 274.360 29.590 274.360 H 14.090 H 10.090 C 10.040 274.360 10.000 274.400 10.000 274.450 V 278.450 V 290.450 C 10.000 290.500 10.040 290.540 10.090 290.540 H 14.000 C 14.090 290.540 14.000 290.450 14.000 290.540 V 298.360 C 14.000 298.450 14.090 298.360 14.000 298.360 H 10.090 C 10.040 298.360 10.000 298.400 10.000 298.450 V 310.450 V 314.450 C 10.000 314.500 10.040 314.540 10.090 314.540 H 14.090 Z" stroke="rgb(0,0,0)" stroke-width="0.18"/>
</g>
<g id="p-2" style="fill:none;stroke-linecap:round;stroke-linejoin:round;">
  <path d="M 207.270 314.540 H 221.270 C 221.320 314.540 221.360 314.500 221.360 314.450 V 310.540 C 221.360 310.450 221.270 310.540 221.360 310.540 H 229.180 C 229.270 310.540 229.180 310.450 229.180 310.540 V 314.450 C 229.180 314.500 229.220 314.540 229.270 314.540 H 237.270 C 237.320 314.540 237.360 314.500 237.360 314.450 V 310.540 C 237.360 310.450 237.270 310.540 237.360 310.540 H 245.180 C 245.270 310.540 245.180 310.450 245.180 310.540 V 314.450 C 245.180 314.500 245.220 314.540 245.270 314.540 H 253.270 C 253.320 314.540 253.360 314.500 253.360 314.450 V 310.540 C 253.360 310.450 253.270 310.540 253.360 310.540 H 261.180 C 261.270 310.540 261.180 310.450 261.180 310.540 V 314.450 C 261.180 314.500 261.220 314.540 261.270 314.540 H 269.270 C 269.320 314.540 269.360 314.500 269.360 314.450 V 310.540 C 269.360 310.450 269.270 310.540 269.360 310.540 H 277.180 C 277.270 310.540 277.180 310.450 277.180 310.540 V 314.450 C 277.180 314.500 277.220 314.540 277.270 314.540 H 285.270 C 285.320 314.540 285.360 314.500 285.360 314.450 V 310.540 C 285.360 310.450 285.270 310.540 285.360 310.540 H 293.180 C 293.270 310.540 293.180 310.450 293.180 310.540 V 314.450 C 293.180 314.500 293.220 314.540 293.270 314.540 H 301.270 C 301.320 314.540 301.360 314.500 301.360 314.450 V 310.540 C 301.360 310.450 301.270 310.540 301.360 310.540 H 309.180 C 309.270 310.540 309.180 310.450 309.180 310.540 V 314.450 C 309.180 314.500 309.220 314.540 309.270 314.540 H 317.270 C 317.320 314.540 317.360 314.500 317.360 314.450 V 310.540 C 317.360 310.450 317.270 310.540 317.360 310.540 H 325.180 C 325.270 310.540 325.180 310.450 325.180 310.540 V 314.450 C 325.180 314.500 325.220 314.540 325.270 314.540 H 333.270 C 333.320 314.540 333.360 314.500 333.360 314.450 V 310.540 C 333.360 310.450 333.270 310.540 333.360 310.540 H 341.180 C 341.270 310.540 341.180 310.450 341.180 310.540 V 314.450 C 341.180 314.500 341.220 314.540 341.270 314.540 H 349.270 C 349.320 314.540 349.360 314.500 349.360 314.450 V 310.540 C 349.360 310.450 349.270 310.540 349.360 310.540 H 357.180 C 357.270 310.540 357.180 310.450 357.180 310.540 V 314.450 C 357.180 314.500 357.220 314.540 357.270 314.540 H 365.270 C 365.320 314.540 365.360 314.500 365.360 314.450 V 310.540 C 365.360 310.450 365.270 310.540 365.360 310.540 H 373.180 C 373.270 310.540 373.180 310.450 373.180 310.540 V 314.450 C 373.180 314.500 373.220 314.540 373.270 314.540 H 381.270 C 381.320 314.540 381.360 314.500 381.360 314.450 V 310.540 C 381.360 310.450 381.270 310.540 381.360 310.540 H 389.180 C 389.270 310.540 389.180 310.450 389.180 310.540 V 314.450 C 389.180 314.500 389.220 314.540 389.270 314.540 H 397.270 C 397.320 314.540 397.360 314.500 397.360 314.450 V 310.540 C 397.360 310.450 397.270 310.540 397.360 310.540 H 405.180 C 405.270 310.540 405.180 310.450 405.180 310.540 V 314.450 C 405.180 314.500 405.220 314.540 405.270 314.540 H 419.270 C 419.320 314.540 419.360 314.500 419.360 314.450 V 310.450 V 298.540 C 419.360 298.450 419.270 298.540 419.360 298.540 H 423.270 C 423.320 298.540 423.360 298.500 423.360 298.450 V 290.450 C 423.360 290.400 423.320 290.360 423.270 290.360 H 419.360 C 419.270 290.360 419.360 290.450 419.360 290.360 V 278.450 V 274.450 C 419.360 274.400 419.320 274.360 419.270 274.360 H 405.270 C 405.220 274.360 405.180 274.400 405.180 274.450 V 278.360 C 405.180 278.450 405.270 278.360 405.180 278.360 H 397.360 C 397.270 278.360 397.360 278.450 397.360 278.360 V 274.450 C 397.360 274.400 397.320 274.360 397.270 274.360 H 389.270 C 389.220 274.360 389.180 274.400 389.180 274.450 V 278.360 C 389.180 278.450 389.270 278.360 389.180 278.360 H 381.360 C 381.270 278.360 381.360 278.450 381.360 278.360 V 274.450 C 381.360 274.400 381.320 274.360 381.270 274.360 H 373.270 C 373.220 274.360 373.180 274.400 373.180 274.450 V 278.360 C 373.180 278.450 373.270 278.360 373.180 278.360 H 365.360 C 365.270 278.360 365.360 278.450 365.360 278.360 V 274.450 C 365.360 274.400 365.320 274.360 365.270 274.360 H 357.270 C 357.220 274.360 357.180 274.400 357.180 274.450 V 278.360 C 357.180 278.450 357.270 278.360 357.180 278.360 H 349.360 C 349.270 278.360 349.360 278.450 349.360 278.360 V 274.450 C 349.360 274.400 349.320 274.360 349.270 274.360 H 341.270 C 341.220 274.360 341.180 274.400 341.180 274.450 V 278.360 C 341.180 278.450 341.270 278.360 341.180 278.360 H 333.360 C 333.270 278.360 333.360 278.450 333.360 278.360 V 274.450 C 333.360 274.400 333.320 274.360 333.270 274.360 H 325.270 C 325.220 274.360 325.180 274.400 325.180 274.450 V 278.360 C 325.180 278.450 325.270 278.360 325.180 278.360 H 317.360 C 317.270 278.360 317.360 278.450 317.360 278.360 V 274.450 C 317.360 274.400 317.320 274.360 317.270 274.360 H 309.270 C 309.220 274.360 309.180 274.400 309.180 274.450 V 278.360 C 309.180 278.450 309.270 278.360 309.180 278.360 H 301.360 C 301.270 278.360 301.360 278.450 301.360 278.360 V 274.450 C 301.360 274.400 301.320 274.360 301.270 274.360 H 293.270 C 293.220 274.360 293.180 274.400 293.180 274.450 V 278.360 C 293.180 278.450 293.270 278.360 293.180 278.360 H 285.360 C 285.270 278.360 285.360 278.450 285.360 278.360 V 274.450 C 285.360 274.400 285.320 274.360 285.270 274.360 H 277.270 C 277.220 274.360 277.180 274.400 277.180 274.450 V 278.360 C 277.180 278.450 277.270 278.360 277.180 278.360 H 269.360 C 269.270 278.360 269.360 278.450 269.360 278.360 V 274.450 C 269.360 274.400 269.320 274.360 269.270 274.360 H 261.270 C 261.220 274.360 261.180 274.400 261.180 274.450 V 278.360 C 261.180 278.450 261.270 278.360 261.180 278.360 H 253.360 C 253.270 278.360 253.360 278.450 253.360 278.360 V 274.450 C 253.360 274.400 253.320 274.360 253.270 274.360 H 245.270 C 245.220 274.360 245.180 274.400 245.180 274.450 V 278.360 C 245.180 278.450 245.270 278.360 245.180 278.360 H 237.360 C 237.270 278.360 237.360 278.450 237.360 278.360 V 274.450 C 237.360 274.400 237.320 274.360 237.270 274.360 H 229.270 C 229.220 274.360 229.180 274.400 229.180 274.450 V 278.360 C 229.180 278.450 229.270 278.360 229.180 278.360 H 221.360 C 221.270 278.360 221.360 278.450 221.360 278.360 V 274.450 C 221.360 274.400 221.320 274.360 221.270 274.360 H 207.270 C 207.220 274.360 207.180 274.400 207.180 274.450 V 278.450 V 290.360 C 207.180 290.450 207.270 290.360 207.180 290.360 H 203.270 C 203.220 290.360 203.180 290.400 203.180 290.450 V 298.450 C 203.180 298.500 203.220 298.540 203.270 298.540 H 207.180 C 207.270 298.540 207.180 298.450 207.180 298.540 V 310.450 V 314.450 C 207.180 314.500 207.220 314.540 207.270 314.540 Z" stroke="rgb(0,0,0)" stroke-width="0.18"/>
</g>
<g id="p-3" style="fill:none;stroke-linecap:round;stroke-linejoin:round;">
  <path d="M 207.270 272.360 H 221.270 C 221.320 272.360 221.360 272.320 221.360 272.270 V 268.360 C 221.360 268.270 221.270 268.360 221.360 268.360 H 229.180 C 229.270 268.360 229.180 268.270 229.180 268.360 V 272.270 C 229.180 272.320 229.220 272.360 229.270 272.360 H 237.270 C 237.320 272.360 237.360 272.320 237.360 272.270 V 268.360 C 237.360 268.270 237.270 268.360 237.360 268.360 H 245.180 C 245.270 268.360 245.180 268.270 245.180 268.360 V 272.270 C 245.180 272.320 245.220 272.360 245.270 272.360 H 253.270 C 253.320 272.360 253.360 272.320 253.360 272.270 V 268.360 C 253.360 268.270 253.270 268.360 253.360 268.360 H 261.180 C 261.270 268.360 261.180 268.270 261.180 268.360 V 272.270 C 261.180 272.320 261.220 272.360 261.270 272.360 H 269.270 C 269.320 272.360 269.360 272.320 269.360 272.270 V 268.360 C 269.360 268.270 269.270 268.360 269.360 268.360 H 277.180 C 277.270 268.360 277.180 268.270 277.180 268.360 V 272.270 C 277.180 272.320 277.220 272.360 277.270 272.360 H 285.270 C 285.320 272.360 285.360 272.320 285.360 272.270 V 268.360 C 285.360 268.270 285.270 268.360 285.360 268.360 H 293.180 C 293.270 268.360 293.180 268.270 293.180 268.360 V 272.270 C 293.180 272.320 293.220 272.360 293.270 272.360 H 301.270 C 301.320 272.360 301.360 272.320 301.360 272.270 V 268.360 C 301.360 268.270 301.270 268.360 301.360 268.360 H 309.180 C 309.270 268.360 309.180 268.270 309.180 268.360 V 272.270 C 309.180 272.320 309.220 272.360 309.270 272.360 H 317.270 C 317.320 272.360 317.360 272.320 317.360 272.270 V 268.360 C 317.360 268.270 317.270 268.360 317.360 268.360 H 325.180 C 325.270 268.360 325.180 268.270 325.180 268.360 V 272.270 C 325.180 272.320 325.220 272.360 325.270 272.360 H 333.270 C 333.320 272.360 333.360 272.320 333.360 272.270 V 268.360 C 333.360 268.270 333.270 268.360 333.360 268.360 H 341.180 C 341.270 268.360 341.180 268.270 341.180 268.360 V 272.270 C 341.180 272.320 341.220 272.360 341.270 272.360 H 349.270 C 349.320 272.360 349.360 272.320 349.360 272.270 V 268.360 C 349.360 268.270 349.270 268.360 349.360 268.360 H 357.180 C 357.270 268.360 357.180 268.270 357.180 268.360 V 272.270 C 357.180 272.320 357.220 272.360 357.270 272.360 H 365.270 C 365.320 272.360 365.360 272.320 365.360 272.270 V 268.360 C 365.360 268.270 365.270 268.360 365.360 268.360 H 373.180 C 373.270 268.360 373.180 268.270 373.180 268.360 V 272.270 C 373.180 272.320 373.220 272.360 373.270 272.360 H 381.270 C 381.320 272.360 381.360 272.320 381.360 272.270 V 268.360 C 381.360 268.270 381.270 268.360 381.360 268.360 H 389.180 C 389.270 268.360 389.180 268.270 389.180 268.360 V 272.270 C 389.180 272.320 389.220 272.360 389.270 272.360 H 397.270 C 397.320 272.360 397.360 272.320 397.360 272.270 V 268.360 C 397.360 268.270 397.270 268.360 397.360 268.360 H 405.180 C 405.270 268.360 405.180 268.270 405.180 268.360 V 272.270 C 405.180 272.320 405.220 272.360 405.270 272.360 H 419.270 C 419.320 272.360 419.360 272.320 419.360 272.270 V 268.270 V 256.360 C 419.360 256.270 419.270 256.360 419.360 256.360 H 423.270 C 423.320 256.360 423.360 256.320 423.360 256.270 V 248.270 C 423.360 248.220 423.320 248.180 423.270 248.180 H 419.360 C 419.270 248.180 419.360 248.270 419.360 248.180 V 236.270 V 232.270 C 419.360 232.220 419.320 232.180 419.270 232.180 H 405.270 C 405.220 232.180 405.180 232.220 405.180 232.270 V 236.180 C 405.180 236.270 405.270 236.180 405.180 236.180 H 397.360 C 397.270 236.180 397.360 236.270 397.360 236.180 V 232.270 C 397.360 232.220 397.320 232.180 397.270 232.180 H 389.270 C 389.220 232.180 389.180 232.220 389.180 232.270 V 236.180 C 389.180 236.270 389.270 236.180 389.180 236.180 H 381.360 C 381.270 236.180 381.360 236.270 381.360 236.180 V 232.270 C 381.360 232.220 381.320 232.180 381.270 232.180 H 373.270 C 373.220 232.180 373.180 232.220 373.180 232.270 V 236.180 C 373.180 236.270 373.270 236.180 373.180 236.180 H 365.360 C 365.270 236.180 365.360 236.270 365.360 236.180 V 232.270 C 365.360 232.220 365.320 232.180 365.270 232.180 H 357.270 C 357.220 232.180 357.180 232.220 357.180 232.270 V 236.180 C 357.180 236.270 357.270 236.180 357.180 236.180 H 349.360 C 349.270 236.180 349.360 236.270 349.360 236.180 V 232.270 C 349.360 232.220 349.320 232.180 349.270 232.180 H 341.270 C 341.220 232.180 341.180 232.220 341.180 232.270 V 236.180 C 341.180 236.270 341.270 236.180 341.180 236.180 H 333.360 C 333.270 236.180 333.360 236.270 333.360 236.180 V 232.270 C 333.360 232.220 333.320 232.180 333.270 232.180 H 325.270 C 325.220 232.180 325.180 232.220 325.180 232.270 V 236.180 C 325.180 236.270 325.270 236.180 325.180 236.180 H 317.360 C 317.270 236.180 317.360 236.270 317.360 236.180 V 232.270 C 317.360 232.220 317.320 232.180 317.270 232.180 H 309.270 C 309.220 232.180 309.180 232.220 309.180 232.270 V 236.180 C 309.180 236.270 309.270 236.180 309.180 236.180 H 301.360 C 301.270 236.180 301.360 236.270 301.360 236.180 V 232.270 C 301.360 232.220 301.320 232.180 301.270 232.180 H 293.270 C 293.220 232.180 293.180 232.220 293.180 232.270 V 236.180 C 293.180 236.270 293.270 236.180 293.180 236.180 H 285.360 C 285.270 236.180 285.360 236.270 285.360 236.180 V 232.270 C 285.360 232.220 285.320 232.180 285.270 232.180 H 277.270 C 277.220 232.180 277.180 232.220 277.180 232.270 V 236.180 C 277.180 236.270 277.270 236.180 277.180 236.180 H 269.360 C 269.270 236.180 269.360 236.270 269.360 236.180 V 232.270 C 269.360 232.220 269.320 232.180 269.270 232.180 H 261.270 C 261.220 232.180 261.180 232.220 261.180 232.270 V 236.180 C 261.180 236.270 261.270 236.180 261.180 236.180 H 253.360 C 253.270 236.180 253.360 236.270 253.360 236.180 V 232.270 C 253.360 232.220 253.320 232.180 253.270 232.180 H 245.270 C 245.220 232.180 245.180 232.220 245.180 232.270 V 236.180 C 245.180 236.270 245.270 236.180 245.180 236.180 H 237.360 C 237.270 236.180 237.360 236.270 237.360 236.180 V 232.270 C 237.360 232.220 237.320 232.180 237.270 232.180 H 229.270 C 229.220 232.180 229.180 232.220 229.180 232.270 V 236.180 C 229.180 236.270 229.270 236.180 229.180 236.180 H 221.360 C 221.270 236.180 221.360 236.270 221.360 236.180 V 232.270 C 221.360 232.220 221.320 232.180 221.270 232.180 H 207.270 C 207.220 232.180 207.180 232.220 207.180 232.270 V 236.270 V 248.180 C 207.180 248.270 207.270 248.180 207.180 248.180 H 203.270 C 203.220 248.180 203.180 248.220 203.180 248.270 V 256.270 C 203.180 256.320 203.220 256.360 203.270 256.360 H 207.180 C 207.270 256.360 207.180 256.270 207.180 256.360 V 268.270 V 272.270 C 207.180 272.320 207.220 272.360 207.270 272.360 Z" stroke="rgb(0,0,0)" stroke-width="0.18"/>
</g>
<g id="p-4" style="fill:none;stroke-linecap:round;stroke-linejoin:round;">
  <path d="M 14.090 272.360 H 29.590 C 29.640 272.360 29.680 272.320 29.680 272.270 V 268.360 C 29.680 268.270 29.590 268.360 29.680 268.360 H 37.500 C 37.590 268.360 37.500 268.270 37.500 268.360 V 272.270 C 37.500 272.320 37.540 272.360 37.590 272.360 H 45.590 C 45.640 272.360 45.680 272.320 45.680 272.270 V 268.360 C 45.680 268.270 45.590 268.360 45.680 268.360 H 53.500 C 53.590 268.360 53.500 268.270 53.500 268.360 V 272.270 C 53.500 272.320 53.540 272.360 53.590 272.360 H 61.590 C 61.640 272.360 61.680 272.320 61.680 272.270 V 268.360 C 61.680 268.270 61.590 268.360 61.680 268.360 H 69.500 C 69.590 268.360 69.500 268.270 69.500 268.360 V 272.270 C 69.500 272.320 69.540 272.360 69.590 272.360 H 77.590 C 77.640 272.360 77.680 272.320 77.680 272.270 V 268.360 C 77.680 268.270 77.590 268.360 77.680 268.360 H 85.500 C 85.590 268.360 85.500 268.270 85.500 268.360 V 272.270 C 85.500 272.320 85.540 272.360 85.590 272.360 H 93.590 C 93.640 272.360 93.680 272.320 93.680 272.270 V 268.360 C 93.680 268.270 93.590 268.360 93.680 268.360 H 101.500 C 101.590 268.360 101.500 268.270 101.500 268.360 V 272.270 C 101.500 272.320 101.540 272.360 101.590 272.360 H 109.590 C 109.640 272.360 109.680 272.320 109.680 272.270 V 268.360 C 109.680 268.270 109.590 268.360 109.680 268.360 H 117.500 C 117.590 268.360 117.500 268.270 117.500 268.360 V 272.270 C 117.500 272.320 117.540 272.360 117.590 272.360 H 125.590 C 125.640 272.360 125.680 272.320 125.680 272.270 V 268.360 C 125.680 268.270 125.590 268.360 125.680 268.360 H 133.500 C 133.590 268.360 133.500 268.270 133.500 268.360 V 272.270 C 133.500 272.320 133.540 272.360 133.590 272.360 H 141.590 C 141.640 272.360 141.680 272.320 141.680 272.270 V 268.360 C 141.680 268.270 141.590 268.360 141.680 268.360 H 149.500 C 149.590 268.360 149.500 268.270 149.500 268.360 V 272.270 C 149.500 272.320 149.540 272.360 149.590 272.360 H 157.590 C 157.640 272.360 157.680 272.320 157.680 272.270 V 268.360 C 157.680 268.270 157.590 268.360 157.680 268.360 H 165.500 C 165.590 268.360 165.500 268.270 165.500 268.360 V 272.270 C 165.500 272.320 165.540 272.360 165.590 272.360 H 173.590 C 173.640 272.360 173.680 272.320 173.680 272.270 V 268.360 C 173.680 268.270 173.590 268.360 173.680 268.360 H 181.500 C 181.590 268.360 181.500 268.270 181.500 268.360 V 272.270 C 181.500 272.320 181.540 272.360 181.590 272.360 H 197.090 H 201.090 C 201.140 272.360 201.180 272.320 201.180 272.270 V 268.270 V 256.270 C 201.180 256.220 201.140 256.180 201.090 256.180 H 197.180 C 197.090 256.180 197.180 256.270 197.180 256.180 V 248.360 C 197.180 248.270 197.090 248.360 197.180 248.360 H 201.090 C 201.140 248.360 201.180 248.320 201.180 248.270 V 236.270 V 232.270 C 201.180 232.220 201.140 232.180 201.090 232.180 H 197.090 H 181.590 C 181.540 232.180 181.500 232.220 181.500 232.270 V 236.180 C 181.500 236.270 181.590 236.180 181.500 236.180 H 173.680 C 173.590 236.180 173.680 236.270 173.680 236.180 V 232.270 C 173.680 232.220 173.640 232.180 173.590 232.180 H 165.590 C 165.540 232.180 165.500 232.220 165.500 232.270 V 236.180 C 165.500 236.270 165.590 236.180 165.500 236.180 H 157.680 C 157.590 236.180 157.680 236.270 157.680 236.180 V 232.270 C 157.680 232.220 157.640 232.180 157.590 232.180 H 149.590 C 149.540 232.180 149.500 232.220 149.500 232.270 V 236.180 C 149.500 236.270 149.590 236.180 149.500 236.180 H 141.680 C 141.590 236.180 141.680 236.270 141.680 236.180 V 232.270 C 141.680 232.220 141.640 232.180 141.590 232.180 H 133.590 C 133.540 232.180 133.500 232.220 133.500 232.270 V 236.180 C 133.500 236.270 133.590 236.180 133.500 236.180 H 125.680 C 125.590 236.180 125.680 236.270 125.680 236.180 V 232.270 C 125.680 232.220 125.640 232.180 125.590 232.180 H 117.590 C 117.540 232.180 117.500 232.220 117.500 232.270 V 236.180 C 117.500 236.270 117.590 236.180 117.500 236.180 H 109.680 C 109.590 236.180 109.680 236.270 109.680 236.180 V 232.270 C 109.680 232.220 109.640 232.180 109.590 232.180 H 101.590 C 101.540 232.180 101.500 232.220 101.500 232.270 V 236.180 C 101.500 236.270 101.590 236.180 101.500 236.180 H 93.680 C 93.590 236.180 93.680 236.270 93.680 236.180 V 232.270 C 93.680 232.220 93.640 232.180 93.590 232.180 H 85.590 C 85.540 232.180 85.500 232.220 85.500 232.270 V 236.180 C 85.500 236.270 85.590 236.180 85.500 236.180 H 77.680 C 77.590 236.180 77.680 236.270 77.680 236.180 V 232.270 C 77.680 232.220 77.640 232.180 77.590 232.180 H 69.590 C 69.540 232.180 69.500 232.220 69.500 232.270 V 236.180 C 69.500 236.270 69.590 236.180 69.500 236.180 H 61.680 C 61.590 236.180 61.680 236.270 61.680 236.180 V 232.270 C 61.680 232.220 61.640 232.180 61.590 232.180 H 53.590 C 53.540 232.180 53.500 232.220 53.500 232.270 V 236.180 C 53.500 236.270 53.590 236.180 53.500 236.180 H 45.680 C 45.590 236.180 45.680 236.270 45.680 236.180 V 232.270 C 45.680 232.220 45.640 232.180 45.590 232.180 H 37.590 C 37.540 232.180 37.500 232.220 37.500 232.270 V 236.180 C 37.500 236.270 37.590 236.180 37.500 236.180 H 29.680 C 29.590 236.180 29.680 236.270 29.680 236.180 V 232.270 C 29.680 232.220 29.640 232.180 29.590 232.180 H 14.090 H 10.090 C 10.040 232.180 10.000 232.220 10.000 232.270 V 236.270 V 248.270 C 10.000 248.320 10.040 248.360 10.090 248.360 H 14.000 C 14.090 248.360 14.000 248.270 14.000 248.360 V 256.180 C 14.000 256.270 14.090 256.180 14.000 256.180 H 10.090 C 10.040 256.180 10.000 256.220 10.000 256.270 V 268.270 V 272.270 C 10.000 272.320 10.040 272.360 10.090 272.360 H 14.090 Z" stroke="rgb(0,0,0)" stroke-width="0.18"/>
</g>
<g id="p-5" style="fill:none;stroke-linecap:round;stroke-linejoin:round;">
  <path d="M 14.090 226.180 H 29.500 C 29.590 226.180 29.500 226.090 29.500 226.180 V 230.090 C 29.500 230.140 29.540 230.180 29.590 230.180 H 37.590 C 37.640 230.180 37.680 230.140 37.680 230.090 V 226.180 C 37.680 226.090 37.590 226.180 37.680 226.180 H 45.500 C 45.590 226.180 45.500 226.090 45.500 226.180 V 230.090 C 45.500 230.140 45.540 230.180 45.590 230.180 H 53.590 C 53.640 230.180 53.680 230.140 53.680 230.090 V 226.180 C 53.680 226.090 53.590 226.180 53.680 226.180 H 61.500 C 61.590 226.180 61.500 226.090 61.500 226.180 V 230.090 C 61.500 230.140 61.540 230.180 61.590 230.180 H 69.590 C 69.640 230.180 69.680 230.140 69.680 230.090 V 226.180 C 69.680 226.090 69.590 226.180 69.680 226.180 H 77.500 C 77.590 226.180 77.500 226.090 77.500 226.180 V 230.090 C 77.500 230.140 77.540 230.180 77.590 230.180 H 85.590 C 85.640 230.180 85.680 230.140 85.680 230.090 V 226.180 C 85.680 226.090 85.590 226.180 85.680 226.180 H 93.500 C 93.590 226.180 93.500 226.090 93.500 226.180 V 230.090 C 93.500 230.140 93.540 230.180 93.590 230.180 H 101.590 C 101.640 230.180 101.680 230.140 101.680 230.090 V 226.180 C 101.680 226.090 101.590 226.180 101.680 226.180 H 109.500 C 109.590 226.180 109.500 226.090 109.500 226.180 V 230.090 C 109.500 230.140 109.540 230.180 109.590 230.180 H 117.590 C 117.640 230.180 117.680 230.140 117.680 230.090 V 226.180 C 117.680 226.090 117.590 226.180 117.680 226.180 H 125.500 C 125.590 226.180 125.500 226.090 125.500 226.180 V 230.090 C 125.500 230.140 125.540 230.180 125.590 230.180 H 133.590 C 133.640 230.180 133.680 230.140 133.680 230.090 V 226.180 C 133.680 226.090 133.590 226.180 133.680 226.180 H 141.500 C 141.590 226.180 141.500 226.090 141.500 226.180 V 230.090 C 141.500 230.140 141.540 230.180 141.590 230.180 H 149.590 C 149.640 230.180 149.680 230.140 149.680 230.090 V 226.180 C 149.680 226.090 149.590 226.180 149.680 226.180 H 157.500 C 157.590 226.180 157.500 226.090 157.500 226.180 V 230.090 C 157.500 230.140 157.540 230.180 157.590 230.180 H 165.590 C 165.640 230.180 165.680 230.140 165.680 230.090 V 226.180 C 165.680 226.090 165.590 226.180 165.680 226.180 H 173.500 C 173.590 226.180 173.500 226.090 173.500 226.180 V 230.090 C 173.500 230.140 173.540 230.180 173.590 230.180 H 181.590 C 181.640 230.180 181.680 230.140 181.680 230.090 V 226.180 C 181.680 226.090 181.590 226.180 181.680 226.180 H 197.090 C 197.140 226.180 197.180 226.140 197.180 226.090 V 212.180 C 197.180 212.090 197.090 212.180 197.180 212.180 H 201.090 C 201.140 212.180 201.180 212.140 201.180 212.090 V 204.090 C 201.180 204.040 201.140 204.000 201.090 204.000 H 197.180 C 197.090 204.000 197.180 204.090 197.180 204.000 V 196.180 C 197.180 196.090 197.090 196.180 197.180 196.180 H 201.090 C 201.140 196.180 201.180 196.140 201.180 196.090 V 188.090 C 201.180 188.040 201.140 188.000 201.090 188.000 H 197.180 C 197.090 188.000 197.180 188.090 197.180 188.000 V 180.180 C 197.180 180.090 197.090 180.180 197.180 180.180 H 201.090 C 201.140 180.180 201.180 180.140 201.180 180.090 V 172.090 C 201.180 172.040 201.140 172.000 201.090 172.000 H 197.180 C 197.090 172.000 197.180 172.090 197.180 172.000 V 164.180 C 197.180 164.090 197.090 164.180 197.180 164.180 H 201.090 C 201.140 164.180 201.180 164.140 201.180 164.090 V 156.090 C 201.180 156.040 201.140 156.000 201.090 156.000 H 197.180 C 197.090 156.000 197.180 156.090 197.180 156.000 V 148.180 C 197.180 148.090 197.090 148.180 197.180 148.180 H 201.090 C 201.140 148.180 201.180 148.140 201.180 148.090 V 140.090 C 201.180 140.040 201.140 140.000 201.090 140.000 H 197.180 C 197.090 140.000 197.180 140.090 197.180 140.000 V 132.180 C 197.180 132.090 197.090 132.180 197.180 132.180 H 201.090 C 201.140 132.180 201.180 132.140 201.180 132.090 V 124.090 C 201.180 124.040 201.140 124.000 201.090 124.000 H 197.180 C 197.090 124.000 197.180 124.090 197.180 124.000 V 116.180 C 197.180 116.090 197.090 116.180 197.180 116.180 H 201.090 C 201.140 116.180 201.180 116.140 201.180 116.090 V 108.090 C 201.180 108.040 201.140 108.000 201.090 108.000 H 197.180 C 197.090 108.000 197.180 108.090 197.180 108.000 V 100.180 C 197.180 100.090 197.090 100.180 197.180 100.180 H 201.090 C 201.140 100.180 201.180 100.140 201.180 100.090 V 92.090 C 201.180 92.040 201.140 92.000 201.090 92.000 H 197.180 C 197.090 92.000 197.180 92.090 197.180 92.000 V 84.180 C 197.180 84.090 197.090 84.180 197.180 84.180 H 201.090 C 201.140 84.180 201.180 84.140 201.180 84.090 V 76.090 C 201.180 76.040 201.140 76.000 201.090 76.000 H 197.180 C 197.090 76.000 197.180 76.090 197.180 76.000 V 68.180 C 197.180 68.090 197.090 68.180 197.180 68.180 H 201.090 C 201.140 68.180 201.180 68.140 201.180 68.090 V 60.090 C 201.180 60.040 201.140 60.000 201.090 60.000 H 197.180 C 197.090 60.000 197.180 60.090 197.180 60.000 V 52.180 C 197.180 52.090 197.090 52.180 197.180 52.180 H 201.090 C 201.140 52.180 201.180 52.140 201.180 52.090 V 44.090 C 201.180 44.040 201.140 44.000 201.090 44.000 H 197.180 C 197.090 44.000 197.180 44.090 197.180 44.000 V 36.180 C 197.180 36.090 197.090 36.180 197.180 36.180 H 201.090 C 201.140 36.180 201.180 36.140 201.180 36.090 V 28.090 C 201.180 28.040 201.140 28.000 201.090 28.000 H 197.180 C 197.090 28.000 197.180 28.090 197.180 28.000 V 14.090 C 197.180 14.040 197.140 14.000 197.090 14.000 H 181.680 C 181.590 14.000 181.680 14.090 181.680 14.000 V 10.090 C 181.680 10.040 181.640 10.000 181.590 10.000 H 173.590 C 173.540 10.000 173.500 10.040 173.500 10.090 V 14.000 C 173.500 14.090 173.590 14.000 173.500 14.000 H 165.680 C 165.590 14.000 165.680 14.090 165.680 14.000 V 10.090 C 165.680 10.040 165.640 10.000 165.590 10.000 H 157.590 C 157.540 10.000 157.500 10.040 157.500 10.090 V 14.000 C 157.500 14.090 157.590 14.000 157.500 14.000 H 149.680 C 149.590 14.000 149.680 14.090 149.680 14.000 V 10.090 C 149.680 10.040 149.640 10.000 149.590 10.000 H 141.590 C 141.540 10.000 141.500 10.040 141.500 10.090 V 14.000 C 141.500 14.090 141.590 14.000 141.500 14.000 H 133.680 C 133.590 14.000 133.680 14.090 133.680 14.000 V 10.090 C 133.680 10.040 133.640 10.000 133.590 10.000 H 125.590 C 125.540 10.000 125.500 10.040 125.500 10.090 V 14.000 C 125.500 14.090 125.590 14.000 125.500 14.000 H 117.680 C 117.590 14.000 117.680 14.090 117.680 14.000 V 10.090 C 117.680 10.040 117.640 10.000 117.590 10.000 H 109.590 C 109.540 10.000 109.500 10.040 109.500 10.090 V 14.000 C 109.500 14.090 109.590 14.000 109.500 14.000 H 101.680 C 101.590 14.000 101.680 14.090 101.680 14.000 V 10.090 C 101.680 10.040 101.640 10.000 101.590 10.000 H 93.590 C 93.540 10.000 93.500 10.040 93.500 10.090 V 14.000 C 93.500 14.090 93.590 14.000 93.500 14.000 H 85.680 C 85.590 14.000 85.680 14.090 85.680 14.000 V 10.090 C 85.680 10.040 85.640 10.000 85.590 10.000 H 77.590 C 77.540 10.000 77.500 10.040 77.500 10.090 V 14.000 C 77.500 14.090 77.590 14.000 77.500 14.000 H 69.680 C 69.590 14.000 69.680 14.090 69.680 14.000 V 10.090 C 69.680 10.040 69.640 10.000 69.590 10.000 H 61.590 C 61.540 10.000 61.500 10.040 61.500 10.090 V 14.000 C 61.500 14.090 61.590 14.000 61.500 14.000 H 53.680 C 53.590 14.000 53.680 14.090 53.680 14.000 V 10.090 C 53.680 10.040 53.640 10.000 53.590 10.000 H 45.590 C 45.540 10.000 45.500 10.040 45.500 10.090 V 14.000 C 45.500 14.090 45.590 14.000 45.500 14.000 H 37.680 C 37.590 14.000 37.680 14.090 37.680 14.000 V 10.090 C 37.680 10.040 37.640 10.000 37.590 10.000 H 29.590 C 29.540 10.000 29.500 10.040 29.500 10.090 V 14.000 C 29.500 14.090 29.590 14.000 29.500 14.000 H 14.090 C 14.040 14.000 14.000 14.040 14.000 14.090 V 28.000 C 14.000 28.090 14.090 28.000 14.000 28.000 H 10.090 C 10.040 28.000 10.000 28.040 10.000 28.090 V 36.090 C 10.000 36.140 10.040 36.180 10.090 36.180 H 14.000 C 14.090 36.180 14.000 36.090 14.000 36.180 V 44.000 C 14.000 44.090 14.090 44.000 14.000 44.000 H 10.090 C 10.040 44.000 10.000 44.040 10.000 44.090 V 52.090 C 10.000 52.140 10.040 52.180 10.090 52.180 H 14.000 C 14.090 52.180 14.000 52.090 14.000 52.180 V 60.000 C 14.000 60.090 14.090 60.000 14.000 60.000 H 10.090 C 10.040 60.000 10.000 60.040 10.000 60.090 V 68.090 C 10.000 68.140 10.040 68.180 10.090 68.180 H 14.000 C 14.090 68.180 14.000 68.090 14.000 68.180 V 76.000 C 14.000 76.090 14.090 76.000 14.000 76.000 H 10.090 C 10.040 76.000 10.000 76.040 10.000 76.090 V 84.090 C 10.000 84.140 10.040 84.180 10.090 84.180 H 14.000 C 14.090 84.180 14.000 84.090 14.000 84.180 V 92.000 C 14.000 92.090 14.090 92.000 14.000 92.000 H 10.090 C 10.040 92.000 10.000 92.040 10.000 92.090 V 100.090 C 10.000 100.140 10.040 100.180 10.090 100.180 H 14.000 C 14.090 100.180 14.000 100.090 14.000 100.180 V 108.000 C 14.000 108.090 14.090 108.000 14.000 108.000 H 10.090 C 10.040 108.000 10.000 108.040 10.000 108.090 V 116.090 C 10.000 116.140 10.040 116.180 10.090 116.180 H 14.000 C 14.090 116.180 14.000 116.090 14.000 116.180 V 124.000 C 14.000 124.090 14.090 124.000 14.000 124.000 H 10.090 C 10.040 124.000 10.000 124.040 10.000 124.090 V 132.090 C 10.000 132.140 10.040 132.180 10.090 132.180 H 14.000 C 14.090 132.180 14.000 132.090 14.000 132.180 V 140.000 C 14.000 140.090 14.090 140.000 14.000 140.000 H 10.090 C 10.040 140.000 10.000 140.040 10.000 140.090 V 148.090 C 10.000 148.140 10.040 148.180 10.090 148.180 H 14.000 C 14.090 148.180 14.000 148.090 14.000 148.180 V 156.000 C 14.000 156.090 14.090 156.000 14.000 156.000 H 10.090 C 10.040 156.000 10.000 156.040 10.000 156.090 V 164.090 C 10.000 164.140 10.040 164.180 10.090 164.180 H 14.000 C 14.090 164.180 14.000 164.090 14.000 164.180 V 172.000 C 14.000 172.090 14.090 172.000 14.000 172.000 H 10.090 C 10.040 172.000 10.000 172.040 10.000 172.090 V 180.090 C 10.000 180.140 10.040 180.180 10.090 180.180 H 14.000 C 14.090 180.180 14.000 180.090 14.000 180.180 V 188.000 C 14.000 188.090 14.090 188.000 14.000 188.000 H 10.090 C 10.040 188.000 10.000 188.040 10.000 188.090 V 196.090 C 10.000 196.140 10.040 196.180 10.090 196.180 H 14.000 C 14.090 196.180 14.000 196.090 14.000 196.180 V 204.000 C 14.000 204.090 14.090 204.000 14.000 204.000 H 10.090 C 10.040 204.000 10.000 204.040 10.000 204.090 V 212.090 C 10.000 212.140 10.040 212.180 10.090 212.180 H 14.000 C 14.090 212.180 14.000 212.090 14.000 212.180 V 226.090 C 14.000 226.140 14.040 226.180 14.090 226.180 Z" stroke="rgb(0,0,0)" stroke-width="0.18"/>
</g>
<g id="p-6" style="fill:none;stroke-linecap:round;stroke-linejoin:round;">
  <path d="M 207.270 226.180 H 222.680 C 222.770 226.180 222.680 226.090 222.680 226.180 V 230.090 C 222.680 230.140 222.720 230.180 222.770 230.180 H 230.770 C 230.820 230.180 230.860 230.140 230.860 230.090 V 226.180 C 230.860 226.090 230.770 226.180 230.860 226.180 H 238.680 C 238.770 226.180 238.680 226.090 238.680 226.180 V 230.090 C 238.680 230.140 238.720 230.180 238.770 230.180 H 246.770 C 246.820 230.180 246.860 230.140 246.860 230.090 V 226.180 C 246.860 226.090 246.770 226.180 246.860 226.180 H 254.680 C 254.770 226.180 254.680 226.090 254.680 226.180 V 230.090 C 254.680 230.140 254.720 230.180 254.770 230.180 H 262.770 C 262.820 230.180 262.860 230.140 262.860 230.090 V 226.180 C 262.860 226.090 262.770 226.180 262.860 226.180 H 270.680 C 270.770 226.180 270.680 226.090 270.680 226.180 V 230.090 C 270.680 230.140 270.720 230.180 270.770 230.180 H 278.770 C 278.820 230.180 278.860 230.140 278.860 230.090 V 226.180 C 278.860 226.090 278.770 226.180 278.860 226.180 H 286.680 C 286.770 226.180 286.680 226.090 286.680 226.180 V 230.090 C 286.680 230.140 286.720 230.180 286.770 230.180 H 294.770 C 294.820 230.180 294.860 230.140 294.860 230.090 V 226.180 C 294.860 226.090 294.770 226.180 294.860 226.180 H 302.680 C 302.770 226.180 302.680 226.090 302.680 226.180 V 230.090 C 302.680 230.140 302.720 230.180 302.770 230.180 H 310.770 C 310.820 230.180 310.860 230.140 310.860 230.090 V 226.180 C 310.860 226.090 310.770 226.180 310.860 226.180 H 318.680 C 318.770 226.180 318.680 226.090 318.680 226.180 V 230.090 C 318.680 230.140 318.720 230.180 318.770 230.180 H 326.770 C 326.820 230.180 326.860 230.140 326.860 230.090 V 226.180 C 326.860 226.090 326.770 226.180 326.860 226.180 H 334.680 C 334.770 226.180 334.680 226.090 334.680 226.180 V 230.090 C 334.680 230.140 334.720 230.180 334.770 230.180 H 342.770 C 342.820 230.180 342.860 230.140 342.860 230.090 V 226.180 C 342.860 226.090 342.770 226.180 342.860 226.180 H 350.680 C 350.770 226.180 350.680 226.090 350.680 226.180 V 230.090 C 350.680 230.140 350.720 230.180 350.770 230.180 H 358.770 C 358.820 230.180 358.860 230.140 358.860 230.090 V 226.180 C 358.860 226.090 358.770 226.180 358.860 226.180 H 366.680 C 366.770 226.180 366.680 226.090 366.680 226.180 V 230.090 C 366.680 230.140 366.720 230.180 366.770 230.180 H 374.770 C 374.820 230.180 374.860 230.140 374.860 230.090 V 226.180 C 374.860 226.090 374.770 226.180 374.860 226.180 H 390.270 C 390.320 226.180 390.360 226.140 390.360 226.090 V 212.180 C 390.360 212.090 390.270 212.180 390.360 212.180 H 394.270 C 394.320 212.180 394.360 212.140 394.360 212.090 V 204.090 C 394.360 204.040 394.320 204.000 394.270 204.000 H 390.360 C 390.270 204.000 390.360 204.090 390.360 204.000 V 196.180 C 390.360 196.090 390.270 196.180 390.360 196.180 H 394.270 C 394.320 196.180 394.360 196.140 394.360 196.090 V 188.090 C 394.360 188.040 394.320 188.000 394.270 188.000 H 390.360 C 390.270 188.000 390.360 188.090 390.360 188.000 V 180.180 C 390.360 180.090 390.270 180.180 390.360 180.180 H 394.270 C 394.320 180.180 394.360 180.140 394.360 180.090 V 172.090 C 394.360 172.040 394.320 172.000 394.270 172.000 H 390.360 C 390.270 172.000 390.360 172.090 390.360 172.000 V 164.180 C 390.360 164.090 390.270 164.180 390.360 164.180 H 394.270 C 394.320 164.180 394.360 164.140 394.360 164.090 V 156.090 C 394.360 156.040 394.320 156.000 394.270 156.000 H 390.360 C 390.270 156.000 390.360 156.090 390.360 156.000 V 148.180 C 390.360 148.090 390.270 148.180 390.360 148.180 H 394.270 C 394.320 148.180 394.360 148.140 394.360 148.090 V 140.090 C 394.360 140.040 394.320 140.000 394.270 140.000 H 390.360 C 390.270 140.000 390.360 140.090 390.360 140.000 V 132.180 C 390.360 132.090 390.270 132.180 390.360 132.180 H 394.270 C 394.320 132.180 394.360 132.140 394.360 132.090 V 124.090 C 394.360 124.040 394.320 124.000 394.270 124.000 H 390.360 C 390.270 124.000 390.360 124.090 390.360 124.000 V 116.180 C 390.360 116.090 390.270 116.180 390.360 116.180 H 394.270 C 394.320 116.180 394.360 116.140 394.360 116.090 V 108.090 C 394.360 108.040 394.320 108.000 394.270 108.000 H 390.360 C 390.270 108.000 390.360 108.090 390.360 108.000 V 100.180 C 390.360 100.090 390.270 100.180 390.360 100.180 H 394.270 C 394.320 100.180 394.360 100.140 394.360 100.090 V 92.090 C 394.360 92.040 394.320 92.000 394.270 92.000 H 390.360 C 390.270 92.000 390.360 92.090 390.360 92.000 V 84.180 C 390.360 84.090 390.270 84.180 390.360 84.180 H 394.270 C 394.320 84.180 394.360 84.140 394.360 84.090 V 76.090 C 394.360 76.040 394.320 76.000 394.270 76.000 H 390.360 C 390.270 76.000 390.360 76.090 390.360 76.000 V 68.180 C 390.360 68.090 390.270 68.180 390.360 68.180 H 394.270 C 394.320 68.180 394.360 68.140 394.360 68.090 V 60.090 C 394.360 60.040 394.320 60.000 394.270 60.000 H 390.360 C 390.270 60.000 390.360 60.090 390.360 60.000 V 52.180 C 390.360 52.090 390.270 52.180 390.360 52.180 H 394.270 C 394.320 52.180 394.360 52.140 394.360 52.090 V 44.090 C 394.360 44.040 394.320 44.000 394.270 44.000 H 390.360 C 390.270 44.000 390.360 44.090 390.360 44.000 V 36.180 C 390.360 36.090 390.270 36.180 390.360 36.180 H 394.270 C 394.320 36.180 394.360 36.140 394.360 36.090 V 28.090 C 394.360 28.040 394.320 28.000 394.270 28.000 H 390.360 C 390.270 28.000 390.360 28.090 390.360 28.000 V 14.090 C 390.360 14.040 390.320 14.000 390.270 14.000 H 374.860 C 374.770 14.000 374.860 14.090 374.860 14.000 V 10.090 C 374.860 10.040 374.820 10.000 374.770 10.000 H 366.770 C 366.720 10.000 366.680 10.040 366.680 10.090 V 14.000 C 366.680 14.090 366.770 14.000 366.680 14.000 H 358.860 C 358.770 14.000 358.860 14.090 358.860 14.000 V 10.090 C 358.860 10.040 358.820 10.000 358.770 10.000 H 350.770 C 350.720 10.000 350.680 10.040 350.680 10.090 V 14.000 C 350.680 14.090 350.770 14.000 350.680 14.000 H 342.860 C 342.770 14.000 342.860 14.090 342.860 14.000 V 10.090 C 342.860 10.040 342.820 10.000 342.770 10.000 H 334.770 C 334.720 10.000 334.680 10.040 334.680 10.090 V 14.000 C 334.680 14.090 334.770 14.000 334.680 14.000 H 326.860 C 326.770 14.000 326.860 14.090 326.860 14.000 V 10.090 C 326.860 10.040 326.820 10.000 326.770 10.000 H 318.770 C 318.720 10.000 318.680 10.040 318.680 10.090 V 14.000 C 318.680 14.090 318.770 14.000 318.680 14.000 H 310.860 C 310.770 14.000 310.860 14.090 310.860 14.000 V 10.090 C 310.860 10.040 310.820 10.000 310.770 10.000 H 302.770 C 302.720 10.000 302.680 10.040 302.680 10.090 V 14.000 C 302.680 14.090 302.770 14.000 302.680 14.000 H 294.860 C 294.770 14.000 294.860 14.090 294.860 14.000 V 10.090 C 294.860 10.040 294.820 10.000 294.770 10.000 H 286.770 C 286.720 10.000 286.680 10.040 286.680 10.090 V 14.000 C 286.680 14.090 286.770 14.000 286.680 14.000 H 278.860 C 278.770 14.000 278.860 14.090 278.860 14.000 V 10.090 C 278.860 10.040 278.820 10.000 278.770 10.000 H 270.770 C 270.720 10.000 270.680 10.040 270.680 10.090 V 14.000 C 270.680 14.090 270.770 14.000 270.680 14.000 H 262.860 C 262.770 14.000 262.860 14.090 262.860 14.000 V 10.090 C 262.860 10.040 262.820 10.000 262.770 10.000 H 254.770 C 254.720 10.000 254.680 10.040 254.680 10.090 V 14.000 C 254.680 14.090 254.770 14.000 254.680 14.000 H 246.860 C 246.770 14.000 246.860 14.090 246.860 14.000 V 10.090 C 246.860 10.040 246.820 10.000 246.770 10.000 H 238.770 C 238.720 10.000 238.680 10.040 238.680 10.090 V 14.000 C 238.680 14.090 238.770 14.000 238.680 14.000 H 230.860 C 230.770 14.000 230.860 14.090 230.860 14.000 V 10.090 C 230.860 10.040 230.820 10.000 230.770 10.000 H 222.770 C 222.720 10.000 222.680 10.040 222.680 10.090 V 14.000 C 222.680 14.090 222.770 14.000 222.680 14.000 H 207.270 C 207.220 14.000 207.180 14.040 207.180 14.090 V 28.000 C 207.180 28.090 207.270 28.000 207.180 28.000 H 203.270 C 203.220 28.000 203.180 28.040 203.180 28.090 V 36.090 C 203.180 36.140 203.220 36.180 203.270 36.180 H 207.180 C 207.270 36.180 207.180 36.090 207.180 36.180 V 44.000 C 207.180 44.090 207.270 44.000 207.180 44.000 H 203.270 C 203.220 44.000 203.180 44.040 203.180 44.090 V 52.090 C 203.180 52.140 203.220 52.180 203.270 52.180 H 207.180 C 207.270 52.180 207.180 52.090 207.180 52.180 V 60.000 C 207.180 60.090 207.270 60.000 207.180 60.000 H 203.270 C 203.220 60.000 203.180 60.040 203.180 60.090 V 68.090 C 203.180 68.140 203.220 68.180 203.270 68.180 H 207.180 C 207.270 68.180 207.180 68.090 207.180 68.180 V 76.000 C 207.180 76.090 207.270 76.000 207.180 76.000 H 203.270 C 203.220 76.000 203.180 76.040 203.180 76.090 V 84.090 C 203.180 84.140 203.220 84.180 203.270 84.180 H 207.180 C 207.270 84.180 207.180 84.090 207.180 84.180 V 92.000 C 207.180 92.090 207.270 92.000 207.180 92.000 H 203.270 C 203.220 92.000 203.180 92.040 203.180 92.090 V 100.090 C 203.180 100.140 203.220 100.180 203.270 100.180 H 207.180 C 207.270 100.180 207.180 100.090 207.180 100.180 V 108.000 C 207.180 108.090 207.270 108.000 207.180 108.000 H 203.270 C 203.220 108.000 203.180 108.040 203.180 108.090 V 116.090 C 203.180 116.140 203.220 116.180 203.270 116.180 H 207.180 C 207.270 116.180 207.180 116.090 207.180 116.180 V 124.000 C 207.180 124.090 207.270 124.000 207.180 124.000 H 203.270 C 203.220 124.000 203.180 124.040 203.180 124.090 V 132.090 C 203.180 132.140 203.220 132.180 203.270 132.180 H 207.180 C 207.270 132.180 207.180 132.090 207.180 132.180 V 140.000 C 207.180 140.090 207.270 140.000 207.180 140.000 H 203.270 C 203.220 140.000 203.180 140.040 203.180 140.090 V 148.090 C 203.180 148.140 203.220 148.180 203.270 148.180 H 207.180 C 207.270 148.180 207.180 148.090 207.180 148.180 V 156.000 C 207.180 156.090 207.270 156.000 207.180 156.000 H 203.270 C 203.220 156.000 203.180 156.040 203.180 156.090 V 164.090 C 203.180 164.140 203.220 164.180 203.270 164.180 H 207.180 C 207.270 164.180 207.180 164.090 207.180 164.180 V 172.000 C 207.180 172.090 207.270 172.000 207.180 172.000 H 203.270 C 203.220 172.000 203.180 172.040 203.180 172.090 V 180.090 C 203.180 180.140 203.220 180.180 203.270 180.180 H 207.180 C 207.270 180.180 207.180 180.090 207.180 180.180 V 188.000 C 207.180 188.090 207.270 188.000 207.180 188.000 H 203.270 C 203.220 188.000 203.180 188.040 203.180 188.090 V 196.090 C 203.180 196.140 203.220 196.180 203.270 196.180 H 207.180 C 207.270 196.180 207.180 196.090 207.180 196.180 V 204.000 C 207.180 204.090 207.270 204.000 207.180 204.000 H 203.270 C 203.220 204.000 203.180 204.040 203.180 204.090 V 212.090 C 203.180 212.140 203.220 212.180 203.270 212.180 H 207.180 C 207.270 212.180 207.180 212.090 207.180 212.180 V 226.090 C 207.180 226.140 207.220 226.180 207.270 226.180 Z" stroke="rgb(0,0,0)" stroke-width="0.18"/>
</g>
</svg>