<?xml version="1.0" encoding="UTF-8"?>
<svg height="306.72mm" viewBox="0.0 0.0 412.36 306.72" width="412.36mm" xmlns="http://www.w3.org/2000/svg" xmlns:cc="http://creativecommons.org/ns#" xmlns:dc="http://purl.org/dc/elements/1.1/" xmlns:inkscape="http://www.inkscape.org/namespaces/inkscape" xmlns:rdf="http://www.w3.org/1999/02/22-rdf-syntax-ns#" xmlns:svg="http://www.w3.org/2000/svg" xmlns:xlink="http://www.w3.org/1999/xlink">
<!--
UniversalBox - Box with various options for different styles and lids

Created with Boxes.py (https://festi.info/boxes.py)
Creation date: 2020-11-30 08:03:35
Command line (remove spaces between dashes): boxes UniversalBox - -FingerJoint_angle=90.0 - -FingerJoint_style=rectangular - -FingerJoint_surroundingspaces=2.0 - -FingerJoint_edge_width=1.0 - -FingerJoint_finger=2.0 - -FingerJoint_play=0.0 - -FingerJoint_space=2.0 - -FingerJoint_width=1.0 - -Stackable_angle=60 - -Stackable_height=2.0 - -Stackable_holedistance=1.0 - -Stackable_width=4.0 - -Hinge_grip_percentage=0 - -Hinge_outset=0 - -Hinge_outset=1 - -Hinge_pinwidth=0.5 - -Hinge_style=outset - -Hinge_axle=2 - -Hinge_grip_length=0 - -Hinge_hingestrength=1 - -CabinetHinge_bore=3.2 - -CabinetHinge_eyes_per_hinge=5 - -CabinetHinge_hinges=2 - -CabinetHinge_style=inside - -CabinetHinge_eye=1.5 - -CabinetHinge_play=0.05 - -CabinetHinge_spacing=2.0 - -Lid_angle=90.0 - -Lid_second_pin=0 - -Lid_second_pin=1 - -Lid_spring=both - -Lid_style=rectangular - -Lid_surroundingspaces=2.0 - -Lid_edge_width=1.0 - -Lid_finger=3.0 - -Lid_play=0.05 - -Lid_space=2.0 - -Lid_width=1.0 - -Click_angle=5.0 - -Click_bottom_radius=0.1 - -Click_depth=3.0 - -RoundedTriangleEdge_height=150.0 - -RoundedTriangleEdge_r_hole=2.0 - -RoundedTriangleEdge_radius=30.0 - -RoundedTriangleEdge_outset=1 - -Flex_stretch=1.05 - -Flex_connection=1.0 - -Flex_distance=0.5 - -Flex_width=5.0 - -top_edge=e - -bottom_edge=F - -x=180 - -y=210 - -h=30 - -outside=0 - -outside=1 '- -vertical_edges=finger joints' '- -lid=default (none)' - -thickness=4.0 - -format=svg - -tabs=0.0 - -debug=0 - -reference=100 - -burn=0.09
Url: http://www.festi.info/UniversalBox?FingerJoint_angle=90.0&FingerJoint_style=rectangular&FingerJoint_surroundingspaces=2.0&FingerJoint_edge_width=1.0&FingerJoint_finger=2.0&FingerJoint_play=0.0&FingerJoint_space=2.0&FingerJoint_width=1.0&Stackable_angle=60&Stackable_height=2.0&Stackable_holedistance=1.0&Stackable_width=4.0&Hinge_grip_percentage=0&Hinge_outset=0&Hinge_outset=1&Hinge_pinwidth=0.5&Hinge_style=outset&Hinge_axle=2&Hinge_grip_length=0&Hinge_hingestrength=1&CabinetHinge_bore=3.2&CabinetHinge_eyes_per_hinge=5&CabinetHinge_hinges=2&CabinetHinge_style=inside&CabinetHinge_eye=1.5&CabinetHinge_play=0.05&CabinetHinge_spacing=2.0&Lid_angle=90.0&Lid_second_pin=0&Lid_second_pin=1&Lid_spring=both&Lid_style=rectangular&Lid_surroundingspaces=2.0&Lid_edge_width=1.0&Lid_finger=3.0&Lid_play=0.05&Lid_space=2.0&Lid_width=1.0&Click_angle=5.0&Click_bottom_radius=0.1&Click_depth=3.0&RoundedTriangleEdge_height=150.0&RoundedTriangleEdge_r_hole=2.0&RoundedTriangleEdge_radius=30.0&RoundedTriangleEdge_outset=1&Flex_stretch=1.05&Flex_connection=1.0&Flex_distance=0.5&Flex_width=5.0&top_edge=e&bottom_edge=F&x=180&y=210&h=30&outside=0&outside=1&vertical_edges=finger+joints&lid=default+%28none%29&thickness=4.0&format=svg&tabs=0.0&debug=0&reference=100&burn=0.09&render=1
SettingsUrl: http://www.festi.info/UniversalBox?FingerJoint_angle=90.0&FingerJoint_style=rectangular&FingerJoint_surroundingspaces=2.0&FingerJoint_edge_width=1.0&FingerJoint_finger=2.0&FingerJoint_play=0.0&FingerJoint_space=2.0&FingerJoint_width=1.0&Stackable_angle=60&Stackable_height=2.0&Stackable_holedistance=1.0&Stackable_width=4.0&Hinge_grip_percentage=0&Hinge_outset=0&Hinge_outset=1&Hinge_pinwidth=0.5&Hinge_style=outset&Hinge_axle=2&Hinge_grip_length=0&Hinge_hingestrength=1&CabinetHinge_bore=3.2&CabinetHinge_eyes_per_hinge=5&CabinetHinge_hinges=2&CabinetHinge_style=inside&CabinetHinge_eye=1.5&CabinetHinge_play=0.05&CabinetHinge_spacing=2.0&Lid_angle=90.0&Lid_second_pin=0&Lid_second_pin=1&Lid_spring=both&Lid_style=rectangular&Lid_surroundingspaces=2.0&Lid_edge_width=1.0&Lid_finger=3.0&Lid_play=0.05&Lid_space=2.0&Lid_width=1.0&Click_angle=5.0&Click_bottom_radius=0.1&Click_depth=3.0&RoundedTriangleEdge_height=150.0&RoundedTriangleEdge_r_hole=2.0&RoundedTriangleEdge_radius=30.0&RoundedTriangleEdge_outset=1&Flex_stretch=1.05&Flex_connection=1.0&Flex_distance=0.5&Flex_width=5.0&top_edge=e&bottom_edge=F&x=180&y=210&h=30&outside=0&outside=1&vertical_edges=finger+joints&lid=default+%28none%29&thickness=4.0&format=svg&tabs=0.0&debug=0&reference=100&burn=0.09
-->
<title>UniversalBox</title>
<metadata>
<rdf:RDF><cc:Work>
<dc:title>Box - UniversalBox</dc:title>
<dc:date>2020-11-30 08:03:35</dc:date>
<dc:source>http://www.festi.info/UniversalBox?FingerJoint_angle=90.0&amp;FingerJoint_style=rectangular&amp;FingerJoint_surroundingspaces=2.0&amp;FingerJoint_edge_width=1.0&amp;FingerJoint_finger=2.0&amp;FingerJoint_play=0.0&amp;FingerJoint_space=2.0&amp;FingerJoint_width=1.0&amp;Stackable_angle=60&amp;Stackable_height=2.0&amp;Stackable_holedistance=1.0&amp;Stackable_width=4.0&amp;Hinge_grip_percentage=0&amp;Hinge_outset=0&amp;Hinge_outset=1&amp;Hinge_pinwidth=0.5&amp;Hinge_style=outset&amp;Hinge_axle=2&amp;Hinge_grip_length=0&amp;Hinge_hingestrength=1&amp;CabinetHinge_bore=3.2&amp;CabinetHinge_eyes_per_hinge=5&amp;CabinetHinge_hinges=2&amp;CabinetHinge_style=inside&amp;CabinetHinge_eye=1.5&amp;CabinetHinge_play=0.05&amp;CabinetHinge_spacing=2.0&amp;Lid_angle=90.0&amp;Lid_second_pin=0&amp;Lid_second_pin=1&amp;Lid_spring=both&amp;Lid_style=rectangular&amp;Lid_surroundingspaces=2.0&amp;Lid_edge_width=1.0&amp;Lid_finger=3.0&amp;Lid_play=0.05&amp;Lid_space=2.0&amp;Lid_width=1.0&amp;Click_angle=5.0&amp;Click_bottom_radius=0.1&amp;Click_depth=3.0&amp;RoundedTriangleEdge_height=150.0&amp;RoundedTriangleEdge_r_hole=2.0&amp;RoundedTriangleEdge_radius=30.0&amp;RoundedTriangleEdge_outset=1&amp;Flex_stretch=1.05&amp;Flex_connection=1.0&amp;Flex_distance=0.5&amp;Flex_width=5.0&amp;top_edge=e&amp;bottom_edge=F&amp;x=180&amp;y=210&amp;h=30&amp;outside=0&amp;outside=1&amp;vertical_edges=finger+joints&amp;lid=default+%28none%29&amp;thickness=4.0&amp;format=svg&amp;tabs=0.0&amp;debug=0&amp;reference=100&amp;burn=0.09&amp;render=1</dc:source>
<dc:description>Box with various options for different styles and lids

Created with Boxes.py (https://festi.info/boxes.py)
Command line: boxes UniversalBox --FingerJoint_angle=90.0 --FingerJoint_style=rectangular --FingerJoint_surroundingspaces=2.0 --FingerJoint_edge_width=1.0 --FingerJoint_finger=2.0 --FingerJoint_play=0.0 --FingerJoint_space=2.0 --FingerJoint_width=1.0 --Stackable_angle=60 --Stackable_height=2.0 --Stackable_holedistance=1.0 --Stackable_width=4.0 --Hinge_grip_percentage=0 --Hinge_outset=0 --Hinge_outset=1 --Hinge_pinwidth=0.5 --Hinge_style=outset --Hinge_axle=2 --Hinge_grip_length=0 --Hinge_hingestrength=1 --CabinetHinge_bore=3.2 --CabinetHinge_eyes_per_hinge=5 --CabinetHinge_hinges=2 --CabinetHinge_style=inside --CabinetHinge_eye=1.5 --CabinetHinge_play=0.05 --CabinetHinge_spacing=2.0 --Lid_angle=90.0 --Lid_second_pin=0 --Lid_second_pin=1 --Lid_spring=both --Lid_style=rectangular --Lid_surroundingspaces=2.0 --Lid_edge_width=1.0 --Lid_finger=3.0 --Lid_play=0.05 --Lid_space=2.0 --Lid_width=1.0 --Click_angle=5.0 --Click_bottom_radius=0.1 --Click_depth=3.0 --RoundedTriangleEdge_height=150.0 --RoundedTriangleEdge_r_hole=2.0 --RoundedTriangleEdge_radius=30.0 --RoundedTriangleEdge_outset=1 --Flex_stretch=1.05 --Flex_connection=1.0 --Flex_distance=0.5 --Flex_width=5.0 --top_edge=e --bottom_edge=F --x=180 --y=210 --h=30 --outside=0 --outside=1 '--vertical_edges=finger joints' '--lid=default (none)' --thickness=4.0 --format=svg --tabs=0.0 --debug=0 --reference=100 --burn=0.09
Url: http://www.festi.info/UniversalBox?FingerJoint_angle=90.0&amp;FingerJoint_style=rectangular&amp;FingerJoint_surroundingspaces=2.0&amp;FingerJoint_edge_width=1.0&amp;FingerJoint_finger=2.0&amp;FingerJoint_play=0.0&amp;FingerJoint_space=2.0&amp;FingerJoint_width=1.0&amp;Stackable_angle=60&amp;Stackable_height=2.0&amp;Stackable_holedistance=1.0&amp;Stackable_width=4.0&amp;Hinge_grip_percentage=0&amp;Hinge_outset=0&amp;Hinge_outset=1&amp;Hinge_pinwidth=0.5&amp;Hinge_style=outset&amp;Hinge_axle=2&amp;Hinge_grip_length=0&amp;Hinge_hingestrength=1&amp;CabinetHinge_bore=3.2&amp;CabinetHinge_eyes_per_hinge=5&amp;CabinetHinge_hinges=2&amp;CabinetHinge_style=inside&amp;CabinetHinge_eye=1.5&amp;CabinetHinge_play=0.05&amp;CabinetHinge_spacing=2.0&amp;Lid_angle=90.0&amp;Lid_second_pin=0&amp;Lid_second_pin=1&amp;Lid_spring=both&amp;Lid_style=rectangular&amp;Lid_surroundingspaces=2.0&amp;Lid_edge_width=1.0&amp;Lid_finger=3.0&amp;Lid_play=0.05&amp;Lid_space=2.0&amp;Lid_width=1.0&amp;Click_angle=5.0&amp;Click_bottom_radius=0.1&amp;Click_depth=3.0&amp;RoundedTriangleEdge_height=150.0&amp;RoundedTriangleEdge_r_hole=2.0&amp;RoundedTriangleEdge_radius=30.0&amp;RoundedTriangleEdge_outset=1&amp;Flex_stretch=1.05&amp;Flex_connection=1.0&amp;Flex_distance=0.5&amp;Flex_width=5.0&amp;top_edge=e&amp;bottom_edge=F&amp;x=180&amp;y=210&amp;h=30&amp;outside=0&amp;outside=1&amp;vertical_edges=finger+joints&amp;lid=default+%28none%29&amp;thickness=4.0&amp;format=svg&amp;tabs=0.0&amp;debug=0&amp;reference=100&amp;burn=0.09&amp;render=1
SettingsUrl: http://www.festi.info/UniversalBox?FingerJoint_angle=90.0&amp;FingerJoint_style=rectangular&amp;FingerJoint_surroundingspaces=2.0&amp;FingerJoint_edge_width=1.0&amp;FingerJoint_finger=2.0&amp;FingerJoint_play=0.0&amp;FingerJoint_space=2.0&amp;FingerJoint_width=1.0&amp;Stackable_angle=60&amp;Stackable_height=2.0&amp;Stackable_holedistance=1.0&amp;Stackable_width=4.0&amp;Hinge_grip_percentage=0&amp;Hinge_outset=0&amp;Hinge_outset=1&amp;Hinge_pinwidth=0.5&amp;Hinge_style=outset&amp;Hinge_axle=2&amp;Hinge_grip_length=0&amp;Hinge_hingestrength=1&amp;CabinetHinge_bore=3.2&amp;CabinetHinge_eyes_per_hinge=5&amp;CabinetHinge_hinges=2&amp;CabinetHinge_style=inside&amp;CabinetHinge_eye=1.5&amp;CabinetHinge_play=0.05&amp;CabinetHinge_spacing=2.0&amp;Lid_angle=90.0&amp;Lid_second_pin=0&amp;Lid_second_pin=1&amp;Lid_spring=both&amp;Lid_style=rectangular&amp;Lid_surroundingspaces=2.0&amp;Lid_edge_width=1.0&amp;Lid_finger=3.0&amp;Lid_play=0.05&amp;Lid_space=2.0&amp;Lid_width=1.0&amp;Click_angle=5.0&amp;Click_bottom_radius=0.1&amp;Click_depth=3.0&amp;RoundedTriangleEdge_height=150.0&amp;RoundedTriangleEdge_r_hole=2.0&amp;RoundedTriangleEdge_radius=30.0&amp;RoundedTriangleEdge_outset=1&amp;Flex_stretch=1.05&amp;Flex_connection=1.0&amp;Flex_distance=0.5&amp;Flex_width=5.0&amp;top_edge=e&amp;bottom_edge=F&amp;x=180&amp;y=210&amp;h=30&amp;outside=0&amp;outside=1&amp;vertical_edges=finger+joints&amp;lid=default+%28none%29&amp;thickness=4.0&amp;format=svg&amp;tabs=0.0&amp;debug=0&amp;reference=100&amp;burn=0.09
</dc:description>
</cc:Work></rdf:RDF></metadata>
<g id="p-0" style="fill:none;stroke-linecap:round;stroke-linejoin:round;">
  <path d="M 10.090 296.720 H 110.090 V 286.720 H 10.090 V 296.720 Z" stroke="rgb(0,0,0)" stroke-width="0.18"/>
  <text alignment-baseline="hanging" font-size="10px" style="font-family: sans-serif ; font-weight: normal; font-style: normal; fill: rgb(0,0,0)" text-anchor="middle" transform="matrix( 1.000 0.000 0.000 1.000 60.090 286.720 )">100mm</text>
</g>
<g id="p-1" style="fill:none;stroke-linecap:round;stroke-linejoin:round;">
  <path d="M 14.090 284.540 H 24.090 C 24.140 284.540 24.180 284.500 24.180 284.450 V 280.540 C 24.180 280.450 24.090 280.540 24.180 280.540 H 32.000 C 32.090 280.540 32.000 280.450 32.000 280.540 V 284.450 C 32.000 284.500 32.040 284.540 32.090 284.540 H 40.090 C 40.140 284.540 40.180 284.500 40.180 284.450 V 280.540 C 40.180 280.450 40.090 280.540 40.180 280.540 H 48.000 C 48.090 280.540 48.000 280.450 48.000 280.540 V 284.450 C 48.000 284.500 48.040 284.540 48.090 284.540 H 56.090 C 56.140 284.540 56.180 284.500 56.180 284.450 V 280.540 C 56.180 280.450 56.090 280.540 56.180 280.540 H 64.000 C 64.090 280.540 64.000 280.450 64.000 280.540 V 284.450 C 64.000 284.500 64.040 284.540 64.090 284.540 H 72.090 C 72.140 284.540 72.180 284.500 72.180 284.450 V 280.540 C 72.180 280.450 72.090 280.540 72.180 280.540 H 80.000 C 80.090 280.540 80.000 280.450 80.000 280.540 V 284.450 C 80.000 284.500 80.040 284.540 80.090 284.540 H 88.090 C 88.140 284.540 88.180 284.500 88.180 284.450 V 280.540 C 88.180 280.450 88.090 280.540 88.180 280.540 H 96.000 C 96.090 280.540 96.000 280.450 96.000 280.540 V 284.450 C 96.000 284.500 96.040 284.540 96.090 284.540 H 104.090 C 104.140 284.540 104.180 284.500 104.180 284.450 V 280.540 C 104.180 280.450 104.090 280.540 104.180 280.540 H 112.000 C 112.090 280.540 112.000 280.450 112.000 280.540 V 284.450 C 112.000 284.500 112.040 284.540 112.090 284.540 H 120.090 C 120.140 284.540 120.180 284.500 120.180 284.450 V 280.540 C 120.180 280.450 120.090 280.540 120.180 280.540 H 128.000 C 128.090 280.540 128.000 280.450 128.000 280.540 V 284.450 C 128.000 284.500 128.040 284.540 128.090 284.540 H 136.090 C 136.140 284.540 136.180 284.500 136.180 284.450 V 280.540 C 136.180 280.450 136.090 280.540 136.180 280.540 H 144.000 C 144.090 280.540 144.000 280.450 144.000 280.540 V 284.450 C 144.000 284.500 144.040 284.540 144.090 284.540 H 152.090 C 152.140 284.540 152.180 284.500 152.180 284.450 V 280.540 C 152.180 280.450 152.090 280.540 152.180 280.540 H 160.000 C 160.090 280.540 160.000 280.450 160.000 280.540 V 284.450 C 160.000 284.500 160.040 284.540 160.090 284.540 H 168.090 C 168.140 284.540 168.180 284.500 168.180 284.450 V 280.540 C 168.180 280.450 168.090 280.540 168.180 280.540 H 176.000 C 176.090 280.540 176.000 280.450 176.000 280.540 V 284.450 C 176.000 284.500 176.040 284.540 176.090 284.540 H 186.090 H 190.090 C 190.140 284.540 190.180 284.500 190.180 284.450 V 273.450 C 190.180 273.400 190.140 273.360 190.090 273.360 H 186.180 C 186.090 273.360 186.180 273.450 186.180 273.360 V 265.540 C 186.180 265.450 186.090 265.540 186.180 265.540 H 190.090 C 190.140 265.540 190.180 265.500 190.180 265.450 V 254.450 C 190.180 254.400 190.140 254.360 190.090 254.360 H 186.090 H 14.090 H 10.090 C 10.040 254.360 10.000 254.400 10.000 254.450 V 265.450 C 10.000 265.500 10.040 265.540 10.090 265.540 H 14.000 C 14.090 265.540 14.000 265.450 14.000 265.540 V 273.360 C 14.000 273.450 14.090 273.360 14.000 273.360 H 10.090 C 10.040 273.360 10.000 273.400 10.000 273.450 V 284.450 C 10.000 284.500 10.040 284.540 10.090 284.540 H 14.090 Z" stroke="rgb(0,0,0)" stroke-width="0.18"/>
</g>
<g id="p-2" style="fill:none;stroke-linecap:round;stroke-linejoin:round;">
  <path d="M 14.090 252.360 H 24.090 C 24.140 252.360 24.180 252.320 24.180 252.270 V 248.360 C 24.180 248.270 24.090 248.360 24.180 248.360 H 32.000 C 32.090 248.360 32.000 248.270 32.000 248.360 V 252.270 C 32.000 252.320 32.040 252.360 32.090 252.360 H 40.090 C 40.140 252.360 40.180 252.320 40.180 252.270 V 248.360 C 40.180 248.270 40.090 248.360 40.180 248.360 H 48.000 C 48.090 248.360 48.000 248.270 48.000 248.360 V 252.270 C 48.000 252.320 48.040 252.360 48.090 252.360 H 56.090 C 56.140 252.360 56.180 252.320 56.180 252.270 V 248.360 C 56.180 248.270 56.090 248.360 56.180 248.360 H 64.000 C 64.090 248.360 64.000 248.270 64.000 248.360 V 252.270 C 64.000 252.320 64.040 252.360 64.090 252.360 H 72.090 C 72.140 252.360 72.180 252.320 72.180 252.270 V 248.360 C 72.180 248.270 72.090 248.360 72.180 248.360 H 80.000 C 80.090 248.360 80.000 248.270 80.000 248.360 V 252.270 C 80.000 252.320 80.040 252.360 80.090 252.360 H 88.090 C 88.140 252.360 88.180 252.320 88.180 252.270 V 248.360 C 88.180 248.270 88.090 248.360 88.180 248.360 H 96.000 C 96.090 248.360 96.000 248.270 96.000 248.360 V 252.270 C 96.000 252.320 96.040 252.360 96.090 252.360 H 104.090 C 104.140 252.360 104.180 252.320 104.180 252.270 V 248.360 C 104.180 248.270 104.090 248.360 104.180 248.360 H 112.000 C 112.090 248.360 112.000 248.270 112.000 248.360 V 252.270 C 112.000 252.320 112.040 252.360 112.090 252.360 H 120.090 C 120.140 252.360 120.180 252.320 120.180 252.270 V 248.360 C 120.180 248.270 120.090 248.360 120.180 248.360 H 128.000 C 128.090 248.360 128.000 248.270 128.000 248.360 V 252.270 C 128.000 252.320 128.040 252.360 128.090 252.360 H 136.090 C 136.140 252.360 136.180 252.320 136.180 252.270 V 248.360 C 136.180 248.270 136.090 248.360 136.180 248.360 H 144.000 C 144.090 248.360 144.000 248.270 144.000 248.360 V 252.270 C 144.000 252.320 144.040 252.360 144.090 252.360 H 152.090 C 152.140 252.360 152.180 252.320 152.180 252.270 V 248.360 C 152.180 248.270 152.090 248.360 152.180 248.360 H 160.000 C 160.090 248.360 160.000 248.270 160.000 248.360 V 252.270 C 160.000 252.320 160.040 252.360 160.090 252.360 H 168.090 C 168.140 252.360 168.180 252.320 168.180 252.270 V 248.360 C 168.180 248.270 168.090 248.360 168.180 248.360 H 176.000 C 176.090 248.360 176.000 248.270 176.000 248.360 V 252.270 C 176.000 252.320 176.040 252.360 176.090 252.360 H 186.090 H 190.090 C 190.140 252.360 190.180 252.320 190.180 252.270 V 241.270 C 190.180 241.220 190.140 241.180 190.090 241.180 H 186.180 C 186.090 241.180 186.180 241.270 186.180 241.180 V 233.360 C 186.180 233.270 186.090 233.360 186.180 233.360 H 190.090 C 190.140 233.360 190.180 233.320 190.180 233.270 V 222.270 C 190.180 222.220 190.140 222.180 190.090 222.180 H 186.090 H 14.090 H 10.090 C 10.040 222.180 10.000 222.220 10.000 222.270 V 233.270 C 10.000 233.320 10.040 233.360 10.090 233.360 H 14.000 C 14.090 233.360 14.000 233.270 14.000 233.360 V 241.180 C 14.000 241.270 14.090 241.180 14.000 241.180 H 10.090 C 10.040 241.180 10.000 241.220 10.000 241.270 V 252.270 C 10.000 252.320 10.040 252.360 10.090 252.360 H 14.090 Z" stroke="rgb(0,0,0)" stroke-width="0.18"/>
</g>
<g id="p-3" style="fill:none;stroke-linecap:round;stroke-linejoin:round;">
  <path d="M 14.090 216.180 H 24.000 C 24.090 216.180 24.000 216.090 24.000 216.180 V 220.090 C 24.000 220.140 24.040 220.180 24.090 220.180 H 32.090 C 32.140 220.180 32.180 220.140 32.180 220.090 V 216.180 C 32.180 216.090 32.090 216.180 32.180 216.180 H 40.000 C 40.090 216.180 40.000 216.090 40.000 216.180 V 220.090 C 40.000 220.140 40.040 220.180 40.090 220.180 H 48.090 C 48.140 220.180 48.180 220.140 48.180 220.090 V 216.180 C 48.180 216.090 48.090 216.180 48.180 216.180 H 56.000 C 56.090 216.180 56.000 216.090 56.000 216.180 V 220.090 C 56.000 220.140 56.040 220.180 56.090 220.180 H 64.090 C 64.140 220.180 64.180 220.140 64.180 220.090 V 216.180 C 64.180 216.090 64.090 216.180 64.180 216.180 H 72.000 C 72.090 216.180 72.000 216.090 72.000 216.180 V 220.090 C 72.000 220.140 72.040 220.180 72.090 220.180 H 80.090 C 80.140 220.180 80.180 220.140 80.180 220.090 V 216.180 C 80.180 216.090 80.090 216.180 80.180 216.180 H 88.000 C 88.090 216.180 88.000 216.090 88.000 216.180 V 220.090 C 88.000 220.140 88.040 220.180 88.090 220.180 H 96.090 C 96.140 220.180 96.180 220.140 96.180 220.090 V 216.180 C 96.180 216.090 96.090 216.180 96.180 216.180 H 104.000 C 104.090 216.180 104.000 216.090 104.000 216.180 V 220.090 C 104.000 220.140 104.040 220.180 104.090 220.180 H 112.090 C 112.140 220.180 112.180 220.140 112.180 220.090 V 216.180 C 112.180 216.090 112.090 216.180 112.180 216.180 H 120.000 C 120.090 216.180 120.000 216.090 120.000 216.180 V 220.090 C 120.000 220.140 120.040 220.180 120.090 220.180 H 128.090 C 128.140 220.180 128.180 220.140 128.180 220.090 V 216.180 C 128.180 216.090 128.090 216.180 128.180 216.180 H 136.000 C 136.090 216.180 136.000 216.090 136.000 216.180 V 220.090 C 136.000 220.140 136.040 220.180 136.090 220.180 H 144.090 C 144.140 220.180 144.180 220.140 144.180 220.090 V 216.180 C 144.180 216.090 144.090 216.180 144.180 216.180 H 152.000 C 152.090 216.180 152.000 216.090 152.000 216.180 V 220.090 C 152.000 220.140 152.040 220.180 152.090 220.180 H 160.090 C 160.140 220.180 160.180 220.140 160.180 220.090 V 216.180 C 160.180 216.090 160.090 216.180 160.180 216.180 H 168.000 C 168.090 216.180 168.000 216.090 168.000 216.180 V 220.090 C 168.000 220.140 168.040 220.180 168.090 220.180 H 176.090 C 176.140 220.180 176.180 220.140 176.180 220.090 V 216.180 C 176.180 216.090 176.090 216.180 176.180 216.180 H 186.090 C 186.140 216.180 186.180 216.140 186.180 216.090 V 207.180 C 186.180 207.090 186.090 207.180 186.180 207.180 H 190.090 C 190.140 207.180 190.180 207.140 190.180 207.090 V 199.090 C 190.180 199.040 190.140 199.000 190.090 199.000 H 186.180 C 186.090 199.000 186.180 199.090 186.180 199.000 V 191.180 C 186.180 191.090 186.090 191.180 186.180 191.180 H 190.090 C 190.140 191.180 190.180 191.140 190.180 191.090 V 183.090 C 190.180 183.040 190.140 183.000 190.090 183.000 H 186.180 C 186.090 183.000 186.180 183.090 186.180 183.000 V 175.180 C 186.180 175.090 186.090 175.180 186.180 175.180 H 190.090 C 190.140 175.180 190.180 175.140 190.180 175.090 V 167.090 C 190.180 167.040 190.140 167.000 190.090 167.000 H 186.180 C 186.090 167.000 186.180 167.090 186.180 167.000 V 159.180 C 186.180 159.090 186.090 159.180 186.180 159.180 H 190.090 C 190.140 159.180 190.180 159.140 190.180 159.090 V 151.090 C 190.180 151.040 190.140 151.000 190.090 151.000 H 186.180 C 186.090 151.000 186.180 151.090 186.180 151.000 V 143.180 C 186.180 143.090 186.090 143.180 186.180 143.180 H 190.090 C 190.140 143.180 190.180 143.140 190.180 143.090 V 135.090 C 190.180 135.040 190.140 135.000 190.090 135.000 H 186.180 C 186.090 135.000 186.180 135.090 186.180 135.000 V 127.180 C 186.180 127.090 186.090 127.180 186.180 127.180 H 190.090 C 190.140 127.180 190.180 127.140 190.180 127.090 V 119.090 C 190.180 119.040 190.140 119.000 190.090 119.000 H 186.180 C 186.090 119.000 186.180 119.090 186.180 119.000 V 111.180 C 186.180 111.090 186.090 111.180 186.180 111.180 H 190.090 C 190.140 111.180 190.180 111.140 190.180 111.090 V 103.090 C 190.180 103.040 190.140 103.000 190.090 103.000 H 186.180 C 186.090 103.000 186.180 103.090 186.180 103.000 V 95.180 C 186.180 95.090 186.090 95.180 186.180 95.180 H 190.090 C 190.140 95.180 190.180 95.140 190.180 95.090 V 87.090 C 190.180 87.040 190.140 87.000 190.090 87.000 H 186.180 C 186.090 87.000 186.180 87.090 186.180 87.000 V 79.180 C 186.180 79.090 186.090 79.180 186.180 79.180 H 190.090 C 190.140 79.180 190.180 79.140 190.180 79.090 V 71.090 C 190.180 71.040 190.140 71.000 190.090 71.000 H 186.180 C 186.090 71.000 186.180 71.090 186.180 71.000 V 63.180 C 186.180 63.090 186.090 63.180 186.180 63.180 H 190.090 C 190.140 63.180 190.180 63.140 190.180 63.090 V 55.090 C 190.180 55.040 190.140 55.000 190.090 55.000 H 186.180 C 186.090 55.000 186.180 55.090 186.180 55.000 V 47.180 C 186.180 47.090 186.090 47.180 186.180 47.180 H 190.090 C 190.140 47.180 190.180 47.140 190.180 47.090 V 39.090 C 190.180 39.040 190.140 39.000 190.090 39.000 H 186.180 C 186.090 39.000 186.180 39.090 186.180 39.000 V 31.180 C 186.180 31.090 186.090 31.180 186.180 31.180 H 190.090 C 190.140 31.180 190.180 31.140 190.180 31.090 V 23.090 C 190.180 23.040 190.140 23.000 190.090 23.000 H 186.180 C 186.090 23.000 186.180 23.090 186.180 23.000 V 14.090 C 186.180 14.040 186.140 14.000 186.090 14.000 H 176.180 C 176.090 14.000 176.180 14.090 176.180 14.000 V 10.090 C 176.180 10.040 176.140 10.000 176.090 10.000 H 168.090 C 168.040 10.000 168.000 10.040 168.000 10.090 V 14.000 C 168.000 14.090 168.090 14.000 168.000 14.000 H 160.180 C 160.090 14.000 160.180 14.090 160.180 14.000 V 10.090 C 160.180 10.040 160.140 10.000 160.090 10.000 H 152.090 C 152.040 10.000 152.000 10.040 152.000 10.090 V 14.000 C 152.000 14.090 152.090 14.000 152.000 14.000 H 144.180 C 144.090 14.000 144.180 14.090 144.180 14.000 V 10.090 C 144.180 10.040 144.140 10.000 144.090 10.000 H 136.090 C 136.040 10.000 136.000 10.040 136.000 10.090 V 14.000 C 136.000 14.090 136.090 14.000 136.000 14.000 H 128.180 C 128.090 14.000 128.180 14.090 128.180 14.000 V 10.090 C 128.180 10.040 128.140 10.000 128.090 10.000 H 120.090 C 120.040 10.000 120.000 10.040 120.000 10.090 V 14.000 C 120.000 14.090 120.090 14.000 120.000 14.000 H 112.180 C 112.090 14.000 112.180 14.090 112.180 14.000 V 10.090 C 112.180 10.040 112.140 10.000 112.090 10.000 H 104.090 C 104.040 10.000 104.000 10.040 104.000 10.090 V 14.000 C 104.000 14.090 104.090 14.000 104.000 14.000 H 96.180 C 96.090 14.000 96.180 14.090 96.180 14.000 V 10.090 C 96.180 10.040 96.140 10.000 96.090 10.000 H 88.090 C 88.040 10.000 88.000 10.040 88.000 10.090 V 14.000 C 88.000 14.090 88.090 14.000 88.000 14.000 H 80.180 C 80.090 14.000 80.180 14.090 80.180 14.000 V 10.090 C 80.180 10.040 80.140 10.000 80.090 10.000 H 72.090 C 72.040 10.000 72.000 10.040 72.000 10.090 V 14.000 C 72.000 14.090 72.090 14.000 72.000 14.000 H 64.180 C 64.090 14.000 64.180 14.090 64.180 14.000 V 10.090 C 64.180 10.040 64.140 10.000 64.090 10.000 H 56.090 C 56.040 10.000 56.000 10.040 56.000 10.090 V 14.000 C 56.000 14.090 56.090 14.000 56.000 14.000 H 48.180 C 48.090 14.000 48.180 14.090 48.180 14.000 V 10.090 C 48.180 10.040 48.140 10.000 48.090 10.000 H 40.090 C 40.040 10.000 40.000 10.040 40.000 10.090 V 14.000 C 40.000 14.090 40.090 14.000 40.000 14.000 H 32.180 C 32.090 14.000 32.180 14.090 32.180 14.000 V 10.090 C 32.180 10.040 32.140 10.000 32.090 10.000 H 24.090 C 24.040 10.000 24.000 10.040 24.000 10.090 V 14.000 C 24.000 14.090 24.090 14.000 24.000 14.000 H 14.090 C 14.040 14.000 14.000 14.040 14.000 14.090 V 23.000 C 14.000 23.090 14.090 23.000 14.000 23.000 H 10.090 C 10.040 23.000 10.000 23.040 10.000 23.090 V 31.090 C 10.000 31.140 10.040 31.180 10.090 31.180 H 14.000 C 14.090 31.180 14.000 31.090 14.000 31.180 V 39.000 C 14.000 39.090 14.090 39.000 14.000 39.000 H 10.090 C 10.040 39.000 10.000 39.040 10.000 39.090 V 47.090 C 10.000 47.140 10.040 47.180 10.090 47.180 H 14.000 C 14.090 47.180 14.000 47.090 14.000 47.180 V 55.000 C 14.000 55.090 14.090 55.000 14.000 55.000 H 10.090 C 10.040 55.000 10.000 55.040 10.000 55.090 V 63.090 C 10.000 63.140 10.040 63.180 10.090 63.180 H 14.000 C 14.090 63.180 14.000 63.090 14.000 63.180 V 71.000 C 14.000 71.090 14.090 71.000 14.000 71.000 H 10.090 C 10.040 71.000 10.000 71.040 10.000 71.090 V 79.090 C 10.000 79.140 10.040 79.180 10.090 79.180 H 14.000 C 14.090 79.180 14.000 79.090 14.000 79.180 V 87.000 C 14.000 87.090 14.090 87.000 14.000 87.000 H 10.090 C 10.040 87.000 10.000 87.040 10.000 87.090 V 95.090 C 10.000 95.140 10.040 95.180 10.090 95.180 H 14.000 C 14.090 95.180 14.000 95.090 14.000 95.180 V 103.000 C 14.000 103.090 14.090 103.000 14.000 103.000 H 10.090 C 10.040 103.000 10.000 103.040 10.000 103.090 V 111.090 C 10.000 111.140 10.040 111.180 10.090 111.180 H 14.000 C 14.090 111.180 14.000 111.090 14.000 111.180 V 119.000 C 14.000 119.090 14.090 119.000 14.000 119.000 H 10.090 C 10.040 119.000 10.000 119.040 10.000 119.090 V 127.090 C 10.000 127.140 10.040 127.180 10.090 127.180 H 14.000 C 14.090 127.180 14.000 127.090 14.000 127.180 V 135.000 C 14.000 135.090 14.090 135.000 14.000 135.000 H 10.090 C 10.040 135.000 10.000 135.040 10.000 135.090 V 143.090 C 10.000 143.140 10.040 143.180 10.090 143.180 H 14.000 C 14.090 143.180 14.000 143.090 14.000 143.180 V 151.000 C 14.000 151.090 14.090 151.000 14.000 151.000 H 10.090 C 10.040 151.000 10.000 151.040 10.000 151.090 V 159.090 C 10.000 159.140 10.040 159.180 10.090 159.180 H 14.000 C 14.090 159.180 14.000 159.090 14.000 159.180 V 167.000 C 14.000 167.090 14.090 167.000 14.000 167.000 H 10.090 C 10.040 167.000 10.000 167.040 10.000 167.090 V 175.090 C 10.000 175.140 10.040 175.180 10.090 175.180 H 14.000 C 14.090 175.180 14.000 175.090 14.000 175.180 V 183.000 C 14.000 183.090 14.090 183.000 14.000 183.000 H 10.090 C 10.040 183.000 10.000 183.040 10.000 183.090 V 191.090 C 10.000 191.140 10.040 191.180 10.090 191.180 H 14.000 C 14.090 191.180 14.000 191.090 14.000 191.180 V 199.000 C 14.000 199.090 14.090 199.000 14.000 199.000 H 10.090 C 10.040 199.000 10.000 199.040 10.000 199.090 V 207.090 C 10.000 207.140 10.040 207.180 10.090 207.180 H 14.000 C 14.090 207.180 14.000 207.090 14.000 207.180 V 216.090 C 14.000 216.140 14.040 216.180 14.090 216.180 Z" stroke="rgb(0,0,0)" stroke-width="0.18"/>
</g>
<g id="p-4" style="fill:none;stroke-linecap:round;stroke-linejoin:round;">
  <path d="M 196.270 284.540 H 205.270 C 205.320 284.540 205.360 284.500 205.360 284.450 V 280.540 C 205.360 280.450 205.270 280.540 205.360 280.540 H 213.180 C 213.270 280.540 213.180 280.450 213.180 280.540 V 284.450 C 213.180 284.500 213.220 284.540 213.270 284.540 H 221.270 C 221.320 284.540 221.360 284.500 221.360 284.450 V 280.540 C 221.360 280.450 221.270 280.540 221.360 280.540 H 229.180 C 229.270 280.540 229.180 280.450 229.180 280.540 V 284.450 C 229.180 284.500 229.220 284.540 229.270 284.540 H 237.270 C 237.320 284.540 237.360 284.500 237.360 284.450 V 280.540 C 237.360 280.450 237.270 280.540 237.360 280.540 H 245.180 C 245.270 280.540 245.180 280.450 245.180 280.540 V 284.450 C 245.180 284.500 245.220 284.540 245.270 284.540 H 253.270 C 253.320 284.540 253.360 284.500 253.360 284.450 V 280.540 C 253.360 280.450 253.270 280.540 253.360 280.540 H 261.180 C 261.270 280.540 261.180 280.450 261.180 280.540 V 284.450 C 261.180 284.500 261.220 284.540 261.270 284.540 H 269.270 C 269.320 284.540 269.360 284.500 269.360 284.450 V 280.540 C 269.360 280.450 269.270 280.540 269.360 280.540 H 277.180 C 277.270 280.540 277.180 280.450 277.180 280.540 V 284.450 C 277.180 284.500 277.220 284.540 277.270 284.540 H 285.270 C 285.320 284.540 285.360 284.500 285.360 284.450 V 280.540 C 285.360 280.450 285.270 280.540 285.360 280.540 H 293.180 C 293.270 280.540 293.180 280.450 293.180 280.540 V 284.450 C 293.180 284.500 293.220 284.540 293.270 284.540 H 301.270 C 301.320 284.540 301.360 284.500 301.360 284.450 V 280.540 C 301.360 280.450 301.270 280.540 301.360 280.540 H 309.180 C 309.270 280.540 309.180 280.450 309.180 280.540 V 284.450 C 309.180 284.500 309.220 284.540 309.270 284.540 H 317.270 C 317.320 284.540 317.360 284.500 317.360 284.450 V 280.540 C 317.360 280.450 317.270 280.540 317.360 280.540 H 325.180 C 325.270 280.540 325.180 280.450 325.180 280.540 V 284.450 C 325.180 284.500 325.220 284.540 325.270 284.540 H 333.270 C 333.320 284.540 333.360 284.500 333.360 284.450 V 280.540 C 333.360 280.450 333.270 280.540 333.360 280.540 H 341.180 C 341.270 280.540 341.180 280.450 341.180 280.540 V 284.450 C 341.180 284.500 341.220 284.540 341.270 284.540 H 349.270 C 349.320 284.540 349.360 284.500 349.360 284.450 V 280.540 C 349.360 280.450 349.270 280.540 349.360 280.540 H 357.180 C 357.270 280.540 357.180 280.450 357.180 280.540 V 284.450 C 357.180 284.500 357.220 284.540 357.270 284.540 H 365.270 C 365.320 284.540 365.360 284.500 365.360 284.450 V 280.540 C 365.360 280.450 365.270 280.540 365.360 280.540 H 373.180 C 373.270 280.540 373.180 280.450 373.180 280.540 V 284.450 C 373.180 284.500 373.220 284.540 373.270 284.540 H 381.270 C 381.320 284.540 381.360 284.500 381.360 284.450 V 280.540 C 381.360 280.450 381.270 280.540 381.360 280.540 H 389.180 C 389.270 280.540 389.180 280.450 389.180 280.540 V 284.450 C 389.180 284.500 389.220 284.540 389.270 284.540 H 398.270 C 398.320 284.540 398.360 284.500 398.360 284.450 V 273.540 C 398.360 273.450 398.270 273.540 398.360 273.540 H 402.270 C 402.320 273.540 402.360 273.500 402.360 273.450 V 265.450 C 402.360 265.400 402.320 265.360 402.270 265.360 H 398.360 C 398.270 265.360 398.360 265.450 398.360 265.360 V 254.450 C 398.360 254.400 398.320 254.360 398.270 254.360 H 196.270 C 196.220 254.360 196.180 254.400 196.180 254.450 V 265.360 C 196.180 265.450 196.270 265.360 196.180 265.360 H 192.270 C 192.220 265.360 192.180 265.400 192.180 265.450 V 273.450 C 192.180 273.500 192.220 273.540 192.270 273.540 H 196.180 C 196.270 273.540 196.180 273.450 196.180 273.540 V 284.450 C 196.180 284.500 196.220 284.540 196.270 284.540 Z" stroke="rgb(0,0,0)" stroke-width="0.18"/>
</g>
<g id="p-5" style="fill:none;stroke-linecap:round;stroke-linejoin:round;">
  <path d="M 196.270 252.360 H 205.270 C 205.320 252.360 205.360 252.320 205.360 252.270 V 248.360 C 205.360 248.270 205.270 248.360 205.360 248.360 H 213.180 C 213.270 248.360 213.180 248.270 213.180 248.360 V 252.270 C 213.180 252.320 213.220 252.360 213.270 252.360 H 221.270 C 221.320 252.360 221.360 252.320 221.360 252.270 V 248.360 C 221.360 248.270 221.270 248.360 221.360 248.360 H 229.180 C 229.270 248.360 229.180 248.270 229.180 248.360 V 252.270 C 229.180 252.320 229.220 252.360 229.270 252.360 H 237.270 C 237.320 252.360 237.360 252.320 237.360 252.270 V 248.360 C 237.360 248.270 237.270 248.360 237.360 248.360 H 245.180 C 245.270 248.360 245.180 248.270 245.180 248.360 V 252.270 C 245.180 252.320 245.220 252.360 245.270 252.360 H 253.270 C 253.320 252.360 253.360 252.320 253.360 252.270 V 248.360 C 253.360 248.270 253.270 248.360 253.360 248.360 H 261.180 C 261.270 248.360 261.180 248.270 261.180 248.360 V 252.270 C 261.180 252.320 261.220 252.360 261.270 252.360 H 269.270 C 269.320 252.360 269.360 252.320 269.360 252.270 V 248.360 C 269.360 248.270 269.270 248.360 269.360 248.360 H 277.180 C 277.270 248.360 277.180 248.270 277.180 248.360 V 252.270 C 277.180 252.320 277.220 252.360 277.270 252.360 H 285.270 C 285.320 252.360 285.360 252.320 285.360 252.270 V 248.360 C 285.360 248.270 285.270 248.360 285.360 248.360 H 293.180 C 293.270 248.360 293.180 248.270 293.180 248.360 V 252.270 C 293.180 252.320 293.220 252.360 293.270 252.360 H 301.270 C 301.320 252.360 301.360 252.320 301.360 252.270 V 248.360 C 301.360 248.270 301.270 248.360 301.360 248.360 H 309.180 C 309.270 248.360 309.180 248.270 309.180 248.360 V 252.270 C 309.180 252.320 309.220 252.360 309.270 252.360 H 317.270 C 317.320 252.360 317.360 252.320 317.360 252.270 V 248.360 C 317.360 248.270 317.270 248.360 317.360 248.360 H 325.180 C 325.270 248.360 325.180 248.270 325.180 248.360 V 252.270 C 325.180 252.320 325.220 252.360 325.270 252.360 H 333.270 C 333.320 252.360 333.360 252.320 333.360 252.270 V 248.360 C 333.360 248.270 333.270 248.360 333.360 248.360 H 341.180 C 341.270 248.360 341.180 248.270 341.180 248.360 V 252.270 C 341.180 252.320 341.220 252.360 341.270 252.360 H 349.270 C 349.320 252.360 349.360 252.320 349.360 252.270 V 248.360 C 349.360 248.270 349.270 248.360 349.360 248.360 H 357.180 C 357.270 248.360 357.180 248.270 357.180 248.360 V 252.270 C 357.180 252.320 357.220 252.360 357.270 252.360 H 365.270 C 365.320 252.360 365.360 252.320 365.360 252.270 V 248.360 C 365.360 248.270 365.270 248.360 365.360 248.360 H 373.180 C 373.270 248.360 373.180 248.270 373.180 248.360 V 252.270 C 373.180 252.320 373.220 252.360 373.270 252.360 H 381.270 C 381.320 252.360 381.360 252.320 381.360 252.270 V 248.360 C 381.360 248.270 381.270 248.360 381.360 248.360 H 389.180 C 389.270 248.360 389.180 248.270 389.180 248.360 V 252.270 C 389.180 252.320 389.220 252.360 389.270 252.360 H 398.270 C 398.320 252.360 398.360 252.320 398.360 252.270 V 241.360 C 398.360 241.270 398.270 241.360 398.360 241.360 H 402.270 C 402.320 241.360 402.360 241.320 402.360 241.270 V 233.270 C 402.360 233.220 402.320 233.180 402.270 233.180 H 398.360 C 398.270 233.180 398.360 233.270 398.360 233.180 V 222.270 C 398.360 222.220 398.320 222.180 398.270 222.180 H 196.270 C 196.220 222.180 196.180 222.220 196.180 222.270 V 233.180 C 196.180 233.270 196.270 233.180 196.180 233.180 H 192.270 C 192.220 233.180 192.180 233.220 192.180 233.270 V 241.270 C 192.180 241.320 192.220 241.360 192.270 241.360 H 196.180 C 196.270 241.360 196.180 241.270 196.180 241.360 V 252.270 C 196.180 252.320 196.220 252.360 196.270 252.360 Z" stroke="rgb(0,0,0)" stroke-width="0.18"/>
</g>
</svg>