<?xml version="1.0" encoding="UTF-8" standalone="no"?>
<!-- Created with Inkscape (http://www.inkscape.org/) -->

<svg
   xmlns:dc="http://purl.org/dc/elements/1.1/"
   xmlns:cc="http://creativecommons.org/ns#"
   xmlns:rdf="http://www.w3.org/1999/02/22-rdf-syntax-ns#"
   xmlns:svg="http://www.w3.org/2000/svg"
   xmlns="http://www.w3.org/2000/svg"
   xmlns:sodipodi="http://sodipodi.sourceforge.net/DTD/sodipodi-0.dtd"
   xmlns:inkscape="http://www.inkscape.org/namespaces/inkscape"
   width="594mm"
   height="420mm"
   viewBox="0 0 594 420"
   version="1.1"
   id="svg1565"
   inkscape:version="0.92.4 (5da689c313, 2019-01-14)"
   sodipodi:docname="design_1.7_file3.svg">
  <defs
     id="defs1559" />
  <sodipodi:namedview
     id="base"
     pagecolor="#ffffff"
     bordercolor="#666666"
     borderopacity="1.0"
     inkscape:pageopacity="0.0"
     inkscape:pageshadow="2"
     inkscape:zoom="0.33705172"
     inkscape:cx="1432.3981"
     inkscape:cy="590.54796"
     inkscape:document-units="mm"
     inkscape:current-layer="layer1"
     showgrid="false"
     inkscape:window-width="1920"
     inkscape:window-height="1016"
     inkscape:window-x="0"
     inkscape:window-y="27"
     inkscape:window-maximized="1" />
  <metadata
     id="metadata1562">
    <rdf:RDF>
      <cc:Work
         rdf:about="">
        <dc:format>image/svg+xml</dc:format>
        <dc:type
           rdf:resource="http://purl.org/dc/dcmitype/StillImage" />
        <dc:title />
      </cc:Work>
    </rdf:RDF>
  </metadata>
  <g
     inkscape:label="Layer 1"
     inkscape:groupmode="layer"
     id="layer1"
     transform="translate(0,123)">
    <g
       transform="translate(-490.66848,-13.17437)"
       id="p-3"
       style="fill:none;stroke:#000000;stroke-linecap:round;stroke-linejoin:round">
      <path
         inkscape:connector-curvature="0"
         d="m 498.45,302.58 h 7.91 c 0.09,0 0,-0.09 0,0 v 3.91 c 0,0.05 0.04,0.09 0.09,0.09 h 8 c 0.05,0 0.09,-0.04 0.09,-0.09 v -3.91 c 0,-0.09 -0.09,0 0,0 h 7.82 c 0.09,0 0,-0.09 0,0 v 3.91 c 0,0.05 0.04,0.09 0.09,0.09 h 8 c 0.05,0 0.09,-0.04 0.09,-0.09 v -3.91 c 0,-0.09 -0.09,0 0,0 h 7.82 c 0.09,0 0,-0.09 0,0 v 3.91 c 0,0.05 0.04,0.09 0.09,0.09 h 8 c 0.05,0 0.09,-0.04 0.09,-0.09 v -3.91 c 0,-0.09 -0.09,0 0,0 h 7.82 c 0.09,0 0,-0.09 0,0 v 3.91 c 0,0.05 0.04,0.09 0.09,0.09 h 8 c 0.05,0 0.09,-0.04 0.09,-0.09 v -3.91 c 0,-0.09 -0.09,0 0,0 h 7.82 c 0.09,0 0,-0.09 0,0 v 3.91 c 0,0.05 0.04,0.09 0.09,0.09 h 8 c 0.05,0 0.09,-0.04 0.09,-0.09 v -3.91 c 0,-0.09 -0.09,0 0,0 h 7.82 c 0.09,0 0,-0.09 0,0 v 3.91 c 0,0.05 0.04,0.09 0.09,0.09 h 8 c 0.05,0 0.09,-0.04 0.09,-0.09 v -3.91 c 0,-0.09 -0.09,0 0,0 h 7.82 c 0.09,0 0,-0.09 0,0 v 3.91 c 0,0.05 0.04,0.09 0.09,0.09 h 8 c 0.05,0 0.09,-0.04 0.09,-0.09 v -3.91 c 0,-0.09 -0.09,0 0,0 h 7.82 c 0.09,0 0,-0.09 0,0 v 3.91 c 0,0.05 0.04,0.09 0.09,0.09 h 8 c 0.05,0 0.09,-0.04 0.09,-0.09 v -3.91 c 0,-0.09 -0.09,0 0,0 h 7.82 c 0.09,0 0,-0.09 0,0 v 3.91 c 0,0.05 0.04,0.09 0.09,0.09 h 8 c 0.05,0 0.09,-0.04 0.09,-0.09 v -3.91 c 0,-0.09 -0.09,0 0,0 h 7.82 c 0.09,0 0,-0.09 0,0 v 3.91 c 0,0.05 0.04,0.09 0.09,0.09 h 8 c 0.05,0 0.09,-0.04 0.09,-0.09 v -3.91 c 0,-0.09 -0.09,0 0,0 h 7.82 c 0.09,0 0,-0.09 0,0 v 3.91 c 0,0.05 0.04,0.09 0.09,0.09 h 8 c 0.05,0 0.09,-0.04 0.09,-0.09 v -3.91 c 0,-0.09 -0.09,0 0,0 h 7.82 c 0.09,0 0,-0.09 0,0 v 3.91 c 0,0.05 0.04,0.09 0.09,0.09 h 8 c 0.05,0 0.09,-0.04 0.09,-0.09 v -3.91 c 0,-0.09 -0.09,0 0,0 h 7.82 c 0.09,0 0,-0.09 0,0 v 3.91 c 0,0.05 0.04,0.09 0.09,0.09 h 8 c 0.05,0 0.09,-0.04 0.09,-0.09 v -3.91 c 0,-0.09 -0.09,0 0,0 h 7.82 c 0.09,0 0,-0.09 0,0 v 3.91 c 0,0.05 0.04,0.09 0.09,0.09 h 8 c 0.05,0 0.09,-0.04 0.09,-0.09 v -3.91 c 0,-0.09 -0.09,0 0,0 h 7.91 c 0.05,0 0.09,-0.04 0.09,-0.09 v -7.91 c 0,-0.09 -0.09,0 0,0 h 3.91 c 0.05,0 0.09,-0.04 0.09,-0.09 v -8 c 0,-0.05 -0.04,-0.09 -0.09,-0.09 h -3.91 c -0.09,0 0,0.09 0,0 v -7.82 c 0,-0.09 -0.09,0 0,0 h 3.91 c 0.05,0 0.09,-0.04 0.09,-0.09 v -8 c 0,-0.05 -0.04,-0.09 -0.09,-0.09 h -3.91 c -0.09,0 0,0.09 0,0 v -7.82 c 0,-0.09 -0.09,0 0,0 h 3.91 c 0.05,0 0.09,-0.04 0.09,-0.09 v -8 c 0,-0.05 -0.04,-0.09 -0.09,-0.09 h -3.91 c -0.09,0 0,0.09 0,0 v -7.82 c 0,-0.09 -0.09,0 0,0 h 3.91 c 0.05,0 0.09,-0.04 0.09,-0.09 v -8 c 0,-0.05 -0.04,-0.09 -0.09,-0.09 h -3.91 c -0.09,0 0,0.09 0,0 v -7.82 c 0,-0.09 -0.09,0 0,0 h 3.91 c 0.05,0 0.09,-0.04 0.09,-0.09 v -8 c 0,-0.05 -0.04,-0.09 -0.09,-0.09 h -3.91 c -0.09,0 0,0.09 0,0 v -7.82 c 0,-0.09 -0.09,0 0,0 h 3.91 c 0.05,0 0.09,-0.04 0.09,-0.09 v -8 c 0,-0.05 -0.04,-0.09 -0.09,-0.09 h -3.91 c -0.09,0 0,0.09 0,0 v -7.82 c 0,-0.09 -0.09,0 0,0 h 3.91 c 0.05,0 0.09,-0.04 0.09,-0.09 v -8 c 0,-0.05 -0.04,-0.09 -0.09,-0.09 h -3.91 c -0.09,0 0,0.09 0,0 v -7.82 c 0,-0.09 -0.09,0 0,0 h 3.91 c 0.05,0 0.09,-0.04 0.09,-0.09 v -8 c 0,-0.05 -0.04,-0.09 -0.09,-0.09 h -3.91 c -0.09,0 0,0.09 0,0 v -7.82 c 0,-0.09 -0.09,0 0,0 h 3.91 c 0.05,0 0.09,-0.04 0.09,-0.09 v -8 c 0,-0.05 -0.04,-0.09 -0.09,-0.09 h -3.91 c -0.09,0 0,0.09 0,0 v -7.82 c 0,-0.09 -0.09,0 0,0 h 3.91 c 0.05,0 0.09,-0.04 0.09,-0.09 v -8 c 0,-0.05 -0.04,-0.09 -0.09,-0.09 h -3.91 c -0.09,0 0,0.09 0,0 v -7.82 c 0,-0.09 -0.09,0 0,0 h 3.91 c 0.05,0 0.09,-0.04 0.09,-0.09 v -8 c 0,-0.05 -0.04,-0.09 -0.09,-0.09 h -3.91 c -0.09,0 0,0.09 0,0 v -7.82 c 0,-0.09 -0.09,0 0,0 h 3.91 c 0.05,0 0.09,-0.04 0.09,-0.09 v -8 c 0,-0.05 -0.04,-0.09 -0.09,-0.09 h -3.91 c -0.09,0 0,0.09 0,0 v -7.91 c 0,-0.05 -0.04,-0.09 -0.09,-0.09 h -7.91 c -0.09,0 0,0.09 0,0 v -3.91 c 0,-0.05 -0.04,-0.09 -0.09,-0.09 h -8 c -0.05,0 -0.09,0.04 -0.09,0.09 v 3.91 c 0,0.09 0.09,0 0,0 h -7.82 c -0.09,0 0,0.09 0,0 v -3.91 c 0,-0.05 -0.04,-0.09 -0.09,-0.09 h -8 c -0.05,0 -0.09,0.04 -0.09,0.09 v 3.91 c 0,0.09 0.09,0 0,0 h -7.82 c -0.09,0 0,0.09 0,0 v -3.91 c 0,-0.05 -0.04,-0.09 -0.09,-0.09 h -8 c -0.05,0 -0.09,0.04 -0.09,0.09 v 3.91 c 0,0.09 0.09,0 0,0 h -7.82 c -0.09,0 0,0.09 0,0 v -3.91 c 0,-0.05 -0.04,-0.09 -0.09,-0.09 h -8 c -0.05,0 -0.09,0.04 -0.09,0.09 v 3.91 c 0,0.09 0.09,0 0,0 h -7.82 c -0.09,0 0,0.09 0,0 v -3.91 c 0,-0.05 -0.04,-0.09 -0.09,-0.09 h -8 c -0.05,0 -0.09,0.04 -0.09,0.09 v 3.91 c 0,0.09 0.09,0 0,0 h -7.82 c -0.09,0 0,0.09 0,0 v -3.91 c 0,-0.05 -0.04,-0.09 -0.09,-0.09 h -8 c -0.05,0 -0.09,0.04 -0.09,0.09 v 3.91 c 0,0.09 0.09,0 0,0 h -7.82 c -0.09,0 0,0.09 0,0 v -3.91 c 0,-0.05 -0.04,-0.09 -0.09,-0.09 h -8 c -0.05,0 -0.09,0.04 -0.09,0.09 v 3.91 c 0,0.09 0.09,0 0,0 h -7.82 c -0.09,0 0,0.09 0,0 v -3.91 c 0,-0.05 -0.04,-0.09 -0.09,-0.09 h -8 c -0.05,0 -0.09,0.04 -0.09,0.09 v 3.91 c 0,0.09 0.09,0 0,0 h -7.82 c -0.09,0 0,0.09 0,0 v -3.91 c 0,-0.05 -0.04,-0.09 -0.09,-0.09 h -8 c -0.05,0 -0.09,0.04 -0.09,0.09 v 3.91 c 0,0.09 0.09,0 0,0 h -7.82 c -0.09,0 0,0.09 0,0 v -3.91 c 0,-0.05 -0.04,-0.09 -0.09,-0.09 h -8 c -0.05,0 -0.09,0.04 -0.09,0.09 v 3.91 c 0,0.09 0.09,0 0,0 h -7.82 c -0.09,0 0,0.09 0,0 v -3.91 c 0,-0.05 -0.04,-0.09 -0.09,-0.09 h -8 c -0.05,0 -0.09,0.04 -0.09,0.09 v 3.91 c 0,0.09 0.09,0 0,0 h -7.82 c -0.09,0 0,0.09 0,0 v -3.91 c 0,-0.05 -0.04,-0.09 -0.09,-0.09 h -8 c -0.05,0 -0.09,0.04 -0.09,0.09 v 3.91 c 0,0.09 0.09,0 0,0 h -7.82 c -0.09,0 0,0.09 0,0 v -3.91 c 0,-0.05 -0.04,-0.09 -0.09,-0.09 h -8 c -0.05,0 -0.09,0.04 -0.09,0.09 v 3.91 c 0,0.09 0.09,0 0,0 h -7.82 c -0.09,0 0,0.09 0,0 v -3.91 c 0,-0.05 -0.04,-0.09 -0.09,-0.09 h -8 c -0.05,0 -0.09,0.04 -0.09,0.09 v 3.91 c 0,0.09 0.09,0 0,0 h -7.91 c -0.05,0 -0.09,0.04 -0.09,0.09 v 7.91 c 0,0.09 0.09,0 0,0 h -3.91 c -0.05,0 -0.09,0.04 -0.09,0.09 v 8 c 0,0.05 0.04,0.09 0.09,0.09 h 3.91 c 0.09,0 0,-0.09 0,0 v 7.82 c 0,0.09 0.09,0 0,0 h -3.91 c -0.05,0 -0.09,0.04 -0.09,0.09 v 8 c 0,0.05 0.04,0.09 0.09,0.09 h 3.91 c 0.09,0 0,-0.09 0,0 v 7.82 c 0,0.09 0.09,0 0,0 h -3.91 c -0.05,0 -0.09,0.04 -0.09,0.09 v 8 c 0,0.05 0.04,0.09 0.09,0.09 h 3.91 c 0.09,0 0,-0.09 0,0 v 7.82 c 0,0.09 0.09,0 0,0 h -3.91 c -0.05,0 -0.09,0.04 -0.09,0.09 v 8 c 0,0.05 0.04,0.09 0.09,0.09 h 3.91 c 0.09,0 0,-0.09 0,0 v 7.82 c 0,0.09 0.09,0 0,0 h -3.91 c -0.05,0 -0.09,0.04 -0.09,0.09 v 8 c 0,0.05 0.04,0.09 0.09,0.09 h 3.91 c 0.09,0 0,-0.09 0,0 v 7.82 c 0,0.09 0.09,0 0,0 h -3.91 c -0.05,0 -0.09,0.04 -0.09,0.09 v 8 c 0,0.05 0.04,0.09 0.09,0.09 h 3.91 c 0.09,0 0,-0.09 0,0 v 7.82 c 0,0.09 0.09,0 0,0 h -3.91 c -0.05,0 -0.09,0.04 -0.09,0.09 v 8 c 0,0.05 0.04,0.09 0.09,0.09 h 3.91 c 0.09,0 0,-0.09 0,0 v 7.82 c 0,0.09 0.09,0 0,0 h -3.91 c -0.05,0 -0.09,0.04 -0.09,0.09 v 8 c 0,0.05 0.04,0.09 0.09,0.09 h 3.91 c 0.09,0 0,-0.09 0,0 v 7.82 c 0,0.09 0.09,0 0,0 h -3.91 c -0.05,0 -0.09,0.04 -0.09,0.09 v 8 c 0,0.05 0.04,0.09 0.09,0.09 h 3.91 c 0.09,0 0,-0.09 0,0 v 7.82 c 0,0.09 0.09,0 0,0 h -3.91 c -0.05,0 -0.09,0.04 -0.09,0.09 v 8 c 0,0.05 0.04,0.09 0.09,0.09 h 3.91 c 0.09,0 0,-0.09 0,0 v 7.82 c 0,0.09 0.09,0 0,0 h -3.91 c -0.05,0 -0.09,0.04 -0.09,0.09 v 8 c 0,0.05 0.04,0.09 0.09,0.09 h 3.91 c 0.09,0 0,-0.09 0,0 v 7.82 c 0,0.09 0.09,0 0,0 h -3.91 c -0.05,0 -0.09,0.04 -0.09,0.09 v 8 c 0,0.05 0.04,0.09 0.09,0.09 h 3.91 c 0.09,0 0,-0.09 0,0 v 7.91 c 0,0.05 0.04,0.09 0.09,0.09 z"
         id="path7963"
         style="stroke:#000000;stroke-width:0.18000001" />
    </g>
    <g
       transform="rotate(90,179.78619,58.431836)"
       id="p-5"
       style="fill:none;stroke-linecap:round;stroke-linejoin:round">
      <path
         style="stroke:#000000;stroke-width:0.18000001"
         inkscape:connector-curvature="0"
         d="M 14.09,226.18 H 29.5 c 0.09,0 0,-0.09 0,0 v 3.91 c 0,0.05 0.04,0.09 0.09,0.09 h 8 c 0.05,0 0.09,-0.04 0.09,-0.09 v -3.91 c 0,-0.09 -0.09,0 0,0 h 7.82 c 0.09,0 0,-0.09 0,0 v 3.91 c 0,0.05 0.04,0.09 0.09,0.09 h 8 c 0.05,0 0.09,-0.04 0.09,-0.09 v -3.91 c 0,-0.09 -0.09,0 0,0 h 7.82 c 0.09,0 0,-0.09 0,0 v 3.91 c 0,0.05 0.04,0.09 0.09,0.09 h 8 c 0.05,0 0.09,-0.04 0.09,-0.09 v -3.91 c 0,-0.09 -0.09,0 0,0 h 7.82 c 0.09,0 0,-0.09 0,0 v 3.91 c 0,0.05 0.04,0.09 0.09,0.09 h 8 c 0.05,0 0.09,-0.04 0.09,-0.09 v -3.91 c 0,-0.09 -0.09,0 0,0 h 7.82 c 0.09,0 0,-0.09 0,0 v 3.91 c 0,0.05 0.04,0.09 0.09,0.09 h 8 c 0.05,0 0.09,-0.04 0.09,-0.09 v -3.91 c 0,-0.09 -0.09,0 0,0 h 7.82 c 0.09,0 0,-0.09 0,0 v 3.91 c 0,0.05 0.04,0.09 0.09,0.09 h 8 c 0.05,0 0.09,-0.04 0.09,-0.09 v -3.91 c 0,-0.09 -0.09,0 0,0 h 7.82 c 0.09,0 0,-0.09 0,0 v 3.91 c 0,0.05 0.04,0.09 0.09,0.09 h 8 c 0.05,0 0.09,-0.04 0.09,-0.09 v -3.91 c 0,-0.09 -0.09,0 0,0 h 7.82 c 0.09,0 0,-0.09 0,0 v 3.91 c 0,0.05 0.04,0.09 0.09,0.09 h 8 c 0.05,0 0.09,-0.04 0.09,-0.09 v -3.91 c 0,-0.09 -0.09,0 0,0 h 7.82 c 0.09,0 0,-0.09 0,0 v 3.91 c 0,0.05 0.04,0.09 0.09,0.09 h 8 c 0.05,0 0.09,-0.04 0.09,-0.09 v -3.91 c 0,-0.09 -0.09,0 0,0 h 7.82 c 0.09,0 0,-0.09 0,0 v 3.91 c 0,0.05 0.04,0.09 0.09,0.09 h 8 c 0.05,0 0.09,-0.04 0.09,-0.09 v -3.91 c 0,-0.09 -0.09,0 0,0 h 15.41 c 0.05,0 0.09,-0.04 0.09,-0.09 v -13.91 c 0,-0.09 -0.09,0 0,0 h 3.91 c 0.05,0 0.09,-0.04 0.09,-0.09 v -8 c 0,-0.05 -0.04,-0.09 -0.09,-0.09 h -3.91 c -0.09,0 0,0.09 0,0 v -7.82 c 0,-0.09 -0.09,0 0,0 h 3.91 c 0.05,0 0.09,-0.04 0.09,-0.09 v -8 c 0,-0.05 -0.04,-0.09 -0.09,-0.09 h -3.91 c -0.09,0 0,0.09 0,0 v -7.82 c 0,-0.09 -0.09,0 0,0 h 3.91 c 0.05,0 0.09,-0.04 0.09,-0.09 v -8 c 0,-0.05 -0.04,-0.09 -0.09,-0.09 h -3.91 c -0.09,0 0,0.09 0,0 v -7.82 c 0,-0.09 -0.09,0 0,0 h 3.91 c 0.05,0 0.09,-0.04 0.09,-0.09 v -8 c 0,-0.05 -0.04,-0.09 -0.09,-0.09 h -3.91 c -0.09,0 0,0.09 0,0 v -7.82 c 0,-0.09 -0.09,0 0,0 h 3.91 c 0.05,0 0.09,-0.04 0.09,-0.09 v -8 c 0,-0.05 -0.04,-0.09 -0.09,-0.09 h -3.91 c -0.09,0 0,0.09 0,0 v -7.82 c 0,-0.09 -0.09,0 0,0 h 3.91 c 0.05,0 0.09,-0.04 0.09,-0.09 v -8 c 0,-0.05 -0.04,-0.09 -0.09,-0.09 h -3.91 c -0.09,0 0,0.09 0,0 v -7.82 c 0,-0.09 -0.09,0 0,0 h 3.91 c 0.05,0 0.09,-0.04 0.09,-0.09 v -8 c 0,-0.05 -0.04,-0.09 -0.09,-0.09 h -3.91 c -0.09,0 0,0.09 0,0 v -7.82 c 0,-0.09 -0.09,0 0,0 h 3.91 c 0.05,0 0.09,-0.04 0.09,-0.09 v -8 c 0,-0.05 -0.04,-0.09 -0.09,-0.09 h -3.91 c -0.09,0 0,0.09 0,0 v -7.82 c 0,-0.09 -0.09,0 0,0 h 3.91 c 0.05,0 0.09,-0.04 0.09,-0.09 v -8 c 0,-0.05 -0.04,-0.09 -0.09,-0.09 h -3.91 c -0.09,0 0,0.09 0,0 v -7.82 c 0,-0.09 -0.09,0 0,0 h 3.91 c 0.05,0 0.09,-0.04 0.09,-0.09 v -8 c 0,-0.05 -0.04,-0.09 -0.09,-0.09 h -3.91 c -0.09,0 0,0.09 0,0 v -7.82 c 0,-0.09 -0.09,0 0,0 h 3.91 c 0.05,0 0.09,-0.04 0.09,-0.09 v -8 c 0,-0.05 -0.04,-0.09 -0.09,-0.09 h -3.91 c -0.09,0 0,0.09 0,0 v -7.82 c 0,-0.09 -0.09,0 0,0 h 3.91 c 0.05,0 0.09,-0.04 0.09,-0.09 v -8 c 0,-0.05 -0.04,-0.09 -0.09,-0.09 h -3.91 c -0.09,0 0,0.09 0,0 V 14.09 c 0,-0.05 -0.04,-0.09 -0.09,-0.09 h -15.41 c -0.09,0 0,0.09 0,0 v -3.91 c 0,-0.05 -0.04,-0.09 -0.09,-0.09 h -8 c -0.05,0 -0.09,0.04 -0.09,0.09 V 14 c 0,0.09 0.09,0 0,0 h -7.82 c -0.09,0 0,0.09 0,0 v -3.91 c 0,-0.05 -0.04,-0.09 -0.09,-0.09 h -8 c -0.05,0 -0.09,0.04 -0.09,0.09 V 14 c 0,0.09 0.09,0 0,0 h -7.82 c -0.09,0 0,0.09 0,0 v -3.91 c 0,-0.05 -0.04,-0.09 -0.09,-0.09 h -8 c -0.05,0 -0.09,0.04 -0.09,0.09 V 14 c 0,0.09 0.09,0 0,0 h -7.82 c -0.09,0 0,0.09 0,0 v -3.91 c 0,-0.05 -0.04,-0.09 -0.09,-0.09 h -8 c -0.05,0 -0.09,0.04 -0.09,0.09 V 14 c 0,0.09 0.09,0 0,0 h -7.82 c -0.09,0 0,0.09 0,0 v -3.91 c 0,-0.05 -0.04,-0.09 -0.09,-0.09 h -8 c -0.05,0 -0.09,0.04 -0.09,0.09 V 14 c 0,0.09 0.09,0 0,0 h -7.82 c -0.09,0 0,0.09 0,0 v -3.91 c 0,-0.05 -0.04,-0.09 -0.09,-0.09 h -8 c -0.05,0 -0.09,0.04 -0.09,0.09 V 14 c 0,0.09 0.09,0 0,0 h -7.82 c -0.09,0 0,0.09 0,0 V 10.09 C 85.68,10.04 85.64,10 85.59,10 h -8 c -0.05,0 -0.09,0.04 -0.09,0.09 V 14 c 0,0.09 0.09,0 0,0 h -7.82 c -0.09,0 0,0.09 0,0 V 10.09 C 69.68,10.04 69.64,10 69.59,10 h -8 c -0.05,0 -0.09,0.04 -0.09,0.09 V 14 c 0,0.09 0.09,0 0,0 h -7.82 c -0.09,0 0,0.09 0,0 V 10.09 C 53.68,10.04 53.64,10 53.59,10 h -8 c -0.05,0 -0.09,0.04 -0.09,0.09 V 14 c 0,0.09 0.09,0 0,0 h -7.82 c -0.09,0 0,0.09 0,0 V 10.09 C 37.68,10.04 37.64,10 37.59,10 h -8 c -0.05,0 -0.09,0.04 -0.09,0.09 V 14 c 0,0.09 0.09,0 0,0 H 14.09 C 14.04,14 14,14.04 14,14.09 V 28 c 0,0.09 0.09,0 0,0 H 10.09 C 10.04,28 10,28.04 10,28.09 v 8 c 0,0.05 0.04,0.09 0.09,0.09 H 14 c 0.09,0 0,-0.09 0,0 V 44 c 0,0.09 0.09,0 0,0 H 10.09 C 10.04,44 10,44.04 10,44.09 v 8 c 0,0.05 0.04,0.09 0.09,0.09 H 14 c 0.09,0 0,-0.09 0,0 V 60 c 0,0.09 0.09,0 0,0 H 10.09 C 10.04,60 10,60.04 10,60.09 v 8 c 0,0.05 0.04,0.09 0.09,0.09 H 14 c 0.09,0 0,-0.09 0,0 V 76 c 0,0.09 0.09,0 0,0 H 10.09 C 10.04,76 10,76.04 10,76.09 v 8 c 0,0.05 0.04,0.09 0.09,0.09 H 14 c 0.09,0 0,-0.09 0,0 V 92 c 0,0.09 0.09,0 0,0 H 10.09 C 10.04,92 10,92.04 10,92.09 v 8 c 0,0.05 0.04,0.09 0.09,0.09 H 14 c 0.09,0 0,-0.09 0,0 V 108 c 0,0.09 0.09,0 0,0 h -3.91 c -0.05,0 -0.09,0.04 -0.09,0.09 v 8 c 0,0.05 0.04,0.09 0.09,0.09 H 14 c 0.09,0 0,-0.09 0,0 V 124 c 0,0.09 0.09,0 0,0 h -3.91 c -0.05,0 -0.09,0.04 -0.09,0.09 v 8 c 0,0.05 0.04,0.09 0.09,0.09 H 14 c 0.09,0 0,-0.09 0,0 V 140 c 0,0.09 0.09,0 0,0 h -3.91 c -0.05,0 -0.09,0.04 -0.09,0.09 v 8 c 0,0.05 0.04,0.09 0.09,0.09 H 14 c 0.09,0 0,-0.09 0,0 V 156 c 0,0.09 0.09,0 0,0 h -3.91 c -0.05,0 -0.09,0.04 -0.09,0.09 v 8 c 0,0.05 0.04,0.09 0.09,0.09 H 14 c 0.09,0 0,-0.09 0,0 V 172 c 0,0.09 0.09,0 0,0 h -3.91 c -0.05,0 -0.09,0.04 -0.09,0.09 v 8 c 0,0.05 0.04,0.09 0.09,0.09 H 14 c 0.09,0 0,-0.09 0,0 V 188 c 0,0.09 0.09,0 0,0 h -3.91 c -0.05,0 -0.09,0.04 -0.09,0.09 v 8 c 0,0.05 0.04,0.09 0.09,0.09 H 14 c 0.09,0 0,-0.09 0,0 V 204 c 0,0.09 0.09,0 0,0 h -3.91 c -0.05,0 -0.09,0.04 -0.09,0.09 v 8 c 0,0.05 0.04,0.09 0.09,0.09 H 14 c 0.09,0 0,-0.09 0,0 v 13.91 c 0,0.05 0.04,0.09 0.09,0.09 z"
         id="path13897" />
    </g>
    <g
       transform="rotate(90,388.84117,74.306834)"
       id="p-6"
       style="fill:none;stroke-linecap:round;stroke-linejoin:round">
      <path
         style="stroke:#000000;stroke-width:0.18000001"
         inkscape:connector-curvature="0"
         d="m 207.27,226.18 h 15.41 c 0.09,0 0,-0.09 0,0 v 3.91 c 0,0.05 0.04,0.09 0.09,0.09 h 8 c 0.05,0 0.09,-0.04 0.09,-0.09 v -3.91 c 0,-0.09 -0.09,0 0,0 h 7.82 c 0.09,0 0,-0.09 0,0 v 3.91 c 0,0.05 0.04,0.09 0.09,0.09 h 8 c 0.05,0 0.09,-0.04 0.09,-0.09 v -3.91 c 0,-0.09 -0.09,0 0,0 h 7.82 c 0.09,0 0,-0.09 0,0 v 3.91 c 0,0.05 0.04,0.09 0.09,0.09 h 8 c 0.05,0 0.09,-0.04 0.09,-0.09 v -3.91 c 0,-0.09 -0.09,0 0,0 h 7.82 c 0.09,0 0,-0.09 0,0 v 3.91 c 0,0.05 0.04,0.09 0.09,0.09 h 8 c 0.05,0 0.09,-0.04 0.09,-0.09 v -3.91 c 0,-0.09 -0.09,0 0,0 h 7.82 c 0.09,0 0,-0.09 0,0 v 3.91 c 0,0.05 0.04,0.09 0.09,0.09 h 8 c 0.05,0 0.09,-0.04 0.09,-0.09 v -3.91 c 0,-0.09 -0.09,0 0,0 h 7.82 c 0.09,0 0,-0.09 0,0 v 3.91 c 0,0.05 0.04,0.09 0.09,0.09 h 8 c 0.05,0 0.09,-0.04 0.09,-0.09 v -3.91 c 0,-0.09 -0.09,0 0,0 h 7.82 c 0.09,0 0,-0.09 0,0 v 3.91 c 0,0.05 0.04,0.09 0.09,0.09 h 8 c 0.05,0 0.09,-0.04 0.09,-0.09 v -3.91 c 0,-0.09 -0.09,0 0,0 h 7.82 c 0.09,0 0,-0.09 0,0 v 3.91 c 0,0.05 0.04,0.09 0.09,0.09 h 8 c 0.05,0 0.09,-0.04 0.09,-0.09 v -3.91 c 0,-0.09 -0.09,0 0,0 h 7.82 c 0.09,0 0,-0.09 0,0 v 3.91 c 0,0.05 0.04,0.09 0.09,0.09 h 8 c 0.05,0 0.09,-0.04 0.09,-0.09 v -3.91 c 0,-0.09 -0.09,0 0,0 h 7.82 c 0.09,0 0,-0.09 0,0 v 3.91 c 0,0.05 0.04,0.09 0.09,0.09 h 8 c 0.05,0 0.09,-0.04 0.09,-0.09 v -3.91 c 0,-0.09 -0.09,0 0,0 h 15.41 c 0.05,0 0.09,-0.04 0.09,-0.09 v -13.91 c 0,-0.09 -0.09,0 0,0 h 3.91 c 0.05,0 0.09,-0.04 0.09,-0.09 v -8 c 0,-0.05 -0.04,-0.09 -0.09,-0.09 h -3.91 c -0.09,0 0,0.09 0,0 v -7.82 c 0,-0.09 -0.09,0 0,0 h 3.91 c 0.05,0 0.09,-0.04 0.09,-0.09 v -8 c 0,-0.05 -0.04,-0.09 -0.09,-0.09 h -3.91 c -0.09,0 0,0.09 0,0 v -7.82 c 0,-0.09 -0.09,0 0,0 h 3.91 c 0.05,0 0.09,-0.04 0.09,-0.09 v -8 c 0,-0.05 -0.04,-0.09 -0.09,-0.09 h -3.91 c -0.09,0 0,0.09 0,0 v -7.82 c 0,-0.09 -0.09,0 0,0 h 3.91 c 0.05,0 0.09,-0.04 0.09,-0.09 v -8 c 0,-0.05 -0.04,-0.09 -0.09,-0.09 h -3.91 c -0.09,0 0,0.09 0,0 v -7.82 c 0,-0.09 -0.09,0 0,0 h 3.91 c 0.05,0 0.09,-0.04 0.09,-0.09 v -8 c 0,-0.05 -0.04,-0.09 -0.09,-0.09 h -3.91 c -0.09,0 0,0.09 0,0 v -7.82 c 0,-0.09 -0.09,0 0,0 h 3.91 c 0.05,0 0.09,-0.04 0.09,-0.09 v -8 c 0,-0.05 -0.04,-0.09 -0.09,-0.09 h -3.91 c -0.09,0 0,0.09 0,0 v -7.82 c 0,-0.09 -0.09,0 0,0 h 3.91 c 0.05,0 0.09,-0.04 0.09,-0.09 v -8 c 0,-0.05 -0.04,-0.09 -0.09,-0.09 h -3.91 c -0.09,0 0,0.09 0,0 v -7.82 c 0,-0.09 -0.09,0 0,0 h 3.91 c 0.05,0 0.09,-0.04 0.09,-0.09 v -8 c 0,-0.05 -0.04,-0.09 -0.09,-0.09 h -3.91 c -0.09,0 0,0.09 0,0 v -7.82 c 0,-0.09 -0.09,0 0,0 h 3.91 c 0.05,0 0.09,-0.04 0.09,-0.09 v -8 c 0,-0.05 -0.04,-0.09 -0.09,-0.09 h -3.91 c -0.09,0 0,0.09 0,0 v -7.82 c 0,-0.09 -0.09,0 0,0 h 3.91 c 0.05,0 0.09,-0.04 0.09,-0.09 v -8 c 0,-0.05 -0.04,-0.09 -0.09,-0.09 h -3.91 c -0.09,0 0,0.09 0,0 v -7.82 c 0,-0.09 -0.09,0 0,0 h 3.91 c 0.05,0 0.09,-0.04 0.09,-0.09 v -8 c 0,-0.05 -0.04,-0.09 -0.09,-0.09 h -3.91 c -0.09,0 0,0.09 0,0 v -7.82 c 0,-0.09 -0.09,0 0,0 h 3.91 c 0.05,0 0.09,-0.04 0.09,-0.09 v -8 c 0,-0.05 -0.04,-0.09 -0.09,-0.09 h -3.91 c -0.09,0 0,0.09 0,0 V 14.09 c 0,-0.05 -0.04,-0.09 -0.09,-0.09 h -15.41 c -0.09,0 0,0.09 0,0 v -3.91 c 0,-0.05 -0.04,-0.09 -0.09,-0.09 h -8 c -0.05,0 -0.09,0.04 -0.09,0.09 V 14 c 0,0.09 0.09,0 0,0 h -7.82 c -0.09,0 0,0.09 0,0 v -3.91 c 0,-0.05 -0.04,-0.09 -0.09,-0.09 h -8 c -0.05,0 -0.09,0.04 -0.09,0.09 V 14 c 0,0.09 0.09,0 0,0 h -7.82 c -0.09,0 0,0.09 0,0 v -3.91 c 0,-0.05 -0.04,-0.09 -0.09,-0.09 h -8 c -0.05,0 -0.09,0.04 -0.09,0.09 V 14 c 0,0.09 0.09,0 0,0 h -7.82 c -0.09,0 0,0.09 0,0 v -3.91 c 0,-0.05 -0.04,-0.09 -0.09,-0.09 h -8 c -0.05,0 -0.09,0.04 -0.09,0.09 V 14 c 0,0.09 0.09,0 0,0 h -7.82 c -0.09,0 0,0.09 0,0 v -3.91 c 0,-0.05 -0.04,-0.09 -0.09,-0.09 h -8 c -0.05,0 -0.09,0.04 -0.09,0.09 V 14 c 0,0.09 0.09,0 0,0 h -7.82 c -0.09,0 0,0.09 0,0 v -3.91 c 0,-0.05 -0.04,-0.09 -0.09,-0.09 h -8 c -0.05,0 -0.09,0.04 -0.09,0.09 V 14 c 0,0.09 0.09,0 0,0 h -7.82 c -0.09,0 0,0.09 0,0 v -3.91 c 0,-0.05 -0.04,-0.09 -0.09,-0.09 h -8 c -0.05,0 -0.09,0.04 -0.09,0.09 V 14 c 0,0.09 0.09,0 0,0 h -7.82 c -0.09,0 0,0.09 0,0 v -3.91 c 0,-0.05 -0.04,-0.09 -0.09,-0.09 h -8 c -0.05,0 -0.09,0.04 -0.09,0.09 V 14 c 0,0.09 0.09,0 0,0 h -7.82 c -0.09,0 0,0.09 0,0 v -3.91 c 0,-0.05 -0.04,-0.09 -0.09,-0.09 h -8 c -0.05,0 -0.09,0.04 -0.09,0.09 V 14 c 0,0.09 0.09,0 0,0 h -7.82 c -0.09,0 0,0.09 0,0 v -3.91 c 0,-0.05 -0.04,-0.09 -0.09,-0.09 h -8 c -0.05,0 -0.09,0.04 -0.09,0.09 V 14 c 0,0.09 0.09,0 0,0 h -15.41 c -0.05,0 -0.09,0.04 -0.09,0.09 V 28 c 0,0.09 0.09,0 0,0 h -3.91 c -0.05,0 -0.09,0.04 -0.09,0.09 v 8 c 0,0.05 0.04,0.09 0.09,0.09 h 3.91 c 0.09,0 0,-0.09 0,0 V 44 c 0,0.09 0.09,0 0,0 h -3.91 c -0.05,0 -0.09,0.04 -0.09,0.09 v 8 c 0,0.05 0.04,0.09 0.09,0.09 h 3.91 c 0.09,0 0,-0.09 0,0 V 60 c 0,0.09 0.09,0 0,0 h -3.91 c -0.05,0 -0.09,0.04 -0.09,0.09 v 8 c 0,0.05 0.04,0.09 0.09,0.09 h 3.91 c 0.09,0 0,-0.09 0,0 V 76 c 0,0.09 0.09,0 0,0 h -3.91 c -0.05,0 -0.09,0.04 -0.09,0.09 v 8 c 0,0.05 0.04,0.09 0.09,0.09 h 3.91 c 0.09,0 0,-0.09 0,0 V 92 c 0,0.09 0.09,0 0,0 h -3.91 c -0.05,0 -0.09,0.04 -0.09,0.09 v 8 c 0,0.05 0.04,0.09 0.09,0.09 h 3.91 c 0.09,0 0,-0.09 0,0 V 108 c 0,0.09 0.09,0 0,0 h -3.91 c -0.05,0 -0.09,0.04 -0.09,0.09 v 8 c 0,0.05 0.04,0.09 0.09,0.09 h 3.91 c 0.09,0 0,-0.09 0,0 V 124 c 0,0.09 0.09,0 0,0 h -3.91 c -0.05,0 -0.09,0.04 -0.09,0.09 v 8 c 0,0.05 0.04,0.09 0.09,0.09 h 3.91 c 0.09,0 0,-0.09 0,0 V 140 c 0,0.09 0.09,0 0,0 h -3.91 c -0.05,0 -0.09,0.04 -0.09,0.09 v 8 c 0,0.05 0.04,0.09 0.09,0.09 h 3.91 c 0.09,0 0,-0.09 0,0 V 156 c 0,0.09 0.09,0 0,0 h -3.91 c -0.05,0 -0.09,0.04 -0.09,0.09 v 8 c 0,0.05 0.04,0.09 0.09,0.09 h 3.91 c 0.09,0 0,-0.09 0,0 V 172 c 0,0.09 0.09,0 0,0 h -3.91 c -0.05,0 -0.09,0.04 -0.09,0.09 v 8 c 0,0.05 0.04,0.09 0.09,0.09 h 3.91 c 0.09,0 0,-0.09 0,0 V 188 c 0,0.09 0.09,0 0,0 h -3.91 c -0.05,0 -0.09,0.04 -0.09,0.09 v 8 c 0,0.05 0.04,0.09 0.09,0.09 h 3.91 c 0.09,0 0,-0.09 0,0 V 204 c 0,0.09 0.09,0 0,0 h -3.91 c -0.05,0 -0.09,0.04 -0.09,0.09 v 8 c 0,0.05 0.04,0.09 0.09,0.09 h 3.91 c 0.09,0 0,-0.09 0,0 v 13.91 c 0,0.05 0.04,0.09 0.09,0.09 z"
         id="path13900" />
    </g>
    <g
       transform="rotate(90,185.10775,283.11332)"
       id="p-3-2"
       style="fill:none;stroke-linecap:round;stroke-linejoin:round">
      <path
         style="stroke:#000000;stroke-width:0.18000001"
         inkscape:connector-curvature="0"
         d="M 14.09,216.18 H 24 c 0.09,0 0,-0.09 0,0 v 3.91 c 0,0.05 0.04,0.09 0.09,0.09 h 8 c 0.05,0 0.09,-0.04 0.09,-0.09 v -3.91 c 0,-0.09 -0.09,0 0,0 H 40 c 0.09,0 0,-0.09 0,0 v 3.91 c 0,0.05 0.04,0.09 0.09,0.09 h 8 c 0.05,0 0.09,-0.04 0.09,-0.09 v -3.91 c 0,-0.09 -0.09,0 0,0 H 56 c 0.09,0 0,-0.09 0,0 v 3.91 c 0,0.05 0.04,0.09 0.09,0.09 h 8 c 0.05,0 0.09,-0.04 0.09,-0.09 v -3.91 c 0,-0.09 -0.09,0 0,0 H 72 c 0.09,0 0,-0.09 0,0 v 3.91 c 0,0.05 0.04,0.09 0.09,0.09 h 8 c 0.05,0 0.09,-0.04 0.09,-0.09 v -3.91 c 0,-0.09 -0.09,0 0,0 H 88 c 0.09,0 0,-0.09 0,0 v 3.91 c 0,0.05 0.04,0.09 0.09,0.09 h 8 c 0.05,0 0.09,-0.04 0.09,-0.09 v -3.91 c 0,-0.09 -0.09,0 0,0 H 104 c 0.09,0 0,-0.09 0,0 v 3.91 c 0,0.05 0.04,0.09 0.09,0.09 h 8 c 0.05,0 0.09,-0.04 0.09,-0.09 v -3.91 c 0,-0.09 -0.09,0 0,0 H 120 c 0.09,0 0,-0.09 0,0 v 3.91 c 0,0.05 0.04,0.09 0.09,0.09 h 8 c 0.05,0 0.09,-0.04 0.09,-0.09 v -3.91 c 0,-0.09 -0.09,0 0,0 H 136 c 0.09,0 0,-0.09 0,0 v 3.91 c 0,0.05 0.04,0.09 0.09,0.09 h 8 c 0.05,0 0.09,-0.04 0.09,-0.09 v -3.91 c 0,-0.09 -0.09,0 0,0 H 152 c 0.09,0 0,-0.09 0,0 v 3.91 c 0,0.05 0.04,0.09 0.09,0.09 h 8 c 0.05,0 0.09,-0.04 0.09,-0.09 v -3.91 c 0,-0.09 -0.09,0 0,0 H 168 c 0.09,0 0,-0.09 0,0 v 3.91 c 0,0.05 0.04,0.09 0.09,0.09 h 8 c 0.05,0 0.09,-0.04 0.09,-0.09 v -3.91 c 0,-0.09 -0.09,0 0,0 h 9.91 c 0.05,0 0.09,-0.04 0.09,-0.09 v -8.91 c 0,-0.09 -0.09,0 0,0 h 3.91 c 0.05,0 0.09,-0.04 0.09,-0.09 v -8 c 0,-0.05 -0.04,-0.09 -0.09,-0.09 h -3.91 c -0.09,0 0,0.09 0,0 v -7.82 c 0,-0.09 -0.09,0 0,0 h 3.91 c 0.05,0 0.09,-0.04 0.09,-0.09 v -8 c 0,-0.05 -0.04,-0.09 -0.09,-0.09 h -3.91 c -0.09,0 0,0.09 0,0 v -7.82 c 0,-0.09 -0.09,0 0,0 h 3.91 c 0.05,0 0.09,-0.04 0.09,-0.09 v -8 c 0,-0.05 -0.04,-0.09 -0.09,-0.09 h -3.91 c -0.09,0 0,0.09 0,0 v -7.82 c 0,-0.09 -0.09,0 0,0 h 3.91 c 0.05,0 0.09,-0.04 0.09,-0.09 v -8 c 0,-0.05 -0.04,-0.09 -0.09,-0.09 h -3.91 c -0.09,0 0,0.09 0,0 v -7.82 c 0,-0.09 -0.09,0 0,0 h 3.91 c 0.05,0 0.09,-0.04 0.09,-0.09 v -8 c 0,-0.05 -0.04,-0.09 -0.09,-0.09 h -3.91 c -0.09,0 0,0.09 0,0 v -7.82 c 0,-0.09 -0.09,0 0,0 h 3.91 c 0.05,0 0.09,-0.04 0.09,-0.09 v -8 c 0,-0.05 -0.04,-0.09 -0.09,-0.09 h -3.91 c -0.09,0 0,0.09 0,0 v -7.82 c 0,-0.09 -0.09,0 0,0 h 3.91 c 0.05,0 0.09,-0.04 0.09,-0.09 v -8 c 0,-0.05 -0.04,-0.09 -0.09,-0.09 h -3.91 c -0.09,0 0,0.09 0,0 v -7.82 c 0,-0.09 -0.09,0 0,0 h 3.91 c 0.05,0 0.09,-0.04 0.09,-0.09 v -8 c 0,-0.05 -0.04,-0.09 -0.09,-0.09 h -3.91 c -0.09,0 0,0.09 0,0 v -7.82 c 0,-0.09 -0.09,0 0,0 h 3.91 c 0.05,0 0.09,-0.04 0.09,-0.09 v -8 c 0,-0.05 -0.04,-0.09 -0.09,-0.09 h -3.91 c -0.09,0 0,0.09 0,0 v -7.82 c 0,-0.09 -0.09,0 0,0 h 3.91 c 0.05,0 0.09,-0.04 0.09,-0.09 v -8 c 0,-0.05 -0.04,-0.09 -0.09,-0.09 h -3.91 c -0.09,0 0,0.09 0,0 v -7.82 c 0,-0.09 -0.09,0 0,0 h 3.91 c 0.05,0 0.09,-0.04 0.09,-0.09 v -8 c 0,-0.05 -0.04,-0.09 -0.09,-0.09 h -3.91 c -0.09,0 0,0.09 0,0 v -7.82 c 0,-0.09 -0.09,0 0,0 h 3.91 c 0.05,0 0.09,-0.04 0.09,-0.09 v -8 c 0,-0.05 -0.04,-0.09 -0.09,-0.09 h -3.91 c -0.09,0 0,0.09 0,0 v -8.91 c 0,-0.05 -0.04,-0.09 -0.09,-0.09 h -9.91 c -0.09,0 0,0.09 0,0 v -3.91 c 0,-0.05 -0.04,-0.09 -0.09,-0.09 h -8 C 168.04,10 168,10.04 168,10.09 V 14 c 0,0.09 0.09,0 0,0 h -7.82 c -0.09,0 0,0.09 0,0 v -3.91 c 0,-0.05 -0.04,-0.09 -0.09,-0.09 h -8 C 152.04,10 152,10.04 152,10.09 V 14 c 0,0.09 0.09,0 0,0 h -7.82 c -0.09,0 0,0.09 0,0 v -3.91 c 0,-0.05 -0.04,-0.09 -0.09,-0.09 h -8 C 136.04,10 136,10.04 136,10.09 V 14 c 0,0.09 0.09,0 0,0 h -7.82 c -0.09,0 0,0.09 0,0 v -3.91 c 0,-0.05 -0.04,-0.09 -0.09,-0.09 h -8 C 120.04,10 120,10.04 120,10.09 V 14 c 0,0.09 0.09,0 0,0 h -7.82 c -0.09,0 0,0.09 0,0 v -3.91 c 0,-0.05 -0.04,-0.09 -0.09,-0.09 h -8 C 104.04,10 104,10.04 104,10.09 V 14 c 0,0.09 0.09,0 0,0 h -7.82 c -0.09,0 0,0.09 0,0 V 10.09 C 96.18,10.04 96.14,10 96.09,10 h -8 C 88.04,10 88,10.04 88,10.09 V 14 c 0,0.09 0.09,0 0,0 h -7.82 c -0.09,0 0,0.09 0,0 V 10.09 C 80.18,10.04 80.14,10 80.09,10 h -8 C 72.04,10 72,10.04 72,10.09 V 14 c 0,0.09 0.09,0 0,0 h -7.82 c -0.09,0 0,0.09 0,0 V 10.09 C 64.18,10.04 64.14,10 64.09,10 h -8 C 56.04,10 56,10.04 56,10.09 V 14 c 0,0.09 0.09,0 0,0 h -7.82 c -0.09,0 0,0.09 0,0 V 10.09 C 48.18,10.04 48.14,10 48.09,10 h -8 C 40.04,10 40,10.04 40,10.09 V 14 c 0,0.09 0.09,0 0,0 h -7.82 c -0.09,0 0,0.09 0,0 V 10.09 C 32.18,10.04 32.14,10 32.09,10 h -8 C 24.04,10 24,10.04 24,10.09 V 14 c 0,0.09 0.09,0 0,0 H 14.09 C 14.04,14 14,14.04 14,14.09 V 23 c 0,0.09 0.09,0 0,0 H 10.09 C 10.04,23 10,23.04 10,23.09 v 8 c 0,0.05 0.04,0.09 0.09,0.09 H 14 c 0.09,0 0,-0.09 0,0 V 39 c 0,0.09 0.09,0 0,0 H 10.09 C 10.04,39 10,39.04 10,39.09 v 8 c 0,0.05 0.04,0.09 0.09,0.09 H 14 c 0.09,0 0,-0.09 0,0 V 55 c 0,0.09 0.09,0 0,0 H 10.09 C 10.04,55 10,55.04 10,55.09 v 8 c 0,0.05 0.04,0.09 0.09,0.09 H 14 c 0.09,0 0,-0.09 0,0 V 71 c 0,0.09 0.09,0 0,0 H 10.09 C 10.04,71 10,71.04 10,71.09 v 8 c 0,0.05 0.04,0.09 0.09,0.09 H 14 c 0.09,0 0,-0.09 0,0 V 87 c 0,0.09 0.09,0 0,0 H 10.09 C 10.04,87 10,87.04 10,87.09 v 8 c 0,0.05 0.04,0.09 0.09,0.09 H 14 c 0.09,0 0,-0.09 0,0 V 103 c 0,0.09 0.09,0 0,0 h -3.91 c -0.05,0 -0.09,0.04 -0.09,0.09 v 8 c 0,0.05 0.04,0.09 0.09,0.09 H 14 c 0.09,0 0,-0.09 0,0 V 119 c 0,0.09 0.09,0 0,0 h -3.91 c -0.05,0 -0.09,0.04 -0.09,0.09 v 8 c 0,0.05 0.04,0.09 0.09,0.09 H 14 c 0.09,0 0,-0.09 0,0 V 135 c 0,0.09 0.09,0 0,0 h -3.91 c -0.05,0 -0.09,0.04 -0.09,0.09 v 8 c 0,0.05 0.04,0.09 0.09,0.09 H 14 c 0.09,0 0,-0.09 0,0 V 151 c 0,0.09 0.09,0 0,0 h -3.91 c -0.05,0 -0.09,0.04 -0.09,0.09 v 8 c 0,0.05 0.04,0.09 0.09,0.09 H 14 c 0.09,0 0,-0.09 0,0 V 167 c 0,0.09 0.09,0 0,0 h -3.91 c -0.05,0 -0.09,0.04 -0.09,0.09 v 8 c 0,0.05 0.04,0.09 0.09,0.09 H 14 c 0.09,0 0,-0.09 0,0 V 183 c 0,0.09 0.09,0 0,0 h -3.91 c -0.05,0 -0.09,0.04 -0.09,0.09 v 8 c 0,0.05 0.04,0.09 0.09,0.09 H 14 c 0.09,0 0,-0.09 0,0 V 199 c 0,0.09 0.09,0 0,0 h -3.91 c -0.05,0 -0.09,0.04 -0.09,0.09 v 8 c 0,0.05 0.04,0.09 0.09,0.09 H 14 c 0.09,0 0,-0.09 0,0 v 8.91 c 0,0.05 0.04,0.09 0.09,0.09 z"
         id="path14655" />
    </g>
    <g
       transform="rotate(90,432.88903,318.94169)"
       id="p-1"
       style="fill:none;stroke-linecap:round;stroke-linejoin:round">
      <path
         style="stroke:#000000;stroke-width:0.18000001"
         inkscape:connector-curvature="0"
         d="m 14.09,284.54 h 10 c 0.05,0 0.09,-0.04 0.09,-0.09 v -3.91 c 0,-0.09 -0.09,0 0,0 H 32 c 0.09,0 0,-0.09 0,0 v 3.91 c 0,0.05 0.04,0.09 0.09,0.09 h 8 c 0.05,0 0.09,-0.04 0.09,-0.09 v -3.91 c 0,-0.09 -0.09,0 0,0 H 48 c 0.09,0 0,-0.09 0,0 v 3.91 c 0,0.05 0.04,0.09 0.09,0.09 h 8 c 0.05,0 0.09,-0.04 0.09,-0.09 v -3.91 c 0,-0.09 -0.09,0 0,0 H 64 c 0.09,0 0,-0.09 0,0 v 3.91 c 0,0.05 0.04,0.09 0.09,0.09 h 8 c 0.05,0 0.09,-0.04 0.09,-0.09 v -3.91 c 0,-0.09 -0.09,0 0,0 H 80 c 0.09,0 0,-0.09 0,0 v 3.91 c 0,0.05 0.04,0.09 0.09,0.09 h 8 c 0.05,0 0.09,-0.04 0.09,-0.09 v -3.91 c 0,-0.09 -0.09,0 0,0 H 96 c 0.09,0 0,-0.09 0,0 v 3.91 c 0,0.05 0.04,0.09 0.09,0.09 h 8 c 0.05,0 0.09,-0.04 0.09,-0.09 v -3.91 c 0,-0.09 -0.09,0 0,0 H 112 c 0.09,0 0,-0.09 0,0 v 3.91 c 0,0.05 0.04,0.09 0.09,0.09 h 8 c 0.05,0 0.09,-0.04 0.09,-0.09 v -3.91 c 0,-0.09 -0.09,0 0,0 H 128 c 0.09,0 0,-0.09 0,0 v 3.91 c 0,0.05 0.04,0.09 0.09,0.09 h 8 c 0.05,0 0.09,-0.04 0.09,-0.09 v -3.91 c 0,-0.09 -0.09,0 0,0 H 144 c 0.09,0 0,-0.09 0,0 v 3.91 c 0,0.05 0.04,0.09 0.09,0.09 h 8 c 0.05,0 0.09,-0.04 0.09,-0.09 v -3.91 c 0,-0.09 -0.09,0 0,0 H 160 c 0.09,0 0,-0.09 0,0 v 3.91 c 0,0.05 0.04,0.09 0.09,0.09 h 8 c 0.05,0 0.09,-0.04 0.09,-0.09 v -3.91 c 0,-0.09 -0.09,0 0,0 H 176 c 0.09,0 0,-0.09 0,0 v 3.91 c 0,0.05 0.04,0.09 0.09,0.09 h 10 4 c 0.05,0 0.09,-0.04 0.09,-0.09 v -11 c 0,-0.05 -0.04,-0.09 -0.09,-0.09 h -3.91 c -0.09,0 0,0.09 0,0 v -7.82 c 0,-0.09 -0.09,0 0,0 h 3.91 c 0.05,0 0.09,-0.04 0.09,-0.09 v -11 c 0,-0.05 -0.04,-0.09 -0.09,-0.09 h -4 -172 -4 c -0.05,0 -0.09,0.04 -0.09,0.09 v 11 c 0,0.05 0.04,0.09 0.09,0.09 H 14 c 0.09,0 0,-0.09 0,0 v 7.82 c 0,0.09 0.09,0 0,0 h -3.91 c -0.05,0 -0.09,0.04 -0.09,0.09 v 11 c 0,0.05 0.04,0.09 0.09,0.09 z"
         id="path14649" />
    </g>
    <g
       transform="rotate(90,432.88903,318.94169)"
       id="p-2"
       style="fill:none;stroke-linecap:round;stroke-linejoin:round">
      <path
         style="stroke:#000000;stroke-width:0.18000001"
         inkscape:connector-curvature="0"
         d="m 14.09,252.36 h 10 c 0.05,0 0.09,-0.04 0.09,-0.09 v -3.91 c 0,-0.09 -0.09,0 0,0 H 32 c 0.09,0 0,-0.09 0,0 v 3.91 c 0,0.05 0.04,0.09 0.09,0.09 h 8 c 0.05,0 0.09,-0.04 0.09,-0.09 v -3.91 c 0,-0.09 -0.09,0 0,0 H 48 c 0.09,0 0,-0.09 0,0 v 3.91 c 0,0.05 0.04,0.09 0.09,0.09 h 8 c 0.05,0 0.09,-0.04 0.09,-0.09 v -3.91 c 0,-0.09 -0.09,0 0,0 H 64 c 0.09,0 0,-0.09 0,0 v 3.91 c 0,0.05 0.04,0.09 0.09,0.09 h 8 c 0.05,0 0.09,-0.04 0.09,-0.09 v -3.91 c 0,-0.09 -0.09,0 0,0 H 80 c 0.09,0 0,-0.09 0,0 v 3.91 c 0,0.05 0.04,0.09 0.09,0.09 h 8 c 0.05,0 0.09,-0.04 0.09,-0.09 v -3.91 c 0,-0.09 -0.09,0 0,0 H 96 c 0.09,0 0,-0.09 0,0 v 3.91 c 0,0.05 0.04,0.09 0.09,0.09 h 8 c 0.05,0 0.09,-0.04 0.09,-0.09 v -3.91 c 0,-0.09 -0.09,0 0,0 H 112 c 0.09,0 0,-0.09 0,0 v 3.91 c 0,0.05 0.04,0.09 0.09,0.09 h 8 c 0.05,0 0.09,-0.04 0.09,-0.09 v -3.91 c 0,-0.09 -0.09,0 0,0 H 128 c 0.09,0 0,-0.09 0,0 v 3.91 c 0,0.05 0.04,0.09 0.09,0.09 h 8 c 0.05,0 0.09,-0.04 0.09,-0.09 v -3.91 c 0,-0.09 -0.09,0 0,0 H 144 c 0.09,0 0,-0.09 0,0 v 3.91 c 0,0.05 0.04,0.09 0.09,0.09 h 8 c 0.05,0 0.09,-0.04 0.09,-0.09 v -3.91 c 0,-0.09 -0.09,0 0,0 H 160 c 0.09,0 0,-0.09 0,0 v 3.91 c 0,0.05 0.04,0.09 0.09,0.09 h 8 c 0.05,0 0.09,-0.04 0.09,-0.09 v -3.91 c 0,-0.09 -0.09,0 0,0 H 176 c 0.09,0 0,-0.09 0,0 v 3.91 c 0,0.05 0.04,0.09 0.09,0.09 h 10 4 c 0.05,0 0.09,-0.04 0.09,-0.09 v -11 c 0,-0.05 -0.04,-0.09 -0.09,-0.09 h -3.91 c -0.09,0 0,0.09 0,0 v -7.82 c 0,-0.09 -0.09,0 0,0 h 3.91 c 0.05,0 0.09,-0.04 0.09,-0.09 v -11 c 0,-0.05 -0.04,-0.09 -0.09,-0.09 h -4 -172 -4 c -0.05,0 -0.09,0.04 -0.09,0.09 v 11 c 0,0.05 0.04,0.09 0.09,0.09 H 14 c 0.09,0 0,-0.09 0,0 v 7.82 c 0,0.09 0.09,0 0,0 h -3.91 c -0.05,0 -0.09,0.04 -0.09,0.09 v 11 c 0,0.05 0.04,0.09 0.09,0.09 z"
         id="path14652" />
    </g>
    <g
       transform="rotate(90,432.88903,318.94169)"
       id="p-4"
       style="fill:none;stroke-linecap:round;stroke-linejoin:round">
      <path
         style="stroke:#000000;stroke-width:0.18000001"
         inkscape:connector-curvature="0"
         d="m 196.27,284.54 h 9 c 0.05,0 0.09,-0.04 0.09,-0.09 v -3.91 c 0,-0.09 -0.09,0 0,0 h 7.82 c 0.09,0 0,-0.09 0,0 v 3.91 c 0,0.05 0.04,0.09 0.09,0.09 h 8 c 0.05,0 0.09,-0.04 0.09,-0.09 v -3.91 c 0,-0.09 -0.09,0 0,0 h 7.82 c 0.09,0 0,-0.09 0,0 v 3.91 c 0,0.05 0.04,0.09 0.09,0.09 h 8 c 0.05,0 0.09,-0.04 0.09,-0.09 v -3.91 c 0,-0.09 -0.09,0 0,0 h 7.82 c 0.09,0 0,-0.09 0,0 v 3.91 c 0,0.05 0.04,0.09 0.09,0.09 h 8 c 0.05,0 0.09,-0.04 0.09,-0.09 v -3.91 c 0,-0.09 -0.09,0 0,0 h 7.82 c 0.09,0 0,-0.09 0,0 v 3.91 c 0,0.05 0.04,0.09 0.09,0.09 h 8 c 0.05,0 0.09,-0.04 0.09,-0.09 v -3.91 c 0,-0.09 -0.09,0 0,0 h 7.82 c 0.09,0 0,-0.09 0,0 v 3.91 c 0,0.05 0.04,0.09 0.09,0.09 h 8 c 0.05,0 0.09,-0.04 0.09,-0.09 v -3.91 c 0,-0.09 -0.09,0 0,0 h 7.82 c 0.09,0 0,-0.09 0,0 v 3.91 c 0,0.05 0.04,0.09 0.09,0.09 h 8 c 0.05,0 0.09,-0.04 0.09,-0.09 v -3.91 c 0,-0.09 -0.09,0 0,0 h 7.82 c 0.09,0 0,-0.09 0,0 v 3.91 c 0,0.05 0.04,0.09 0.09,0.09 h 8 c 0.05,0 0.09,-0.04 0.09,-0.09 v -3.91 c 0,-0.09 -0.09,0 0,0 h 7.82 c 0.09,0 0,-0.09 0,0 v 3.91 c 0,0.05 0.04,0.09 0.09,0.09 h 8 c 0.05,0 0.09,-0.04 0.09,-0.09 v -3.91 c 0,-0.09 -0.09,0 0,0 h 7.82 c 0.09,0 0,-0.09 0,0 v 3.91 c 0,0.05 0.04,0.09 0.09,0.09 h 8 c 0.05,0 0.09,-0.04 0.09,-0.09 v -3.91 c 0,-0.09 -0.09,0 0,0 h 7.82 c 0.09,0 0,-0.09 0,0 v 3.91 c 0,0.05 0.04,0.09 0.09,0.09 h 8 c 0.05,0 0.09,-0.04 0.09,-0.09 v -3.91 c 0,-0.09 -0.09,0 0,0 h 7.82 c 0.09,0 0,-0.09 0,0 v 3.91 c 0,0.05 0.04,0.09 0.09,0.09 h 8 c 0.05,0 0.09,-0.04 0.09,-0.09 v -3.91 c 0,-0.09 -0.09,0 0,0 h 7.82 c 0.09,0 0,-0.09 0,0 v 3.91 c 0,0.05 0.04,0.09 0.09,0.09 h 9 c 0.05,0 0.09,-0.04 0.09,-0.09 v -10.91 c 0,-0.09 -0.09,0 0,0 h 3.91 c 0.05,0 0.09,-0.04 0.09,-0.09 v -8 c 0,-0.05 -0.04,-0.09 -0.09,-0.09 h -3.91 c -0.09,0 0,0.09 0,0 v -10.91 c 0,-0.05 -0.04,-0.09 -0.09,-0.09 h -202 c -0.05,0 -0.09,0.04 -0.09,0.09 v 10.91 c 0,0.09 0.09,0 0,0 h -3.91 c -0.05,0 -0.09,0.04 -0.09,0.09 v 8 c 0,0.05 0.04,0.09 0.09,0.09 h 3.91 c 0.09,0 0,-0.09 0,0 v 10.91 c 0,0.05 0.04,0.09 0.09,0.09 z"
         id="path14658" />
    </g>
    <g
       transform="rotate(90,432.88903,318.94169)"
       id="p-5-3"
       style="fill:none;stroke-linecap:round;stroke-linejoin:round">
      <path
         style="stroke:#000000;stroke-width:0.18000001"
         inkscape:connector-curvature="0"
         d="m 196.27,252.36 h 9 c 0.05,0 0.09,-0.04 0.09,-0.09 v -3.91 c 0,-0.09 -0.09,0 0,0 h 7.82 c 0.09,0 0,-0.09 0,0 v 3.91 c 0,0.05 0.04,0.09 0.09,0.09 h 8 c 0.05,0 0.09,-0.04 0.09,-0.09 v -3.91 c 0,-0.09 -0.09,0 0,0 h 7.82 c 0.09,0 0,-0.09 0,0 v 3.91 c 0,0.05 0.04,0.09 0.09,0.09 h 8 c 0.05,0 0.09,-0.04 0.09,-0.09 v -3.91 c 0,-0.09 -0.09,0 0,0 h 7.82 c 0.09,0 0,-0.09 0,0 v 3.91 c 0,0.05 0.04,0.09 0.09,0.09 h 8 c 0.05,0 0.09,-0.04 0.09,-0.09 v -3.91 c 0,-0.09 -0.09,0 0,0 h 7.82 c 0.09,0 0,-0.09 0,0 v 3.91 c 0,0.05 0.04,0.09 0.09,0.09 h 8 c 0.05,0 0.09,-0.04 0.09,-0.09 v -3.91 c 0,-0.09 -0.09,0 0,0 h 7.82 c 0.09,0 0,-0.09 0,0 v 3.91 c 0,0.05 0.04,0.09 0.09,0.09 h 8 c 0.05,0 0.09,-0.04 0.09,-0.09 v -3.91 c 0,-0.09 -0.09,0 0,0 h 7.82 c 0.09,0 0,-0.09 0,0 v 3.91 c 0,0.05 0.04,0.09 0.09,0.09 h 8 c 0.05,0 0.09,-0.04 0.09,-0.09 v -3.91 c 0,-0.09 -0.09,0 0,0 h 7.82 c 0.09,0 0,-0.09 0,0 v 3.91 c 0,0.05 0.04,0.09 0.09,0.09 h 8 c 0.05,0 0.09,-0.04 0.09,-0.09 v -3.91 c 0,-0.09 -0.09,0 0,0 h 7.82 c 0.09,0 0,-0.09 0,0 v 3.91 c 0,0.05 0.04,0.09 0.09,0.09 h 8 c 0.05,0 0.09,-0.04 0.09,-0.09 v -3.91 c 0,-0.09 -0.09,0 0,0 h 7.82 c 0.09,0 0,-0.09 0,0 v 3.91 c 0,0.05 0.04,0.09 0.09,0.09 h 8 c 0.05,0 0.09,-0.04 0.09,-0.09 v -3.91 c 0,-0.09 -0.09,0 0,0 h 7.82 c 0.09,0 0,-0.09 0,0 v 3.91 c 0,0.05 0.04,0.09 0.09,0.09 h 8 c 0.05,0 0.09,-0.04 0.09,-0.09 v -3.91 c 0,-0.09 -0.09,0 0,0 h 7.82 c 0.09,0 0,-0.09 0,0 v 3.91 c 0,0.05 0.04,0.09 0.09,0.09 h 8 c 0.05,0 0.09,-0.04 0.09,-0.09 v -3.91 c 0,-0.09 -0.09,0 0,0 h 7.82 c 0.09,0 0,-0.09 0,0 v 3.91 c 0,0.05 0.04,0.09 0.09,0.09 h 9 c 0.05,0 0.09,-0.04 0.09,-0.09 v -10.91 c 0,-0.09 -0.09,0 0,0 h 3.91 c 0.05,0 0.09,-0.04 0.09,-0.09 v -8 c 0,-0.05 -0.04,-0.09 -0.09,-0.09 h -3.91 c -0.09,0 0,0.09 0,0 v -10.91 c 0,-0.05 -0.04,-0.09 -0.09,-0.09 h -202 c -0.05,0 -0.09,0.04 -0.09,0.09 v 10.91 c 0,0.09 0.09,0 0,0 h -3.91 c -0.05,0 -0.09,0.04 -0.09,0.09 v 8 c 0,0.05 0.04,0.09 0.09,0.09 h 3.91 c 0.09,0 0,-0.09 0,0 v 10.91 c 0,0.05 0.04,0.09 0.09,0.09 z"
         id="path14661" />
    </g>
  </g>
</svg>
