<?xml version="1.0" encoding="UTF-8" standalone="no"?>
<!-- Created with Inkscape (http://www.inkscape.org/) -->

<svg
   xmlns:dc="http://purl.org/dc/elements/1.1/"
   xmlns:cc="http://creativecommons.org/ns#"
   xmlns:rdf="http://www.w3.org/1999/02/22-rdf-syntax-ns#"
   xmlns:svg="http://www.w3.org/2000/svg"
   xmlns="http://www.w3.org/2000/svg"
   xmlns:sodipodi="http://sodipodi.sourceforge.net/DTD/sodipodi-0.dtd"
   xmlns:inkscape="http://www.inkscape.org/namespaces/inkscape"
   width="594mm"
   height="420mm"
   viewBox="0 0 594 420"
   version="1.1"
   id="svg1565"
   inkscape:version="0.92.4 (5da689c313, 2019-01-14)"
   sodipodi:docname="design_1.7_file1.svg">
  <defs
     id="defs1559" />
  <sodipodi:namedview
     id="base"
     pagecolor="#ffffff"
     bordercolor="#666666"
     borderopacity="1.0"
     inkscape:pageopacity="0.0"
     inkscape:pageshadow="2"
     inkscape:zoom="0.2781335"
     inkscape:cx="1451.1358"
     inkscape:cy="335.99695"
     inkscape:document-units="mm"
     inkscape:current-layer="layer1"
     showgrid="false"
     inkscape:window-width="1920"
     inkscape:window-height="1016"
     inkscape:window-x="0"
     inkscape:window-y="27"
     inkscape:window-maximized="1" />
  <metadata
     id="metadata1562">
    <rdf:RDF>
      <cc:Work
         rdf:about="">
        <dc:format>image/svg+xml</dc:format>
        <dc:type
           rdf:resource="http://purl.org/dc/dcmitype/StillImage" />
        <dc:title />
      </cc:Work>
    </rdf:RDF>
  </metadata>
  <g
     inkscape:label="Layer 1"
     inkscape:groupmode="layer"
     id="layer1"
     transform="translate(0,123)">
    <g
       transform="translate(-0.56386183,-16.528722)"
       id="p-1"
       style="fill:none;stroke:#000000;stroke-linecap:round;stroke-linejoin:round">
      <path
         inkscape:connector-curvature="0"
         d="m 26.09,298.09 h -3.91 c -0.09,0 0,0.09 0,0 v -3.82 c 0,-0.09 -0.09,0 0,0 H 30 c 0.09,0 0,-0.09 0,0 v 3.82 c 0,0.09 0.09,0 0,0 z"
         id="path7897"
         style="stroke:#000000;stroke-width:0.18000001" />
      <path
         inkscape:connector-curvature="0"
         d="m 42.09,298.09 h -3.91 c -0.09,0 0,0.09 0,0 v -3.82 c 0,-0.09 -0.09,0 0,0 H 46 c 0.09,0 0,-0.09 0,0 v 3.82 c 0,0.09 0.09,0 0,0 z"
         id="path7899"
         style="stroke:#000000;stroke-width:0.18000001" />
      <path
         inkscape:connector-curvature="0"
         d="m 58.09,298.09 h -3.91 c -0.09,0 0,0.09 0,0 v -3.82 c 0,-0.09 -0.09,0 0,0 H 62 c 0.09,0 0,-0.09 0,0 v 3.82 c 0,0.09 0.09,0 0,0 z"
         id="path7901"
         style="stroke:#000000;stroke-width:0.18000001" />
      <path
         inkscape:connector-curvature="0"
         d="m 74.09,298.09 h -3.91 c -0.09,0 0,0.09 0,0 v -3.82 c 0,-0.09 -0.09,0 0,0 H 78 c 0.09,0 0,-0.09 0,0 v 3.82 c 0,0.09 0.09,0 0,0 z"
         id="path7903"
         style="stroke:#000000;stroke-width:0.18000001" />
      <path
         inkscape:connector-curvature="0"
         d="m 90.09,298.09 h -3.91 c -0.09,0 0,0.09 0,0 v -3.82 c 0,-0.09 -0.09,0 0,0 H 94 c 0.09,0 0,-0.09 0,0 v 3.82 c 0,0.09 0.09,0 0,0 z"
         id="path7905"
         style="stroke:#000000;stroke-width:0.18000001" />
      <path
         inkscape:connector-curvature="0"
         d="m 106.09,298.09 h -3.91 c -0.09,0 0,0.09 0,0 v -3.82 c 0,-0.09 -0.09,0 0,0 H 110 c 0.09,0 0,-0.09 0,0 v 3.82 c 0,0.09 0.09,0 0,0 z"
         id="path7907"
         style="stroke:#000000;stroke-width:0.18000001" />
      <path
         inkscape:connector-curvature="0"
         d="m 122.09,298.09 h -3.91 c -0.09,0 0,0.09 0,0 v -3.82 c 0,-0.09 -0.09,0 0,0 H 126 c 0.09,0 0,-0.09 0,0 v 3.82 c 0,0.09 0.09,0 0,0 z"
         id="path7909"
         style="stroke:#000000;stroke-width:0.18000001" />
      <path
         inkscape:connector-curvature="0"
         d="m 138.09,298.09 h -3.91 c -0.09,0 0,0.09 0,0 v -3.82 c 0,-0.09 -0.09,0 0,0 H 142 c 0.09,0 0,-0.09 0,0 v 3.82 c 0,0.09 0.09,0 0,0 z"
         id="path7911"
         style="stroke:#000000;stroke-width:0.18000001" />
      <path
         inkscape:connector-curvature="0"
         d="m 154.09,298.09 h -3.91 c -0.09,0 0,0.09 0,0 v -3.82 c 0,-0.09 -0.09,0 0,0 H 158 c 0.09,0 0,-0.09 0,0 v 3.82 c 0,0.09 0.09,0 0,0 z"
         id="path7913"
         style="stroke:#000000;stroke-width:0.18000001" />
      <path
         inkscape:connector-curvature="0"
         d="m 170.09,298.09 h -3.91 c -0.09,0 0,0.09 0,0 v -3.82 c 0,-0.09 -0.09,0 0,0 H 174 c 0.09,0 0,-0.09 0,0 v 3.82 c 0,0.09 0.09,0 0,0 z"
         id="path7915"
         style="stroke:#000000;stroke-width:0.18000001" />
      <path
         inkscape:connector-curvature="0"
         d="m 186.09,298.09 h -3.91 c -0.09,0 0,0.09 0,0 v -3.82 c 0,-0.09 -0.09,0 0,0 H 190 c 0.09,0 0,-0.09 0,0 v 3.82 c 0,0.09 0.09,0 0,0 z"
         id="path7917"
         style="stroke:#000000;stroke-width:0.18000001" />
      <path
         inkscape:connector-curvature="0"
         d="m 202.09,298.09 h -3.91 c -0.09,0 0,0.09 0,0 v -3.82 c 0,-0.09 -0.09,0 0,0 H 206 c 0.09,0 0,-0.09 0,0 v 3.82 c 0,0.09 0.09,0 0,0 z"
         id="path7919"
         style="stroke:#000000;stroke-width:0.18000001" />
      <path
         inkscape:connector-curvature="0"
         d="m 218.09,298.09 h -3.91 c -0.09,0 0,0.09 0,0 v -3.82 c 0,-0.09 -0.09,0 0,0 H 222 c 0.09,0 0,-0.09 0,0 v 3.82 c 0,0.09 0.09,0 0,0 z"
         id="path7921"
         style="stroke:#000000;stroke-width:0.18000001" />
      <path
         inkscape:connector-curvature="0"
         d="m 234.09,298.09 h -3.91 c -0.09,0 0,0.09 0,0 v -3.82 c 0,-0.09 -0.09,0 0,0 H 238 c 0.09,0 0,-0.09 0,0 v 3.82 c 0,0.09 0.09,0 0,0 z"
         id="path7923"
         style="stroke:#000000;stroke-width:0.18000001" />
      <path
         inkscape:connector-curvature="0"
         d="m 14.09,306.58 h 8 c 0.788,0 1.562,-0.207 2.245,-0.602 0.683,-0.394 1.249,-0.96 1.643,-1.643 0.379,-0.655 0.923,-1.199 1.578,-1.578 0.655,-0.378 1.398,-0.577 2.155,-0.577 h 200.758 c 0.757,0 1.5,0.199 2.155,0.577 0.655,0.379 1.199,0.923 1.578,1.578 0.394,0.683 0.96,1.249 1.643,1.643 0.683,0.395 1.457,0.602 2.245,0.602 h 8 c 0.05,0 0.09,-0.04 0.09,-0.09 v -4.963 c 0,-0.09 -0.09,0 0,0 h 3.91 c 0.05,0 0.09,-0.04 0.09,-0.09 v -8 c 0,-0.05 -0.04,-0.09 -0.09,-0.09 h -3.91 c -0.09,0 0,0.09 0,0 v -7.82 c 0,-0.09 -0.09,0 0,0 h 3.91 c 0.05,0 0.09,-0.04 0.09,-0.09 v -8 c 0,-0.05 -0.04,-0.09 -0.09,-0.09 h -3.91 c -0.09,0 0,0.09 0,0 v -7.82 c 0,-0.09 -0.09,0 0,0 h 3.91 c 0.05,0 0.09,-0.04 0.09,-0.09 v -8 c 0,-0.05 -0.04,-0.09 -0.09,-0.09 h -3.91 c -0.09,0 0,0.09 0,0 v -7.82 c 0,-0.09 -0.09,0 0,0 h 3.91 c 0.05,0 0.09,-0.04 0.09,-0.09 v -8 c 0,-0.05 -0.04,-0.09 -0.09,-0.09 h -3.91 c -0.09,0 0,0.09 0,0 v -7.82 c 0,-0.09 -0.09,0 0,0 h 3.91 c 0.05,0 0.09,-0.04 0.09,-0.09 v -8 c 0,-0.05 -0.04,-0.09 -0.09,-0.09 h -3.91 c -0.09,0 0,0.09 0,0 v -7.82 c 0,-0.09 -0.09,0 0,0 h 3.91 c 0.05,0 0.09,-0.04 0.09,-0.09 v -8 c 0,-0.05 -0.04,-0.09 -0.09,-0.09 h -3.91 c -0.09,0 0,0.09 0,0 v -7.82 c 0,-0.09 -0.09,0 0,0 h 3.91 c 0.05,0 0.09,-0.04 0.09,-0.09 v -8 c 0,-0.05 -0.04,-0.09 -0.09,-0.09 h -3.91 c -0.09,0 0,0.09 0,0 v -7.82 c 0,-0.09 -0.09,0 0,0 h 3.91 c 0.05,0 0.09,-0.04 0.09,-0.09 v -8 c 0,-0.05 -0.04,-0.09 -0.09,-0.09 h -3.91 c -0.09,0 0,0.09 0,0 v -7.82 c 0,-0.09 -0.09,0 0,0 h 3.91 c 0.05,0 0.09,-0.04 0.09,-0.09 v -8 c 0,-0.05 -0.04,-0.09 -0.09,-0.09 h -3.91 c -0.09,0 0,0.09 0,0 v -7.82 c 0,-0.09 -0.09,0 0,0 h 3.91 c 0.05,0 0.09,-0.04 0.09,-0.09 v -8 c 0,-0.05 -0.04,-0.09 -0.09,-0.09 h -3.91 c -0.09,0 0,0.09 0,0 v -7.82 c 0,-0.09 -0.09,0 0,0 h 3.91 c 0.05,0 0.09,-0.04 0.09,-0.09 v -8 c 0,-0.05 -0.04,-0.09 -0.09,-0.09 h -3.91 c -0.09,0 0,0.09 0,0 v -7.82 c 0,-0.09 -0.09,0 0,0 h 3.91 c 0.05,0 0.09,-0.04 0.09,-0.09 v -8 c 0,-0.05 -0.04,-0.09 -0.09,-0.09 h -3.91 c -0.09,0 0,0.09 0,0 v -7.82 c 0,-0.09 -0.09,0 0,0 h 3.91 c 0.05,0 0.09,-0.04 0.09,-0.09 v -8 c 0,-0.05 -0.04,-0.09 -0.09,-0.09 h -3.91 c -0.09,0 0,0.09 0,0 V 96.384 94.09 c 0,-0.018 -0.006,-0.036 -0.016,-0.052 l -2.72,-3.883 c -0.051,-0.074 -0.073,0.051 0,0 l 3.203,-2.243 c 0.041,-0.028 0.051,-0.085 0.022,-0.125 l -4.588,-6.553 c -0.029,-0.041 -0.085,-0.051 -0.126,-0.023 l -3.202,2.243 c -0.074,0.052 0.051,0.074 0,0 l -4.486,-6.406 c -0.051,-0.073 -0.074,0.052 0,0 l 3.203,-2.242 c 0.041,-0.029 0.051,-0.085 0.022,-0.126 l -4.588,-6.553 c -0.029,-0.041 -0.085,-0.05 -0.126,-0.022 l -3.203,2.243 c -0.073,0.051 0.052,0.073 0,0 l -4.485,-6.406 c -0.052,-0.074 -0.074,0.052 0,0 l 3.203,-2.243 c 0.041,-0.028 0.05,-0.084 0.022,-0.125 l -4.589,-6.553 c -0.028,-0.041 -0.084,-0.051 -0.125,-0.022 l -3.203,2.242 c -0.074,0.052 0.052,0.074 0,0 l -4.485,-6.406 c -0.052,-0.073 -0.074,0.052 0,0 l 3.203,-2.242 c 0.04,-0.029 0.05,-0.085 0.022,-0.126 l -4.589,-6.553 c -0.028,-0.04 -0.085,-0.05 -0.125,-0.022 l -3.203,2.243 c -0.074,0.051 0.052,0.074 0,0 l -4.485,-6.406 c -0.052,-0.074 -0.074,0.052 0,0 l 3.202,-2.243 c 0.041,-0.028 0.051,-0.084 0.023,-0.125 l -4.589,-6.553 c -0.029,-0.041 -0.085,-0.051 -0.125,-0.022 l -3.203,2.242 c -0.074,0.052 0.051,0.074 0,0 l -4.486,-6.405 c -0.051,-0.074 -0.073,0.051 0,0 l 3.203,-2.243 c 0.041,-0.029 0.051,-0.085 0.022,-0.125 l -4.588,-6.554 c -0.029,-0.04 -0.085,-0.05 -0.126,-0.022 l -3.203,2.243 c -0.073,0.052 0.052,0.074 0,0 l -2.719,-3.884 C 190.13,14.014 190.103,14 190.073,14 h -3.276 -2.264 c -0.09,0 0,0.09 0,0 v -3.91 c 0,-0.05 -0.04,-0.09 -0.09,-0.09 h -8 c -0.049,0 -0.09,0.04 -0.09,0.09 V 14 c 0,0.09 0.09,0 0,0 h -7.82 c -0.09,0 0,0.09 0,0 v -3.91 c 0,-0.05 -0.04,-0.09 -0.09,-0.09 h -8 c -0.049,0 -0.09,0.04 -0.09,0.09 V 14 c 0,0.09 0.09,0 0,0 h -7.82 c -0.09,0 0,0.09 0,0 v -3.91 c 0,-0.05 -0.04,-0.09 -0.09,-0.09 h -8 c -0.049,0 -0.09,0.04 -0.09,0.09 V 14 c 0,0.09 0.09,0 0,0 h -7.82 c -0.09,0 0,0.09 0,0 v -3.91 c 0,-0.05 -0.04,-0.09 -0.09,-0.09 h -8 c -0.049,0 -0.09,0.04 -0.09,0.09 V 14 c 0,0.09 0.09,0 0,0 h -7.82 c -0.09,0 0,0.09 0,0 v -3.91 c 0,-0.05 -0.04,-0.09 -0.09,-0.09 h -8 c -0.049,0 -0.09,0.04 -0.09,0.09 V 14 c 0,0.09 0.09,0 0,0 h -7.82 c -0.09,0 0,0.09 0,0 v -3.91 c 0,-0.05 -0.04,-0.09 -0.09,-0.09 h -8 c -0.049,0 -0.09,0.04 -0.09,0.09 V 14 c 0,0.09 0.09,0 0,0 h -7.82 c -0.09,0 0,0.09 0,0 v -3.91 c 0,-0.05 -0.04,-0.09 -0.09,-0.09 h -8 c -0.049,0 -0.09,0.04 -0.09,0.09 V 14 c 0,0.09 0.09,0 0,0 h -7.82 c -0.09,0 0,0.09 0,0 v -3.91 c 0,-0.05 -0.04,-0.09 -0.09,-0.09 h -8 c -0.049,0 -0.09,0.04 -0.09,0.09 V 14 c 0,0.09 0.09,0 0,0 h -7.82 c -0.09,0 0,0.09 0,0 v -3.91 c 0,-0.05 -0.04,-0.09 -0.09,-0.09 h -8 c -0.049,0 -0.09,0.04 -0.09,0.09 V 14 c 0,0.09 0.09,0 0,0 h -7.82 c -0.09,0 0,0.09 0,0 v -3.91 c 0,-0.05 -0.04,-0.09 -0.09,-0.09 h -8 c -0.049,0 -0.09,0.04 -0.09,0.09 V 14 c 0,0.09 0.09,0 0,0 h -7.82 c -0.09,0 0,0.09 0,0 v -3.91 c 0,-0.05 -0.04,-0.09 -0.09,-0.09 h -8 c -0.049,0 -0.09,0.04 -0.09,0.09 V 14 c 0,0.09 0.09,0 0,0 H 14.09 C 14.04,14 14,14.04 14,14.09 v 276 4.11 c 0,0.09 0.09,0 0,0 h -3.91 c -0.05,0 -0.09,0.04 -0.09,0.09 v 8 c 0,0.05 0.04,0.09 0.09,0.09 H 14 c 0.09,0 0,-0.09 0,0 v 4.11 c 0,0.05 0.04,0.09 0.09,0.09 z"
         id="path7925"
         style="stroke:#000000;stroke-width:0.18000001" />
      <path
         inkscape:connector-curvature="0"
         d="m 18.09,38.09 v -2.11 c 0,-0.09 -0.09,0 0,0 h 4.22 c 0.09,0 0,-0.09 0,0 v 4.22 c 0,0.09 0.09,0 0,0 h -4.22 c -0.09,0 0,0.09 0,0 z"
         id="path7927"
         style="stroke:#000000;stroke-width:0.18000001" />
    </g>
    <g
       transform="matrix(-1,0,0,1,743.97614,-16.528722)"
       id="p-2"
       style="fill:none;stroke:#000000;stroke-linecap:round;stroke-linejoin:round">
      <path
         inkscape:connector-curvature="0"
         d="m 268.27,298.09 h -3.91 c -0.09,0 0,0.09 0,0 v -3.82 c 0,-0.09 -0.09,0 0,0 h 7.82 c 0.09,0 0,-0.09 0,0 v 3.82 c 0,0.09 0.09,0 0,0 z"
         id="path7930"
         style="stroke:#000000;stroke-width:0.18000001" />
      <path
         inkscape:connector-curvature="0"
         d="m 284.27,298.09 h -3.91 c -0.09,0 0,0.09 0,0 v -3.82 c 0,-0.09 -0.09,0 0,0 h 7.82 c 0.09,0 0,-0.09 0,0 v 3.82 c 0,0.09 0.09,0 0,0 z"
         id="path7932"
         style="stroke:#000000;stroke-width:0.18000001" />
      <path
         inkscape:connector-curvature="0"
         d="m 300.27,298.09 h -3.91 c -0.09,0 0,0.09 0,0 v -3.82 c 0,-0.09 -0.09,0 0,0 h 7.82 c 0.09,0 0,-0.09 0,0 v 3.82 c 0,0.09 0.09,0 0,0 z"
         id="path7934"
         style="stroke:#000000;stroke-width:0.18000001" />
      <path
         inkscape:connector-curvature="0"
         d="m 316.27,298.09 h -3.91 c -0.09,0 0,0.09 0,0 v -3.82 c 0,-0.09 -0.09,0 0,0 h 7.82 c 0.09,0 0,-0.09 0,0 v 3.82 c 0,0.09 0.09,0 0,0 z"
         id="path7936"
         style="stroke:#000000;stroke-width:0.18000001" />
      <path
         inkscape:connector-curvature="0"
         d="m 332.27,298.09 h -3.91 c -0.09,0 0,0.09 0,0 v -3.82 c 0,-0.09 -0.09,0 0,0 h 7.82 c 0.09,0 0,-0.09 0,0 v 3.82 c 0,0.09 0.09,0 0,0 z"
         id="path7938"
         style="stroke:#000000;stroke-width:0.18000001" />
      <path
         inkscape:connector-curvature="0"
         d="m 348.27,298.09 h -3.91 c -0.09,0 0,0.09 0,0 v -3.82 c 0,-0.09 -0.09,0 0,0 h 7.82 c 0.09,0 0,-0.09 0,0 v 3.82 c 0,0.09 0.09,0 0,0 z"
         id="path7940"
         style="stroke:#000000;stroke-width:0.18000001" />
      <path
         inkscape:connector-curvature="0"
         d="m 364.27,298.09 h -3.91 c -0.09,0 0,0.09 0,0 v -3.82 c 0,-0.09 -0.09,0 0,0 h 7.82 c 0.09,0 0,-0.09 0,0 v 3.82 c 0,0.09 0.09,0 0,0 z"
         id="path7942"
         style="stroke:#000000;stroke-width:0.18000001" />
      <path
         inkscape:connector-curvature="0"
         d="m 380.27,298.09 h -3.91 c -0.09,0 0,0.09 0,0 v -3.82 c 0,-0.09 -0.09,0 0,0 h 7.82 c 0.09,0 0,-0.09 0,0 v 3.82 c 0,0.09 0.09,0 0,0 z"
         id="path7944"
         style="stroke:#000000;stroke-width:0.18000001" />
      <path
         inkscape:connector-curvature="0"
         d="m 396.27,298.09 h -3.91 c -0.09,0 0,0.09 0,0 v -3.82 c 0,-0.09 -0.09,0 0,0 h 7.82 c 0.09,0 0,-0.09 0,0 v 3.82 c 0,0.09 0.09,0 0,0 z"
         id="path7946"
         style="stroke:#000000;stroke-width:0.18000001" />
      <path
         inkscape:connector-curvature="0"
         d="m 412.27,298.09 h -3.91 c -0.09,0 0,0.09 0,0 v -3.82 c 0,-0.09 -0.09,0 0,0 h 7.82 c 0.09,0 0,-0.09 0,0 v 3.82 c 0,0.09 0.09,0 0,0 z"
         id="path7948"
         style="stroke:#000000;stroke-width:0.18000001" />
      <path
         inkscape:connector-curvature="0"
         d="m 428.27,298.09 h -3.91 c -0.09,0 0,0.09 0,0 v -3.82 c 0,-0.09 -0.09,0 0,0 h 7.82 c 0.09,0 0,-0.09 0,0 v 3.82 c 0,0.09 0.09,0 0,0 z"
         id="path7950"
         style="stroke:#000000;stroke-width:0.18000001" />
      <path
         inkscape:connector-curvature="0"
         d="m 444.27,298.09 h -3.91 c -0.09,0 0,0.09 0,0 v -3.82 c 0,-0.09 -0.09,0 0,0 h 7.82 c 0.09,0 0,-0.09 0,0 v 3.82 c 0,0.09 0.09,0 0,0 z"
         id="path7952"
         style="stroke:#000000;stroke-width:0.18000001" />
      <path
         inkscape:connector-curvature="0"
         d="m 460.27,298.09 h -3.91 c -0.09,0 0,0.09 0,0 v -3.82 c 0,-0.09 -0.09,0 0,0 h 7.82 c 0.09,0 0,-0.09 0,0 v 3.82 c 0,0.09 0.09,0 0,0 z"
         id="path7954"
         style="stroke:#000000;stroke-width:0.18000001" />
      <path
         inkscape:connector-curvature="0"
         d="m 476.27,298.09 h -3.91 c -0.09,0 0,0.09 0,0 v -3.82 c 0,-0.09 -0.09,0 0,0 h 7.82 c 0.09,0 0,-0.09 0,0 v 3.82 c 0,0.09 0.09,0 0,0 z"
         id="path7956"
         style="stroke:#000000;stroke-width:0.18000001" />
      <path
         inkscape:connector-curvature="0"
         d="m 256.27,306.58 h 8 c 0.788,0 1.562,-0.207 2.245,-0.602 0.683,-0.394 1.249,-0.96 1.643,-1.643 0.379,-0.655 0.923,-1.199 1.578,-1.578 0.655,-0.378 1.398,-0.577 2.155,-0.577 h 200.758 c 0.757,0 1.5,0.199 2.155,0.577 0.655,0.379 1.199,0.923 1.578,1.578 0.394,0.683 0.96,1.249 1.643,1.643 0.683,0.395 1.457,0.602 2.245,0.602 h 8 c 0.05,0 0.09,-0.04 0.09,-0.09 v -4.963 c 0,-0.09 -0.09,0 0,0 h 3.91 c 0.05,0 0.09,-0.04 0.09,-0.09 v -8 c 0,-0.05 -0.04,-0.09 -0.09,-0.09 h -3.91 c -0.09,0 0,0.09 0,0 v -7.82 c 0,-0.09 -0.09,0 0,0 h 3.91 c 0.05,0 0.09,-0.04 0.09,-0.09 v -8 c 0,-0.05 -0.04,-0.09 -0.09,-0.09 h -3.91 c -0.09,0 0,0.09 0,0 v -7.82 c 0,-0.09 -0.09,0 0,0 h 3.91 c 0.05,0 0.09,-0.04 0.09,-0.09 v -8 c 0,-0.05 -0.04,-0.09 -0.09,-0.09 h -3.91 c -0.09,0 0,0.09 0,0 v -7.82 c 0,-0.09 -0.09,0 0,0 h 3.91 c 0.05,0 0.09,-0.04 0.09,-0.09 v -8 c 0,-0.05 -0.04,-0.09 -0.09,-0.09 h -3.91 c -0.09,0 0,0.09 0,0 v -7.82 c 0,-0.09 -0.09,0 0,0 h 3.91 c 0.05,0 0.09,-0.04 0.09,-0.09 v -8 c 0,-0.05 -0.04,-0.09 -0.09,-0.09 h -3.91 c -0.09,0 0,0.09 0,0 v -7.82 c 0,-0.09 -0.09,0 0,0 h 3.91 c 0.05,0 0.09,-0.04 0.09,-0.09 v -8 c 0,-0.05 -0.04,-0.09 -0.09,-0.09 h -3.91 c -0.09,0 0,0.09 0,0 v -7.82 c 0,-0.09 -0.09,0 0,0 h 3.91 c 0.05,0 0.09,-0.04 0.09,-0.09 v -8 c 0,-0.05 -0.04,-0.09 -0.09,-0.09 h -3.91 c -0.09,0 0,0.09 0,0 v -7.82 c 0,-0.09 -0.09,0 0,0 h 3.91 c 0.05,0 0.09,-0.04 0.09,-0.09 v -8 c 0,-0.05 -0.04,-0.09 -0.09,-0.09 h -3.91 c -0.09,0 0,0.09 0,0 v -7.82 c 0,-0.09 -0.09,0 0,0 h 3.91 c 0.05,0 0.09,-0.04 0.09,-0.09 v -8 c 0,-0.05 -0.04,-0.09 -0.09,-0.09 h -3.91 c -0.09,0 0,0.09 0,0 v -7.82 c 0,-0.09 -0.09,0 0,0 h 3.91 c 0.05,0 0.09,-0.04 0.09,-0.09 v -8 c 0,-0.05 -0.04,-0.09 -0.09,-0.09 h -3.91 c -0.09,0 0,0.09 0,0 v -7.82 c 0,-0.09 -0.09,0 0,0 h 3.91 c 0.05,0 0.09,-0.04 0.09,-0.09 v -8 c 0,-0.05 -0.04,-0.09 -0.09,-0.09 h -3.91 c -0.09,0 0,0.09 0,0 v -7.82 c 0,-0.09 -0.09,0 0,0 h 3.91 c 0.05,0 0.09,-0.04 0.09,-0.09 v -8 c 0,-0.05 -0.04,-0.09 -0.09,-0.09 h -3.91 c -0.09,0 0,0.09 0,0 v -7.82 c 0,-0.09 -0.09,0 0,0 h 3.91 c 0.05,0 0.09,-0.04 0.09,-0.09 v -8 c 0,-0.05 -0.04,-0.09 -0.09,-0.09 h -3.91 c -0.09,0 0,0.09 0,0 V 96.384 94.09 c 0,-0.018 -0.006,-0.036 -0.016,-0.052 l -2.72,-3.883 c -0.051,-0.074 -0.073,0.051 0,0 l 3.203,-2.243 c 0.041,-0.028 0.051,-0.085 0.022,-0.125 l -4.588,-6.553 c -0.029,-0.041 -0.085,-0.051 -0.126,-0.023 l -3.202,2.243 c -0.074,0.052 0.051,0.074 0,0 l -4.486,-6.406 c -0.051,-0.073 -0.074,0.052 0,0 l 3.203,-2.242 c 0.041,-0.029 0.051,-0.085 0.022,-0.126 l -4.588,-6.553 c -0.029,-0.041 -0.085,-0.05 -0.126,-0.022 l -3.203,2.243 c -0.073,0.051 0.052,0.073 0,0 l -4.485,-6.406 c -0.052,-0.074 -0.074,0.052 0,0 l 3.203,-2.243 c 0.041,-0.028 0.05,-0.084 0.022,-0.125 l -4.589,-6.553 c -0.028,-0.041 -0.084,-0.051 -0.125,-0.022 l -3.203,2.242 c -0.074,0.052 0.052,0.074 0,0 l -4.485,-6.406 c -0.052,-0.073 -0.074,0.052 0,0 l 3.203,-2.242 c 0.04,-0.029 0.05,-0.085 0.022,-0.126 l -4.589,-6.553 c -0.028,-0.04 -0.085,-0.05 -0.125,-0.022 l -3.203,2.243 c -0.074,0.051 0.052,0.074 0,0 l -4.485,-6.406 c -0.052,-0.074 -0.074,0.052 0,0 l 3.202,-2.243 c 0.041,-0.028 0.051,-0.084 0.023,-0.125 l -4.589,-6.553 c -0.029,-0.041 -0.085,-0.051 -0.125,-0.022 l -3.203,2.242 c -0.074,0.052 0.051,0.074 0,0 l -4.486,-6.405 c -0.051,-0.074 -0.073,0.051 0,0 l 3.203,-2.243 c 0.041,-0.029 0.051,-0.085 0.022,-0.125 l -4.588,-6.554 c -0.029,-0.04 -0.085,-0.05 -0.126,-0.022 l -3.203,2.243 c -0.073,0.052 0.052,0.074 0,0 l -2.719,-3.884 C 432.31,14.014 432.283,14 432.253,14 h -3.276 -2.264 c -0.09,0 0,0.09 0,0 v -3.91 c 0,-0.05 -0.04,-0.09 -0.09,-0.09 h -8 c -0.049,0 -0.09,0.04 -0.09,0.09 V 14 c 0,0.09 0.09,0 0,0 h -7.82 c -0.09,0 0,0.09 0,0 v -3.91 c 0,-0.05 -0.04,-0.09 -0.09,-0.09 h -8 c -0.049,0 -0.09,0.04 -0.09,0.09 V 14 c 0,0.09 0.09,0 0,0 h -7.82 c -0.09,0 0,0.09 0,0 v -3.91 c 0,-0.05 -0.04,-0.09 -0.09,-0.09 h -8 c -0.049,0 -0.09,0.04 -0.09,0.09 V 14 c 0,0.09 0.09,0 0,0 h -7.82 c -0.09,0 0,0.09 0,0 v -3.91 c 0,-0.05 -0.04,-0.09 -0.09,-0.09 h -8 c -0.049,0 -0.09,0.04 -0.09,0.09 V 14 c 0,0.09 0.09,0 0,0 h -7.82 c -0.09,0 0,0.09 0,0 v -3.91 c 0,-0.05 -0.04,-0.09 -0.09,-0.09 h -8 c -0.049,0 -0.09,0.04 -0.09,0.09 V 14 c 0,0.09 0.09,0 0,0 h -7.82 c -0.09,0 0,0.09 0,0 v -3.91 c 0,-0.05 -0.04,-0.09 -0.09,-0.09 h -8 c -0.049,0 -0.09,0.04 -0.09,0.09 V 14 c 0,0.09 0.09,0 0,0 h -7.82 c -0.09,0 0,0.09 0,0 v -3.91 c 0,-0.05 -0.04,-0.09 -0.09,-0.09 h -8 c -0.049,0 -0.09,0.04 -0.09,0.09 V 14 c 0,0.09 0.09,0 0,0 h -7.82 c -0.09,0 0,0.09 0,0 v -3.91 c 0,-0.05 -0.04,-0.09 -0.09,-0.09 h -8 c -0.049,0 -0.09,0.04 -0.09,0.09 V 14 c 0,0.09 0.09,0 0,0 h -7.82 c -0.09,0 0,0.09 0,0 v -3.91 c 0,-0.05 -0.04,-0.09 -0.09,-0.09 h -8 c -0.049,0 -0.09,0.04 -0.09,0.09 V 14 c 0,0.09 0.09,0 0,0 h -7.82 c -0.09,0 0,0.09 0,0 v -3.91 c 0,-0.05 -0.04,-0.09 -0.09,-0.09 h -8 c -0.049,0 -0.09,0.04 -0.09,0.09 V 14 c 0,0.09 0.09,0 0,0 h -7.82 c -0.09,0 0,0.09 0,0 v -3.91 c 0,-0.05 -0.04,-0.09 -0.09,-0.09 h -8 c -0.049,0 -0.09,0.04 -0.09,0.09 V 14 c 0,0.09 0.09,0 0,0 h -2.263 c -0.05,0 -0.09,0.04 -0.09,0.09 v 276 4.11 c 0,0.09 0.09,0 0,0 h -3.91 c -0.05,0 -0.09,0.04 -0.09,0.09 v 8 c 0,0.05 0.04,0.09 0.09,0.09 h 3.91 c 0.09,0 0,-0.09 0,0 v 4.11 c 0,0.05 0.04,0.09 0.09,0.09 z"
         id="path7958"
         style="stroke:#000000;stroke-width:0.18000001" />
      <path
         inkscape:connector-curvature="0"
         d="m 260.27,38.09 v -2.11 c 0,-0.09 -0.09,0 0,0 h 4.22 c 0.09,0 0,-0.09 0,0 v 4.22 c 0,0.09 0.09,0 0,0 h -4.22 c -0.09,0 0,0.09 0,0 z"
         id="path7960"
         style="stroke:#000000;stroke-width:0.18000001" />
    </g>
    <g
       transform="translate(-1022.7044,-27.326257)"
       id="p-8"
       style="fill:none;stroke:#000000;stroke-linecap:round;stroke-linejoin:round">
      <path
         inkscape:connector-curvature="0"
         d="m 1517.624,306.58 h 8 c 0.05,0 0.09,-0.04 0.09,-0.09 v -4 -239.8 -4 c 0,-0.05 -0.04,-0.09 -0.09,-0.09 h -8 c -0.049,0 -0.09,0.04 -0.09,0.09 v 4 3.81 c 0,0.09 0.09,0 0,0 h -3.91 c -0.049,0 -0.09,0.04 -0.09,0.09 v 8 c 0,0.05 0.041,0.09 0.09,0.09 h 3.91 c 0.09,0 0,-0.09 0,0 v 7.82 c 0,0.09 0.09,0 0,0 h -3.91 c -0.049,0 -0.09,0.04 -0.09,0.09 v 8 c 0,0.05 0.041,0.09 0.09,0.09 h 3.91 c 0.09,0 0,-0.09 0,0 v 7.82 c 0,0.09 0.09,0 0,0 h -3.91 c -0.049,0 -0.09,0.04 -0.09,0.09 v 8 c 0,0.05 0.041,0.09 0.09,0.09 h 3.91 c 0.09,0 0,-0.09 0,0 v 7.82 c 0,0.09 0.09,0 0,0 h -3.91 c -0.049,0 -0.09,0.04 -0.09,0.09 v 8 c 0,0.05 0.041,0.09 0.09,0.09 h 3.91 c 0.09,0 0,-0.09 0,0 v 7.82 c 0,0.09 0.09,0 0,0 h -3.91 c -0.049,0 -0.09,0.04 -0.09,0.09 v 8 c 0,0.05 0.041,0.09 0.09,0.09 h 3.91 c 0.09,0 0,-0.09 0,0 v 7.82 c 0,0.09 0.09,0 0,0 h -3.91 c -0.049,0 -0.09,0.04 -0.09,0.09 v 8 c 0,0.05 0.041,0.09 0.09,0.09 h 3.91 c 0.09,0 0,-0.09 0,0 v 7.82 c 0,0.09 0.09,0 0,0 h -3.91 c -0.049,0 -0.09,0.04 -0.09,0.09 v 8 c 0,0.05 0.041,0.09 0.09,0.09 h 3.91 c 0.09,0 0,-0.09 0,0 v 7.82 c 0,0.09 0.09,0 0,0 h -3.91 c -0.049,0 -0.09,0.04 -0.09,0.09 v 8 c 0,0.05 0.041,0.09 0.09,0.09 h 3.91 c 0.09,0 0,-0.09 0,0 v 7.82 c 0,0.09 0.09,0 0,0 h -3.91 c -0.049,0 -0.09,0.04 -0.09,0.09 v 8 c 0,0.05 0.041,0.09 0.09,0.09 h 3.91 c 0.09,0 0,-0.09 0,0 v 7.82 c 0,0.09 0.09,0 0,0 h -3.91 c -0.049,0 -0.09,0.04 -0.09,0.09 v 8 c 0,0.05 0.041,0.09 0.09,0.09 h 3.91 c 0.09,0 0,-0.09 0,0 v 7.82 c 0,0.09 0.09,0 0,0 h -3.91 c -0.049,0 -0.09,0.04 -0.09,0.09 v 8 c 0,0.05 0.041,0.09 0.09,0.09 h 3.91 c 0.09,0 0,-0.09 0,0 v 7.82 c 0,0.09 0.09,0 0,0 h -3.91 c -0.049,0 -0.09,0.04 -0.09,0.09 v 8 c 0,0.05 0.041,0.09 0.09,0.09 h 3.91 c 0.09,0 0,-0.09 0,0 v 7.82 c 0,0.09 0.09,0 0,0 h -3.91 c -0.049,0 -0.09,0.04 -0.09,0.09 v 8 c 0,0.05 0.041,0.09 0.09,0.09 h 3.91 c 0.09,0 0,-0.09 0,0 v 7.82 c 0,0.09 0.09,0 0,0 h -3.91 c -0.049,0 -0.09,0.04 -0.09,0.09 v 8 c 0,0.05 0.041,0.09 0.09,0.09 h 3.91 c 0.09,0 0,-0.09 0,0 v 7.82 c 0,0.09 0.09,0 0,0 h -3.91 c -0.049,0 -0.09,0.04 -0.09,0.09 v 8 c 0,0.05 0.041,0.09 0.09,0.09 h 3.91 c 0.09,0 0,-0.09 0,0 v 3.81 4 c 0,0.05 0.041,0.09 0.09,0.09 z"
         id="path8066"
         style="stroke:#000000;stroke-width:0.18000001" />
    </g>
    <g
       transform="translate(-1022.7044,-27.326257)"
       id="p-9"
       style="fill:none;stroke:#000000;stroke-linecap:round;stroke-linejoin:round">
      <path
         inkscape:connector-curvature="0"
         d="m 1531.804,306.58 h 8 c 0.05,0 0.09,-0.04 0.09,-0.09 v -4 -239.8 -4 c 0,-0.05 -0.04,-0.09 -0.09,-0.09 h -8 c -0.049,0 -0.09,0.04 -0.09,0.09 v 4 3.81 c 0,0.09 0.09,0 0,0 h -3.91 c -0.049,0 -0.09,0.04 -0.09,0.09 v 8 c 0,0.05 0.041,0.09 0.09,0.09 h 3.91 c 0.09,0 0,-0.09 0,0 v 7.82 c 0,0.09 0.09,0 0,0 h -3.91 c -0.049,0 -0.09,0.04 -0.09,0.09 v 8 c 0,0.05 0.041,0.09 0.09,0.09 h 3.91 c 0.09,0 0,-0.09 0,0 v 7.82 c 0,0.09 0.09,0 0,0 h -3.91 c -0.049,0 -0.09,0.04 -0.09,0.09 v 8 c 0,0.05 0.041,0.09 0.09,0.09 h 3.91 c 0.09,0 0,-0.09 0,0 v 7.82 c 0,0.09 0.09,0 0,0 h -3.91 c -0.049,0 -0.09,0.04 -0.09,0.09 v 8 c 0,0.05 0.041,0.09 0.09,0.09 h 3.91 c 0.09,0 0,-0.09 0,0 v 7.82 c 0,0.09 0.09,0 0,0 h -3.91 c -0.049,0 -0.09,0.04 -0.09,0.09 v 8 c 0,0.05 0.041,0.09 0.09,0.09 h 3.91 c 0.09,0 0,-0.09 0,0 v 7.82 c 0,0.09 0.09,0 0,0 h -3.91 c -0.049,0 -0.09,0.04 -0.09,0.09 v 8 c 0,0.05 0.041,0.09 0.09,0.09 h 3.91 c 0.09,0 0,-0.09 0,0 v 7.82 c 0,0.09 0.09,0 0,0 h -3.91 c -0.049,0 -0.09,0.04 -0.09,0.09 v 8 c 0,0.05 0.041,0.09 0.09,0.09 h 3.91 c 0.09,0 0,-0.09 0,0 v 7.82 c 0,0.09 0.09,0 0,0 h -3.91 c -0.049,0 -0.09,0.04 -0.09,0.09 v 8 c 0,0.05 0.041,0.09 0.09,0.09 h 3.91 c 0.09,0 0,-0.09 0,0 v 7.82 c 0,0.09 0.09,0 0,0 h -3.91 c -0.049,0 -0.09,0.04 -0.09,0.09 v 8 c 0,0.05 0.041,0.09 0.09,0.09 h 3.91 c 0.09,0 0,-0.09 0,0 v 7.82 c 0,0.09 0.09,0 0,0 h -3.91 c -0.049,0 -0.09,0.04 -0.09,0.09 v 8 c 0,0.05 0.041,0.09 0.09,0.09 h 3.91 c 0.09,0 0,-0.09 0,0 v 7.82 c 0,0.09 0.09,0 0,0 h -3.91 c -0.049,0 -0.09,0.04 -0.09,0.09 v 8 c 0,0.05 0.041,0.09 0.09,0.09 h 3.91 c 0.09,0 0,-0.09 0,0 v 7.82 c 0,0.09 0.09,0 0,0 h -3.91 c -0.049,0 -0.09,0.04 -0.09,0.09 v 8 c 0,0.05 0.041,0.09 0.09,0.09 h 3.91 c 0.09,0 0,-0.09 0,0 v 7.82 c 0,0.09 0.09,0 0,0 h -3.91 c -0.049,0 -0.09,0.04 -0.09,0.09 v 8 c 0,0.05 0.041,0.09 0.09,0.09 h 3.91 c 0.09,0 0,-0.09 0,0 v 7.82 c 0,0.09 0.09,0 0,0 h -3.91 c -0.049,0 -0.09,0.04 -0.09,0.09 v 8 c 0,0.05 0.041,0.09 0.09,0.09 h 3.91 c 0.09,0 0,-0.09 0,0 v 7.82 c 0,0.09 0.09,0 0,0 h -3.91 c -0.049,0 -0.09,0.04 -0.09,0.09 v 8 c 0,0.05 0.041,0.09 0.09,0.09 h 3.91 c 0.09,0 0,-0.09 0,0 v 3.81 4 c 0,0.05 0.041,0.09 0.09,0.09 z"
         id="path8069"
         style="stroke:#000000;stroke-width:0.18000001" />
    </g>
    <g
       transform="translate(-1022.7044,-27.326257)"
       id="p-10"
       style="fill:none;stroke:#000000;stroke-linecap:round;stroke-linejoin:round">
      <path
         inkscape:connector-curvature="0"
         d="m 1541.984,306.58 h 4.2 c 0.05,0 0.09,-0.04 0.09,-0.09 v -3.91 c 0,-0.09 -0.09,0 0,0 h 7.82 c 0.09,0 0,-0.09 0,0 v 3.91 c 0,0.05 0.041,0.09 0.09,0.09 h 4.2 c 0.05,0 0.09,-0.04 0.09,-0.09 v -4 -8 c 0,-0.788 -0.207,-1.562 -0.601,-2.245 -0.394,-0.683 -0.961,-1.249 -1.644,-1.643 -0.655,-0.379 -1.199,-0.923 -1.577,-1.578 -0.378,-0.655 -0.578,-1.398 -0.578,-2.155 V 118.111 c 0,-0.757 0.2,-1.5 0.578,-2.155 0.378,-0.655 0.922,-1.199 1.577,-1.578 0.683,-0.394 1.25,-0.96 1.644,-1.643 0.394,-0.683 0.601,-1.457 0.601,-2.245 v -8 -4 c 0,-0.05 -0.04,-0.09 -0.09,-0.09 h -4.2 c -0.049,0 -0.09,0.04 -0.09,0.09 v 3.91 c 0,0.09 0.09,0 0,0 h -7.82 c -0.09,0 0,0.09 0,0 v -3.91 c 0,-0.05 -0.04,-0.09 -0.09,-0.09 h -4.2 c -0.049,0 -0.09,0.04 -0.09,0.09 v 4 200 4 c 0,0.05 0.041,0.09 0.09,0.09 z"
         id="path8072"
         style="stroke:#000000;stroke-width:0.18000001" />
      <path
         inkscape:connector-curvature="0"
         d="m 1549.984,290.49 v 3.91 c 0,0.09 0.09,0 0,0 h -3.82 c -0.09,0 0,0.09 0,0 v -7.82 c 0,-0.09 -0.09,0 0,0 h 3.82 c 0.09,0 0,-0.09 0,0 z"
         id="path8074"
         style="stroke:#000000;stroke-width:0.18000001" />
      <path
         inkscape:connector-curvature="0"
         d="m 1549.984,274.49 v 3.91 c 0,0.09 0.09,0 0,0 h -3.82 c -0.09,0 0,0.09 0,0 v -7.82 c 0,-0.09 -0.09,0 0,0 h 3.82 c 0.09,0 0,-0.09 0,0 z"
         id="path8076"
         style="stroke:#000000;stroke-width:0.18000001" />
      <path
         inkscape:connector-curvature="0"
         d="m 1549.984,258.49 v 3.91 c 0,0.09 0.09,0 0,0 h -3.82 c -0.09,0 0,0.09 0,0 v -7.82 c 0,-0.09 -0.09,0 0,0 h 3.82 c 0.09,0 0,-0.09 0,0 z"
         id="path8078"
         style="stroke:#000000;stroke-width:0.18000001" />
      <path
         inkscape:connector-curvature="0"
         d="m 1549.984,242.49 v 3.91 c 0,0.09 0.09,0 0,0 h -3.82 c -0.09,0 0,0.09 0,0 v -7.82 c 0,-0.09 -0.09,0 0,0 h 3.82 c 0.09,0 0,-0.09 0,0 z"
         id="path8080"
         style="stroke:#000000;stroke-width:0.18000001" />
      <path
         inkscape:connector-curvature="0"
         d="m 1549.984,226.49 v 3.91 c 0,0.09 0.09,0 0,0 h -3.82 c -0.09,0 0,0.09 0,0 v -7.82 c 0,-0.09 -0.09,0 0,0 h 3.82 c 0.09,0 0,-0.09 0,0 z"
         id="path8082"
         style="stroke:#000000;stroke-width:0.18000001" />
      <path
         inkscape:connector-curvature="0"
         d="m 1549.984,210.49 v 3.91 c 0,0.09 0.09,0 0,0 h -3.82 c -0.09,0 0,0.09 0,0 v -7.82 c 0,-0.09 -0.09,0 0,0 h 3.82 c 0.09,0 0,-0.09 0,0 z"
         id="path8084"
         style="stroke:#000000;stroke-width:0.18000001" />
      <path
         inkscape:connector-curvature="0"
         d="m 1549.984,194.49 v 3.91 c 0,0.09 0.09,0 0,0 h -3.82 c -0.09,0 0,0.09 0,0 v -7.82 c 0,-0.09 -0.09,0 0,0 h 3.82 c 0.09,0 0,-0.09 0,0 z"
         id="path8086"
         style="stroke:#000000;stroke-width:0.18000001" />
      <path
         inkscape:connector-curvature="0"
         d="m 1549.984,178.49 v 3.91 c 0,0.09 0.09,0 0,0 h -3.82 c -0.09,0 0,0.09 0,0 v -7.82 c 0,-0.09 -0.09,0 0,0 h 3.82 c 0.09,0 0,-0.09 0,0 z"
         id="path8088"
         style="stroke:#000000;stroke-width:0.18000001" />
      <path
         inkscape:connector-curvature="0"
         d="m 1549.984,162.49 v 3.91 c 0,0.09 0.09,0 0,0 h -3.82 c -0.09,0 0,0.09 0,0 v -7.82 c 0,-0.09 -0.09,0 0,0 h 3.82 c 0.09,0 0,-0.09 0,0 z"
         id="path8090"
         style="stroke:#000000;stroke-width:0.18000001" />
      <path
         inkscape:connector-curvature="0"
         d="m 1549.984,146.49 v 3.91 c 0,0.09 0.09,0 0,0 h -3.82 c -0.09,0 0,0.09 0,0 v -7.82 c 0,-0.09 -0.09,0 0,0 h 3.82 c 0.09,0 0,-0.09 0,0 z"
         id="path8092"
         style="stroke:#000000;stroke-width:0.18000001" />
      <path
         inkscape:connector-curvature="0"
         d="m 1549.984,130.49 v 3.91 c 0,0.09 0.09,0 0,0 h -3.82 c -0.09,0 0,0.09 0,0 v -7.82 c 0,-0.09 -0.09,0 0,0 h 3.82 c 0.09,0 0,-0.09 0,0 z"
         id="path8094"
         style="stroke:#000000;stroke-width:0.18000001" />
      <path
         inkscape:connector-curvature="0"
         d="m 1549.984,114.49 v 3.91 c 0,0.09 0.09,0 0,0 h -3.82 c -0.09,0 0,0.09 0,0 v -7.82 c 0,-0.09 -0.09,0 0,0 h 3.82 c 0.09,0 0,-0.09 0,0 z"
         id="path8096"
         style="stroke:#000000;stroke-width:0.18000001" />
    </g>
    <g
       transform="translate(-1022.7044,-27.326257)"
       id="p-11"
       style="fill:none;stroke:#000000;stroke-linecap:round;stroke-linejoin:round">
      <path
         inkscape:connector-curvature="0"
         d="m 1560.564,301.78 h 3.91 c 0.09,0 0,-0.09 0,0 v 0.71 c 0,0.05 0.041,0.09 0.09,0.09 h 7.91 c 0.09,0 0,-0.09 0,0 v 3.91 c 0,0.05 0.041,0.09 0.09,0.09 h 4 c 0.05,0 0.09,-0.04 0.09,-0.09 v -3.91 c 0,-0.09 -0.09,0 0,0 h 11.91 c 0.05,0 0.09,-0.04 0.09,-0.09 v -3.91 c 0,-0.09 -0.09,0 0,0 h 3.91 c 0.05,0 0.09,-0.04 0.09,-0.09 v -4 c 0,-0.05 -0.04,-0.09 -0.09,-0.09 h -8 c -0.049,0 -0.09,0.04 -0.09,0.09 v 1.903 c 0,0.097 0.097,0.007 0,0 l -19.456,-1.36 c -0.052,-0.004 -0.096,0.038 -0.096,0.09 v 2 c 0,0.047 0.037,0.086 0.084,0.09 l 19.552,1.367 c -0.018,-0.002 -0.036,-0.009 -0.05,-0.02 -0.015,-0.012 -0.025,-0.028 -0.03,-0.046 -0.01,-0.018 -0.01,-0.037 0,-0.054 0.01,-0.018 0.017,-0.033 0.033,-0.044 0.015,-0.01 0.033,-0.016 0.051,-0.016 h -19.91 c -0.09,0 0,0.09 0,0 v -3.91 c 0,-0.05 -0.04,-0.09 -0.09,-0.09 h -4 c -0.049,0 -0.09,0.04 -0.09,0.09 v 7.2 c 0,0.05 0.041,0.09 0.09,0.09 z"
         id="path8099"
         style="stroke:#000000;stroke-width:0.18000001" />
    </g>
    <g
       transform="translate(-1022.7044,-27.326257)"
       id="p-12"
       style="fill:none;stroke:#000000;stroke-linecap:round;stroke-linejoin:round">
      <path
         inkscape:connector-curvature="0"
         d="m 1560.564,287.6 h 3.91 c 0.09,0 0,-0.09 0,0 v 0.71 c 0,0.05 0.041,0.09 0.09,0.09 h 7.91 c 0.09,0 0,-0.09 0,0 v 3.91 c 0,0.05 0.041,0.09 0.09,0.09 h 4 c 0.05,0 0.09,-0.04 0.09,-0.09 v -3.91 c 0,-0.09 -0.09,0 0,0 h 11.91 c 0.05,0 0.09,-0.04 0.09,-0.09 v -3.91 c 0,-0.09 -0.09,0 0,0 h 3.91 c 0.05,0 0.09,-0.04 0.09,-0.09 v -4 c 0,-0.05 -0.04,-0.09 -0.09,-0.09 h -8 c -0.049,0 -0.09,0.04 -0.09,0.09 v 1.903 c 0,0.097 0.097,0.007 0,0 l -19.456,-1.36 c -0.052,-0.004 -0.096,0.038 -0.096,0.09 v 2 c 0,0.047 0.037,0.086 0.084,0.09 l 19.552,1.367 c -0.018,-0.002 -0.036,-0.009 -0.05,-0.02 -0.015,-0.012 -0.025,-0.028 -0.03,-0.046 -0.01,-0.018 -0.01,-0.037 0,-0.054 0.01,-0.018 0.017,-0.033 0.033,-0.044 0.015,-0.01 0.033,-0.016 0.051,-0.016 h -19.91 c -0.09,0 0,0.09 0,0 v -3.91 c 0,-0.05 -0.04,-0.09 -0.09,-0.09 h -4 c -0.049,0 -0.09,0.04 -0.09,0.09 v 7.2 c 0,0.05 0.041,0.09 0.09,0.09 z"
         id="path8102"
         style="stroke:#000000;stroke-width:0.18000001" />
    </g>
    <g
       transform="translate(-1022.7044,-27.326257)"
       id="p-13"
       style="fill:none;stroke:#000000;stroke-linecap:round;stroke-linejoin:round">
      <path
         inkscape:connector-curvature="0"
         d="m 1562.564,278.22 h 3.8 c 0.05,0 0.09,-0.04 0.09,-0.09 v -10.11 c 0,-0.09 -0.09,0 0,0 h 4.22 c 0.09,0 0,-0.09 0,0 v 10.11 c 0,0.05 0.041,0.09 0.09,0.09 h 3.8 c 0.05,0 0.09,-0.04 0.09,-0.09 v -3.91 c 0,-0.09 -0.09,0 0,0 h 1.91 c 0.05,0 0.09,-0.04 0.09,-0.09 v -8 c 0,-0.024 -0.01,-0.047 -0.026,-0.064 l -4,-4 c -0.017,-0.017 -0.04,-0.026 -0.064,-0.026 h -8 c -0.023,0 -0.046,0.009 -0.063,0.026 l -4,4 c -0.017,0.017 -0.027,0.04 -0.027,0.064 v 8 c 0,0.05 0.041,0.09 0.09,0.09 h 1.91 c 0.09,0 0,-0.09 0,0 v 3.91 c 0,0.05 0.041,0.09 0.09,0.09 z"
         id="path8105"
         style="stroke:#000000;stroke-width:0.18000001" />
    </g>
    <g
       transform="translate(-1022.7044,-27.326257)"
       id="p-14"
       style="fill:none;stroke:#000000;stroke-linecap:round;stroke-linejoin:round">
      <path
         inkscape:connector-curvature="0"
         d="m 1580.744,278.22 h 3.8 c 0.05,0 0.09,-0.04 0.09,-0.09 v -10.11 c 0,-0.09 -0.09,0 0,0 h 4.22 c 0.09,0 0,-0.09 0,0 v 10.11 c 0,0.05 0.041,0.09 0.09,0.09 h 3.8 c 0.05,0 0.09,-0.04 0.09,-0.09 v -3.91 c 0,-0.09 -0.09,0 0,0 h 1.91 c 0.05,0 0.09,-0.04 0.09,-0.09 v -8 c 0,-0.024 -0.01,-0.047 -0.026,-0.064 l -4,-4 c -0.017,-0.017 -0.04,-0.026 -0.064,-0.026 h -8 c -0.023,0 -0.046,0.009 -0.063,0.026 l -4,4 c -0.017,0.017 -0.027,0.04 -0.027,0.064 v 8 c 0,0.05 0.041,0.09 0.09,0.09 h 1.91 c 0.09,0 0,-0.09 0,0 v 3.91 c 0,0.05 0.041,0.09 0.09,0.09 z"
         id="path8108"
         style="stroke:#000000;stroke-width:0.18000001" />
    </g>
    <g
       transform="translate(-1022.7044,-27.326257)"
       id="p-15"
       style="fill:none;stroke:#000000;stroke-linecap:round;stroke-linejoin:round">
      <path
         inkscape:connector-curvature="0"
         d="m 1562.564,260.04 h 3.8 c 0.05,0 0.09,-0.04 0.09,-0.09 v -10.11 c 0,-0.09 -0.09,0 0,0 h 4.22 c 0.09,0 0,-0.09 0,0 v 10.11 c 0,0.05 0.041,0.09 0.09,0.09 h 3.8 c 0.05,0 0.09,-0.04 0.09,-0.09 v -3.91 c 0,-0.09 -0.09,0 0,0 h 1.91 c 0.05,0 0.09,-0.04 0.09,-0.09 v -8 c 0,-0.024 -0.01,-0.047 -0.026,-0.064 l -4,-4 c -0.017,-0.017 -0.04,-0.026 -0.064,-0.026 h -8 c -0.023,0 -0.046,0.009 -0.063,0.026 l -4,4 c -0.017,0.017 -0.027,0.04 -0.027,0.064 v 8 c 0,0.05 0.041,0.09 0.09,0.09 h 1.91 c 0.09,0 0,-0.09 0,0 v 3.91 c 0,0.05 0.041,0.09 0.09,0.09 z"
         id="path8111"
         style="stroke:#000000;stroke-width:0.18000001" />
    </g>
    <g
       transform="translate(-1022.7044,-27.326257)"
       id="p-16"
       style="fill:none;stroke:#000000;stroke-linecap:round;stroke-linejoin:round">
      <path
         inkscape:connector-curvature="0"
         d="m 1580.744,260.04 h 3.8 c 0.05,0 0.09,-0.04 0.09,-0.09 v -10.11 c 0,-0.09 -0.09,0 0,0 h 4.22 c 0.09,0 0,-0.09 0,0 v 10.11 c 0,0.05 0.041,0.09 0.09,0.09 h 3.8 c 0.05,0 0.09,-0.04 0.09,-0.09 v -3.91 c 0,-0.09 -0.09,0 0,0 h 1.91 c 0.05,0 0.09,-0.04 0.09,-0.09 v -8 c 0,-0.024 -0.01,-0.047 -0.026,-0.064 l -4,-4 c -0.017,-0.017 -0.04,-0.026 -0.064,-0.026 h -8 c -0.023,0 -0.046,0.009 -0.063,0.026 l -4,4 c -0.017,0.017 -0.027,0.04 -0.027,0.064 v 8 c 0,0.05 0.041,0.09 0.09,0.09 h 1.91 c 0.09,0 0,-0.09 0,0 v 3.91 c 0,0.05 0.041,0.09 0.09,0.09 z"
         id="path8114"
         style="stroke:#000000;stroke-width:0.18000001" />
    </g>
    <g
       transform="translate(-1022.59,-77.489515)"
       id="p-12-7"
       style="fill:none;stroke:#000000;stroke-linecap:round;stroke-linejoin:round">
      <path
         inkscape:connector-curvature="0"
         d="m 1560.564,287.6 h 3.91 c 0.09,0 0,-0.09 0,0 v 0.71 c 0,0.05 0.041,0.09 0.09,0.09 h 7.91 c 0.09,0 0,-0.09 0,0 v 3.91 c 0,0.05 0.041,0.09 0.09,0.09 h 4 c 0.05,0 0.09,-0.04 0.09,-0.09 v -3.91 c 0,-0.09 -0.09,0 0,0 h 11.91 c 0.05,0 0.09,-0.04 0.09,-0.09 v -3.91 c 0,-0.09 -0.09,0 0,0 h 3.91 c 0.05,0 0.09,-0.04 0.09,-0.09 v -4 c 0,-0.05 -0.04,-0.09 -0.09,-0.09 h -8 c -0.049,0 -0.09,0.04 -0.09,0.09 v 1.903 c 0,0.097 0.097,0.007 0,0 l -19.456,-1.36 c -0.052,-0.004 -0.096,0.038 -0.096,0.09 v 2 c 0,0.047 0.037,0.086 0.084,0.09 l 19.552,1.367 c -0.018,-0.002 -0.036,-0.009 -0.05,-0.02 -0.015,-0.012 -0.025,-0.028 -0.03,-0.046 -0.01,-0.018 -0.01,-0.037 0,-0.054 0.01,-0.018 0.017,-0.033 0.033,-0.044 0.015,-0.01 0.033,-0.016 0.051,-0.016 h -19.91 c -0.09,0 0,0.09 0,0 v -3.91 c 0,-0.05 -0.04,-0.09 -0.09,-0.09 h -4 c -0.049,0 -0.09,0.04 -0.09,0.09 v 7.2 c 0,0.05 0.041,0.09 0.09,0.09 z"
         id="path8102-0"
         style="stroke:#000000;stroke-width:0.18000001" />
    </g>
    <g
       transform="translate(-1022.59,-77.489515)"
       id="p-13-9"
       style="fill:none;stroke:#000000;stroke-linecap:round;stroke-linejoin:round">
      <path
         inkscape:connector-curvature="0"
         d="m 1562.564,278.22 h 3.8 c 0.05,0 0.09,-0.04 0.09,-0.09 v -10.11 c 0,-0.09 -0.09,0 0,0 h 4.22 c 0.09,0 0,-0.09 0,0 v 10.11 c 0,0.05 0.041,0.09 0.09,0.09 h 3.8 c 0.05,0 0.09,-0.04 0.09,-0.09 v -3.91 c 0,-0.09 -0.09,0 0,0 h 1.91 c 0.05,0 0.09,-0.04 0.09,-0.09 v -8 c 0,-0.024 -0.01,-0.047 -0.026,-0.064 l -4,-4 c -0.017,-0.017 -0.04,-0.026 -0.064,-0.026 h -8 c -0.023,0 -0.046,0.009 -0.063,0.026 l -4,4 c -0.017,0.017 -0.027,0.04 -0.027,0.064 v 8 c 0,0.05 0.041,0.09 0.09,0.09 h 1.91 c 0.09,0 0,-0.09 0,0 v 3.91 c 0,0.05 0.041,0.09 0.09,0.09 z"
         id="path8105-3"
         style="stroke:#000000;stroke-width:0.18000001" />
    </g>
    <g
       transform="translate(-1022.59,-77.489515)"
       id="p-14-6"
       style="fill:none;stroke:#000000;stroke-linecap:round;stroke-linejoin:round">
      <path
         inkscape:connector-curvature="0"
         d="m 1580.744,278.22 h 3.8 c 0.05,0 0.09,-0.04 0.09,-0.09 v -10.11 c 0,-0.09 -0.09,0 0,0 h 4.22 c 0.09,0 0,-0.09 0,0 v 10.11 c 0,0.05 0.041,0.09 0.09,0.09 h 3.8 c 0.05,0 0.09,-0.04 0.09,-0.09 v -3.91 c 0,-0.09 -0.09,0 0,0 h 1.91 c 0.05,0 0.09,-0.04 0.09,-0.09 v -8 c 0,-0.024 -0.01,-0.047 -0.026,-0.064 l -4,-4 c -0.017,-0.017 -0.04,-0.026 -0.064,-0.026 h -8 c -0.023,0 -0.046,0.009 -0.063,0.026 l -4,4 c -0.017,0.017 -0.027,0.04 -0.027,0.064 v 8 c 0,0.05 0.041,0.09 0.09,0.09 h 1.91 c 0.09,0 0,-0.09 0,0 v 3.91 c 0,0.05 0.041,0.09 0.09,0.09 z"
         id="path8108-0"
         style="stroke:#000000;stroke-width:0.18000001" />
    </g>
    <g
       transform="translate(8.2096521,-328.58742)"
       id="p-1-2"
       style="fill:none;stroke-linecap:round;stroke-linejoin:round">
      <path
         style="stroke:#000000;stroke-width:0.18000001"
         inkscape:connector-curvature="0"
         d="m 14.09,314.54 h 15.5 c 0.05,0 0.09,-0.04 0.09,-0.09 v -3.91 c 0,-0.09 -0.09,0 0,0 h 7.82 c 0.09,0 0,-0.09 0,0 v 3.91 c 0,0.05 0.04,0.09 0.09,0.09 h 8 c 0.05,0 0.09,-0.04 0.09,-0.09 v -3.91 c 0,-0.09 -0.09,0 0,0 h 7.82 c 0.09,0 0,-0.09 0,0 v 3.91 c 0,0.05 0.04,0.09 0.09,0.09 h 8 c 0.05,0 0.09,-0.04 0.09,-0.09 v -3.91 c 0,-0.09 -0.09,0 0,0 h 7.82 c 0.09,0 0,-0.09 0,0 v 3.91 c 0,0.05 0.04,0.09 0.09,0.09 h 8 c 0.05,0 0.09,-0.04 0.09,-0.09 v -3.91 c 0,-0.09 -0.09,0 0,0 h 7.82 c 0.09,0 0,-0.09 0,0 v 3.91 c 0,0.05 0.04,0.09 0.09,0.09 h 8 c 0.05,0 0.09,-0.04 0.09,-0.09 v -3.91 c 0,-0.09 -0.09,0 0,0 h 7.82 c 0.09,0 0,-0.09 0,0 v 3.91 c 0,0.05 0.04,0.09 0.09,0.09 h 8 c 0.05,0 0.09,-0.04 0.09,-0.09 v -3.91 c 0,-0.09 -0.09,0 0,0 h 7.82 c 0.09,0 0,-0.09 0,0 v 3.91 c 0,0.05 0.04,0.09 0.09,0.09 h 8 c 0.05,0 0.09,-0.04 0.09,-0.09 v -3.91 c 0,-0.09 -0.09,0 0,0 h 7.82 c 0.09,0 0,-0.09 0,0 v 3.91 c 0,0.05 0.04,0.09 0.09,0.09 h 8 c 0.05,0 0.09,-0.04 0.09,-0.09 v -3.91 c 0,-0.09 -0.09,0 0,0 h 7.82 c 0.09,0 0,-0.09 0,0 v 3.91 c 0,0.05 0.04,0.09 0.09,0.09 h 8 c 0.05,0 0.09,-0.04 0.09,-0.09 v -3.91 c 0,-0.09 -0.09,0 0,0 h 7.82 c 0.09,0 0,-0.09 0,0 v 3.91 c 0,0.05 0.04,0.09 0.09,0.09 h 8 c 0.05,0 0.09,-0.04 0.09,-0.09 v -3.91 c 0,-0.09 -0.09,0 0,0 h 7.82 c 0.09,0 0,-0.09 0,0 v 3.91 c 0,0.05 0.04,0.09 0.09,0.09 h 15.5 4 c 0.05,0 0.09,-0.04 0.09,-0.09 v -4 -12 c 0,-0.05 -0.04,-0.09 -0.09,-0.09 h -3.91 c -0.09,0 0,0.09 0,0 v -7.82 c 0,-0.09 -0.09,0 0,0 h 3.91 c 0.05,0 0.09,-0.04 0.09,-0.09 v -12 -4 c 0,-0.05 -0.04,-0.09 -0.09,-0.09 h -4 -15.5 c -0.05,0 -0.09,0.04 -0.09,0.09 v 3.91 c 0,0.09 0.09,0 0,0 h -7.82 c -0.09,0 0,0.09 0,0 v -3.91 c 0,-0.05 -0.04,-0.09 -0.09,-0.09 h -8 c -0.05,0 -0.09,0.04 -0.09,0.09 v 3.91 c 0,0.09 0.09,0 0,0 h -7.82 c -0.09,0 0,0.09 0,0 v -3.91 c 0,-0.05 -0.04,-0.09 -0.09,-0.09 h -8 c -0.05,0 -0.09,0.04 -0.09,0.09 v 3.91 c 0,0.09 0.09,0 0,0 h -7.82 c -0.09,0 0,0.09 0,0 v -3.91 c 0,-0.05 -0.04,-0.09 -0.09,-0.09 h -8 c -0.05,0 -0.09,0.04 -0.09,0.09 v 3.91 c 0,0.09 0.09,0 0,0 h -7.82 c -0.09,0 0,0.09 0,0 v -3.91 c 0,-0.05 -0.04,-0.09 -0.09,-0.09 h -8 c -0.05,0 -0.09,0.04 -0.09,0.09 v 3.91 c 0,0.09 0.09,0 0,0 h -7.82 c -0.09,0 0,0.09 0,0 v -3.91 c 0,-0.05 -0.04,-0.09 -0.09,-0.09 h -8 c -0.05,0 -0.09,0.04 -0.09,0.09 v 3.91 c 0,0.09 0.09,0 0,0 h -7.82 c -0.09,0 0,0.09 0,0 v -3.91 c 0,-0.05 -0.04,-0.09 -0.09,-0.09 h -8 c -0.05,0 -0.09,0.04 -0.09,0.09 v 3.91 c 0,0.09 0.09,0 0,0 h -7.82 c -0.09,0 0,0.09 0,0 v -3.91 c 0,-0.05 -0.04,-0.09 -0.09,-0.09 h -8 c -0.05,0 -0.09,0.04 -0.09,0.09 v 3.91 c 0,0.09 0.09,0 0,0 h -7.82 c -0.09,0 0,0.09 0,0 v -3.91 c 0,-0.05 -0.04,-0.09 -0.09,-0.09 h -8 c -0.05,0 -0.09,0.04 -0.09,0.09 v 3.91 c 0,0.09 0.09,0 0,0 h -7.82 c -0.09,0 0,0.09 0,0 v -3.91 c 0,-0.05 -0.04,-0.09 -0.09,-0.09 h -8 c -0.05,0 -0.09,0.04 -0.09,0.09 v 3.91 c 0,0.09 0.09,0 0,0 h -7.82 c -0.09,0 0,0.09 0,0 v -3.91 c 0,-0.05 -0.04,-0.09 -0.09,-0.09 h -15.5 -4 c -0.05,0 -0.09,0.04 -0.09,0.09 v 4 12 c 0,0.05 0.04,0.09 0.09,0.09 H 14 c 0.09,0 0,-0.09 0,0 v 7.82 c 0,0.09 0.09,0 0,0 h -3.91 c -0.05,0 -0.09,0.04 -0.09,0.09 v 12 4 c 0,0.05 0.04,0.09 0.09,0.09 z"
         id="path13885" />
    </g>
    <g
       transform="translate(13.144741,-327.89313)"
       id="p-2-0"
       style="fill:none;stroke-linecap:round;stroke-linejoin:round">
      <path
         style="stroke:#000000;stroke-width:0.18000001"
         inkscape:connector-curvature="0"
         d="m 207.27,314.54 h 14 c 0.05,0 0.09,-0.04 0.09,-0.09 v -3.91 c 0,-0.09 -0.09,0 0,0 h 7.82 c 0.09,0 0,-0.09 0,0 v 3.91 c 0,0.05 0.04,0.09 0.09,0.09 h 8 c 0.05,0 0.09,-0.04 0.09,-0.09 v -3.91 c 0,-0.09 -0.09,0 0,0 h 7.82 c 0.09,0 0,-0.09 0,0 v 3.91 c 0,0.05 0.04,0.09 0.09,0.09 h 8 c 0.05,0 0.09,-0.04 0.09,-0.09 v -3.91 c 0,-0.09 -0.09,0 0,0 h 7.82 c 0.09,0 0,-0.09 0,0 v 3.91 c 0,0.05 0.04,0.09 0.09,0.09 h 8 c 0.05,0 0.09,-0.04 0.09,-0.09 v -3.91 c 0,-0.09 -0.09,0 0,0 h 7.82 c 0.09,0 0,-0.09 0,0 v 3.91 c 0,0.05 0.04,0.09 0.09,0.09 h 8 c 0.05,0 0.09,-0.04 0.09,-0.09 v -3.91 c 0,-0.09 -0.09,0 0,0 h 7.82 c 0.09,0 0,-0.09 0,0 v 3.91 c 0,0.05 0.04,0.09 0.09,0.09 h 8 c 0.05,0 0.09,-0.04 0.09,-0.09 v -3.91 c 0,-0.09 -0.09,0 0,0 h 7.82 c 0.09,0 0,-0.09 0,0 v 3.91 c 0,0.05 0.04,0.09 0.09,0.09 h 8 c 0.05,0 0.09,-0.04 0.09,-0.09 v -3.91 c 0,-0.09 -0.09,0 0,0 h 7.82 c 0.09,0 0,-0.09 0,0 v 3.91 c 0,0.05 0.04,0.09 0.09,0.09 h 8 c 0.05,0 0.09,-0.04 0.09,-0.09 v -3.91 c 0,-0.09 -0.09,0 0,0 h 7.82 c 0.09,0 0,-0.09 0,0 v 3.91 c 0,0.05 0.04,0.09 0.09,0.09 h 8 c 0.05,0 0.09,-0.04 0.09,-0.09 v -3.91 c 0,-0.09 -0.09,0 0,0 h 7.82 c 0.09,0 0,-0.09 0,0 v 3.91 c 0,0.05 0.04,0.09 0.09,0.09 h 8 c 0.05,0 0.09,-0.04 0.09,-0.09 v -3.91 c 0,-0.09 -0.09,0 0,0 h 7.82 c 0.09,0 0,-0.09 0,0 v 3.91 c 0,0.05 0.04,0.09 0.09,0.09 h 8 c 0.05,0 0.09,-0.04 0.09,-0.09 v -3.91 c 0,-0.09 -0.09,0 0,0 h 7.82 c 0.09,0 0,-0.09 0,0 v 3.91 c 0,0.05 0.04,0.09 0.09,0.09 h 8 c 0.05,0 0.09,-0.04 0.09,-0.09 v -3.91 c 0,-0.09 -0.09,0 0,0 h 7.82 c 0.09,0 0,-0.09 0,0 v 3.91 c 0,0.05 0.04,0.09 0.09,0.09 h 14 c 0.05,0 0.09,-0.04 0.09,-0.09 v -4 -11.91 c 0,-0.09 -0.09,0 0,0 h 3.91 c 0.05,0 0.09,-0.04 0.09,-0.09 v -8 c 0,-0.05 -0.04,-0.09 -0.09,-0.09 h -3.91 c -0.09,0 0,0.09 0,0 v -11.91 -4 c 0,-0.05 -0.04,-0.09 -0.09,-0.09 h -14 c -0.05,0 -0.09,0.04 -0.09,0.09 v 3.91 c 0,0.09 0.09,0 0,0 h -7.82 c -0.09,0 0,0.09 0,0 v -3.91 c 0,-0.05 -0.04,-0.09 -0.09,-0.09 h -8 c -0.05,0 -0.09,0.04 -0.09,0.09 v 3.91 c 0,0.09 0.09,0 0,0 h -7.82 c -0.09,0 0,0.09 0,0 v -3.91 c 0,-0.05 -0.04,-0.09 -0.09,-0.09 h -8 c -0.05,0 -0.09,0.04 -0.09,0.09 v 3.91 c 0,0.09 0.09,0 0,0 h -7.82 c -0.09,0 0,0.09 0,0 v -3.91 c 0,-0.05 -0.04,-0.09 -0.09,-0.09 h -8 c -0.05,0 -0.09,0.04 -0.09,0.09 v 3.91 c 0,0.09 0.09,0 0,0 h -7.82 c -0.09,0 0,0.09 0,0 v -3.91 c 0,-0.05 -0.04,-0.09 -0.09,-0.09 h -8 c -0.05,0 -0.09,0.04 -0.09,0.09 v 3.91 c 0,0.09 0.09,0 0,0 h -7.82 c -0.09,0 0,0.09 0,0 v -3.91 c 0,-0.05 -0.04,-0.09 -0.09,-0.09 h -8 c -0.05,0 -0.09,0.04 -0.09,0.09 v 3.91 c 0,0.09 0.09,0 0,0 h -7.82 c -0.09,0 0,0.09 0,0 v -3.91 c 0,-0.05 -0.04,-0.09 -0.09,-0.09 h -8 c -0.05,0 -0.09,0.04 -0.09,0.09 v 3.91 c 0,0.09 0.09,0 0,0 h -7.82 c -0.09,0 0,0.09 0,0 v -3.91 c 0,-0.05 -0.04,-0.09 -0.09,-0.09 h -8 c -0.05,0 -0.09,0.04 -0.09,0.09 v 3.91 c 0,0.09 0.09,0 0,0 h -7.82 c -0.09,0 0,0.09 0,0 v -3.91 c 0,-0.05 -0.04,-0.09 -0.09,-0.09 h -8 c -0.05,0 -0.09,0.04 -0.09,0.09 v 3.91 c 0,0.09 0.09,0 0,0 h -7.82 c -0.09,0 0,0.09 0,0 v -3.91 c 0,-0.05 -0.04,-0.09 -0.09,-0.09 h -8 c -0.05,0 -0.09,0.04 -0.09,0.09 v 3.91 c 0,0.09 0.09,0 0,0 h -7.82 c -0.09,0 0,0.09 0,0 v -3.91 c 0,-0.05 -0.04,-0.09 -0.09,-0.09 h -8 c -0.05,0 -0.09,0.04 -0.09,0.09 v 3.91 c 0,0.09 0.09,0 0,0 h -7.82 c -0.09,0 0,0.09 0,0 v -3.91 c 0,-0.05 -0.04,-0.09 -0.09,-0.09 h -8 c -0.05,0 -0.09,0.04 -0.09,0.09 v 3.91 c 0,0.09 0.09,0 0,0 h -7.82 c -0.09,0 0,0.09 0,0 v -3.91 c 0,-0.05 -0.04,-0.09 -0.09,-0.09 h -14 c -0.05,0 -0.09,0.04 -0.09,0.09 v 4 11.91 c 0,0.09 0.09,0 0,0 h -3.91 c -0.05,0 -0.09,0.04 -0.09,0.09 v 8 c 0,0.05 0.04,0.09 0.09,0.09 h 3.91 c 0.09,0 0,-0.09 0,0 v 11.91 4 c 0,0.05 0.04,0.09 0.09,0.09 z"
         id="path13888" />
    </g>
    <g
       transform="translate(13.144741,-333.1848)"
       id="p-3-9"
       style="fill:none;stroke-linecap:round;stroke-linejoin:round">
      <path
         style="stroke:#000000;stroke-width:0.18000001"
         inkscape:connector-curvature="0"
         d="m 207.27,272.36 h 14 c 0.05,0 0.09,-0.04 0.09,-0.09 v -3.91 c 0,-0.09 -0.09,0 0,0 h 7.82 c 0.09,0 0,-0.09 0,0 v 3.91 c 0,0.05 0.04,0.09 0.09,0.09 h 8 c 0.05,0 0.09,-0.04 0.09,-0.09 v -3.91 c 0,-0.09 -0.09,0 0,0 h 7.82 c 0.09,0 0,-0.09 0,0 v 3.91 c 0,0.05 0.04,0.09 0.09,0.09 h 8 c 0.05,0 0.09,-0.04 0.09,-0.09 v -3.91 c 0,-0.09 -0.09,0 0,0 h 7.82 c 0.09,0 0,-0.09 0,0 v 3.91 c 0,0.05 0.04,0.09 0.09,0.09 h 8 c 0.05,0 0.09,-0.04 0.09,-0.09 v -3.91 c 0,-0.09 -0.09,0 0,0 h 7.82 c 0.09,0 0,-0.09 0,0 v 3.91 c 0,0.05 0.04,0.09 0.09,0.09 h 8 c 0.05,0 0.09,-0.04 0.09,-0.09 v -3.91 c 0,-0.09 -0.09,0 0,0 h 7.82 c 0.09,0 0,-0.09 0,0 v 3.91 c 0,0.05 0.04,0.09 0.09,0.09 h 8 c 0.05,0 0.09,-0.04 0.09,-0.09 v -3.91 c 0,-0.09 -0.09,0 0,0 h 7.82 c 0.09,0 0,-0.09 0,0 v 3.91 c 0,0.05 0.04,0.09 0.09,0.09 h 8 c 0.05,0 0.09,-0.04 0.09,-0.09 v -3.91 c 0,-0.09 -0.09,0 0,0 h 7.82 c 0.09,0 0,-0.09 0,0 v 3.91 c 0,0.05 0.04,0.09 0.09,0.09 h 8 c 0.05,0 0.09,-0.04 0.09,-0.09 v -3.91 c 0,-0.09 -0.09,0 0,0 h 7.82 c 0.09,0 0,-0.09 0,0 v 3.91 c 0,0.05 0.04,0.09 0.09,0.09 h 8 c 0.05,0 0.09,-0.04 0.09,-0.09 v -3.91 c 0,-0.09 -0.09,0 0,0 h 7.82 c 0.09,0 0,-0.09 0,0 v 3.91 c 0,0.05 0.04,0.09 0.09,0.09 h 8 c 0.05,0 0.09,-0.04 0.09,-0.09 v -3.91 c 0,-0.09 -0.09,0 0,0 h 7.82 c 0.09,0 0,-0.09 0,0 v 3.91 c 0,0.05 0.04,0.09 0.09,0.09 h 8 c 0.05,0 0.09,-0.04 0.09,-0.09 v -3.91 c 0,-0.09 -0.09,0 0,0 h 7.82 c 0.09,0 0,-0.09 0,0 v 3.91 c 0,0.05 0.04,0.09 0.09,0.09 h 8 c 0.05,0 0.09,-0.04 0.09,-0.09 v -3.91 c 0,-0.09 -0.09,0 0,0 h 7.82 c 0.09,0 0,-0.09 0,0 v 3.91 c 0,0.05 0.04,0.09 0.09,0.09 h 14 c 0.05,0 0.09,-0.04 0.09,-0.09 v -4 -11.91 c 0,-0.09 -0.09,0 0,0 h 3.91 c 0.05,0 0.09,-0.04 0.09,-0.09 v -8 c 0,-0.05 -0.04,-0.09 -0.09,-0.09 h -3.91 c -0.09,0 0,0.09 0,0 v -11.91 -4 c 0,-0.05 -0.04,-0.09 -0.09,-0.09 h -14 c -0.05,0 -0.09,0.04 -0.09,0.09 v 3.91 c 0,0.09 0.09,0 0,0 h -7.82 c -0.09,0 0,0.09 0,0 v -3.91 c 0,-0.05 -0.04,-0.09 -0.09,-0.09 h -8 c -0.05,0 -0.09,0.04 -0.09,0.09 v 3.91 c 0,0.09 0.09,0 0,0 h -7.82 c -0.09,0 0,0.09 0,0 v -3.91 c 0,-0.05 -0.04,-0.09 -0.09,-0.09 h -8 c -0.05,0 -0.09,0.04 -0.09,0.09 v 3.91 c 0,0.09 0.09,0 0,0 h -7.82 c -0.09,0 0,0.09 0,0 v -3.91 c 0,-0.05 -0.04,-0.09 -0.09,-0.09 h -8 c -0.05,0 -0.09,0.04 -0.09,0.09 v 3.91 c 0,0.09 0.09,0 0,0 h -7.82 c -0.09,0 0,0.09 0,0 v -3.91 c 0,-0.05 -0.04,-0.09 -0.09,-0.09 h -8 c -0.05,0 -0.09,0.04 -0.09,0.09 v 3.91 c 0,0.09 0.09,0 0,0 h -7.82 c -0.09,0 0,0.09 0,0 v -3.91 c 0,-0.05 -0.04,-0.09 -0.09,-0.09 h -8 c -0.05,0 -0.09,0.04 -0.09,0.09 v 3.91 c 0,0.09 0.09,0 0,0 h -7.82 c -0.09,0 0,0.09 0,0 v -3.91 c 0,-0.05 -0.04,-0.09 -0.09,-0.09 h -8 c -0.05,0 -0.09,0.04 -0.09,0.09 v 3.91 c 0,0.09 0.09,0 0,0 h -7.82 c -0.09,0 0,0.09 0,0 v -3.91 c 0,-0.05 -0.04,-0.09 -0.09,-0.09 h -8 c -0.05,0 -0.09,0.04 -0.09,0.09 v 3.91 c 0,0.09 0.09,0 0,0 h -7.82 c -0.09,0 0,0.09 0,0 v -3.91 c 0,-0.05 -0.04,-0.09 -0.09,-0.09 h -8 c -0.05,0 -0.09,0.04 -0.09,0.09 v 3.91 c 0,0.09 0.09,0 0,0 h -7.82 c -0.09,0 0,0.09 0,0 v -3.91 c 0,-0.05 -0.04,-0.09 -0.09,-0.09 h -8 c -0.05,0 -0.09,0.04 -0.09,0.09 v 3.91 c 0,0.09 0.09,0 0,0 h -7.82 c -0.09,0 0,0.09 0,0 v -3.91 c 0,-0.05 -0.04,-0.09 -0.09,-0.09 h -8 c -0.05,0 -0.09,0.04 -0.09,0.09 v 3.91 c 0,0.09 0.09,0 0,0 h -7.82 c -0.09,0 0,0.09 0,0 v -3.91 c 0,-0.05 -0.04,-0.09 -0.09,-0.09 h -8 c -0.05,0 -0.09,0.04 -0.09,0.09 v 3.91 c 0,0.09 0.09,0 0,0 h -7.82 c -0.09,0 0,0.09 0,0 v -3.91 c 0,-0.05 -0.04,-0.09 -0.09,-0.09 h -14 c -0.05,0 -0.09,0.04 -0.09,0.09 v 4 11.91 c 0,0.09 0.09,0 0,0 h -3.91 c -0.05,0 -0.09,0.04 -0.09,0.09 v 8 c 0,0.05 0.04,0.09 0.09,0.09 h 3.91 c 0.09,0 0,-0.09 0,0 v 11.91 4 c 0,0.05 0.04,0.09 0.09,0.09 z"
         id="path13891" />
    </g>
    <g
       transform="translate(8.2096521,-333.87909)"
       id="p-4"
       style="fill:none;stroke-linecap:round;stroke-linejoin:round">
      <path
         style="stroke:#000000;stroke-width:0.18000001"
         inkscape:connector-curvature="0"
         d="m 14.09,272.36 h 15.5 c 0.05,0 0.09,-0.04 0.09,-0.09 v -3.91 c 0,-0.09 -0.09,0 0,0 h 7.82 c 0.09,0 0,-0.09 0,0 v 3.91 c 0,0.05 0.04,0.09 0.09,0.09 h 8 c 0.05,0 0.09,-0.04 0.09,-0.09 v -3.91 c 0,-0.09 -0.09,0 0,0 h 7.82 c 0.09,0 0,-0.09 0,0 v 3.91 c 0,0.05 0.04,0.09 0.09,0.09 h 8 c 0.05,0 0.09,-0.04 0.09,-0.09 v -3.91 c 0,-0.09 -0.09,0 0,0 h 7.82 c 0.09,0 0,-0.09 0,0 v 3.91 c 0,0.05 0.04,0.09 0.09,0.09 h 8 c 0.05,0 0.09,-0.04 0.09,-0.09 v -3.91 c 0,-0.09 -0.09,0 0,0 h 7.82 c 0.09,0 0,-0.09 0,0 v 3.91 c 0,0.05 0.04,0.09 0.09,0.09 h 8 c 0.05,0 0.09,-0.04 0.09,-0.09 v -3.91 c 0,-0.09 -0.09,0 0,0 h 7.82 c 0.09,0 0,-0.09 0,0 v 3.91 c 0,0.05 0.04,0.09 0.09,0.09 h 8 c 0.05,0 0.09,-0.04 0.09,-0.09 v -3.91 c 0,-0.09 -0.09,0 0,0 h 7.82 c 0.09,0 0,-0.09 0,0 v 3.91 c 0,0.05 0.04,0.09 0.09,0.09 h 8 c 0.05,0 0.09,-0.04 0.09,-0.09 v -3.91 c 0,-0.09 -0.09,0 0,0 h 7.82 c 0.09,0 0,-0.09 0,0 v 3.91 c 0,0.05 0.04,0.09 0.09,0.09 h 8 c 0.05,0 0.09,-0.04 0.09,-0.09 v -3.91 c 0,-0.09 -0.09,0 0,0 h 7.82 c 0.09,0 0,-0.09 0,0 v 3.91 c 0,0.05 0.04,0.09 0.09,0.09 h 8 c 0.05,0 0.09,-0.04 0.09,-0.09 v -3.91 c 0,-0.09 -0.09,0 0,0 h 7.82 c 0.09,0 0,-0.09 0,0 v 3.91 c 0,0.05 0.04,0.09 0.09,0.09 h 8 c 0.05,0 0.09,-0.04 0.09,-0.09 v -3.91 c 0,-0.09 -0.09,0 0,0 h 7.82 c 0.09,0 0,-0.09 0,0 v 3.91 c 0,0.05 0.04,0.09 0.09,0.09 h 15.5 4 c 0.05,0 0.09,-0.04 0.09,-0.09 v -4 -12 c 0,-0.05 -0.04,-0.09 -0.09,-0.09 h -3.91 c -0.09,0 0,0.09 0,0 v -7.82 c 0,-0.09 -0.09,0 0,0 h 3.91 c 0.05,0 0.09,-0.04 0.09,-0.09 v -12 -4 c 0,-0.05 -0.04,-0.09 -0.09,-0.09 h -4 -15.5 c -0.05,0 -0.09,0.04 -0.09,0.09 v 3.91 c 0,0.09 0.09,0 0,0 h -7.82 c -0.09,0 0,0.09 0,0 v -3.91 c 0,-0.05 -0.04,-0.09 -0.09,-0.09 h -8 c -0.05,0 -0.09,0.04 -0.09,0.09 v 3.91 c 0,0.09 0.09,0 0,0 h -7.82 c -0.09,0 0,0.09 0,0 v -3.91 c 0,-0.05 -0.04,-0.09 -0.09,-0.09 h -8 c -0.05,0 -0.09,0.04 -0.09,0.09 v 3.91 c 0,0.09 0.09,0 0,0 h -7.82 c -0.09,0 0,0.09 0,0 v -3.91 c 0,-0.05 -0.04,-0.09 -0.09,-0.09 h -8 c -0.05,0 -0.09,0.04 -0.09,0.09 v 3.91 c 0,0.09 0.09,0 0,0 h -7.82 c -0.09,0 0,0.09 0,0 v -3.91 c 0,-0.05 -0.04,-0.09 -0.09,-0.09 h -8 c -0.05,0 -0.09,0.04 -0.09,0.09 v 3.91 c 0,0.09 0.09,0 0,0 h -7.82 c -0.09,0 0,0.09 0,0 v -3.91 c 0,-0.05 -0.04,-0.09 -0.09,-0.09 h -8 c -0.05,0 -0.09,0.04 -0.09,0.09 v 3.91 c 0,0.09 0.09,0 0,0 h -7.82 c -0.09,0 0,0.09 0,0 v -3.91 c 0,-0.05 -0.04,-0.09 -0.09,-0.09 h -8 c -0.05,0 -0.09,0.04 -0.09,0.09 v 3.91 c 0,0.09 0.09,0 0,0 h -7.82 c -0.09,0 0,0.09 0,0 v -3.91 c 0,-0.05 -0.04,-0.09 -0.09,-0.09 h -8 c -0.05,0 -0.09,0.04 -0.09,0.09 v 3.91 c 0,0.09 0.09,0 0,0 h -7.82 c -0.09,0 0,0.09 0,0 v -3.91 c 0,-0.05 -0.04,-0.09 -0.09,-0.09 h -8 c -0.05,0 -0.09,0.04 -0.09,0.09 v 3.91 c 0,0.09 0.09,0 0,0 h -7.82 c -0.09,0 0,0.09 0,0 v -3.91 c 0,-0.05 -0.04,-0.09 -0.09,-0.09 h -8 c -0.05,0 -0.09,0.04 -0.09,0.09 v 3.91 c 0,0.09 0.09,0 0,0 h -7.82 c -0.09,0 0,0.09 0,0 v -3.91 c 0,-0.05 -0.04,-0.09 -0.09,-0.09 h -15.5 -4 c -0.05,0 -0.09,0.04 -0.09,0.09 v 4 12 c 0,0.05 0.04,0.09 0.09,0.09 H 14 c 0.09,0 0,-0.09 0,0 v 7.82 c 0,0.09 0.09,0 0,0 h -3.91 c -0.05,0 -0.09,0.04 -0.09,0.09 v 12 4 c 0,0.05 0.04,0.09 0.09,0.09 z"
         id="path13894" />
    </g>
    <g
       transform="translate(-1564.1282,-184.99514)"
       id="p-15-6"
       style="fill:none;stroke-linecap:round;stroke-linejoin:round">
      <path
         d="m 1805.182,220.44 h 7.6 c 0.05,0 0.09,-0.04 0.09,-0.09 v -20.31 c 0,-0.09 -0.09,0 0,0 h 8.62 c 0.09,0 0,-0.09 0,0 v 20.31 c 0,0.05 0.04,0.09 0.09,0.09 h 7.6 c 0.05,0 0.09,-0.04 0.09,-0.09 v -7.91 c 0,-0.09 -0.09,0 0,0 h 3.91 c 0.05,0 0.09,-0.04 0.09,-0.09 v -16 c 0,-0.024 -0.01,-0.047 -0.026,-0.064 l -8,-8 c -0.017,-0.017 -0.04,-0.026 -0.064,-0.026 h -16 c -0.024,0 -0.047,0.009 -0.063,0.026 l -8,8 c -0.017,0.017 -0.027,0.04 -0.027,0.064 v 16 c 0,0.05 0.04,0.09 0.09,0.09 h 3.91 c 0.09,0 0,-0.09 0,0 v 7.91 c 0,0.05 0.04,0.09 0.09,0.09 z"
         id="path1196-7"
         inkscape:connector-curvature="0"
         style="stroke:#000000;stroke-width:0.18000001" />
    </g>
  </g>
</svg>
