<?xml version="1.0" encoding="UTF-8" standalone="no"?>
<!-- Created with Inkscape (http://www.inkscape.org/) -->

<svg
   xmlns:dc="http://purl.org/dc/elements/1.1/"
   xmlns:cc="http://creativecommons.org/ns#"
   xmlns:rdf="http://www.w3.org/1999/02/22-rdf-syntax-ns#"
   xmlns:svg="http://www.w3.org/2000/svg"
   xmlns="http://www.w3.org/2000/svg"
   xmlns:sodipodi="http://sodipodi.sourceforge.net/DTD/sodipodi-0.dtd"
   xmlns:inkscape="http://www.inkscape.org/namespaces/inkscape"
   width="594mm"
   height="420mm"
   viewBox="0 0 594 420"
   version="1.1"
   id="svg1565"
   inkscape:version="0.92.4 (5da689c313, 2019-01-14)"
   sodipodi:docname="design_1.7_file2.svg">
  <defs
     id="defs1559" />
  <sodipodi:namedview
     id="base"
     pagecolor="#ffffff"
     bordercolor="#666666"
     borderopacity="1.0"
     inkscape:pageopacity="0.0"
     inkscape:pageshadow="2"
     inkscape:zoom="0.22255948"
     inkscape:cx="-137.49339"
     inkscape:cy="996.22088"
     inkscape:document-units="mm"
     inkscape:current-layer="layer1"
     showgrid="false"
     inkscape:window-width="1920"
     inkscape:window-height="1016"
     inkscape:window-x="0"
     inkscape:window-y="27"
     inkscape:window-maximized="1" />
  <metadata
     id="metadata1562">
    <rdf:RDF>
      <cc:Work
         rdf:about="">
        <dc:format>image/svg+xml</dc:format>
        <dc:type
           rdf:resource="http://purl.org/dc/dcmitype/StillImage" />
        <dc:title />
      </cc:Work>
    </rdf:RDF>
  </metadata>
  <g
     inkscape:label="Layer 1"
     inkscape:groupmode="layer"
     id="layer1"
     transform="translate(0,123)">
    <g
       transform="rotate(-90,522.21477,609.89851)"
       id="p-6"
       style="fill:none;stroke:#000000;stroke-linecap:round;stroke-linejoin:round">
      <path
         inkscape:connector-curvature="0"
         d="m 1056.758,306.58 h 2.353 c 0.05,0 0.09,-0.04 0.09,-0.09 v -3.91 c 0,-0.09 -0.09,0 0,0 h 7.82 c 0.09,0 0,-0.09 0,0 v 3.91 c 0,0.05 0.04,0.09 0.09,0.09 h 8 c 0.05,0 0.09,-0.04 0.09,-0.09 v -3.91 c 0,-0.09 -0.09,0 0,0 h 7.82 c 0.09,0 0,-0.09 0,0 v 3.91 c 0,0.05 0.04,0.09 0.09,0.09 h 8 c 0.05,0 0.09,-0.04 0.09,-0.09 v -3.91 c 0,-0.09 -0.09,0 0,0 h 7.82 c 0.09,0 0,-0.09 0,0 v 3.91 c 0,0.05 0.04,0.09 0.09,0.09 h 8 c 0.05,0 0.09,-0.04 0.09,-0.09 v -3.91 c 0,-0.09 -0.09,0 0,0 h 7.82 c 0.09,0 0,-0.09 0,0 v 3.91 c 0,0.05 0.04,0.09 0.09,0.09 h 8 c 0.05,0 0.09,-0.04 0.09,-0.09 v -3.91 c 0,-0.09 -0.09,0 0,0 h 7.82 c 0.09,0 0,-0.09 0,0 v 3.91 c 0,0.05 0.04,0.09 0.09,0.09 h 8 c 0.05,0 0.09,-0.04 0.09,-0.09 v -3.91 c 0,-0.09 -0.09,0 0,0 h 7.82 c 0.09,0 0,-0.09 0,0 v 3.91 c 0,0.05 0.04,0.09 0.09,0.09 h 8 c 0.05,0 0.09,-0.04 0.09,-0.09 v -3.91 c 0,-0.09 -0.09,0 0,0 h 7.82 c 0.09,0 0,-0.09 0,0 v 3.91 c 0,0.05 0.04,0.09 0.09,0.09 h 8 c 0.05,0 0.09,-0.04 0.09,-0.09 v -3.91 c 0,-0.09 -0.09,0 0,0 h 7.82 c 0.09,0 0,-0.09 0,0 v 3.91 c 0,0.05 0.04,0.09 0.09,0.09 h 8 c 0.05,0 0.09,-0.04 0.09,-0.09 v -3.91 c 0,-0.09 -0.09,0 0,0 h 7.82 c 0.09,0 0,-0.09 0,0 v 3.91 c 0,0.05 0.04,0.09 0.09,0.09 h 8 c 0.05,0 0.09,-0.04 0.09,-0.09 v -3.91 c 0,-0.09 -0.09,0 0,0 h 7.82 c 0.09,0 0,-0.09 0,0 v 3.91 c 0,0.05 0.04,0.09 0.09,0.09 h 8 c 0.05,0 0.09,-0.04 0.09,-0.09 v -3.91 c 0,-0.09 -0.09,0 0,0 h 7.82 c 0.09,0 0,-0.09 0,0 v 3.91 c 0,0.05 0.04,0.09 0.09,0.09 h 2.353 4 c 0.05,0 0.09,-0.04 0.09,-0.09 v -4 -200 -4 c 0,-0.05 -0.04,-0.09 -0.09,-0.09 h -4 -2.353 c -0.05,0 -0.09,0.04 -0.09,0.09 v 3.91 c 0,0.09 0.09,0 0,0 h -7.82 c -0.09,0 0,0.09 0,0 v -3.91 c 0,-0.05 -0.04,-0.09 -0.09,-0.09 h -8 c -0.05,0 -0.09,0.04 -0.09,0.09 v 3.91 c 0,0.09 0.09,0 0,0 h -7.82 c -0.09,0 0,0.09 0,0 v -3.91 c 0,-0.05 -0.04,-0.09 -0.09,-0.09 h -8 c -0.05,0 -0.09,0.04 -0.09,0.09 v 3.91 c 0,0.09 0.09,0 0,0 h -7.82 c -0.09,0 0,0.09 0,0 v -3.91 c 0,-0.05 -0.04,-0.09 -0.09,-0.09 h -8 c -0.05,0 -0.09,0.04 -0.09,0.09 v 3.91 c 0,0.09 0.09,0 0,0 h -7.82 c -0.09,0 0,0.09 0,0 v -3.91 c 0,-0.05 -0.04,-0.09 -0.09,-0.09 h -8 c -0.05,0 -0.09,0.04 -0.09,0.09 v 3.91 c 0,0.09 0.09,0 0,0 h -7.82 c -0.09,0 0,0.09 0,0 v -3.91 c 0,-0.05 -0.04,-0.09 -0.09,-0.09 h -8 c -0.05,0 -0.09,0.04 -0.09,0.09 v 3.91 c 0,0.09 0.09,0 0,0 h -7.82 c -0.09,0 0,0.09 0,0 v -3.91 c 0,-0.05 -0.04,-0.09 -0.09,-0.09 h -8 c -0.05,0 -0.09,0.04 -0.09,0.09 v 3.91 c 0,0.09 0.09,0 0,0 h -7.82 c -0.09,0 0,0.09 0,0 v -3.91 c 0,-0.05 -0.04,-0.09 -0.09,-0.09 h -8 c -0.05,0 -0.09,0.04 -0.09,0.09 v 3.91 c 0,0.09 0.09,0 0,0 h -7.82 c -0.09,0 0,0.09 0,0 v -3.91 c 0,-0.05 -0.04,-0.09 -0.09,-0.09 h -8 c -0.05,0 -0.09,0.04 -0.09,0.09 v 3.91 c 0,0.09 0.09,0 0,0 h -7.82 c -0.09,0 0,0.09 0,0 v -3.91 c 0,-0.05 -0.04,-0.09 -0.09,-0.09 h -8 c -0.05,0 -0.09,0.04 -0.09,0.09 v 3.91 c 0,0.09 0.09,0 0,0 h -7.82 c -0.09,0 0,0.09 0,0 v -3.91 c 0,-0.05 -0.04,-0.09 -0.09,-0.09 h -8 c -0.05,0 -0.09,0.04 -0.09,0.09 v 3.91 c 0,0.09 0.09,0 0,0 h -7.82 c -0.09,0 0,0.09 0,0 v -3.91 c 0,-0.05 -0.04,-0.09 -0.09,-0.09 h -2.353 c -0.05,0 -0.09,0.04 -0.09,0.09 v 4 200 4 c 0,0.05 0.04,0.09 0.09,0.09 z"
         id="path7996"
         style="stroke:#000000;stroke-width:0.18000001" />
    </g>
    <g
       transform="translate(-730.21396,-17.24882)"
       id="g8962"
       style="stroke:#000000">
      <path
         d="m 736.63,306.58 h 5.053 c 0.05,0 0.09,-0.04 0.09,-0.09 v -3.91 c 0,-0.09 -0.09,0 0,0 h 7.82 c 0.09,0 0,-0.09 0,0 v 3.91 c 0,0.05 0.04,0.09 0.09,0.09 h 8 c 0.05,0 0.09,-0.04 0.09,-0.09 v -3.91 c 0,-0.09 -0.09,0 0,0 h 7.82 c 0.09,0 0,-0.09 0,0 v 3.91 c 0,0.05 0.04,0.09 0.09,0.09 h 8 c 0.05,0 0.09,-0.04 0.09,-0.09 v -3.91 c 0,-0.09 -0.09,0 0,0 h 7.82 c 0.09,0 0,-0.09 0,0 v 3.91 c 0,0.05 0.04,0.09 0.09,0.09 h 8 c 0.05,0 0.09,-0.04 0.09,-0.09 v -3.91 c 0,-0.09 -0.09,0 0,0 h 7.82 c 0.09,0 0,-0.09 0,0 v 3.91 c 0,0.05 0.04,0.09 0.09,0.09 h 8 c 0.05,0 0.09,-0.04 0.09,-0.09 v -3.91 c 0,-0.09 -0.09,0 0,0 h 7.82 c 0.09,0 0,-0.09 0,0 v 3.91 c 0,0.05 0.04,0.09 0.09,0.09 h 8 c 0.05,0 0.09,-0.04 0.09,-0.09 v -3.91 c 0,-0.09 -0.09,0 0,0 h 7.82 c 0.09,0 0,-0.09 0,0 v 3.91 c 0,0.05 0.04,0.09 0.09,0.09 h 8 c 0.05,0 0.09,-0.04 0.09,-0.09 v -3.91 c 0,-0.09 -0.09,0 0,0 h 7.82 c 0.09,0 0,-0.09 0,0 v 3.91 c 0,0.05 0.04,0.09 0.09,0.09 h 8 c 0.05,0 0.09,-0.04 0.09,-0.09 v -3.91 c 0,-0.09 -0.09,0 0,0 h 7.82 c 0.09,0 0,-0.09 0,0 v 3.91 c 0,0.05 0.04,0.09 0.09,0.09 h 8 c 0.05,0 0.09,-0.04 0.09,-0.09 v -3.91 c 0,-0.09 -0.09,0 0,0 h 7.82 c 0.09,0 0,-0.09 0,0 v 3.91 c 0,0.05 0.04,0.09 0.09,0.09 h 8 c 0.05,0 0.09,-0.04 0.09,-0.09 v -3.91 c 0,-0.09 -0.09,0 0,0 h 7.82 c 0.09,0 0,-0.09 0,0 v 3.91 c 0,0.05 0.04,0.09 0.09,0.09 h 8 c 0.05,0 0.09,-0.04 0.09,-0.09 v -3.91 c 0,-0.09 -0.09,0 0,0 h 7.82 c 0.09,0 0,-0.09 0,0 v 3.91 c 0,0.05 0.04,0.09 0.09,0.09 h 8 c 0.05,0 0.09,-0.04 0.09,-0.09 v -3.91 c 0,-0.09 -0.09,0 0,0 h 7.82 c 0.09,0 0,-0.09 0,0 v 3.91 c 0,0.05 0.04,0.09 0.09,0.09 h 8 c 0.05,0 0.09,-0.04 0.09,-0.09 v -3.91 c 0,-0.09 -0.09,0 0,0 h 7.82 c 0.09,0 0,-0.09 0,0 v 3.91 c 0,0.05 0.04,0.09 0.09,0.09 h 5.053 c 0.049,0 0.09,-0.04 0.09,-0.09 v -4 -200 -4 c 0,-0.05 -0.041,-0.09 -0.09,-0.09 h -5.053 c -0.05,0 -0.09,0.04 -0.09,0.09 v 3.91 c 0,0.09 0.09,0 0,0 h -7.82 c -0.09,0 0,0.09 0,0 v -3.91 c 0,-0.05 -0.04,-0.09 -0.09,-0.09 h -8 c -0.05,0 -0.09,0.04 -0.09,0.09 v 3.91 c 0,0.09 0.09,0 0,0 h -7.82 c -0.09,0 0,0.09 0,0 v -3.91 c 0,-0.05 -0.04,-0.09 -0.09,-0.09 h -8 c -0.05,0 -0.09,0.04 -0.09,0.09 v 3.91 c 0,0.09 0.09,0 0,0 h -7.82 c -0.09,0 0,0.09 0,0 v -3.91 c 0,-0.05 -0.04,-0.09 -0.09,-0.09 h -8 c -0.05,0 -0.09,0.04 -0.09,0.09 v 3.91 c 0,0.09 0.09,0 0,0 h -7.82 c -0.09,0 0,0.09 0,0 v -3.91 c 0,-0.05 -0.04,-0.09 -0.09,-0.09 h -8 c -0.05,0 -0.09,0.04 -0.09,0.09 v 3.91 c 0,0.09 0.09,0 0,0 h -7.82 c -0.09,0 0,0.09 0,0 v -3.91 c 0,-0.05 -0.04,-0.09 -0.09,-0.09 h -8 c -0.05,0 -0.09,0.04 -0.09,0.09 v 3.91 c 0,0.09 0.09,0 0,0 h -7.82 c -0.09,0 0,0.09 0,0 v -3.91 c 0,-0.05 -0.04,-0.09 -0.09,-0.09 h -8 c -0.05,0 -0.09,0.04 -0.09,0.09 v 3.91 c 0,0.09 0.09,0 0,0 h -7.82 c -0.09,0 0,0.09 0,0 v -3.91 c 0,-0.05 -0.04,-0.09 -0.09,-0.09 h -8 c -0.05,0 -0.09,0.04 -0.09,0.09 v 3.91 c 0,0.09 0.09,0 0,0 h -7.82 c -0.09,0 0,0.09 0,0 v -3.91 c 0,-0.05 -0.04,-0.09 -0.09,-0.09 h -8 c -0.05,0 -0.09,0.04 -0.09,0.09 v 3.91 c 0,0.09 0.09,0 0,0 h -7.82 c -0.09,0 0,0.09 0,0 v -3.91 c 0,-0.05 -0.04,-0.09 -0.09,-0.09 h -8 c -0.05,0 -0.09,0.04 -0.09,0.09 v 3.91 c 0,0.09 0.09,0 0,0 h -7.82 c -0.09,0 0,0.09 0,0 v -3.91 c 0,-0.05 -0.04,-0.09 -0.09,-0.09 h -8 c -0.05,0 -0.09,0.04 -0.09,0.09 v 3.91 c 0,0.09 0.09,0 0,0 h -7.82 c -0.09,0 0,0.09 0,0 v -3.91 c 0,-0.05 -0.04,-0.09 -0.09,-0.09 h -8 c -0.05,0 -0.09,0.04 -0.09,0.09 v 3.91 c 0,0.09 0.09,0 0,0 h -7.82 c -0.09,0 0,0.09 0,0 v -3.91 c 0,-0.05 -0.04,-0.09 -0.09,-0.09 h -8 c -0.05,0 -0.09,0.04 -0.09,0.09 v 3.91 c 0,0.09 0.09,0 0,0 h -7.82 c -0.09,0 0,0.09 0,0 v -3.91 c 0,-0.05 -0.04,-0.09 -0.09,-0.09 h -5.053 c -0.05,0 -0.09,0.04 -0.09,0.09 v 4 8 c 0,0.788 0.207,1.562 0.602,2.245 0.394,0.683 0.96,1.249 1.643,1.643 0.655,0.379 1.199,0.923 1.578,1.578 0.378,0.655 0.577,1.398 0.577,2.155 v 168.758 c 0,0.757 -0.199,1.5 -0.577,2.155 -0.379,0.655 -0.923,1.199 -1.578,1.578 -0.683,0.394 -1.249,0.96 -1.643,1.643 -0.395,0.683 -0.602,1.457 -0.602,2.245 v 8 4 c 0,0.05 0.04,0.09 0.09,0.09 z"
         id="path7966"
         inkscape:connector-curvature="0"
         style="fill:none;stroke:#000000;stroke-width:0.18000001;stroke-linecap:round;stroke-linejoin:round" />
      <path
         d="m 745.03,114.49 v -3.91 c 0,-0.09 -0.09,0 0,0 h 3.82 c 0.09,0 0,-0.09 0,0 v 7.82 c 0,0.09 0.09,0 0,0 h -3.82 c -0.09,0 0,0.09 0,0 z"
         id="path7968"
         inkscape:connector-curvature="0"
         style="fill:none;stroke:#000000;stroke-width:0.18000001;stroke-linecap:round;stroke-linejoin:round" />
      <path
         d="m 745.03,130.49 v -3.91 c 0,-0.09 -0.09,0 0,0 h 3.82 c 0.09,0 0,-0.09 0,0 v 7.82 c 0,0.09 0.09,0 0,0 h -3.82 c -0.09,0 0,0.09 0,0 z"
         id="path7970"
         inkscape:connector-curvature="0"
         style="fill:none;stroke:#000000;stroke-width:0.18000001;stroke-linecap:round;stroke-linejoin:round" />
      <path
         d="m 745.03,146.49 v -3.91 c 0,-0.09 -0.09,0 0,0 h 3.82 c 0.09,0 0,-0.09 0,0 v 7.82 c 0,0.09 0.09,0 0,0 h -3.82 c -0.09,0 0,0.09 0,0 z"
         id="path7972"
         inkscape:connector-curvature="0"
         style="fill:none;stroke:#000000;stroke-width:0.18000001;stroke-linecap:round;stroke-linejoin:round" />
      <path
         d="m 745.03,162.49 v -3.91 c 0,-0.09 -0.09,0 0,0 h 3.82 c 0.09,0 0,-0.09 0,0 v 7.82 c 0,0.09 0.09,0 0,0 h -3.82 c -0.09,0 0,0.09 0,0 z"
         id="path7974"
         inkscape:connector-curvature="0"
         style="fill:none;stroke:#000000;stroke-width:0.18000001;stroke-linecap:round;stroke-linejoin:round" />
      <path
         d="m 745.03,178.49 v -3.91 c 0,-0.09 -0.09,0 0,0 h 3.82 c 0.09,0 0,-0.09 0,0 v 7.82 c 0,0.09 0.09,0 0,0 h -3.82 c -0.09,0 0,0.09 0,0 z"
         id="path7976"
         inkscape:connector-curvature="0"
         style="fill:none;stroke:#000000;stroke-width:0.18000001;stroke-linecap:round;stroke-linejoin:round" />
      <path
         d="m 745.03,194.49 v -3.91 c 0,-0.09 -0.09,0 0,0 h 3.82 c 0.09,0 0,-0.09 0,0 v 7.82 c 0,0.09 0.09,0 0,0 h -3.82 c -0.09,0 0,0.09 0,0 z"
         id="path7978"
         inkscape:connector-curvature="0"
         style="fill:none;stroke:#000000;stroke-width:0.18000001;stroke-linecap:round;stroke-linejoin:round" />
      <path
         d="m 745.03,210.49 v -3.91 c 0,-0.09 -0.09,0 0,0 h 3.82 c 0.09,0 0,-0.09 0,0 v 7.82 c 0,0.09 0.09,0 0,0 h -3.82 c -0.09,0 0,0.09 0,0 z"
         id="path7980"
         inkscape:connector-curvature="0"
         style="fill:none;stroke:#000000;stroke-width:0.18000001;stroke-linecap:round;stroke-linejoin:round" />
      <path
         d="m 745.03,226.49 v -3.91 c 0,-0.09 -0.09,0 0,0 h 3.82 c 0.09,0 0,-0.09 0,0 v 7.82 c 0,0.09 0.09,0 0,0 h -3.82 c -0.09,0 0,0.09 0,0 z"
         id="path7982"
         inkscape:connector-curvature="0"
         style="fill:none;stroke:#000000;stroke-width:0.18000001;stroke-linecap:round;stroke-linejoin:round" />
      <path
         d="m 745.03,242.49 v -3.91 c 0,-0.09 -0.09,0 0,0 h 3.82 c 0.09,0 0,-0.09 0,0 v 7.82 c 0,0.09 0.09,0 0,0 h -3.82 c -0.09,0 0,0.09 0,0 z"
         id="path7984"
         inkscape:connector-curvature="0"
         style="fill:none;stroke:#000000;stroke-width:0.18000001;stroke-linecap:round;stroke-linejoin:round" />
      <path
         d="m 745.03,258.49 v -3.91 c 0,-0.09 -0.09,0 0,0 h 3.82 c 0.09,0 0,-0.09 0,0 v 7.82 c 0,0.09 0.09,0 0,0 h -3.82 c -0.09,0 0,0.09 0,0 z"
         id="path7986"
         inkscape:connector-curvature="0"
         style="fill:none;stroke:#000000;stroke-width:0.18000001;stroke-linecap:round;stroke-linejoin:round" />
      <path
         d="m 745.03,274.49 v -3.91 c 0,-0.09 -0.09,0 0,0 h 3.82 c 0.09,0 0,-0.09 0,0 v 7.82 c 0,0.09 0.09,0 0,0 h -3.82 c -0.09,0 0,0.09 0,0 z"
         id="path7988"
         inkscape:connector-curvature="0"
         style="fill:none;stroke:#000000;stroke-width:0.18000001;stroke-linecap:round;stroke-linejoin:round" />
      <path
         d="m 745.03,290.49 v -3.91 c 0,-0.09 -0.09,0 0,0 h 3.82 c 0.09,0 0,-0.09 0,0 v 7.82 c 0,0.09 0.09,0 0,0 h -3.82 c -0.09,0 0,0.09 0,0 z"
         id="path7990"
         inkscape:connector-curvature="0"
         style="fill:none;stroke:#000000;stroke-width:0.18000001;stroke-linecap:round;stroke-linejoin:round" />
      <g
         transform="translate(0,3.7041666)"
         id="g8914"
         style="stroke:#000000">
        <path
           inkscape:connector-curvature="0"
           id="rect912-9-2-5"
           d="m 905.886,259.68401 h 33 v 5 h -33 z"
           style="opacity:1;fill:none;fill-opacity:1;stroke:#000000;stroke-width:0.18000001;stroke-linecap:round;stroke-linejoin:round;stroke-miterlimit:4;stroke-dasharray:none;stroke-dashoffset:0;stroke-opacity:1" />
        <path
           style="fill:none;stroke:#000000;stroke-width:0.18000001;stroke-linecap:butt;stroke-linejoin:miter;stroke-miterlimit:4;stroke-dasharray:none;stroke-opacity:1"
           d="m 844.04446,275.77877 v -7.33216 l 29.59967,-0.0856 v -8.767 l -29.68367,0.0207 0.084,-7.43836 -3.856,3.1e-4 v 7.51761 l -6.31013,-0.0999 v 8.76664 l 6.31013,0.0856 v 7.33216 z"
           id="path2117-2-9-3"
           inkscape:connector-curvature="0"
           sodipodi:nodetypes="ccccccccccccc" />
      </g>
      <rect
         y="-237.04501"
         x="-938.88623"
         height="94.796249"
         width="35.796246"
         id="rect2989"
         style="opacity:1;fill:none;fill-opacity:1;stroke:#000000;stroke-width:0.18000002;stroke-linecap:round;stroke-miterlimit:4;stroke-dasharray:none;stroke-dashoffset:0;stroke-opacity:1"
         transform="scale(-1)" />
    </g>
    <g
       transform="rotate(90,877.21783,-346.90491)"
       id="p-7"
       style="fill:none;stroke:#000000;stroke-linecap:round;stroke-linejoin:round">
      <path
         inkscape:connector-curvature="0"
         d="m 1259.644,294.49 h -5.91 c -0.09,0 0,0.09 0,0 v -3.82 c 0,-0.09 -0.09,0 0,0 h 3.71 c 0.05,0 0.09,-0.04 0.09,-0.09 v -8 c 0,-0.05 -0.04,-0.09 -0.09,-0.09 h -3.71 c -0.09,0 0,0.09 0,0 v -3.82 c 0,-0.09 -0.09,0 0,0 h 11.82 c 0.09,0 0,-0.09 0,0 v 3.82 c 0,0.09 0.09,0 0,0 h -3.71 c -0.049,0 -0.09,0.04 -0.09,0.09 v 8 c 0,0.05 0.041,0.09 0.09,0.09 h 3.71 c 0.09,0 0,-0.09 0,0 v 3.82 c 0,0.09 0.09,0 0,0 z"
         id="path7999"
         style="stroke:#000000;stroke-width:0.18000001" />
      <path
         inkscape:connector-curvature="0"
         d="m 1235.644,306.58 h 275.8 c 0.05,0 0.09,-0.04 0.09,-0.09 v -4 -200 -4 c 0,-0.05 -0.04,-0.09 -0.09,-0.09 h -275.8 c -0.049,0 -0.09,0.04 -0.09,0.09 v 4 200 4 c 0,0.05 0.041,0.09 0.09,0.09 z"
         id="path8001"
         style="stroke:#000000;stroke-width:0.18000001" />
      <path
         inkscape:connector-curvature="0"
         d="m 1503.544,298.58 h 3.91 c 0.09,0 0,-0.09 0,0 v 3.82 c 0,0.09 0.09,0 0,0 h -7.82 c -0.09,0 0,0.09 0,0 v -3.82 c 0,-0.09 -0.09,0 0,0 z"
         id="path8003"
         style="stroke:#000000;stroke-width:0.18000001" />
      <path
         inkscape:connector-curvature="0"
         d="m 1487.544,298.58 h 3.91 c 0.09,0 0,-0.09 0,0 v 3.82 c 0,0.09 0.09,0 0,0 h -7.82 c -0.09,0 0,0.09 0,0 v -3.82 c 0,-0.09 -0.09,0 0,0 z"
         id="path8005"
         style="stroke:#000000;stroke-width:0.18000001" />
      <path
         inkscape:connector-curvature="0"
         d="m 1471.544,298.58 h 3.91 c 0.09,0 0,-0.09 0,0 v 3.82 c 0,0.09 0.09,0 0,0 h -7.82 c -0.09,0 0,0.09 0,0 v -3.82 c 0,-0.09 -0.09,0 0,0 z"
         id="path8007"
         style="stroke:#000000;stroke-width:0.18000001" />
      <path
         inkscape:connector-curvature="0"
         d="m 1455.544,298.58 h 3.91 c 0.09,0 0,-0.09 0,0 v 3.82 c 0,0.09 0.09,0 0,0 h -7.82 c -0.09,0 0,0.09 0,0 v -3.82 c 0,-0.09 -0.09,0 0,0 z"
         id="path8009"
         style="stroke:#000000;stroke-width:0.18000001" />
      <path
         inkscape:connector-curvature="0"
         d="m 1439.544,298.58 h 3.91 c 0.09,0 0,-0.09 0,0 v 3.82 c 0,0.09 0.09,0 0,0 h -7.82 c -0.09,0 0,0.09 0,0 v -3.82 c 0,-0.09 -0.09,0 0,0 z"
         id="path8011"
         style="stroke:#000000;stroke-width:0.18000001" />
      <path
         inkscape:connector-curvature="0"
         d="m 1423.544,298.58 h 3.91 c 0.09,0 0,-0.09 0,0 v 3.82 c 0,0.09 0.09,0 0,0 h -7.82 c -0.09,0 0,0.09 0,0 v -3.82 c 0,-0.09 -0.09,0 0,0 z"
         id="path8013"
         style="stroke:#000000;stroke-width:0.18000001" />
      <path
         inkscape:connector-curvature="0"
         d="m 1407.544,298.58 h 3.91 c 0.09,0 0,-0.09 0,0 v 3.82 c 0,0.09 0.09,0 0,0 h -7.82 c -0.09,0 0,0.09 0,0 v -3.82 c 0,-0.09 -0.09,0 0,0 z"
         id="path8015"
         style="stroke:#000000;stroke-width:0.18000001" />
      <path
         inkscape:connector-curvature="0"
         d="m 1391.544,298.58 h 3.91 c 0.09,0 0,-0.09 0,0 v 3.82 c 0,0.09 0.09,0 0,0 h -7.82 c -0.09,0 0,0.09 0,0 v -3.82 c 0,-0.09 -0.09,0 0,0 z"
         id="path8017"
         style="stroke:#000000;stroke-width:0.18000001" />
      <path
         inkscape:connector-curvature="0"
         d="m 1375.544,298.58 h 3.91 c 0.09,0 0,-0.09 0,0 v 3.82 c 0,0.09 0.09,0 0,0 h -7.82 c -0.09,0 0,0.09 0,0 v -3.82 c 0,-0.09 -0.09,0 0,0 z"
         id="path8019"
         style="stroke:#000000;stroke-width:0.18000001" />
      <path
         inkscape:connector-curvature="0"
         d="m 1359.544,298.58 h 3.91 c 0.09,0 0,-0.09 0,0 v 3.82 c 0,0.09 0.09,0 0,0 h -7.82 c -0.09,0 0,0.09 0,0 v -3.82 c 0,-0.09 -0.09,0 0,0 z"
         id="path8021"
         style="stroke:#000000;stroke-width:0.18000001" />
      <path
         inkscape:connector-curvature="0"
         d="m 1343.544,298.58 h 3.91 c 0.09,0 0,-0.09 0,0 v 3.82 c 0,0.09 0.09,0 0,0 h -7.82 c -0.09,0 0,0.09 0,0 v -3.82 c 0,-0.09 -0.09,0 0,0 z"
         id="path8023"
         style="stroke:#000000;stroke-width:0.18000001" />
      <path
         inkscape:connector-curvature="0"
         d="m 1327.544,298.58 h 3.91 c 0.09,0 0,-0.09 0,0 v 3.82 c 0,0.09 0.09,0 0,0 h -7.82 c -0.09,0 0,0.09 0,0 v -3.82 c 0,-0.09 -0.09,0 0,0 z"
         id="path8025"
         style="stroke:#000000;stroke-width:0.18000001" />
      <path
         inkscape:connector-curvature="0"
         d="m 1311.544,298.58 h 3.91 c 0.09,0 0,-0.09 0,0 v 3.82 c 0,0.09 0.09,0 0,0 h -7.82 c -0.09,0 0,0.09 0,0 v -3.82 c 0,-0.09 -0.09,0 0,0 z"
         id="path8027"
         style="stroke:#000000;stroke-width:0.18000001" />
      <path
         inkscape:connector-curvature="0"
         d="m 1295.544,298.58 h 3.91 c 0.09,0 0,-0.09 0,0 v 3.82 c 0,0.09 0.09,0 0,0 h -7.82 c -0.09,0 0,0.09 0,0 v -3.82 c 0,-0.09 -0.09,0 0,0 z"
         id="path8029"
         style="stroke:#000000;stroke-width:0.18000001" />
      <path
         inkscape:connector-curvature="0"
         d="m 1279.544,298.58 h 3.91 c 0.09,0 0,-0.09 0,0 v 3.82 c 0,0.09 0.09,0 0,0 h -7.82 c -0.09,0 0,0.09 0,0 v -3.82 c 0,-0.09 -0.09,0 0,0 z"
         id="path8031"
         style="stroke:#000000;stroke-width:0.18000001" />
      <path
         inkscape:connector-curvature="0"
         d="m 1260.244,110.49 h 5.91 c 0.09,0 0,-0.09 0,0 v 3.82 c 0,0.09 0.09,0 0,0 h -3.71 c -0.049,0 -0.09,0.04 -0.09,0.09 v 8 c 0,0.05 0.041,0.09 0.09,0.09 h 3.71 c 0.09,0 0,-0.09 0,0 v 3.82 c 0,0.09 0.09,0 0,0 h -11.82 c -0.09,0 0,0.09 0,0 v -3.82 c 0,-0.09 -0.09,0 0,0 h 3.71 c 0.05,0 0.09,-0.04 0.09,-0.09 v -8 c 0,-0.05 -0.04,-0.09 -0.09,-0.09 h -3.71 c -0.09,0 0,0.09 0,0 v -3.82 c 0,-0.09 -0.09,0 0,0 z"
         id="path8033"
         style="stroke:#000000;stroke-width:0.18000001" />
      <path
         inkscape:connector-curvature="0"
         d="m 1279.744,106.4 h -3.91 c -0.09,0 0,0.09 0,0 v -3.82 c 0,-0.09 -0.09,0 0,0 h 7.82 c 0.09,0 0,-0.09 0,0 v 3.82 c 0,0.09 0.09,0 0,0 z"
         id="path8035"
         style="stroke:#000000;stroke-width:0.18000001" />
      <path
         inkscape:connector-curvature="0"
         d="m 1295.744,106.4 h -3.91 c -0.09,0 0,0.09 0,0 v -3.82 c 0,-0.09 -0.09,0 0,0 h 7.82 c 0.09,0 0,-0.09 0,0 v 3.82 c 0,0.09 0.09,0 0,0 z"
         id="path8037"
         style="stroke:#000000;stroke-width:0.18000001" />
      <path
         inkscape:connector-curvature="0"
         d="m 1311.744,106.4 h -3.91 c -0.09,0 0,0.09 0,0 v -3.82 c 0,-0.09 -0.09,0 0,0 h 7.82 c 0.09,0 0,-0.09 0,0 v 3.82 c 0,0.09 0.09,0 0,0 z"
         id="path8039"
         style="stroke:#000000;stroke-width:0.18000001" />
      <path
         inkscape:connector-curvature="0"
         d="m 1327.744,106.4 h -3.91 c -0.09,0 0,0.09 0,0 v -3.82 c 0,-0.09 -0.09,0 0,0 h 7.82 c 0.09,0 0,-0.09 0,0 v 3.82 c 0,0.09 0.09,0 0,0 z"
         id="path8041"
         style="stroke:#000000;stroke-width:0.18000001" />
      <path
         inkscape:connector-curvature="0"
         d="m 1343.744,106.4 h -3.91 c -0.09,0 0,0.09 0,0 v -3.82 c 0,-0.09 -0.09,0 0,0 h 7.82 c 0.09,0 0,-0.09 0,0 v 3.82 c 0,0.09 0.09,0 0,0 z"
         id="path8043"
         style="stroke:#000000;stroke-width:0.18000001" />
      <path
         inkscape:connector-curvature="0"
         d="m 1359.744,106.4 h -3.91 c -0.09,0 0,0.09 0,0 v -3.82 c 0,-0.09 -0.09,0 0,0 h 7.82 c 0.09,0 0,-0.09 0,0 v 3.82 c 0,0.09 0.09,0 0,0 z"
         id="path8045"
         style="stroke:#000000;stroke-width:0.18000001" />
      <path
         inkscape:connector-curvature="0"
         d="m 1375.744,106.4 h -3.91 c -0.09,0 0,0.09 0,0 v -3.82 c 0,-0.09 -0.09,0 0,0 h 7.82 c 0.09,0 0,-0.09 0,0 v 3.82 c 0,0.09 0.09,0 0,0 z"
         id="path8047"
         style="stroke:#000000;stroke-width:0.18000001" />
      <path
         inkscape:connector-curvature="0"
         d="m 1391.744,106.4 h -3.91 c -0.09,0 0,0.09 0,0 v -3.82 c 0,-0.09 -0.09,0 0,0 h 7.82 c 0.09,0 0,-0.09 0,0 v 3.82 c 0,0.09 0.09,0 0,0 z"
         id="path8049"
         style="stroke:#000000;stroke-width:0.18000001" />
      <path
         inkscape:connector-curvature="0"
         d="m 1407.744,106.4 h -3.91 c -0.09,0 0,0.09 0,0 v -3.82 c 0,-0.09 -0.09,0 0,0 h 7.82 c 0.09,0 0,-0.09 0,0 v 3.82 c 0,0.09 0.09,0 0,0 z"
         id="path8051"
         style="stroke:#000000;stroke-width:0.18000001" />
      <path
         inkscape:connector-curvature="0"
         d="m 1423.744,106.4 h -3.91 c -0.09,0 0,0.09 0,0 v -3.82 c 0,-0.09 -0.09,0 0,0 h 7.82 c 0.09,0 0,-0.09 0,0 v 3.82 c 0,0.09 0.09,0 0,0 z"
         id="path8053"
         style="stroke:#000000;stroke-width:0.18000001" />
      <path
         inkscape:connector-curvature="0"
         d="m 1439.744,106.4 h -3.91 c -0.09,0 0,0.09 0,0 v -3.82 c 0,-0.09 -0.09,0 0,0 h 7.82 c 0.09,0 0,-0.09 0,0 v 3.82 c 0,0.09 0.09,0 0,0 z"
         id="path8055"
         style="stroke:#000000;stroke-width:0.18000001" />
      <path
         inkscape:connector-curvature="0"
         d="m 1455.744,106.4 h -3.91 c -0.09,0 0,0.09 0,0 v -3.82 c 0,-0.09 -0.09,0 0,0 h 7.82 c 0.09,0 0,-0.09 0,0 v 3.82 c 0,0.09 0.09,0 0,0 z"
         id="path8057"
         style="stroke:#000000;stroke-width:0.18000001" />
      <path
         inkscape:connector-curvature="0"
         d="m 1471.744,106.4 h -3.91 c -0.09,0 0,0.09 0,0 v -3.82 c 0,-0.09 -0.09,0 0,0 h 7.82 c 0.09,0 0,-0.09 0,0 v 3.82 c 0,0.09 0.09,0 0,0 z"
         id="path8059"
         style="stroke:#000000;stroke-width:0.18000001" />
      <path
         inkscape:connector-curvature="0"
         d="m 1487.744,106.4 h -3.91 c -0.09,0 0,0.09 0,0 v -3.82 c 0,-0.09 -0.09,0 0,0 h 7.82 c 0.09,0 0,-0.09 0,0 v 3.82 c 0,0.09 0.09,0 0,0 z"
         id="path8061"
         style="stroke:#000000;stroke-width:0.18000001" />
      <path
         inkscape:connector-curvature="0"
         d="m 1503.744,106.4 h -3.91 c -0.09,0 0,0.09 0,0 v -3.82 c 0,-0.09 -0.09,0 0,0 h 7.82 c 0.09,0 0,-0.09 0,0 v 3.82 c 0,0.09 0.09,0 0,0 z"
         id="path8063"
         style="stroke:#000000;stroke-width:0.18000001" />
    </g>
    <g
       transform="rotate(-90,539.75816,415.17929)"
       id="g8943"
       style="stroke:#000000">
      <path
         d="m 952.916,306.58 h 4.831 c 0.049,0 0.09,-0.04 0.09,-0.09 v -3.91 c 0,-0.09 -0.09,0 0,0 h 7.82 c 0.09,0 0,-0.09 0,0 v 3.91 c 0,0.05 0.04,0.09 0.09,0.09 h 8 c 0.049,0 0.09,-0.04 0.09,-0.09 v -3.91 c 0,-0.09 -0.09,0 0,0 h 7.82 c 0.09,0 0,-0.09 0,0 v 3.91 c 0,0.05 0.04,0.09 0.09,0.09 h 8 c 0.049,0 0.09,-0.04 0.09,-0.09 v -3.91 c 0,-0.09 -0.09,0 0,0 h 7.82 c 0.09,0 0,-0.09 0,0 v 3.91 c 0,0.05 0.04,0.09 0.09,0.09 h 8 c 0.049,0 0.09,-0.04 0.09,-0.09 v -3.91 c 0,-0.09 -0.09,0 0,0 h 7.82 c 0.09,0 0,-0.09 0,0 v 3.91 c 0,0.05 0.04,0.09 0.09,0.09 h 8 c 0.049,0 0.09,-0.04 0.09,-0.09 v -3.91 c 0,-0.09 -0.09,0 0,0 h 7.82 c 0.09,0 0,-0.09 0,0 v 3.91 c 0,0.05 0.04,0.09 0.09,0.09 h 8 c 0.049,0 0.09,-0.04 0.09,-0.09 v -3.91 c 0,-0.09 -0.09,0 0,0 h 7.82 c 0.09,0 0,-0.09 0,0 v 3.91 c 0,0.05 0.04,0.09 0.09,0.09 h 4.831 4 c 0.049,0 0.09,-0.04 0.09,-0.09 v -4 -200 -4 c 0,-0.05 -0.041,-0.09 -0.09,-0.09 h -4 -4.831 c -0.05,0 -0.09,0.04 -0.09,0.09 v 3.91 c 0,0.09 0.09,0 0,0 h -7.82 c -0.09,0 0,0.09 0,0 v -3.91 c 0,-0.05 -0.041,-0.09 -0.09,-0.09 h -8 c -0.05,0 -0.09,0.04 -0.09,0.09 v 3.91 c 0,0.09 0.09,0 0,0 h -7.82 c -0.09,0 0,0.09 0,0 v -3.91 c 0,-0.05 -0.041,-0.09 -0.09,-0.09 h -8 c -0.05,0 -0.09,0.04 -0.09,0.09 v 3.91 c 0,0.09 0.09,0 0,0 h -7.82 c -0.09,0 0,0.09 0,0 v -3.91 c 0,-0.05 -0.041,-0.09 -0.09,-0.09 h -8 c -0.05,0 -0.09,0.04 -0.09,0.09 v 3.91 c 0,0.09 0.09,0 0,0 h -7.82 c -0.09,0 0,0.09 0,0 v -3.91 c 0,-0.05 -0.041,-0.09 -0.09,-0.09 h -8 c -0.05,0 -0.09,0.04 -0.09,0.09 v 3.91 c 0,0.09 0.09,0 0,0 h -7.82 c -0.09,0 0,0.09 0,0 v -3.91 c 0,-0.05 -0.041,-0.09 -0.09,-0.09 h -8 c -0.05,0 -0.09,0.04 -0.09,0.09 v 3.91 c 0,0.09 0.09,0 0,0 h -7.82 c -0.09,0 0,0.09 0,0 v -3.91 c 0,-0.05 -0.041,-0.09 -0.09,-0.09 h -4.831 -4 c -0.05,0 -0.09,0.04 -0.09,0.09 v 4 200 4 c 0,0.05 0.04,0.09 0.09,0.09 z"
         id="path7993"
         inkscape:connector-curvature="0"
         style="fill:none;stroke:#000000;stroke-width:0.18000001;stroke-linecap:round;stroke-linejoin:round" />
      <path
         inkscape:connector-curvature="0"
         id="path1739-7-3"
         d="m 995.82898,264.46337 a 5.9180577,5.9180618 0 0 1 5.91802,-5.91806 5.9180577,5.9180618 0 0 1 5.918,5.91806 5.9180577,5.9180618 0 0 1 -5.918,5.91805 5.9180577,5.9180618 0 0 1 -5.91802,-5.91805 z"
         style="opacity:1;fill:none;fill-opacity:1;stroke:#000000;stroke-width:0.16388476;stroke-linecap:round;stroke-miterlimit:4;stroke-dasharray:none;stroke-dashoffset:0;stroke-opacity:1" />
      <rect
         transform="rotate(90)"
         y="-1034.7469"
         x="146.1469"
         height="66"
         width="87"
         id="rect7850"
         style="opacity:1;fill:none;fill-opacity:1;stroke:#000000;stroke-width:0.18000001;stroke-linecap:round;stroke-miterlimit:4;stroke-dasharray:none;stroke-dashoffset:0;stroke-opacity:1" />
    </g>
  </g>
</svg>
