<?xml version="1.0" encoding="UTF-8" standalone="no"?>
<!-- Created with Inkscape (http://www.inkscape.org/) -->

<svg
   xmlns:dc="http://purl.org/dc/elements/1.1/"
   xmlns:cc="http://creativecommons.org/ns#"
   xmlns:rdf="http://www.w3.org/1999/02/22-rdf-syntax-ns#"
   xmlns:svg="http://www.w3.org/2000/svg"
   xmlns="http://www.w3.org/2000/svg"
   xmlns:sodipodi="http://sodipodi.sourceforge.net/DTD/sodipodi-0.dtd"
   xmlns:inkscape="http://www.inkscape.org/namespaces/inkscape"
   width="594mm"
   height="420mm"
   viewBox="0 0 594 420"
   version="1.1"
   id="svg1565"
   inkscape:version="0.92.4 (5da689c313, 2019-01-14)"
   sodipodi:docname="design_1.6_file1.svg">
  <defs
     id="defs1559" />
  <sodipodi:namedview
     id="base"
     pagecolor="#ffffff"
     bordercolor="#666666"
     borderopacity="1.0"
     inkscape:pageopacity="0.0"
     inkscape:pageshadow="2"
     inkscape:zoom="0.33705172"
     inkscape:cx="1186.2348"
     inkscape:cy="855.59728"
     inkscape:document-units="mm"
     inkscape:current-layer="layer1"
     showgrid="false"
     inkscape:window-width="1920"
     inkscape:window-height="1016"
     inkscape:window-x="0"
     inkscape:window-y="27"
     inkscape:window-maximized="1" />
  <metadata
     id="metadata1562">
    <rdf:RDF>
      <cc:Work
         rdf:about="">
        <dc:format>image/svg+xml</dc:format>
        <dc:type
           rdf:resource="http://purl.org/dc/dcmitype/StillImage" />
        <dc:title />
      </cc:Work>
    </rdf:RDF>
  </metadata>
  <g
     inkscape:label="Layer 1"
     inkscape:groupmode="layer"
     id="layer1"
     transform="translate(0,123)">
    <g
       transform="translate(-1428.0014,-331.11282)"
       id="p-15"
       style="fill:none;stroke-linecap:round;stroke-linejoin:round;stroke:#000000">
      <path
         style="stroke:#000000;stroke-width:0.18000001"
         inkscape:connector-curvature="0"
         d="m 1640.181,300.04 h 3.8 c 0.05,0 0.09,-0.04 0.09,-0.09 v -10.11 c 0,-0.09 -0.09,0 0,0 h 4.22 c 0.09,0 0,-0.09 0,0 v 10.11 c 0,0.05 0.041,0.09 0.09,0.09 h 3.8 c 0.05,0 0.09,-0.04 0.09,-0.09 v -3.91 c 0,-0.09 -0.09,0 0,0 h 1.91 c 0.05,0 0.09,-0.04 0.09,-0.09 v -8 c 0,-0.024 -0.01,-0.047 -0.026,-0.064 l -4,-4 c -0.017,-0.017 -0.04,-0.026 -0.064,-0.026 h -8 c -0.023,0 -0.046,0.009 -0.063,0.026 l -4,4 c -0.017,0.017 -0.027,0.04 -0.027,0.064 v 8 c 0,0.05 0.041,0.09 0.09,0.09 h 1.91 c 0.09,0 0,-0.09 0,0 v 3.91 c 0,0.05 0.041,0.09 0.09,0.09 z"
         id="path2660" />
    </g>
    <g
       transform="translate(-1428.0014,-331.11282)"
       id="p-16"
       style="fill:none;stroke-linecap:round;stroke-linejoin:round;stroke:#000000">
      <path
         style="stroke:#000000;stroke-width:0.18000001"
         inkscape:connector-curvature="0"
         d="m 1658.361,300.04 h 3.8 c 0.05,0 0.09,-0.04 0.09,-0.09 v -10.11 c 0,-0.09 -0.09,0 0,0 h 4.22 c 0.09,0 0,-0.09 0,0 v 10.11 c 0,0.05 0.041,0.09 0.09,0.09 h 3.8 c 0.05,0 0.09,-0.04 0.09,-0.09 v -3.91 c 0,-0.09 -0.09,0 0,0 h 1.91 c 0.05,0 0.09,-0.04 0.09,-0.09 v -8 c 0,-0.024 -0.01,-0.047 -0.026,-0.064 l -4,-4 c -0.017,-0.017 -0.04,-0.026 -0.064,-0.026 h -8 c -0.023,0 -0.046,0.009 -0.063,0.026 l -4,4 c -0.017,0.017 -0.027,0.04 -0.027,0.064 v 8 c 0,0.05 0.041,0.09 0.09,0.09 h 1.91 c 0.09,0 0,-0.09 0,0 v 3.91 c 0,0.05 0.041,0.09 0.09,0.09 z"
         id="path2663" />
    </g>
    <g
       transform="translate(-1389.5368,-331.11282)"
       id="p-15-1"
       style="fill:none;stroke-linecap:round;stroke-linejoin:round;stroke:#000000">
      <path
         style="stroke:#000000;stroke-width:0.18000001"
         inkscape:connector-curvature="0"
         d="m 1640.181,300.04 h 3.8 c 0.05,0 0.09,-0.04 0.09,-0.09 v -10.11 c 0,-0.09 -0.09,0 0,0 h 4.22 c 0.09,0 0,-0.09 0,0 v 10.11 c 0,0.05 0.041,0.09 0.09,0.09 h 3.8 c 0.05,0 0.09,-0.04 0.09,-0.09 v -3.91 c 0,-0.09 -0.09,0 0,0 h 1.91 c 0.05,0 0.09,-0.04 0.09,-0.09 v -8 c 0,-0.024 -0.01,-0.047 -0.026,-0.064 l -4,-4 c -0.017,-0.017 -0.04,-0.026 -0.064,-0.026 h -8 c -0.023,0 -0.046,0.009 -0.063,0.026 l -4,4 c -0.017,0.017 -0.027,0.04 -0.027,0.064 v 8 c 0,0.05 0.041,0.09 0.09,0.09 h 1.91 c 0.09,0 0,-0.09 0,0 v 3.91 c 0,0.05 0.041,0.09 0.09,0.09 z"
         id="path2660-1" />
    </g>
    <g
       transform="translate(-1389.5368,-331.11282)"
       id="p-16-5"
       style="fill:none;stroke-linecap:round;stroke-linejoin:round;stroke:#000000">
      <path
         style="stroke:#000000;stroke-width:0.18000001"
         inkscape:connector-curvature="0"
         d="m 1658.361,300.04 h 3.8 c 0.05,0 0.09,-0.04 0.09,-0.09 v -10.11 c 0,-0.09 -0.09,0 0,0 h 4.22 c 0.09,0 0,-0.09 0,0 v 10.11 c 0,0.05 0.041,0.09 0.09,0.09 h 3.8 c 0.05,0 0.09,-0.04 0.09,-0.09 v -3.91 c 0,-0.09 -0.09,0 0,0 h 1.91 c 0.05,0 0.09,-0.04 0.09,-0.09 v -8 c 0,-0.024 -0.01,-0.047 -0.026,-0.064 l -4,-4 c -0.017,-0.017 -0.04,-0.026 -0.064,-0.026 h -8 c -0.023,0 -0.046,0.009 -0.063,0.026 l -4,4 c -0.017,0.017 -0.027,0.04 -0.027,0.064 v 8 c 0,0.05 0.041,0.09 0.09,0.09 h 1.91 c 0.09,0 0,-0.09 0,0 v 3.91 c 0,0.05 0.041,0.09 0.09,0.09 z"
         id="path2663-9" />
    </g>
    <g
       transform="translate(-4.0756186,-64.79911)"
       id="p-0"
       style="fill:none;stroke-linecap:round;stroke-linejoin:round;stroke:#000000">
      <path
         style="stroke:#000000;stroke-width:0.18000001"
         inkscape:connector-curvature="0"
         d="m 10.09,358.76 h 100 v -10 h -100 z"
         id="path2433" />
      <text
         alignment-baseline="hanging"
         font-size="10px"
         style="font-style:normal;font-weight:normal;font-size:10px;font-family:sans-serif;text-anchor:middle;fill:#000000;stroke:#000000"
         transform="translate(60.09,348.76)"
         id="text2435">100mm</text>
    </g>
    <g
       transform="translate(-4.0756186,-64.79911)"
       id="p-1"
       style="fill:none;stroke-linecap:round;stroke-linejoin:round;stroke:#000000">
      <path
         style="stroke:#000000;stroke-width:0.18000001"
         inkscape:connector-curvature="0"
         d="m 27.59,338.09 h -3.91 c -0.09,0 0,0.09 0,0 v -3.82 c 0,-0.09 -0.09,0 0,0 h 7.82 c 0.09,0 0,-0.09 0,0 v 3.82 c 0,0.09 0.09,0 0,0 z"
         id="path2438" />
      <path
         style="stroke:#000000;stroke-width:0.18000001"
         inkscape:connector-curvature="0"
         d="m 43.59,338.09 h -3.91 c -0.09,0 0,0.09 0,0 v -3.82 c 0,-0.09 -0.09,0 0,0 h 7.82 c 0.09,0 0,-0.09 0,0 v 3.82 c 0,0.09 0.09,0 0,0 z"
         id="path2440" />
      <path
         style="stroke:#000000;stroke-width:0.18000001"
         inkscape:connector-curvature="0"
         d="m 59.59,338.09 h -3.91 c -0.09,0 0,0.09 0,0 v -3.82 c 0,-0.09 -0.09,0 0,0 h 7.82 c 0.09,0 0,-0.09 0,0 v 3.82 c 0,0.09 0.09,0 0,0 z"
         id="path2442" />
      <path
         style="stroke:#000000;stroke-width:0.18000001"
         inkscape:connector-curvature="0"
         d="m 75.59,338.09 h -3.91 c -0.09,0 0,0.09 0,0 v -3.82 c 0,-0.09 -0.09,0 0,0 h 7.82 c 0.09,0 0,-0.09 0,0 v 3.82 c 0,0.09 0.09,0 0,0 z"
         id="path2444" />
      <path
         style="stroke:#000000;stroke-width:0.18000001"
         inkscape:connector-curvature="0"
         d="m 91.59,338.09 h -3.91 c -0.09,0 0,0.09 0,0 v -3.82 c 0,-0.09 -0.09,0 0,0 h 7.82 c 0.09,0 0,-0.09 0,0 v 3.82 c 0,0.09 0.09,0 0,0 z"
         id="path2446" />
      <path
         style="stroke:#000000;stroke-width:0.18000001"
         inkscape:connector-curvature="0"
         d="m 107.59,338.09 h -3.91 c -0.09,0 0,0.09 0,0 v -3.82 c 0,-0.09 -0.09,0 0,0 h 7.82 c 0.09,0 0,-0.09 0,0 v 3.82 c 0,0.09 0.09,0 0,0 z"
         id="path2448" />
      <path
         style="stroke:#000000;stroke-width:0.18000001"
         inkscape:connector-curvature="0"
         d="m 123.59,338.09 h -3.91 c -0.09,0 0,0.09 0,0 v -3.82 c 0,-0.09 -0.09,0 0,0 h 7.82 c 0.09,0 0,-0.09 0,0 v 3.82 c 0,0.09 0.09,0 0,0 z"
         id="path2450" />
      <path
         style="stroke:#000000;stroke-width:0.18000001"
         inkscape:connector-curvature="0"
         d="m 139.59,338.09 h -3.91 c -0.09,0 0,0.09 0,0 v -3.82 c 0,-0.09 -0.09,0 0,0 h 7.82 c 0.09,0 0,-0.09 0,0 v 3.82 c 0,0.09 0.09,0 0,0 z"
         id="path2452" />
      <path
         style="stroke:#000000;stroke-width:0.18000001"
         inkscape:connector-curvature="0"
         d="m 155.59,338.09 h -3.91 c -0.09,0 0,0.09 0,0 v -3.82 c 0,-0.09 -0.09,0 0,0 h 7.82 c 0.09,0 0,-0.09 0,0 v 3.82 c 0,0.09 0.09,0 0,0 z"
         id="path2454" />
      <path
         style="stroke:#000000;stroke-width:0.18000001"
         inkscape:connector-curvature="0"
         d="m 171.59,338.09 h -3.91 c -0.09,0 0,0.09 0,0 v -3.82 c 0,-0.09 -0.09,0 0,0 h 7.82 c 0.09,0 0,-0.09 0,0 v 3.82 c 0,0.09 0.09,0 0,0 z"
         id="path2456" />
      <path
         style="stroke:#000000;stroke-width:0.18000001"
         inkscape:connector-curvature="0"
         d="m 187.59,338.09 h -3.91 c -0.09,0 0,0.09 0,0 v -3.82 c 0,-0.09 -0.09,0 0,0 h 7.82 c 0.09,0 0,-0.09 0,0 v 3.82 c 0,0.09 0.09,0 0,0 z"
         id="path2458" />
      <path
         style="stroke:#000000;stroke-width:0.18000001"
         inkscape:connector-curvature="0"
         d="m 203.59,338.09 h -3.91 c -0.09,0 0,0.09 0,0 v -3.82 c 0,-0.09 -0.09,0 0,0 h 7.82 c 0.09,0 0,-0.09 0,0 v 3.82 c 0,0.09 0.09,0 0,0 z"
         id="path2460" />
      <path
         style="stroke:#000000;stroke-width:0.18000001"
         inkscape:connector-curvature="0"
         d="m 219.59,338.09 h -3.91 c -0.09,0 0,0.09 0,0 v -3.82 c 0,-0.09 -0.09,0 0,0 h 7.82 c 0.09,0 0,-0.09 0,0 v 3.82 c 0,0.09 0.09,0 0,0 z"
         id="path2462" />
      <path
         style="stroke:#000000;stroke-width:0.18000001"
         inkscape:connector-curvature="0"
         d="m 235.59,338.09 h -3.91 c -0.09,0 0,0.09 0,0 v -3.82 c 0,-0.09 -0.09,0 0,0 h 7.82 c 0.09,0 0,-0.09 0,0 v 3.82 c 0,0.09 0.09,0 0,0 z"
         id="path2464" />
      <path
         style="stroke:#000000;stroke-width:0.18000001"
         inkscape:connector-curvature="0"
         d="m 14.09,346.58 h 8 c 0.788,0 1.562,-0.207 2.245,-0.602 0.683,-0.394 1.249,-0.96 1.643,-1.643 0.379,-0.655 0.923,-1.199 1.578,-1.578 0.655,-0.378 1.398,-0.577 2.155,-0.577 h 203.758 c 0.757,0 1.5,0.199 2.155,0.577 0.655,0.379 1.199,0.923 1.578,1.578 0.394,0.683 0.96,1.249 1.643,1.643 0.683,0.395 1.457,0.602 2.245,0.602 h 8 c 0.05,0 0.09,-0.04 0.09,-0.09 v -1.963 c 0,-0.09 -0.09,0 0,0 h 3.91 c 0.05,0 0.09,-0.04 0.09,-0.09 v -8 c 0,-0.05 -0.04,-0.09 -0.09,-0.09 h -3.91 c -0.09,0 0,0.09 0,0 v -7.82 c 0,-0.09 -0.09,0 0,0 h 3.91 c 0.05,0 0.09,-0.04 0.09,-0.09 v -8 c 0,-0.05 -0.04,-0.09 -0.09,-0.09 h -3.91 c -0.09,0 0,0.09 0,0 v -7.82 c 0,-0.09 -0.09,0 0,0 h 3.91 c 0.05,0 0.09,-0.04 0.09,-0.09 v -8 c 0,-0.05 -0.04,-0.09 -0.09,-0.09 h -3.91 c -0.09,0 0,0.09 0,0 v -7.82 c 0,-0.09 -0.09,0 0,0 h 3.91 c 0.05,0 0.09,-0.04 0.09,-0.09 v -8 c 0,-0.05 -0.04,-0.09 -0.09,-0.09 h -3.91 c -0.09,0 0,0.09 0,0 v -7.82 c 0,-0.09 -0.09,0 0,0 h 3.91 c 0.05,0 0.09,-0.04 0.09,-0.09 v -8 c 0,-0.05 -0.04,-0.09 -0.09,-0.09 h -3.91 c -0.09,0 0,0.09 0,0 v -7.82 c 0,-0.09 -0.09,0 0,0 h 3.91 c 0.05,0 0.09,-0.04 0.09,-0.09 v -8 c 0,-0.05 -0.04,-0.09 -0.09,-0.09 h -3.91 c -0.09,0 0,0.09 0,0 v -7.82 c 0,-0.09 -0.09,0 0,0 h 3.91 c 0.05,0 0.09,-0.04 0.09,-0.09 v -8 c 0,-0.05 -0.04,-0.09 -0.09,-0.09 h -3.91 c -0.09,0 0,0.09 0,0 v -7.82 c 0,-0.09 -0.09,0 0,0 h 3.91 c 0.05,0 0.09,-0.04 0.09,-0.09 v -8 c 0,-0.05 -0.04,-0.09 -0.09,-0.09 h -3.91 c -0.09,0 0,0.09 0,0 v -7.82 c 0,-0.09 -0.09,0 0,0 h 3.91 c 0.05,0 0.09,-0.04 0.09,-0.09 v -8 c 0,-0.05 -0.04,-0.09 -0.09,-0.09 h -3.91 c -0.09,0 0,0.09 0,0 v -7.82 c 0,-0.09 -0.09,0 0,0 h 3.91 c 0.05,0 0.09,-0.04 0.09,-0.09 v -8 c 0,-0.05 -0.04,-0.09 -0.09,-0.09 h -3.91 c -0.09,0 0,0.09 0,0 v -7.82 c 0,-0.09 -0.09,0 0,0 h 3.91 c 0.05,0 0.09,-0.04 0.09,-0.09 v -8 c 0,-0.05 -0.04,-0.09 -0.09,-0.09 h -3.91 c -0.09,0 0,0.09 0,0 v -7.82 c 0,-0.09 -0.09,0 0,0 h 3.91 c 0.05,0 0.09,-0.04 0.09,-0.09 v -8 c 0,-0.05 -0.04,-0.09 -0.09,-0.09 h -3.91 c -0.09,0 0,0.09 0,0 v -7.82 c 0,-0.09 -0.09,0 0,0 h 3.91 c 0.05,0 0.09,-0.04 0.09,-0.09 v -8 c 0,-0.05 -0.04,-0.09 -0.09,-0.09 h -3.91 c -0.09,0 0,0.09 0,0 v -7.82 c 0,-0.09 -0.09,0 0,0 h 3.91 c 0.05,0 0.09,-0.04 0.09,-0.09 v -8 c 0,-0.05 -0.04,-0.09 -0.09,-0.09 h -3.91 c -0.09,0 0,0.09 0,0 v -1.963 -2.294 c 0,-0.018 -0.006,-0.036 -0.016,-0.052 l -4.045,-5.777 c -0.052,-0.073 -0.074,0.052 0,0 l 3.202,-2.242 c 0.041,-0.029 0.051,-0.085 0.023,-0.126 l -4.589,-6.553 c -0.029,-0.041 -0.085,-0.051 -0.125,-0.022 l -3.203,2.243 c -0.074,0.051 0.051,0.073 0,0 l -4.486,-6.406 c -0.051,-0.074 -0.073,0.051 0,0 l 3.203,-2.243 c 0.041,-0.028 0.051,-0.085 0.022,-0.125 l -4.588,-6.553 c -0.029,-0.041 -0.085,-0.051 -0.126,-0.023 l -3.203,2.243 c -0.073,0.052 0.052,0.074 0,0 l -4.485,-6.406 c -0.052,-0.073 -0.074,0.052 0,0 l 3.203,-2.242 c 0.041,-0.029 0.051,-0.085 0.022,-0.126 L 225.4,83.127 c -0.028,-0.041 -0.084,-0.05 -0.125,-0.022 l -3.203,2.243 c -0.074,0.051 0.052,0.073 0,0 l -4.485,-6.406 c -0.052,-0.074 -0.074,0.052 0,0 l 3.203,-2.243 c 0.04,-0.028 0.05,-0.084 0.022,-0.125 l -4.589,-6.553 c -0.028,-0.041 -0.084,-0.051 -0.125,-0.022 l -3.203,2.242 c -0.074,0.052 0.052,0.074 0,0 l -4.485,-6.406 c -0.052,-0.073 -0.074,0.052 0,0 l 3.203,-2.242 c 0.04,-0.029 0.05,-0.085 0.022,-0.126 l -4.589,-6.553 c -0.029,-0.04 -0.085,-0.05 -0.125,-0.022 l -3.203,2.243 c -0.074,0.051 0.051,0.074 0,0 l -4.486,-6.406 c -0.051,-0.074 -0.073,0.052 0,0 l 3.203,-2.243 c 0.041,-0.028 0.051,-0.084 0.022,-0.125 l -4.588,-6.553 c -0.029,-0.041 -0.085,-0.051 -0.126,-0.022 l -3.202,2.242 c -0.074,0.052 0.051,0.074 0,0 l -4.486,-6.405 c -0.051,-0.074 -0.074,0.051 0,0 l 3.203,-2.243 c 0.041,-0.029 0.051,-0.085 0.022,-0.125 l -4.588,-6.554 c -0.029,-0.04 -0.085,-0.05 -0.126,-0.022 l -3.203,2.243 c -0.073,0.052 0.052,0.074 0,0 l -4.485,-6.406 c -0.052,-0.074 -0.074,0.052 0,0 l 3.203,-2.242 c 0.041,-0.029 0.05,-0.085 0.022,-0.126 l -4.589,-6.553 c -0.028,-0.041 -0.084,-0.051 -0.125,-0.022 l -3.203,2.243 c -0.074,0.051 0.052,0.073 0,0 l -4.045,-5.778 C 172.124,14.014 172.097,14 172.067,14 h -3.276 -9.261 c -0.09,0 0,0.09 0,0 v -3.91 c 0,-0.05 -0.04,-0.09 -0.09,-0.09 h -8 c -0.049,0 -0.09,0.04 -0.09,0.09 V 14 c 0,0.09 0.09,0 0,0 h -7.82 c -0.09,0 0,0.09 0,0 v -3.91 c 0,-0.05 -0.04,-0.09 -0.09,-0.09 h -8 c -0.049,0 -0.09,0.04 -0.09,0.09 V 14 c 0,0.09 0.09,0 0,0 h -7.82 c -0.09,0 0,0.09 0,0 v -3.91 c 0,-0.05 -0.04,-0.09 -0.09,-0.09 h -8 c -0.049,0 -0.09,0.04 -0.09,0.09 V 14 c 0,0.09 0.09,0 0,0 h -7.82 c -0.09,0 0,0.09 0,0 v -3.91 c 0,-0.05 -0.04,-0.09 -0.09,-0.09 h -8 c -0.049,0 -0.09,0.04 -0.09,0.09 V 14 c 0,0.09 0.09,0 0,0 h -7.82 c -0.09,0 0,0.09 0,0 V 10.09 C 95.53,10.04 95.49,10 95.44,10 h -8 c -0.049,0 -0.09,0.04 -0.09,0.09 V 14 c 0,0.09 0.09,0 0,0 h -7.82 c -0.09,0 0,0.09 0,0 V 10.09 C 79.53,10.04 79.49,10 79.44,10 h -8 c -0.049,0 -0.09,0.04 -0.09,0.09 V 14 c 0,0.09 0.09,0 0,0 h -7.82 c -0.09,0 0,0.09 0,0 V 10.09 C 63.53,10.04 63.49,10 63.44,10 h -8 c -0.049,0 -0.09,0.04 -0.09,0.09 V 14 c 0,0.09 0.09,0 0,0 h -7.82 c -0.09,0 0,0.09 0,0 V 10.09 C 47.53,10.04 47.49,10 47.44,10 h -8 c -0.049,0 -0.09,0.04 -0.09,0.09 V 14 c 0,0.09 0.09,0 0,0 h -7.82 c -0.09,0 0,0.09 0,0 V 10.09 C 31.53,10.04 31.49,10 31.44,10 h -8 c -0.049,0 -0.09,0.04 -0.09,0.09 V 14 c 0,0.09 0.09,0 0,0 H 14.09 C 14.04,14 14,14.04 14,14.09 v 316 4.11 c 0,0.09 0.09,0 0,0 h -3.91 c -0.05,0 -0.09,0.04 -0.09,0.09 v 8 c 0,0.05 0.04,0.09 0.09,0.09 H 14 c 0.09,0 0,-0.09 0,0 v 4.11 c 0,0.05 0.04,0.09 0.09,0.09 z"
         id="path2466" />
      <path
         style="stroke:#000000;stroke-width:0.18000001"
         inkscape:connector-curvature="0"
         d="m 18.09,38.09 v -2.11 c 0,-0.09 -0.09,0 0,0 h 4.22 c 0.09,0 0,-0.09 0,0 v 4.22 c 0,0.09 0.09,0 0,0 h -4.22 c -0.09,0 0,0.09 0,0 z"
         id="path2468" />
    </g>
    <g
       transform="matrix(0,-1,-1,0,601.00313,539.71554)"
       id="p-2"
       style="fill:none;stroke-linecap:round;stroke-linejoin:round;stroke:#000000">
      <path
         style="stroke:#000000;stroke-width:0.18000001"
         inkscape:connector-curvature="0"
         d="m 272.77,338.09 h -3.91 c -0.09,0 0,0.09 0,0 v -3.82 c 0,-0.09 -0.09,0 0,0 h 7.82 c 0.09,0 0,-0.09 0,0 v 3.82 c 0,0.09 0.09,0 0,0 z"
         id="path2471" />
      <path
         style="stroke:#000000;stroke-width:0.18000001"
         inkscape:connector-curvature="0"
         d="m 288.77,338.09 h -3.91 c -0.09,0 0,0.09 0,0 v -3.82 c 0,-0.09 -0.09,0 0,0 h 7.82 c 0.09,0 0,-0.09 0,0 v 3.82 c 0,0.09 0.09,0 0,0 z"
         id="path2473" />
      <path
         style="stroke:#000000;stroke-width:0.18000001"
         inkscape:connector-curvature="0"
         d="m 304.77,338.09 h -3.91 c -0.09,0 0,0.09 0,0 v -3.82 c 0,-0.09 -0.09,0 0,0 h 7.82 c 0.09,0 0,-0.09 0,0 v 3.82 c 0,0.09 0.09,0 0,0 z"
         id="path2475" />
      <path
         style="stroke:#000000;stroke-width:0.18000001"
         inkscape:connector-curvature="0"
         d="m 320.77,338.09 h -3.91 c -0.09,0 0,0.09 0,0 v -3.82 c 0,-0.09 -0.09,0 0,0 h 7.82 c 0.09,0 0,-0.09 0,0 v 3.82 c 0,0.09 0.09,0 0,0 z"
         id="path2477" />
      <path
         style="stroke:#000000;stroke-width:0.18000001"
         inkscape:connector-curvature="0"
         d="m 336.77,338.09 h -3.91 c -0.09,0 0,0.09 0,0 v -3.82 c 0,-0.09 -0.09,0 0,0 h 7.82 c 0.09,0 0,-0.09 0,0 v 3.82 c 0,0.09 0.09,0 0,0 z"
         id="path2479" />
      <path
         style="stroke:#000000;stroke-width:0.18000001"
         inkscape:connector-curvature="0"
         d="m 352.77,338.09 h -3.91 c -0.09,0 0,0.09 0,0 v -3.82 c 0,-0.09 -0.09,0 0,0 h 7.82 c 0.09,0 0,-0.09 0,0 v 3.82 c 0,0.09 0.09,0 0,0 z"
         id="path2481" />
      <path
         style="stroke:#000000;stroke-width:0.18000001"
         inkscape:connector-curvature="0"
         d="m 368.77,338.09 h -3.91 c -0.09,0 0,0.09 0,0 v -3.82 c 0,-0.09 -0.09,0 0,0 h 7.82 c 0.09,0 0,-0.09 0,0 v 3.82 c 0,0.09 0.09,0 0,0 z"
         id="path2483" />
      <path
         style="stroke:#000000;stroke-width:0.18000001"
         inkscape:connector-curvature="0"
         d="m 384.77,338.09 h -3.91 c -0.09,0 0,0.09 0,0 v -3.82 c 0,-0.09 -0.09,0 0,0 h 7.82 c 0.09,0 0,-0.09 0,0 v 3.82 c 0,0.09 0.09,0 0,0 z"
         id="path2485" />
      <path
         style="stroke:#000000;stroke-width:0.18000001"
         inkscape:connector-curvature="0"
         d="m 400.77,338.09 h -3.91 c -0.09,0 0,0.09 0,0 v -3.82 c 0,-0.09 -0.09,0 0,0 h 7.82 c 0.09,0 0,-0.09 0,0 v 3.82 c 0,0.09 0.09,0 0,0 z"
         id="path2487" />
      <path
         style="stroke:#000000;stroke-width:0.18000001"
         inkscape:connector-curvature="0"
         d="m 416.77,338.09 h -3.91 c -0.09,0 0,0.09 0,0 v -3.82 c 0,-0.09 -0.09,0 0,0 h 7.82 c 0.09,0 0,-0.09 0,0 v 3.82 c 0,0.09 0.09,0 0,0 z"
         id="path2489" />
      <path
         style="stroke:#000000;stroke-width:0.18000001"
         inkscape:connector-curvature="0"
         d="m 432.77,338.09 h -3.91 c -0.09,0 0,0.09 0,0 v -3.82 c 0,-0.09 -0.09,0 0,0 h 7.82 c 0.09,0 0,-0.09 0,0 v 3.82 c 0,0.09 0.09,0 0,0 z"
         id="path2491" />
      <path
         style="stroke:#000000;stroke-width:0.18000001"
         inkscape:connector-curvature="0"
         d="m 448.77,338.09 h -3.91 c -0.09,0 0,0.09 0,0 v -3.82 c 0,-0.09 -0.09,0 0,0 h 7.82 c 0.09,0 0,-0.09 0,0 v 3.82 c 0,0.09 0.09,0 0,0 z"
         id="path2493" />
      <path
         style="stroke:#000000;stroke-width:0.18000001"
         inkscape:connector-curvature="0"
         d="m 464.77,338.09 h -3.91 c -0.09,0 0,0.09 0,0 v -3.82 c 0,-0.09 -0.09,0 0,0 h 7.82 c 0.09,0 0,-0.09 0,0 v 3.82 c 0,0.09 0.09,0 0,0 z"
         id="path2495" />
      <path
         style="stroke:#000000;stroke-width:0.18000001"
         inkscape:connector-curvature="0"
         d="m 480.77,338.09 h -3.91 c -0.09,0 0,0.09 0,0 v -3.82 c 0,-0.09 -0.09,0 0,0 h 7.82 c 0.09,0 0,-0.09 0,0 v 3.82 c 0,0.09 0.09,0 0,0 z"
         id="path2497" />
      <path
         style="stroke:#000000;stroke-width:0.18000001"
         inkscape:connector-curvature="0"
         d="m 259.27,346.58 h 8 c 0.788,0 1.562,-0.207 2.245,-0.602 0.683,-0.394 1.249,-0.96 1.643,-1.643 0.379,-0.655 0.923,-1.199 1.578,-1.578 0.655,-0.378 1.398,-0.577 2.155,-0.577 h 203.758 c 0.757,0 1.5,0.199 2.155,0.577 0.655,0.379 1.199,0.923 1.578,1.578 0.394,0.683 0.96,1.249 1.643,1.643 0.683,0.395 1.457,0.602 2.245,0.602 h 8 c 0.05,0 0.09,-0.04 0.09,-0.09 v -1.963 c 0,-0.09 -0.09,0 0,0 h 3.91 c 0.05,0 0.09,-0.04 0.09,-0.09 v -8 c 0,-0.05 -0.04,-0.09 -0.09,-0.09 h -3.91 c -0.09,0 0,0.09 0,0 v -7.82 c 0,-0.09 -0.09,0 0,0 h 3.91 c 0.05,0 0.09,-0.04 0.09,-0.09 v -8 c 0,-0.05 -0.04,-0.09 -0.09,-0.09 h -3.91 c -0.09,0 0,0.09 0,0 v -7.82 c 0,-0.09 -0.09,0 0,0 h 3.91 c 0.05,0 0.09,-0.04 0.09,-0.09 v -8 c 0,-0.05 -0.04,-0.09 -0.09,-0.09 h -3.91 c -0.09,0 0,0.09 0,0 v -7.82 c 0,-0.09 -0.09,0 0,0 h 3.91 c 0.05,0 0.09,-0.04 0.09,-0.09 v -8 c 0,-0.05 -0.04,-0.09 -0.09,-0.09 h -3.91 c -0.09,0 0,0.09 0,0 v -7.82 c 0,-0.09 -0.09,0 0,0 h 3.91 c 0.05,0 0.09,-0.04 0.09,-0.09 v -8 c 0,-0.05 -0.04,-0.09 -0.09,-0.09 h -3.91 c -0.09,0 0,0.09 0,0 v -7.82 c 0,-0.09 -0.09,0 0,0 h 3.91 c 0.05,0 0.09,-0.04 0.09,-0.09 v -8 c 0,-0.05 -0.04,-0.09 -0.09,-0.09 h -3.91 c -0.09,0 0,0.09 0,0 v -7.82 c 0,-0.09 -0.09,0 0,0 h 3.91 c 0.05,0 0.09,-0.04 0.09,-0.09 v -8 c 0,-0.05 -0.04,-0.09 -0.09,-0.09 h -3.91 c -0.09,0 0,0.09 0,0 v -7.82 c 0,-0.09 -0.09,0 0,0 h 3.91 c 0.05,0 0.09,-0.04 0.09,-0.09 v -8 c 0,-0.05 -0.04,-0.09 -0.09,-0.09 h -3.91 c -0.09,0 0,0.09 0,0 v -7.82 c 0,-0.09 -0.09,0 0,0 h 3.91 c 0.05,0 0.09,-0.04 0.09,-0.09 v -8 c 0,-0.05 -0.04,-0.09 -0.09,-0.09 h -3.91 c -0.09,0 0,0.09 0,0 v -7.82 c 0,-0.09 -0.09,0 0,0 h 3.91 c 0.05,0 0.09,-0.04 0.09,-0.09 v -8 c 0,-0.05 -0.04,-0.09 -0.09,-0.09 h -3.91 c -0.09,0 0,0.09 0,0 v -7.82 c 0,-0.09 -0.09,0 0,0 h 3.91 c 0.05,0 0.09,-0.04 0.09,-0.09 v -8 c 0,-0.05 -0.04,-0.09 -0.09,-0.09 h -3.91 c -0.09,0 0,0.09 0,0 v -7.82 c 0,-0.09 -0.09,0 0,0 h 3.91 c 0.05,0 0.09,-0.04 0.09,-0.09 v -8 c 0,-0.05 -0.04,-0.09 -0.09,-0.09 h -3.91 c -0.09,0 0,0.09 0,0 v -7.82 c 0,-0.09 -0.09,0 0,0 h 3.91 c 0.05,0 0.09,-0.04 0.09,-0.09 v -8 c 0,-0.05 -0.04,-0.09 -0.09,-0.09 h -3.91 c -0.09,0 0,0.09 0,0 v -7.82 c 0,-0.09 -0.09,0 0,0 h 3.91 c 0.05,0 0.09,-0.04 0.09,-0.09 v -8 c 0,-0.05 -0.04,-0.09 -0.09,-0.09 h -3.91 c -0.09,0 0,0.09 0,0 v -1.963 -2.294 c 0,-0.018 -0.006,-0.036 -0.016,-0.052 l -4.045,-5.777 c -0.052,-0.073 -0.074,0.052 0,0 l 3.202,-2.242 c 0.041,-0.029 0.051,-0.085 0.023,-0.126 l -4.589,-6.553 c -0.029,-0.041 -0.085,-0.051 -0.125,-0.022 l -3.203,2.243 c -0.074,0.051 0.051,0.073 0,0 l -4.486,-6.406 c -0.051,-0.074 -0.073,0.051 0,0 l 3.203,-2.243 c 0.041,-0.028 0.051,-0.085 0.022,-0.125 l -4.588,-6.553 c -0.029,-0.041 -0.085,-0.051 -0.126,-0.023 l -3.203,2.243 c -0.073,0.052 0.052,0.074 0,0 l -4.485,-6.406 c -0.052,-0.073 -0.074,0.052 0,0 l 3.203,-2.242 c 0.041,-0.029 0.051,-0.085 0.022,-0.126 l -4.589,-6.553 c -0.028,-0.041 -0.084,-0.05 -0.125,-0.022 l -3.203,2.243 c -0.074,0.051 0.052,0.073 0,0 l -4.485,-6.406 c -0.052,-0.074 -0.074,0.052 0,0 l 3.203,-2.243 c 0.04,-0.028 0.05,-0.084 0.022,-0.125 l -4.589,-6.553 c -0.028,-0.041 -0.084,-0.051 -0.125,-0.022 l -3.203,2.242 c -0.074,0.052 0.052,0.074 0,0 l -4.485,-6.406 c -0.052,-0.073 -0.074,0.052 0,0 l 3.203,-2.242 c 0.04,-0.029 0.05,-0.085 0.022,-0.126 l -4.589,-6.553 c -0.029,-0.04 -0.085,-0.05 -0.125,-0.022 l -3.203,2.243 c -0.074,0.051 0.051,0.074 0,0 l -4.486,-6.406 c -0.051,-0.074 -0.073,0.052 0,0 l 3.203,-2.243 c 0.041,-0.028 0.051,-0.084 0.022,-0.125 l -4.588,-6.553 c -0.029,-0.041 -0.085,-0.051 -0.126,-0.022 l -3.202,2.242 c -0.074,0.052 0.051,0.074 0,0 l -4.486,-6.405 c -0.051,-0.074 -0.074,0.051 0,0 l 3.203,-2.243 c 0.041,-0.029 0.051,-0.085 0.022,-0.125 l -4.588,-6.554 c -0.029,-0.04 -0.085,-0.05 -0.126,-0.022 l -3.203,2.243 c -0.073,0.052 0.052,0.074 0,0 l -4.485,-6.406 c -0.052,-0.074 -0.074,0.052 0,0 l 3.203,-2.242 c 0.041,-0.029 0.05,-0.085 0.022,-0.126 l -4.589,-6.553 c -0.028,-0.041 -0.084,-0.051 -0.125,-0.022 l -3.203,2.243 c -0.074,0.051 0.052,0.073 0,0 l -4.045,-5.778 C 417.304,14.014 417.277,14 417.247,14 h -3.276 -9.261 c -0.09,0 0,0.09 0,0 v -3.91 c 0,-0.05 -0.04,-0.09 -0.09,-0.09 h -8 c -0.049,0 -0.09,0.04 -0.09,0.09 V 14 c 0,0.09 0.09,0 0,0 h -7.82 c -0.09,0 0,0.09 0,0 v -3.91 c 0,-0.05 -0.04,-0.09 -0.09,-0.09 h -8 c -0.049,0 -0.09,0.04 -0.09,0.09 V 14 c 0,0.09 0.09,0 0,0 h -7.82 c -0.09,0 0,0.09 0,0 v -3.91 c 0,-0.05 -0.04,-0.09 -0.09,-0.09 h -8 c -0.049,0 -0.09,0.04 -0.09,0.09 V 14 c 0,0.09 0.09,0 0,0 h -7.82 c -0.09,0 0,0.09 0,0 v -3.91 c 0,-0.05 -0.04,-0.09 -0.09,-0.09 h -8 c -0.049,0 -0.09,0.04 -0.09,0.09 V 14 c 0,0.09 0.09,0 0,0 h -7.82 c -0.09,0 0,0.09 0,0 v -3.91 c 0,-0.05 -0.04,-0.09 -0.09,-0.09 h -8 c -0.049,0 -0.09,0.04 -0.09,0.09 V 14 c 0,0.09 0.09,0 0,0 h -7.82 c -0.09,0 0,0.09 0,0 v -3.91 c 0,-0.05 -0.04,-0.09 -0.09,-0.09 h -8 c -0.049,0 -0.09,0.04 -0.09,0.09 V 14 c 0,0.09 0.09,0 0,0 h -7.82 c -0.09,0 0,0.09 0,0 v -3.91 c 0,-0.05 -0.04,-0.09 -0.09,-0.09 h -8 c -0.049,0 -0.09,0.04 -0.09,0.09 V 14 c 0,0.09 0.09,0 0,0 h -7.82 c -0.09,0 0,0.09 0,0 v -3.91 c 0,-0.05 -0.04,-0.09 -0.09,-0.09 h -8 c -0.049,0 -0.09,0.04 -0.09,0.09 V 14 c 0,0.09 0.09,0 0,0 h -7.82 c -0.09,0 0,0.09 0,0 v -3.91 c 0,-0.05 -0.04,-0.09 -0.09,-0.09 h -8 c -0.049,0 -0.09,0.04 -0.09,0.09 V 14 c 0,0.09 0.09,0 0,0 h -9.26 c -0.05,0 -0.09,0.04 -0.09,0.09 v 316 4.11 c 0,0.09 0.09,0 0,0 h -3.91 c -0.05,0 -0.09,0.04 -0.09,0.09 v 8 c 0,0.05 0.04,0.09 0.09,0.09 h 3.91 c 0.09,0 0,-0.09 0,0 v 4.11 c 0,0.05 0.04,0.09 0.09,0.09 z"
         id="path2499" />
      <path
         style="stroke:#000000;stroke-width:0.18000001"
         inkscape:connector-curvature="0"
         d="m 263.27,38.09 v -2.11 c 0,-0.09 -0.09,0 0,0 h 4.22 c 0.09,0 0,-0.09 0,0 v 4.22 c 0,0.09 0.09,0 0,0 h -4.22 c -0.09,0 0,0.09 0,0 z"
         id="path2501" />
    </g>
    <g
       transform="translate(-1406.8057,-324.75636)"
       id="p-11"
       style="fill:none;stroke-linecap:round;stroke-linejoin:round;stroke:#000000">
      <path
         style="stroke:#000000;stroke-width:0.18000001"
         inkscape:connector-curvature="0"
         d="m 1638.181,341.78 h 3.91 c 0.09,0 0,-0.09 0,0 v 0.71 c 0,0.05 0.041,0.09 0.09,0.09 h 7.91 c 0.09,0 0,-0.09 0,0 v 3.91 c 0,0.05 0.041,0.09 0.09,0.09 h 4 c 0.05,0 0.09,-0.04 0.09,-0.09 v -3.91 c 0,-0.09 -0.09,0 0,0 h 11.91 c 0.05,0 0.09,-0.04 0.09,-0.09 v -3.91 c 0,-0.09 -0.09,0 0,0 h 3.91 c 0.05,0 0.09,-0.04 0.09,-0.09 v -4 c 0,-0.05 -0.04,-0.09 -0.09,-0.09 h -8 c -0.049,0 -0.09,0.04 -0.09,0.09 v 1.903 c 0,0.097 0.097,0.007 0,0 l -19.456,-1.36 c -0.052,-0.004 -0.096,0.038 -0.096,0.09 v 2 c 0,0.047 0.037,0.086 0.084,0.09 l 19.552,1.367 c -0.018,-0.002 -0.036,-0.009 -0.05,-0.02 -0.015,-0.012 -0.025,-0.028 -0.03,-0.046 -0.01,-0.018 -0.01,-0.037 0,-0.054 0.01,-0.018 0.017,-0.033 0.033,-0.044 0.015,-0.01 0.033,-0.016 0.051,-0.016 h -19.91 c -0.09,0 0,0.09 0,0 v -3.91 c 0,-0.05 -0.04,-0.09 -0.09,-0.09 h -4 c -0.049,0 -0.09,0.04 -0.09,0.09 v 7.2 c 0,0.05 0.041,0.09 0.09,0.09 z"
         id="path2648" />
    </g>
    <g
       transform="translate(-1406.8057,-324.75636)"
       id="p-12"
       style="fill:none;stroke-linecap:round;stroke-linejoin:round;stroke:#000000">
      <path
         style="stroke:#000000;stroke-width:0.18000001"
         inkscape:connector-curvature="0"
         d="m 1638.181,327.6 h 3.91 c 0.09,0 0,-0.09 0,0 v 0.71 c 0,0.05 0.041,0.09 0.09,0.09 h 7.91 c 0.09,0 0,-0.09 0,0 v 3.91 c 0,0.05 0.041,0.09 0.09,0.09 h 4 c 0.05,0 0.09,-0.04 0.09,-0.09 v -3.91 c 0,-0.09 -0.09,0 0,0 h 11.91 c 0.05,0 0.09,-0.04 0.09,-0.09 v -3.91 c 0,-0.09 -0.09,0 0,0 h 3.91 c 0.05,0 0.09,-0.04 0.09,-0.09 v -4 c 0,-0.05 -0.04,-0.09 -0.09,-0.09 h -8 c -0.049,0 -0.09,0.04 -0.09,0.09 v 1.903 c 0,0.097 0.097,0.007 0,0 l -19.456,-1.36 c -0.052,-0.004 -0.096,0.038 -0.096,0.09 v 2 c 0,0.047 0.037,0.086 0.084,0.09 l 19.552,1.367 c -0.018,-0.002 -0.036,-0.009 -0.05,-0.02 -0.015,-0.012 -0.025,-0.028 -0.03,-0.046 -0.01,-0.018 -0.01,-0.037 0,-0.054 0.01,-0.018 0.017,-0.033 0.033,-0.044 0.015,-0.01 0.033,-0.016 0.051,-0.016 h -19.91 c -0.09,0 0,0.09 0,0 v -3.91 c 0,-0.05 -0.04,-0.09 -0.09,-0.09 h -4 c -0.049,0 -0.09,0.04 -0.09,0.09 v 7.2 c 0,0.05 0.041,0.09 0.09,0.09 z"
         id="path2651" />
    </g>
    <g
       transform="translate(-1406.8057,-324.75636)"
       id="p-13"
       style="fill:none;stroke-linecap:round;stroke-linejoin:round;stroke:#000000">
      <path
         style="stroke:#000000;stroke-width:0.18000001"
         inkscape:connector-curvature="0"
         d="m 1640.181,318.22 h 3.8 c 0.05,0 0.09,-0.04 0.09,-0.09 v -10.11 c 0,-0.09 -0.09,0 0,0 h 4.22 c 0.09,0 0,-0.09 0,0 v 10.11 c 0,0.05 0.041,0.09 0.09,0.09 h 3.8 c 0.05,0 0.09,-0.04 0.09,-0.09 v -3.91 c 0,-0.09 -0.09,0 0,0 h 1.91 c 0.05,0 0.09,-0.04 0.09,-0.09 v -8 c 0,-0.024 -0.01,-0.047 -0.026,-0.064 l -4,-4 c -0.017,-0.017 -0.04,-0.026 -0.064,-0.026 h -8 c -0.023,0 -0.046,0.009 -0.063,0.026 l -4,4 c -0.017,0.017 -0.027,0.04 -0.027,0.064 v 8 c 0,0.05 0.041,0.09 0.09,0.09 h 1.91 c 0.09,0 0,-0.09 0,0 v 3.91 c 0,0.05 0.041,0.09 0.09,0.09 z"
         id="path2654" />
    </g>
    <g
       transform="translate(-1406.8057,-324.75636)"
       id="p-14"
       style="fill:none;stroke-linecap:round;stroke-linejoin:round;stroke:#000000">
      <path
         style="stroke:#000000;stroke-width:0.18000001"
         inkscape:connector-curvature="0"
         d="m 1658.361,318.22 h 3.8 c 0.05,0 0.09,-0.04 0.09,-0.09 v -10.11 c 0,-0.09 -0.09,0 0,0 h 4.22 c 0.09,0 0,-0.09 0,0 v 10.11 c 0,0.05 0.041,0.09 0.09,0.09 h 3.8 c 0.05,0 0.09,-0.04 0.09,-0.09 v -3.91 c 0,-0.09 -0.09,0 0,0 h 1.91 c 0.05,0 0.09,-0.04 0.09,-0.09 v -8 c 0,-0.024 -0.01,-0.047 -0.026,-0.064 l -4,-4 c -0.017,-0.017 -0.04,-0.026 -0.064,-0.026 h -8 c -0.023,0 -0.046,0.009 -0.063,0.026 l -4,4 c -0.017,0.017 -0.027,0.04 -0.027,0.064 v 8 c 0,0.05 0.041,0.09 0.09,0.09 h 1.91 c 0.09,0 0,-0.09 0,0 v 3.91 c 0,0.05 0.041,0.09 0.09,0.09 z"
         id="path2657" />
    </g>
    <g
       transform="rotate(90,857.04864,-219.41698)"
       id="p-5"
       style="fill:none;stroke-linecap:round;stroke-linejoin:round;stroke:#000000">
      <path
         style="stroke:#000000;stroke-width:0.18000001"
         inkscape:connector-curvature="0"
         d="m 971.916,346.58 h 7.142 c 0.05,0 0.09,-0.04 0.09,-0.09 v -3.91 c 0,-0.09 -0.09,0 0,0 h 7.82 c 0.09,0 0,-0.09 0,0 v 3.91 c 0,0.05 0.041,0.09 0.09,0.09 h 8 c 0.05,0 0.09,-0.04 0.09,-0.09 v -3.91 c 0,-0.09 -0.09,0 0,0 h 7.82 c 0.09,0 0,-0.09 0,0 v 3.91 c 0,0.05 0.041,0.09 0.09,0.09 h 8 c 0.05,0 0.09,-0.04 0.09,-0.09 v -3.91 c 0,-0.09 -0.09,0 0,0 h 7.82 c 0.09,0 0,-0.09 0,0 v 3.91 c 0,0.05 0.041,0.09 0.09,0.09 h 8 c 0.05,0 0.09,-0.04 0.09,-0.09 v -3.91 c 0,-0.09 -0.09,0 0,0 h 7.82 c 0.09,0 0,-0.09 0,0 v 3.91 c 0,0.05 0.041,0.09 0.09,0.09 h 8 c 0.05,0 0.09,-0.04 0.09,-0.09 v -3.91 c 0,-0.09 -0.09,0 0,0 h 7.82 c 0.09,0 0,-0.09 0,0 v 3.91 c 0,0.05 0.041,0.09 0.09,0.09 h 8 c 0.05,0 0.09,-0.04 0.09,-0.09 v -3.91 c 0,-0.09 -0.09,0 0,0 h 7.82 c 0.09,0 0,-0.09 0,0 v 3.91 c 0,0.05 0.041,0.09 0.09,0.09 h 8 c 0.05,0 0.09,-0.04 0.09,-0.09 v -3.91 c 0,-0.09 -0.09,0 0,0 h 7.82 c 0.09,0 0,-0.09 0,0 v 3.91 c 0,0.05 0.041,0.09 0.09,0.09 h 8 c 0.05,0 0.09,-0.04 0.09,-0.09 v -3.91 c 0,-0.09 -0.09,0 0,0 h 7.82 c 0.09,0 0,-0.09 0,0 v 3.91 c 0,0.05 0.041,0.09 0.09,0.09 h 7.143 4 c 0.05,0 0.09,-0.04 0.09,-0.09 v -4 -190 -4 c 0,-0.05 -0.04,-0.09 -0.09,-0.09 h -4 -7.143 c -0.049,0 -0.09,0.04 -0.09,0.09 v 3.91 c 0,0.09 0.09,0 0,0 h -7.82 c -0.09,0 0,0.09 0,0 v -3.91 c 0,-0.05 -0.04,-0.09 -0.09,-0.09 h -8 c -0.049,0 -0.09,0.04 -0.09,0.09 v 3.91 c 0,0.09 0.09,0 0,0 h -7.82 c -0.09,0 0,0.09 0,0 v -3.91 c 0,-0.05 -0.04,-0.09 -0.09,-0.09 h -8 c -0.049,0 -0.09,0.04 -0.09,0.09 v 3.91 c 0,0.09 0.09,0 0,0 h -7.82 c -0.09,0 0,0.09 0,0 v -3.91 c 0,-0.05 -0.04,-0.09 -0.09,-0.09 h -8 c -0.049,0 -0.09,0.04 -0.09,0.09 v 3.91 c 0,0.09 0.09,0 0,0 h -7.82 c -0.09,0 0,0.09 0,0 v -3.91 c 0,-0.05 -0.04,-0.09 -0.09,-0.09 h -8 c -0.049,0 -0.09,0.04 -0.09,0.09 v 3.91 c 0,0.09 0.09,0 0,0 h -7.82 c -0.09,0 0,0.09 0,0 v -3.91 c 0,-0.05 -0.04,-0.09 -0.09,-0.09 h -8 c -0.049,0 -0.09,0.04 -0.09,0.09 v 3.91 c 0,0.09 0.09,0 0,0 h -7.82 c -0.09,0 0,0.09 0,0 v -3.91 c 0,-0.05 -0.04,-0.09 -0.09,-0.09 h -8 c -0.049,0 -0.09,0.04 -0.09,0.09 v 3.91 c 0,0.09 0.09,0 0,0 h -7.82 c -0.09,0 0,0.09 0,0 v -3.91 c 0,-0.05 -0.04,-0.09 -0.09,-0.09 h -8 c -0.049,0 -0.09,0.04 -0.09,0.09 v 3.91 c 0,0.09 0.09,0 0,0 h -7.82 c -0.09,0 0,0.09 0,0 v -3.91 c 0,-0.05 -0.04,-0.09 -0.09,-0.09 h -7.142 -4 c -0.05,0 -0.09,0.04 -0.09,0.09 v 4 190 4 c 0,0.05 0.04,0.09 0.09,0.09 z"
         id="path2534" />
    </g>
  </g>
</svg>
