<?xml version="1.0" encoding="UTF-8" standalone="no"?>
<!-- Created with Inkscape (http://www.inkscape.org/) -->

<svg
   xmlns:dc="http://purl.org/dc/elements/1.1/"
   xmlns:cc="http://creativecommons.org/ns#"
   xmlns:rdf="http://www.w3.org/1999/02/22-rdf-syntax-ns#"
   xmlns:svg="http://www.w3.org/2000/svg"
   xmlns="http://www.w3.org/2000/svg"
   xmlns:sodipodi="http://sodipodi.sourceforge.net/DTD/sodipodi-0.dtd"
   xmlns:inkscape="http://www.inkscape.org/namespaces/inkscape"
   width="594mm"
   height="420mm"
   viewBox="0 0 594 420"
   version="1.1"
   id="svg1565"
   inkscape:version="0.92.4 (5da689c313, 2019-01-14)"
   sodipodi:docname="design_1.6_file2.svg">
  <defs
     id="defs1559" />
  <sodipodi:namedview
     id="base"
     pagecolor="#ffffff"
     bordercolor="#666666"
     borderopacity="1.0"
     inkscape:pageopacity="0.0"
     inkscape:pageshadow="2"
     inkscape:zoom="0.67410344"
     inkscape:cx="1239.4624"
     inkscape:cy="518.72104"
     inkscape:document-units="mm"
     inkscape:current-layer="layer1"
     showgrid="false"
     inkscape:window-width="1920"
     inkscape:window-height="1016"
     inkscape:window-x="0"
     inkscape:window-y="27"
     inkscape:window-maximized="1" />
  <metadata
     id="metadata1562">
    <rdf:RDF>
      <cc:Work
         rdf:about="">
        <dc:format>image/svg+xml</dc:format>
        <dc:type
           rdf:resource="http://purl.org/dc/dcmitype/StillImage" />
        <dc:title />
      </cc:Work>
    </rdf:RDF>
  </metadata>
  <g
     inkscape:label="Layer 1"
     inkscape:groupmode="layer"
     id="layer1"
     transform="translate(0,123)">
    <g
       transform="translate(-490.5956,-61.803662)"
       id="p-3"
       style="fill:none;stroke-linecap:round;stroke-linejoin:round;stroke:#000000">
      <path
         style="stroke:#000000;stroke-width:0.18000001"
         inkscape:connector-curvature="0"
         d="m 504.45,342.58 h 9.41 c 0.09,0 0,-0.09 0,0 v 3.91 c 0,0.05 0.04,0.09 0.09,0.09 h 8 c 0.05,0 0.09,-0.04 0.09,-0.09 v -3.91 c 0,-0.09 -0.09,0 0,0 h 7.82 c 0.09,0 0,-0.09 0,0 v 3.91 c 0,0.05 0.04,0.09 0.09,0.09 h 8 c 0.05,0 0.09,-0.04 0.09,-0.09 v -3.91 c 0,-0.09 -0.09,0 0,0 h 7.82 c 0.09,0 0,-0.09 0,0 v 3.91 c 0,0.05 0.04,0.09 0.09,0.09 h 8 c 0.05,0 0.09,-0.04 0.09,-0.09 v -3.91 c 0,-0.09 -0.09,0 0,0 h 7.82 c 0.09,0 0,-0.09 0,0 v 3.91 c 0,0.05 0.04,0.09 0.09,0.09 h 8 c 0.05,0 0.09,-0.04 0.09,-0.09 v -3.91 c 0,-0.09 -0.09,0 0,0 h 7.82 c 0.09,0 0,-0.09 0,0 v 3.91 c 0,0.05 0.04,0.09 0.09,0.09 h 8 c 0.05,0 0.09,-0.04 0.09,-0.09 v -3.91 c 0,-0.09 -0.09,0 0,0 h 7.82 c 0.09,0 0,-0.09 0,0 v 3.91 c 0,0.05 0.04,0.09 0.09,0.09 h 8 c 0.05,0 0.09,-0.04 0.09,-0.09 v -3.91 c 0,-0.09 -0.09,0 0,0 h 7.82 c 0.09,0 0,-0.09 0,0 v 3.91 c 0,0.05 0.04,0.09 0.09,0.09 h 8 c 0.05,0 0.09,-0.04 0.09,-0.09 v -3.91 c 0,-0.09 -0.09,0 0,0 h 7.82 c 0.09,0 0,-0.09 0,0 v 3.91 c 0,0.05 0.04,0.09 0.09,0.09 h 8 c 0.05,0 0.09,-0.04 0.09,-0.09 v -3.91 c 0,-0.09 -0.09,0 0,0 h 7.82 c 0.09,0 0,-0.09 0,0 v 3.91 c 0,0.05 0.04,0.09 0.09,0.09 h 8 c 0.05,0 0.09,-0.04 0.09,-0.09 v -3.91 c 0,-0.09 -0.09,0 0,0 h 7.82 c 0.09,0 0,-0.09 0,0 v 3.91 c 0,0.05 0.04,0.09 0.09,0.09 h 8 c 0.05,0 0.09,-0.04 0.09,-0.09 v -3.91 c 0,-0.09 -0.09,0 0,0 h 7.82 c 0.09,0 0,-0.09 0,0 v 3.91 c 0,0.05 0.04,0.09 0.09,0.09 h 8 c 0.05,0 0.09,-0.04 0.09,-0.09 v -3.91 c 0,-0.09 -0.09,0 0,0 h 7.82 c 0.09,0 0,-0.09 0,0 v 3.91 c 0,0.05 0.04,0.09 0.09,0.09 h 8 c 0.05,0 0.09,-0.04 0.09,-0.09 v -3.91 c 0,-0.09 -0.09,0 0,0 h 7.82 c 0.09,0 0,-0.09 0,0 v 3.91 c 0,0.05 0.04,0.09 0.09,0.09 h 8 c 0.05,0 0.09,-0.04 0.09,-0.09 v -3.91 c 0,-0.09 -0.09,0 0,0 h 7.82 c 0.09,0 0,-0.09 0,0 v 3.91 c 0,0.05 0.04,0.09 0.09,0.09 h 8 c 0.05,0 0.09,-0.04 0.09,-0.09 v -3.91 c 0,-0.09 -0.09,0 0,0 h 9.41 c 0.05,0 0.09,-0.04 0.09,-0.09 v -2.91 c 0,-0.09 -0.09,0 0,0 h 3.91 c 0.05,0 0.09,-0.04 0.09,-0.09 v -8 c 0,-0.05 -0.04,-0.09 -0.09,-0.09 h -3.91 c -0.09,0 0,0.09 0,0 v -7.82 c 0,-0.09 -0.09,0 0,0 h 3.91 c 0.05,0 0.09,-0.04 0.09,-0.09 v -8 c 0,-0.05 -0.04,-0.09 -0.09,-0.09 h -3.91 c -0.09,0 0,0.09 0,0 v -7.82 c 0,-0.09 -0.09,0 0,0 h 3.91 c 0.05,0 0.09,-0.04 0.09,-0.09 v -8 c 0,-0.05 -0.04,-0.09 -0.09,-0.09 h -3.91 c -0.09,0 0,0.09 0,0 v -7.82 c 0,-0.09 -0.09,0 0,0 h 3.91 c 0.05,0 0.09,-0.04 0.09,-0.09 v -8 c 0,-0.05 -0.04,-0.09 -0.09,-0.09 h -3.91 c -0.09,0 0,0.09 0,0 v -7.82 c 0,-0.09 -0.09,0 0,0 h 3.91 c 0.05,0 0.09,-0.04 0.09,-0.09 v -8 c 0,-0.05 -0.04,-0.09 -0.09,-0.09 h -3.91 c -0.09,0 0,0.09 0,0 v -7.82 c 0,-0.09 -0.09,0 0,0 h 3.91 c 0.05,0 0.09,-0.04 0.09,-0.09 v -8 c 0,-0.05 -0.04,-0.09 -0.09,-0.09 h -3.91 c -0.09,0 0,0.09 0,0 v -7.82 c 0,-0.09 -0.09,0 0,0 h 3.91 c 0.05,0 0.09,-0.04 0.09,-0.09 v -8 c 0,-0.05 -0.04,-0.09 -0.09,-0.09 h -3.91 c -0.09,0 0,0.09 0,0 v -7.82 c 0,-0.09 -0.09,0 0,0 h 3.91 c 0.05,0 0.09,-0.04 0.09,-0.09 v -8 c 0,-0.05 -0.04,-0.09 -0.09,-0.09 h -3.91 c -0.09,0 0,0.09 0,0 v -7.82 c 0,-0.09 -0.09,0 0,0 h 3.91 c 0.05,0 0.09,-0.04 0.09,-0.09 v -8 c 0,-0.05 -0.04,-0.09 -0.09,-0.09 h -3.91 c -0.09,0 0,0.09 0,0 v -7.82 c 0,-0.09 -0.09,0 0,0 h 3.91 c 0.05,0 0.09,-0.04 0.09,-0.09 v -8 c 0,-0.05 -0.04,-0.09 -0.09,-0.09 h -3.91 c -0.09,0 0,0.09 0,0 v -7.82 c 0,-0.09 -0.09,0 0,0 h 3.91 c 0.05,0 0.09,-0.04 0.09,-0.09 v -8 c 0,-0.05 -0.04,-0.09 -0.09,-0.09 h -3.91 c -0.09,0 0,0.09 0,0 v -7.82 c 0,-0.09 -0.09,0 0,0 h 3.91 c 0.05,0 0.09,-0.04 0.09,-0.09 v -8 c 0,-0.05 -0.04,-0.09 -0.09,-0.09 h -3.91 c -0.09,0 0,0.09 0,0 v -2.91 c 0,-0.05 -0.04,-0.09 -0.09,-0.09 h -9.41 c -0.09,0 0,0.09 0,0 v -3.91 c 0,-0.05 -0.04,-0.09 -0.09,-0.09 h -8 c -0.05,0 -0.09,0.04 -0.09,0.09 v 3.91 c 0,0.09 0.09,0 0,0 h -7.82 c -0.09,0 0,0.09 0,0 v -3.91 c 0,-0.05 -0.04,-0.09 -0.09,-0.09 h -8 c -0.05,0 -0.09,0.04 -0.09,0.09 v 3.91 c 0,0.09 0.09,0 0,0 h -7.82 c -0.09,0 0,0.09 0,0 v -3.91 c 0,-0.05 -0.04,-0.09 -0.09,-0.09 h -8 c -0.05,0 -0.09,0.04 -0.09,0.09 v 3.91 c 0,0.09 0.09,0 0,0 h -7.82 c -0.09,0 0,0.09 0,0 v -3.91 c 0,-0.05 -0.04,-0.09 -0.09,-0.09 h -8 c -0.05,0 -0.09,0.04 -0.09,0.09 v 3.91 c 0,0.09 0.09,0 0,0 h -7.82 c -0.09,0 0,0.09 0,0 v -3.91 c 0,-0.05 -0.04,-0.09 -0.09,-0.09 h -8 c -0.05,0 -0.09,0.04 -0.09,0.09 v 3.91 c 0,0.09 0.09,0 0,0 h -7.82 c -0.09,0 0,0.09 0,0 v -3.91 c 0,-0.05 -0.04,-0.09 -0.09,-0.09 h -8 c -0.05,0 -0.09,0.04 -0.09,0.09 v 3.91 c 0,0.09 0.09,0 0,0 h -7.82 c -0.09,0 0,0.09 0,0 v -3.91 c 0,-0.05 -0.04,-0.09 -0.09,-0.09 h -8 c -0.05,0 -0.09,0.04 -0.09,0.09 v 3.91 c 0,0.09 0.09,0 0,0 h -7.82 c -0.09,0 0,0.09 0,0 v -3.91 c 0,-0.05 -0.04,-0.09 -0.09,-0.09 h -8 c -0.05,0 -0.09,0.04 -0.09,0.09 v 3.91 c 0,0.09 0.09,0 0,0 h -7.82 c -0.09,0 0,0.09 0,0 v -3.91 c 0,-0.05 -0.04,-0.09 -0.09,-0.09 h -8 c -0.05,0 -0.09,0.04 -0.09,0.09 v 3.91 c 0,0.09 0.09,0 0,0 h -7.82 c -0.09,0 0,0.09 0,0 v -3.91 c 0,-0.05 -0.04,-0.09 -0.09,-0.09 h -8 c -0.05,0 -0.09,0.04 -0.09,0.09 v 3.91 c 0,0.09 0.09,0 0,0 h -7.82 c -0.09,0 0,0.09 0,0 v -3.91 c 0,-0.05 -0.04,-0.09 -0.09,-0.09 h -8 c -0.05,0 -0.09,0.04 -0.09,0.09 v 3.91 c 0,0.09 0.09,0 0,0 h -7.82 c -0.09,0 0,0.09 0,0 v -3.91 c 0,-0.05 -0.04,-0.09 -0.09,-0.09 h -8 c -0.05,0 -0.09,0.04 -0.09,0.09 v 3.91 c 0,0.09 0.09,0 0,0 h -7.82 c -0.09,0 0,0.09 0,0 v -3.91 c 0,-0.05 -0.04,-0.09 -0.09,-0.09 h -8 c -0.05,0 -0.09,0.04 -0.09,0.09 v 3.91 c 0,0.09 0.09,0 0,0 h -7.82 c -0.09,0 0,0.09 0,0 v -3.91 c 0,-0.05 -0.04,-0.09 -0.09,-0.09 h -8 c -0.05,0 -0.09,0.04 -0.09,0.09 v 3.91 c 0,0.09 0.09,0 0,0 h -9.41 c -0.05,0 -0.09,0.04 -0.09,0.09 v 2.91 c 0,0.09 0.09,0 0,0 h -3.91 c -0.05,0 -0.09,0.04 -0.09,0.09 v 8 c 0,0.05 0.04,0.09 0.09,0.09 h 3.91 c 0.09,0 0,-0.09 0,0 v 7.82 c 0,0.09 0.09,0 0,0 h -3.91 c -0.05,0 -0.09,0.04 -0.09,0.09 v 8 c 0,0.05 0.04,0.09 0.09,0.09 h 3.91 c 0.09,0 0,-0.09 0,0 v 7.82 c 0,0.09 0.09,0 0,0 h -3.91 c -0.05,0 -0.09,0.04 -0.09,0.09 v 8 c 0,0.05 0.04,0.09 0.09,0.09 h 3.91 c 0.09,0 0,-0.09 0,0 v 7.82 c 0,0.09 0.09,0 0,0 h -3.91 c -0.05,0 -0.09,0.04 -0.09,0.09 v 8 c 0,0.05 0.04,0.09 0.09,0.09 h 3.91 c 0.09,0 0,-0.09 0,0 v 7.82 c 0,0.09 0.09,0 0,0 h -3.91 c -0.05,0 -0.09,0.04 -0.09,0.09 v 8 c 0,0.05 0.04,0.09 0.09,0.09 h 3.91 c 0.09,0 0,-0.09 0,0 v 7.82 c 0,0.09 0.09,0 0,0 h -3.91 c -0.05,0 -0.09,0.04 -0.09,0.09 v 8 c 0,0.05 0.04,0.09 0.09,0.09 h 3.91 c 0.09,0 0,-0.09 0,0 v 7.82 c 0,0.09 0.09,0 0,0 h -3.91 c -0.05,0 -0.09,0.04 -0.09,0.09 v 8 c 0,0.05 0.04,0.09 0.09,0.09 h 3.91 c 0.09,0 0,-0.09 0,0 v 7.82 c 0,0.09 0.09,0 0,0 h -3.91 c -0.05,0 -0.09,0.04 -0.09,0.09 v 8 c 0,0.05 0.04,0.09 0.09,0.09 h 3.91 c 0.09,0 0,-0.09 0,0 v 7.82 c 0,0.09 0.09,0 0,0 h -3.91 c -0.05,0 -0.09,0.04 -0.09,0.09 v 8 c 0,0.05 0.04,0.09 0.09,0.09 h 3.91 c 0.09,0 0,-0.09 0,0 v 7.82 c 0,0.09 0.09,0 0,0 h -3.91 c -0.05,0 -0.09,0.04 -0.09,0.09 v 8 c 0,0.05 0.04,0.09 0.09,0.09 h 3.91 c 0.09,0 0,-0.09 0,0 v 7.82 c 0,0.09 0.09,0 0,0 h -3.91 c -0.05,0 -0.09,0.04 -0.09,0.09 v 8 c 0,0.05 0.04,0.09 0.09,0.09 h 3.91 c 0.09,0 0,-0.09 0,0 v 7.82 c 0,0.09 0.09,0 0,0 h -3.91 c -0.05,0 -0.09,0.04 -0.09,0.09 v 8 c 0,0.05 0.04,0.09 0.09,0.09 h 3.91 c 0.09,0 0,-0.09 0,0 v 2.91 c 0,0.05 0.04,0.09 0.09,0.09 z"
         id="path2504" />
    </g>
    <g
       transform="translate(-490.5956,-61.803662)"
       id="p-4"
       style="fill:none;stroke-linecap:round;stroke-linejoin:round;stroke:#000000">
      <path
         style="stroke:#000000;stroke-width:0.18000001"
         inkscape:connector-curvature="0"
         d="m 745.63,346.58 h 2.053 c 0.05,0 0.09,-0.04 0.09,-0.09 v -3.91 c 0,-0.09 -0.09,0 0,0 h 7.82 c 0.09,0 0,-0.09 0,0 v 3.91 c 0,0.05 0.04,0.09 0.09,0.09 h 8 c 0.05,0 0.09,-0.04 0.09,-0.09 v -3.91 c 0,-0.09 -0.09,0 0,0 h 7.82 c 0.09,0 0,-0.09 0,0 v 3.91 c 0,0.05 0.04,0.09 0.09,0.09 h 8 c 0.05,0 0.09,-0.04 0.09,-0.09 v -3.91 c 0,-0.09 -0.09,0 0,0 h 7.82 c 0.09,0 0,-0.09 0,0 v 3.91 c 0,0.05 0.04,0.09 0.09,0.09 h 8 c 0.05,0 0.09,-0.04 0.09,-0.09 v -3.91 c 0,-0.09 -0.09,0 0,0 h 7.82 c 0.09,0 0,-0.09 0,0 v 3.91 c 0,0.05 0.04,0.09 0.09,0.09 h 8 c 0.05,0 0.09,-0.04 0.09,-0.09 v -3.91 c 0,-0.09 -0.09,0 0,0 h 7.82 c 0.09,0 0,-0.09 0,0 v 3.91 c 0,0.05 0.04,0.09 0.09,0.09 h 8 c 0.05,0 0.09,-0.04 0.09,-0.09 v -3.91 c 0,-0.09 -0.09,0 0,0 h 7.82 c 0.09,0 0,-0.09 0,0 v 3.91 c 0,0.05 0.04,0.09 0.09,0.09 h 8 c 0.05,0 0.09,-0.04 0.09,-0.09 v -3.91 c 0,-0.09 -0.09,0 0,0 h 7.82 c 0.09,0 0,-0.09 0,0 v 3.91 c 0,0.05 0.04,0.09 0.09,0.09 h 8 c 0.05,0 0.09,-0.04 0.09,-0.09 v -3.91 c 0,-0.09 -0.09,0 0,0 h 7.82 c 0.09,0 0,-0.09 0,0 v 3.91 c 0,0.05 0.04,0.09 0.09,0.09 h 8 c 0.05,0 0.09,-0.04 0.09,-0.09 v -3.91 c 0,-0.09 -0.09,0 0,0 h 7.82 c 0.09,0 0,-0.09 0,0 v 3.91 c 0,0.05 0.04,0.09 0.09,0.09 h 8 c 0.05,0 0.09,-0.04 0.09,-0.09 v -3.91 c 0,-0.09 -0.09,0 0,0 h 7.82 c 0.09,0 0,-0.09 0,0 v 3.91 c 0,0.05 0.04,0.09 0.09,0.09 h 8 c 0.05,0 0.09,-0.04 0.09,-0.09 v -3.91 c 0,-0.09 -0.09,0 0,0 h 7.82 c 0.09,0 0,-0.09 0,0 v 3.91 c 0,0.05 0.04,0.09 0.09,0.09 h 8 c 0.05,0 0.09,-0.04 0.09,-0.09 v -3.91 c 0,-0.09 -0.09,0 0,0 h 7.82 c 0.09,0 0,-0.09 0,0 v 3.91 c 0,0.05 0.04,0.09 0.09,0.09 h 8 c 0.05,0 0.09,-0.04 0.09,-0.09 v -3.91 c 0,-0.09 -0.09,0 0,0 h 7.82 c 0.09,0 0,-0.09 0,0 v 3.91 c 0,0.05 0.04,0.09 0.09,0.09 h 8 c 0.05,0 0.09,-0.04 0.09,-0.09 v -3.91 c 0,-0.09 -0.09,0 0,0 h 7.82 c 0.09,0 0,-0.09 0,0 v 3.91 c 0,0.05 0.04,0.09 0.09,0.09 h 2.053 c 0.049,0 0.09,-0.04 0.09,-0.09 v -4 -190 -4 c 0,-0.05 -0.041,-0.09 -0.09,-0.09 h -2.053 c -0.05,0 -0.09,0.04 -0.09,0.09 v 3.91 c 0,0.09 0.09,0 0,0 h -7.82 c -0.09,0 0,0.09 0,0 v -3.91 c 0,-0.05 -0.04,-0.09 -0.09,-0.09 h -8 c -0.05,0 -0.09,0.04 -0.09,0.09 v 3.91 c 0,0.09 0.09,0 0,0 h -7.82 c -0.09,0 0,0.09 0,0 v -3.91 c 0,-0.05 -0.04,-0.09 -0.09,-0.09 h -8 c -0.05,0 -0.09,0.04 -0.09,0.09 v 3.91 c 0,0.09 0.09,0 0,0 h -7.82 c -0.09,0 0,0.09 0,0 v -3.91 c 0,-0.05 -0.04,-0.09 -0.09,-0.09 h -8 c -0.05,0 -0.09,0.04 -0.09,0.09 v 3.91 c 0,0.09 0.09,0 0,0 h -7.82 c -0.09,0 0,0.09 0,0 v -3.91 c 0,-0.05 -0.04,-0.09 -0.09,-0.09 h -8 c -0.05,0 -0.09,0.04 -0.09,0.09 v 3.91 c 0,0.09 0.09,0 0,0 h -7.82 c -0.09,0 0,0.09 0,0 v -3.91 c 0,-0.05 -0.04,-0.09 -0.09,-0.09 h -8 c -0.05,0 -0.09,0.04 -0.09,0.09 v 3.91 c 0,0.09 0.09,0 0,0 h -7.82 c -0.09,0 0,0.09 0,0 v -3.91 c 0,-0.05 -0.04,-0.09 -0.09,-0.09 h -8 c -0.05,0 -0.09,0.04 -0.09,0.09 v 3.91 c 0,0.09 0.09,0 0,0 h -7.82 c -0.09,0 0,0.09 0,0 v -3.91 c 0,-0.05 -0.04,-0.09 -0.09,-0.09 h -8 c -0.05,0 -0.09,0.04 -0.09,0.09 v 3.91 c 0,0.09 0.09,0 0,0 h -7.82 c -0.09,0 0,0.09 0,0 v -3.91 c 0,-0.05 -0.04,-0.09 -0.09,-0.09 h -8 c -0.05,0 -0.09,0.04 -0.09,0.09 v 3.91 c 0,0.09 0.09,0 0,0 h -7.82 c -0.09,0 0,0.09 0,0 v -3.91 c 0,-0.05 -0.04,-0.09 -0.09,-0.09 h -8 c -0.05,0 -0.09,0.04 -0.09,0.09 v 3.91 c 0,0.09 0.09,0 0,0 h -7.82 c -0.09,0 0,0.09 0,0 v -3.91 c 0,-0.05 -0.04,-0.09 -0.09,-0.09 h -8 c -0.05,0 -0.09,0.04 -0.09,0.09 v 3.91 c 0,0.09 0.09,0 0,0 h -7.82 c -0.09,0 0,0.09 0,0 v -3.91 c 0,-0.05 -0.04,-0.09 -0.09,-0.09 h -8 c -0.05,0 -0.09,0.04 -0.09,0.09 v 3.91 c 0,0.09 0.09,0 0,0 h -7.82 c -0.09,0 0,0.09 0,0 v -3.91 c 0,-0.05 -0.04,-0.09 -0.09,-0.09 h -8 c -0.05,0 -0.09,0.04 -0.09,0.09 v 3.91 c 0,0.09 0.09,0 0,0 h -7.82 c -0.09,0 0,0.09 0,0 v -3.91 c 0,-0.05 -0.04,-0.09 -0.09,-0.09 h -8 c -0.05,0 -0.09,0.04 -0.09,0.09 v 3.91 c 0,0.09 0.09,0 0,0 h -7.82 c -0.09,0 0,0.09 0,0 v -3.91 c 0,-0.05 -0.04,-0.09 -0.09,-0.09 h -2.053 c -0.05,0 -0.09,0.04 -0.09,0.09 v 4 8 c 0,0.788 0.207,1.562 0.602,2.245 0.394,0.683 0.96,1.249 1.643,1.643 0.655,0.379 1.199,0.923 1.578,1.578 0.378,0.655 0.577,1.398 0.577,2.155 v 158.758 c 0,0.757 -0.199,1.5 -0.577,2.155 -0.379,0.655 -0.923,1.199 -1.578,1.578 -0.683,0.394 -1.249,0.96 -1.643,1.643 -0.395,0.683 -0.602,1.457 -0.602,2.245 v 8 4 c 0,0.05 0.04,0.09 0.09,0.09 z"
         id="path2507" />
      <path
         style="stroke:#000000;stroke-width:0.18000001"
         inkscape:connector-curvature="0"
         d="m 754.03,159.49 v -3.91 c 0,-0.09 -0.09,0 0,0 h 3.82 c 0.09,0 0,-0.09 0,0 v 7.82 c 0,0.09 0.09,0 0,0 h -3.82 c -0.09,0 0,0.09 0,0 z"
         id="path2509" />
      <path
         style="stroke:#000000;stroke-width:0.18000001"
         inkscape:connector-curvature="0"
         d="m 754.03,175.49 v -3.91 c 0,-0.09 -0.09,0 0,0 h 3.82 c 0.09,0 0,-0.09 0,0 v 7.82 c 0,0.09 0.09,0 0,0 h -3.82 c -0.09,0 0,0.09 0,0 z"
         id="path2511" />
      <path
         style="stroke:#000000;stroke-width:0.18000001"
         inkscape:connector-curvature="0"
         d="m 754.03,191.49 v -3.91 c 0,-0.09 -0.09,0 0,0 h 3.82 c 0.09,0 0,-0.09 0,0 v 7.82 c 0,0.09 0.09,0 0,0 h -3.82 c -0.09,0 0,0.09 0,0 z"
         id="path2513" />
      <path
         style="stroke:#000000;stroke-width:0.18000001"
         inkscape:connector-curvature="0"
         d="m 754.03,207.49 v -3.91 c 0,-0.09 -0.09,0 0,0 h 3.82 c 0.09,0 0,-0.09 0,0 v 7.82 c 0,0.09 0.09,0 0,0 h -3.82 c -0.09,0 0,0.09 0,0 z"
         id="path2515" />
      <path
         style="stroke:#000000;stroke-width:0.18000001"
         inkscape:connector-curvature="0"
         d="m 754.03,223.49 v -3.91 c 0,-0.09 -0.09,0 0,0 h 3.82 c 0.09,0 0,-0.09 0,0 v 7.82 c 0,0.09 0.09,0 0,0 h -3.82 c -0.09,0 0,0.09 0,0 z"
         id="path2517" />
      <path
         style="stroke:#000000;stroke-width:0.18000001"
         inkscape:connector-curvature="0"
         d="m 754.03,239.49 v -3.91 c 0,-0.09 -0.09,0 0,0 h 3.82 c 0.09,0 0,-0.09 0,0 v 7.82 c 0,0.09 0.09,0 0,0 h -3.82 c -0.09,0 0,0.09 0,0 z"
         id="path2519" />
      <path
         style="stroke:#000000;stroke-width:0.18000001"
         inkscape:connector-curvature="0"
         d="m 754.03,255.49 v -3.91 c 0,-0.09 -0.09,0 0,0 h 3.82 c 0.09,0 0,-0.09 0,0 v 7.82 c 0,0.09 0.09,0 0,0 h -3.82 c -0.09,0 0,0.09 0,0 z"
         id="path2521" />
      <path
         style="stroke:#000000;stroke-width:0.18000001"
         inkscape:connector-curvature="0"
         d="m 754.03,271.49 v -3.91 c 0,-0.09 -0.09,0 0,0 h 3.82 c 0.09,0 0,-0.09 0,0 v 7.82 c 0,0.09 0.09,0 0,0 h -3.82 c -0.09,0 0,0.09 0,0 z"
         id="path2523" />
      <path
         style="stroke:#000000;stroke-width:0.18000001"
         inkscape:connector-curvature="0"
         d="m 754.03,287.49 v -3.91 c 0,-0.09 -0.09,0 0,0 h 3.82 c 0.09,0 0,-0.09 0,0 v 7.82 c 0,0.09 0.09,0 0,0 h -3.82 c -0.09,0 0,0.09 0,0 z"
         id="path2525" />
      <path
         style="stroke:#000000;stroke-width:0.18000001"
         inkscape:connector-curvature="0"
         d="m 754.03,303.49 v -3.91 c 0,-0.09 -0.09,0 0,0 h 3.82 c 0.09,0 0,-0.09 0,0 v 7.82 c 0,0.09 0.09,0 0,0 h -3.82 c -0.09,0 0,0.09 0,0 z"
         id="path2527" />
      <path
         style="stroke:#000000;stroke-width:0.18000001"
         inkscape:connector-curvature="0"
         d="m 754.03,319.49 v -3.91 c 0,-0.09 -0.09,0 0,0 h 3.82 c 0.09,0 0,-0.09 0,0 v 7.82 c 0,0.09 0.09,0 0,0 h -3.82 c -0.09,0 0,0.09 0,0 z"
         id="path2529" />
      <path
         style="stroke:#000000;stroke-width:0.18000001"
         inkscape:connector-curvature="0"
         d="m 754.03,335.49 v -3.91 c 0,-0.09 -0.09,0 0,0 h 3.82 c 0.09,0 0,-0.09 0,0 v 7.82 c 0,0.09 0.09,0 0,0 h -3.82 c -0.09,0 0,0.09 0,0 z"
         id="path2531" />
    </g>
    <g
       transform="translate(-1098.9654,-264.33193)"
       id="p-6"
       style="fill:none;stroke-linecap:round;stroke-linejoin:round;stroke:#000000">
      <path
         style="stroke:#000000;stroke-width:0.18000001"
         inkscape:connector-curvature="0"
         d="m 1112.381,346.58 h 9.35 c 0.05,0 0.09,-0.04 0.09,-0.09 v -3.91 c 0,-0.09 -0.09,0 0,0 h 7.82 c 0.09,0 0,-0.09 0,0 v 3.91 c 0,0.05 0.04,0.09 0.09,0.09 h 8 c 0.05,0 0.09,-0.04 0.09,-0.09 v -3.91 c 0,-0.09 -0.09,0 0,0 h 7.82 c 0.09,0 0,-0.09 0,0 v 3.91 c 0,0.05 0.04,0.09 0.09,0.09 h 8 c 0.05,0 0.09,-0.04 0.09,-0.09 v -3.91 c 0,-0.09 -0.09,0 0,0 h 7.82 c 0.09,0 0,-0.09 0,0 v 3.91 c 0,0.05 0.04,0.09 0.09,0.09 h 8 c 0.05,0 0.09,-0.04 0.09,-0.09 v -3.91 c 0,-0.09 -0.09,0 0,0 h 7.82 c 0.09,0 0,-0.09 0,0 v 3.91 c 0,0.05 0.04,0.09 0.09,0.09 h 8 c 0.05,0 0.09,-0.04 0.09,-0.09 v -3.91 c 0,-0.09 -0.09,0 0,0 h 7.82 c 0.09,0 0,-0.09 0,0 v 3.91 c 0,0.05 0.04,0.09 0.09,0.09 h 8 c 0.05,0 0.09,-0.04 0.09,-0.09 v -3.91 c 0,-0.09 -0.09,0 0,0 h 7.82 c 0.09,0 0,-0.09 0,0 v 3.91 c 0,0.05 0.04,0.09 0.09,0.09 h 8 c 0.05,0 0.09,-0.04 0.09,-0.09 v -3.91 c 0,-0.09 -0.09,0 0,0 h 7.82 c 0.09,0 0,-0.09 0,0 v 3.91 c 0,0.05 0.04,0.09 0.09,0.09 h 8 c 0.05,0 0.09,-0.04 0.09,-0.09 v -3.91 c 0,-0.09 -0.09,0 0,0 h 7.82 c 0.09,0 0,-0.09 0,0 v 3.91 c 0,0.05 0.04,0.09 0.09,0.09 h 8 c 0.05,0 0.09,-0.04 0.09,-0.09 v -3.91 c 0,-0.09 -0.09,0 0,0 h 7.82 c 0.09,0 0,-0.09 0,0 v 3.91 c 0,0.05 0.04,0.09 0.09,0.09 h 9.35 4 c 0.05,0 0.09,-0.04 0.09,-0.09 v -4 -190 -4 c 0,-0.05 -0.04,-0.09 -0.09,-0.09 h -4 -9.35 c -0.05,0 -0.09,0.04 -0.09,0.09 v 3.91 c 0,0.09 0.09,0 0,0 h -7.82 c -0.09,0 0,0.09 0,0 v -3.91 c 0,-0.05 -0.04,-0.09 -0.09,-0.09 h -8 c -0.05,0 -0.09,0.04 -0.09,0.09 v 3.91 c 0,0.09 0.09,0 0,0 h -7.82 c -0.09,0 0,0.09 0,0 v -3.91 c 0,-0.05 -0.04,-0.09 -0.09,-0.09 h -8 c -0.05,0 -0.09,0.04 -0.09,0.09 v 3.91 c 0,0.09 0.09,0 0,0 h -7.82 c -0.09,0 0,0.09 0,0 v -3.91 c 0,-0.05 -0.04,-0.09 -0.09,-0.09 h -8 c -0.05,0 -0.09,0.04 -0.09,0.09 v 3.91 c 0,0.09 0.09,0 0,0 h -7.82 c -0.09,0 0,0.09 0,0 v -3.91 c 0,-0.05 -0.04,-0.09 -0.09,-0.09 h -8 c -0.05,0 -0.09,0.04 -0.09,0.09 v 3.91 c 0,0.09 0.09,0 0,0 h -7.82 c -0.09,0 0,0.09 0,0 v -3.91 c 0,-0.05 -0.04,-0.09 -0.09,-0.09 h -8 c -0.05,0 -0.09,0.04 -0.09,0.09 v 3.91 c 0,0.09 0.09,0 0,0 h -7.82 c -0.09,0 0,0.09 0,0 v -3.91 c 0,-0.05 -0.04,-0.09 -0.09,-0.09 h -8 c -0.05,0 -0.09,0.04 -0.09,0.09 v 3.91 c 0,0.09 0.09,0 0,0 h -7.82 c -0.09,0 0,0.09 0,0 v -3.91 c 0,-0.05 -0.04,-0.09 -0.09,-0.09 h -8 c -0.05,0 -0.09,0.04 -0.09,0.09 v 3.91 c 0,0.09 0.09,0 0,0 h -7.82 c -0.09,0 0,0.09 0,0 v -3.91 c 0,-0.05 -0.04,-0.09 -0.09,-0.09 h -8 c -0.05,0 -0.09,0.04 -0.09,0.09 v 3.91 c 0,0.09 0.09,0 0,0 h -7.82 c -0.09,0 0,0.09 0,0 v -3.91 c 0,-0.05 -0.04,-0.09 -0.09,-0.09 h -9.35 c -0.05,0 -0.09,0.04 -0.09,0.09 v 4 190 4 c 0,0.05 0.04,0.09 0.09,0.09 z"
         id="path2537" />
    </g>
    <g
       transform="translate(-1098.9654,-264.33193)"
       id="p-7"
       style="fill:none;stroke-linecap:round;stroke-linejoin:round;stroke:#000000">
      <path
         style="stroke:#000000;stroke-width:0.18000001"
         inkscape:connector-curvature="0"
         d="m 1297.261,334.49 h -5.91 c -0.09,0 0,0.09 0,0 v -3.82 c 0,-0.09 -0.09,0 0,0 h 3.71 c 0.05,0 0.09,-0.04 0.09,-0.09 v -8 c 0,-0.05 -0.04,-0.09 -0.09,-0.09 h -3.71 c -0.09,0 0,0.09 0,0 v -3.82 c 0,-0.09 -0.09,0 0,0 h 11.82 c 0.09,0 0,-0.09 0,0 v 3.82 c 0,0.09 0.09,0 0,0 h -3.71 c -0.049,0 -0.09,0.04 -0.09,0.09 v 8 c 0,0.05 0.041,0.09 0.09,0.09 h 3.71 c 0.09,0 0,-0.09 0,0 v 3.82 c 0,0.09 0.09,0 0,0 z"
         id="path2540" />
      <path
         style="stroke:#000000;stroke-width:0.18000001"
         inkscape:connector-curvature="0"
         d="m 1273.261,346.58 h 315.8 c 0.05,0 0.09,-0.04 0.09,-0.09 v -4 -190 -4 c 0,-0.05 -0.04,-0.09 -0.09,-0.09 h -315.8 c -0.049,0 -0.09,0.04 -0.09,0.09 v 4 190 4 c 0,0.05 0.041,0.09 0.09,0.09 z"
         id="path2542" />
      <path
         style="stroke:#000000;stroke-width:0.18000001"
         inkscape:connector-curvature="0"
         d="m 1577.161,338.58 h 3.91 c 0.09,0 0,-0.09 0,0 v 3.82 c 0,0.09 0.09,0 0,0 h -7.82 c -0.09,0 0,0.09 0,0 v -3.82 c 0,-0.09 -0.09,0 0,0 z"
         id="path2544" />
      <path
         style="stroke:#000000;stroke-width:0.18000001"
         inkscape:connector-curvature="0"
         d="m 1561.161,338.58 h 3.91 c 0.09,0 0,-0.09 0,0 v 3.82 c 0,0.09 0.09,0 0,0 h -7.82 c -0.09,0 0,0.09 0,0 v -3.82 c 0,-0.09 -0.09,0 0,0 z"
         id="path2546" />
      <path
         style="stroke:#000000;stroke-width:0.18000001"
         inkscape:connector-curvature="0"
         d="m 1545.161,338.58 h 3.91 c 0.09,0 0,-0.09 0,0 v 3.82 c 0,0.09 0.09,0 0,0 h -7.82 c -0.09,0 0,0.09 0,0 v -3.82 c 0,-0.09 -0.09,0 0,0 z"
         id="path2548" />
      <path
         style="stroke:#000000;stroke-width:0.18000001"
         inkscape:connector-curvature="0"
         d="m 1529.161,338.58 h 3.91 c 0.09,0 0,-0.09 0,0 v 3.82 c 0,0.09 0.09,0 0,0 h -7.82 c -0.09,0 0,0.09 0,0 v -3.82 c 0,-0.09 -0.09,0 0,0 z"
         id="path2550" />
      <path
         style="stroke:#000000;stroke-width:0.18000001"
         inkscape:connector-curvature="0"
         d="m 1513.161,338.58 h 3.91 c 0.09,0 0,-0.09 0,0 v 3.82 c 0,0.09 0.09,0 0,0 h -7.82 c -0.09,0 0,0.09 0,0 v -3.82 c 0,-0.09 -0.09,0 0,0 z"
         id="path2552" />
      <path
         style="stroke:#000000;stroke-width:0.18000001"
         inkscape:connector-curvature="0"
         d="m 1497.161,338.58 h 3.91 c 0.09,0 0,-0.09 0,0 v 3.82 c 0,0.09 0.09,0 0,0 h -7.82 c -0.09,0 0,0.09 0,0 v -3.82 c 0,-0.09 -0.09,0 0,0 z"
         id="path2554" />
      <path
         style="stroke:#000000;stroke-width:0.18000001"
         inkscape:connector-curvature="0"
         d="m 1481.161,338.58 h 3.91 c 0.09,0 0,-0.09 0,0 v 3.82 c 0,0.09 0.09,0 0,0 h -7.82 c -0.09,0 0,0.09 0,0 v -3.82 c 0,-0.09 -0.09,0 0,0 z"
         id="path2556" />
      <path
         style="stroke:#000000;stroke-width:0.18000001"
         inkscape:connector-curvature="0"
         d="m 1465.161,338.58 h 3.91 c 0.09,0 0,-0.09 0,0 v 3.82 c 0,0.09 0.09,0 0,0 h -7.82 c -0.09,0 0,0.09 0,0 v -3.82 c 0,-0.09 -0.09,0 0,0 z"
         id="path2558" />
      <path
         style="stroke:#000000;stroke-width:0.18000001"
         inkscape:connector-curvature="0"
         d="m 1449.161,338.58 h 3.91 c 0.09,0 0,-0.09 0,0 v 3.82 c 0,0.09 0.09,0 0,0 h -7.82 c -0.09,0 0,0.09 0,0 v -3.82 c 0,-0.09 -0.09,0 0,0 z"
         id="path2560" />
      <path
         style="stroke:#000000;stroke-width:0.18000001"
         inkscape:connector-curvature="0"
         d="m 1433.161,338.58 h 3.91 c 0.09,0 0,-0.09 0,0 v 3.82 c 0,0.09 0.09,0 0,0 h -7.82 c -0.09,0 0,0.09 0,0 v -3.82 c 0,-0.09 -0.09,0 0,0 z"
         id="path2562" />
      <path
         style="stroke:#000000;stroke-width:0.18000001"
         inkscape:connector-curvature="0"
         d="m 1417.161,338.58 h 3.91 c 0.09,0 0,-0.09 0,0 v 3.82 c 0,0.09 0.09,0 0,0 h -7.82 c -0.09,0 0,0.09 0,0 v -3.82 c 0,-0.09 -0.09,0 0,0 z"
         id="path2564" />
      <path
         style="stroke:#000000;stroke-width:0.18000001"
         inkscape:connector-curvature="0"
         d="m 1401.161,338.58 h 3.91 c 0.09,0 0,-0.09 0,0 v 3.82 c 0,0.09 0.09,0 0,0 h -7.82 c -0.09,0 0,0.09 0,0 v -3.82 c 0,-0.09 -0.09,0 0,0 z"
         id="path2566" />
      <path
         style="stroke:#000000;stroke-width:0.18000001"
         inkscape:connector-curvature="0"
         d="m 1385.161,338.58 h 3.91 c 0.09,0 0,-0.09 0,0 v 3.82 c 0,0.09 0.09,0 0,0 h -7.82 c -0.09,0 0,0.09 0,0 v -3.82 c 0,-0.09 -0.09,0 0,0 z"
         id="path2568" />
      <path
         style="stroke:#000000;stroke-width:0.18000001"
         inkscape:connector-curvature="0"
         d="m 1369.161,338.58 h 3.91 c 0.09,0 0,-0.09 0,0 v 3.82 c 0,0.09 0.09,0 0,0 h -7.82 c -0.09,0 0,0.09 0,0 v -3.82 c 0,-0.09 -0.09,0 0,0 z"
         id="path2570" />
      <path
         style="stroke:#000000;stroke-width:0.18000001"
         inkscape:connector-curvature="0"
         d="m 1353.161,338.58 h 3.91 c 0.09,0 0,-0.09 0,0 v 3.82 c 0,0.09 0.09,0 0,0 h -7.82 c -0.09,0 0,0.09 0,0 v -3.82 c 0,-0.09 -0.09,0 0,0 z"
         id="path2572" />
      <path
         style="stroke:#000000;stroke-width:0.18000001"
         inkscape:connector-curvature="0"
         d="m 1337.161,338.58 h 3.91 c 0.09,0 0,-0.09 0,0 v 3.82 c 0,0.09 0.09,0 0,0 h -7.82 c -0.09,0 0,0.09 0,0 v -3.82 c 0,-0.09 -0.09,0 0,0 z"
         id="path2574" />
      <path
         style="stroke:#000000;stroke-width:0.18000001"
         inkscape:connector-curvature="0"
         d="m 1321.161,338.58 h 3.91 c 0.09,0 0,-0.09 0,0 v 3.82 c 0,0.09 0.09,0 0,0 h -7.82 c -0.09,0 0,0.09 0,0 v -3.82 c 0,-0.09 -0.09,0 0,0 z"
         id="path2576" />
      <path
         style="stroke:#000000;stroke-width:0.18000001"
         inkscape:connector-curvature="0"
         d="m 1297.861,160.49 h 5.91 c 0.09,0 0,-0.09 0,0 v 3.82 c 0,0.09 0.09,0 0,0 h -3.71 c -0.049,0 -0.09,0.04 -0.09,0.09 v 8 c 0,0.05 0.041,0.09 0.09,0.09 h 3.71 c 0.09,0 0,-0.09 0,0 v 3.82 c 0,0.09 0.09,0 0,0 h -11.82 c -0.09,0 0,0.09 0,0 v -3.82 c 0,-0.09 -0.09,0 0,0 h 3.71 c 0.05,0 0.09,-0.04 0.09,-0.09 v -8 c 0,-0.05 -0.04,-0.09 -0.09,-0.09 h -3.71 c -0.09,0 0,0.09 0,0 v -3.82 c 0,-0.09 -0.09,0 0,0 z"
         id="path2578" />
      <path
         style="stroke:#000000;stroke-width:0.18000001"
         inkscape:connector-curvature="0"
         d="m 1321.361,156.4 h -3.91 c -0.09,0 0,0.09 0,0 v -3.82 c 0,-0.09 -0.09,0 0,0 h 7.82 c 0.09,0 0,-0.09 0,0 v 3.82 c 0,0.09 0.09,0 0,0 z"
         id="path2580" />
      <path
         style="stroke:#000000;stroke-width:0.18000001"
         inkscape:connector-curvature="0"
         d="m 1337.361,156.4 h -3.91 c -0.09,0 0,0.09 0,0 v -3.82 c 0,-0.09 -0.09,0 0,0 h 7.82 c 0.09,0 0,-0.09 0,0 v 3.82 c 0,0.09 0.09,0 0,0 z"
         id="path2582" />
      <path
         style="stroke:#000000;stroke-width:0.18000001"
         inkscape:connector-curvature="0"
         d="m 1353.361,156.4 h -3.91 c -0.09,0 0,0.09 0,0 v -3.82 c 0,-0.09 -0.09,0 0,0 h 7.82 c 0.09,0 0,-0.09 0,0 v 3.82 c 0,0.09 0.09,0 0,0 z"
         id="path2584" />
      <path
         style="stroke:#000000;stroke-width:0.18000001"
         inkscape:connector-curvature="0"
         d="m 1369.361,156.4 h -3.91 c -0.09,0 0,0.09 0,0 v -3.82 c 0,-0.09 -0.09,0 0,0 h 7.82 c 0.09,0 0,-0.09 0,0 v 3.82 c 0,0.09 0.09,0 0,0 z"
         id="path2586" />
      <path
         style="stroke:#000000;stroke-width:0.18000001"
         inkscape:connector-curvature="0"
         d="m 1385.361,156.4 h -3.91 c -0.09,0 0,0.09 0,0 v -3.82 c 0,-0.09 -0.09,0 0,0 h 7.82 c 0.09,0 0,-0.09 0,0 v 3.82 c 0,0.09 0.09,0 0,0 z"
         id="path2588" />
      <path
         style="stroke:#000000;stroke-width:0.18000001"
         inkscape:connector-curvature="0"
         d="m 1401.361,156.4 h -3.91 c -0.09,0 0,0.09 0,0 v -3.82 c 0,-0.09 -0.09,0 0,0 h 7.82 c 0.09,0 0,-0.09 0,0 v 3.82 c 0,0.09 0.09,0 0,0 z"
         id="path2590" />
      <path
         style="stroke:#000000;stroke-width:0.18000001"
         inkscape:connector-curvature="0"
         d="m 1417.361,156.4 h -3.91 c -0.09,0 0,0.09 0,0 v -3.82 c 0,-0.09 -0.09,0 0,0 h 7.82 c 0.09,0 0,-0.09 0,0 v 3.82 c 0,0.09 0.09,0 0,0 z"
         id="path2592" />
      <path
         style="stroke:#000000;stroke-width:0.18000001"
         inkscape:connector-curvature="0"
         d="m 1433.361,156.4 h -3.91 c -0.09,0 0,0.09 0,0 v -3.82 c 0,-0.09 -0.09,0 0,0 h 7.82 c 0.09,0 0,-0.09 0,0 v 3.82 c 0,0.09 0.09,0 0,0 z"
         id="path2594" />
      <path
         style="stroke:#000000;stroke-width:0.18000001"
         inkscape:connector-curvature="0"
         d="m 1449.361,156.4 h -3.91 c -0.09,0 0,0.09 0,0 v -3.82 c 0,-0.09 -0.09,0 0,0 h 7.82 c 0.09,0 0,-0.09 0,0 v 3.82 c 0,0.09 0.09,0 0,0 z"
         id="path2596" />
      <path
         style="stroke:#000000;stroke-width:0.18000001"
         inkscape:connector-curvature="0"
         d="m 1465.361,156.4 h -3.91 c -0.09,0 0,0.09 0,0 v -3.82 c 0,-0.09 -0.09,0 0,0 h 7.82 c 0.09,0 0,-0.09 0,0 v 3.82 c 0,0.09 0.09,0 0,0 z"
         id="path2598" />
      <path
         style="stroke:#000000;stroke-width:0.18000001"
         inkscape:connector-curvature="0"
         d="m 1481.361,156.4 h -3.91 c -0.09,0 0,0.09 0,0 v -3.82 c 0,-0.09 -0.09,0 0,0 h 7.82 c 0.09,0 0,-0.09 0,0 v 3.82 c 0,0.09 0.09,0 0,0 z"
         id="path2600" />
      <path
         style="stroke:#000000;stroke-width:0.18000001"
         inkscape:connector-curvature="0"
         d="m 1497.361,156.4 h -3.91 c -0.09,0 0,0.09 0,0 v -3.82 c 0,-0.09 -0.09,0 0,0 h 7.82 c 0.09,0 0,-0.09 0,0 v 3.82 c 0,0.09 0.09,0 0,0 z"
         id="path2602" />
      <path
         style="stroke:#000000;stroke-width:0.18000001"
         inkscape:connector-curvature="0"
         d="m 1513.361,156.4 h -3.91 c -0.09,0 0,0.09 0,0 v -3.82 c 0,-0.09 -0.09,0 0,0 h 7.82 c 0.09,0 0,-0.09 0,0 v 3.82 c 0,0.09 0.09,0 0,0 z"
         id="path2604" />
      <path
         style="stroke:#000000;stroke-width:0.18000001"
         inkscape:connector-curvature="0"
         d="m 1529.361,156.4 h -3.91 c -0.09,0 0,0.09 0,0 v -3.82 c 0,-0.09 -0.09,0 0,0 h 7.82 c 0.09,0 0,-0.09 0,0 v 3.82 c 0,0.09 0.09,0 0,0 z"
         id="path2606" />
      <path
         style="stroke:#000000;stroke-width:0.18000001"
         inkscape:connector-curvature="0"
         d="m 1545.361,156.4 h -3.91 c -0.09,0 0,0.09 0,0 v -3.82 c 0,-0.09 -0.09,0 0,0 h 7.82 c 0.09,0 0,-0.09 0,0 v 3.82 c 0,0.09 0.09,0 0,0 z"
         id="path2608" />
      <path
         style="stroke:#000000;stroke-width:0.18000001"
         inkscape:connector-curvature="0"
         d="m 1561.361,156.4 h -3.91 c -0.09,0 0,0.09 0,0 v -3.82 c 0,-0.09 -0.09,0 0,0 h 7.82 c 0.09,0 0,-0.09 0,0 v 3.82 c 0,0.09 0.09,0 0,0 z"
         id="path2610" />
      <path
         style="stroke:#000000;stroke-width:0.18000001"
         inkscape:connector-curvature="0"
         d="m 1577.361,156.4 h -3.91 c -0.09,0 0,0.09 0,0 v -3.82 c 0,-0.09 -0.09,0 0,0 h 7.82 c 0.09,0 0,-0.09 0,0 v 3.82 c 0,0.09 0.09,0 0,0 z"
         id="path2612" />
    </g>
    <g
       transform="translate(-1084.8355,-61.803665)"
       id="p-8"
       style="fill:none;stroke-linecap:round;stroke-linejoin:round;stroke:#000000">
      <path
         style="stroke:#000000;stroke-width:0.18000001"
         inkscape:connector-curvature="0"
         d="m 1595.241,346.58 h 8 c 0.05,0 0.09,-0.04 0.09,-0.09 v -4 -279.8 -4 c 0,-0.05 -0.04,-0.09 -0.09,-0.09 h -8 c -0.049,0 -0.09,0.04 -0.09,0.09 v 4 7.81 c 0,0.09 0.09,0 0,0 h -3.91 c -0.049,0 -0.09,0.04 -0.09,0.09 v 8 c 0,0.05 0.041,0.09 0.09,0.09 h 3.91 c 0.09,0 0,-0.09 0,0 v 7.82 c 0,0.09 0.09,0 0,0 h -3.91 c -0.049,0 -0.09,0.04 -0.09,0.09 v 8 c 0,0.05 0.041,0.09 0.09,0.09 h 3.91 c 0.09,0 0,-0.09 0,0 v 7.82 c 0,0.09 0.09,0 0,0 h -3.91 c -0.049,0 -0.09,0.04 -0.09,0.09 v 8 c 0,0.05 0.041,0.09 0.09,0.09 h 3.91 c 0.09,0 0,-0.09 0,0 v 7.82 c 0,0.09 0.09,0 0,0 h -3.91 c -0.049,0 -0.09,0.04 -0.09,0.09 v 8 c 0,0.05 0.041,0.09 0.09,0.09 h 3.91 c 0.09,0 0,-0.09 0,0 v 7.82 c 0,0.09 0.09,0 0,0 h -3.91 c -0.049,0 -0.09,0.04 -0.09,0.09 v 8 c 0,0.05 0.041,0.09 0.09,0.09 h 3.91 c 0.09,0 0,-0.09 0,0 v 7.82 c 0,0.09 0.09,0 0,0 h -3.91 c -0.049,0 -0.09,0.04 -0.09,0.09 v 8 c 0,0.05 0.041,0.09 0.09,0.09 h 3.91 c 0.09,0 0,-0.09 0,0 v 7.82 c 0,0.09 0.09,0 0,0 h -3.91 c -0.049,0 -0.09,0.04 -0.09,0.09 v 8 c 0,0.05 0.041,0.09 0.09,0.09 h 3.91 c 0.09,0 0,-0.09 0,0 v 7.82 c 0,0.09 0.09,0 0,0 h -3.91 c -0.049,0 -0.09,0.04 -0.09,0.09 v 8 c 0,0.05 0.041,0.09 0.09,0.09 h 3.91 c 0.09,0 0,-0.09 0,0 v 7.82 c 0,0.09 0.09,0 0,0 h -3.91 c -0.049,0 -0.09,0.04 -0.09,0.09 v 8 c 0,0.05 0.041,0.09 0.09,0.09 h 3.91 c 0.09,0 0,-0.09 0,0 v 7.82 c 0,0.09 0.09,0 0,0 h -3.91 c -0.049,0 -0.09,0.04 -0.09,0.09 v 8 c 0,0.05 0.041,0.09 0.09,0.09 h 3.91 c 0.09,0 0,-0.09 0,0 v 7.82 c 0,0.09 0.09,0 0,0 h -3.91 c -0.049,0 -0.09,0.04 -0.09,0.09 v 8 c 0,0.05 0.041,0.09 0.09,0.09 h 3.91 c 0.09,0 0,-0.09 0,0 v 7.82 c 0,0.09 0.09,0 0,0 h -3.91 c -0.049,0 -0.09,0.04 -0.09,0.09 v 8 c 0,0.05 0.041,0.09 0.09,0.09 h 3.91 c 0.09,0 0,-0.09 0,0 v 7.82 c 0,0.09 0.09,0 0,0 h -3.91 c -0.049,0 -0.09,0.04 -0.09,0.09 v 8 c 0,0.05 0.041,0.09 0.09,0.09 h 3.91 c 0.09,0 0,-0.09 0,0 v 7.82 c 0,0.09 0.09,0 0,0 h -3.91 c -0.049,0 -0.09,0.04 -0.09,0.09 v 8 c 0,0.05 0.041,0.09 0.09,0.09 h 3.91 c 0.09,0 0,-0.09 0,0 v 7.82 c 0,0.09 0.09,0 0,0 h -3.91 c -0.049,0 -0.09,0.04 -0.09,0.09 v 8 c 0,0.05 0.041,0.09 0.09,0.09 h 3.91 c 0.09,0 0,-0.09 0,0 v 7.82 c 0,0.09 0.09,0 0,0 h -3.91 c -0.049,0 -0.09,0.04 -0.09,0.09 v 8 c 0,0.05 0.041,0.09 0.09,0.09 h 3.91 c 0.09,0 0,-0.09 0,0 v 7.82 c 0,0.09 0.09,0 0,0 h -3.91 c -0.049,0 -0.09,0.04 -0.09,0.09 v 8 c 0,0.05 0.041,0.09 0.09,0.09 h 3.91 c 0.09,0 0,-0.09 0,0 v 7.81 4 c 0,0.05 0.041,0.09 0.09,0.09 z"
         id="path2615" />
    </g>
    <g
       transform="translate(-1084.8355,-61.803665)"
       id="p-9"
       style="fill:none;stroke-linecap:round;stroke-linejoin:round;stroke:#000000">
      <path
         style="stroke:#000000;stroke-width:0.18000001"
         inkscape:connector-curvature="0"
         d="m 1609.421,346.58 h 8 c 0.05,0 0.09,-0.04 0.09,-0.09 v -4 -279.8 -4 c 0,-0.05 -0.04,-0.09 -0.09,-0.09 h -8 c -0.049,0 -0.09,0.04 -0.09,0.09 v 4 7.81 c 0,0.09 0.09,0 0,0 h -3.91 c -0.049,0 -0.09,0.04 -0.09,0.09 v 8 c 0,0.05 0.041,0.09 0.09,0.09 h 3.91 c 0.09,0 0,-0.09 0,0 v 7.82 c 0,0.09 0.09,0 0,0 h -3.91 c -0.049,0 -0.09,0.04 -0.09,0.09 v 8 c 0,0.05 0.041,0.09 0.09,0.09 h 3.91 c 0.09,0 0,-0.09 0,0 v 7.82 c 0,0.09 0.09,0 0,0 h -3.91 c -0.049,0 -0.09,0.04 -0.09,0.09 v 8 c 0,0.05 0.041,0.09 0.09,0.09 h 3.91 c 0.09,0 0,-0.09 0,0 v 7.82 c 0,0.09 0.09,0 0,0 h -3.91 c -0.049,0 -0.09,0.04 -0.09,0.09 v 8 c 0,0.05 0.041,0.09 0.09,0.09 h 3.91 c 0.09,0 0,-0.09 0,0 v 7.82 c 0,0.09 0.09,0 0,0 h -3.91 c -0.049,0 -0.09,0.04 -0.09,0.09 v 8 c 0,0.05 0.041,0.09 0.09,0.09 h 3.91 c 0.09,0 0,-0.09 0,0 v 7.82 c 0,0.09 0.09,0 0,0 h -3.91 c -0.049,0 -0.09,0.04 -0.09,0.09 v 8 c 0,0.05 0.041,0.09 0.09,0.09 h 3.91 c 0.09,0 0,-0.09 0,0 v 7.82 c 0,0.09 0.09,0 0,0 h -3.91 c -0.049,0 -0.09,0.04 -0.09,0.09 v 8 c 0,0.05 0.041,0.09 0.09,0.09 h 3.91 c 0.09,0 0,-0.09 0,0 v 7.82 c 0,0.09 0.09,0 0,0 h -3.91 c -0.049,0 -0.09,0.04 -0.09,0.09 v 8 c 0,0.05 0.041,0.09 0.09,0.09 h 3.91 c 0.09,0 0,-0.09 0,0 v 7.82 c 0,0.09 0.09,0 0,0 h -3.91 c -0.049,0 -0.09,0.04 -0.09,0.09 v 8 c 0,0.05 0.041,0.09 0.09,0.09 h 3.91 c 0.09,0 0,-0.09 0,0 v 7.82 c 0,0.09 0.09,0 0,0 h -3.91 c -0.049,0 -0.09,0.04 -0.09,0.09 v 8 c 0,0.05 0.041,0.09 0.09,0.09 h 3.91 c 0.09,0 0,-0.09 0,0 v 7.82 c 0,0.09 0.09,0 0,0 h -3.91 c -0.049,0 -0.09,0.04 -0.09,0.09 v 8 c 0,0.05 0.041,0.09 0.09,0.09 h 3.91 c 0.09,0 0,-0.09 0,0 v 7.82 c 0,0.09 0.09,0 0,0 h -3.91 c -0.049,0 -0.09,0.04 -0.09,0.09 v 8 c 0,0.05 0.041,0.09 0.09,0.09 h 3.91 c 0.09,0 0,-0.09 0,0 v 7.82 c 0,0.09 0.09,0 0,0 h -3.91 c -0.049,0 -0.09,0.04 -0.09,0.09 v 8 c 0,0.05 0.041,0.09 0.09,0.09 h 3.91 c 0.09,0 0,-0.09 0,0 v 7.82 c 0,0.09 0.09,0 0,0 h -3.91 c -0.049,0 -0.09,0.04 -0.09,0.09 v 8 c 0,0.05 0.041,0.09 0.09,0.09 h 3.91 c 0.09,0 0,-0.09 0,0 v 7.82 c 0,0.09 0.09,0 0,0 h -3.91 c -0.049,0 -0.09,0.04 -0.09,0.09 v 8 c 0,0.05 0.041,0.09 0.09,0.09 h 3.91 c 0.09,0 0,-0.09 0,0 v 7.82 c 0,0.09 0.09,0 0,0 h -3.91 c -0.049,0 -0.09,0.04 -0.09,0.09 v 8 c 0,0.05 0.041,0.09 0.09,0.09 h 3.91 c 0.09,0 0,-0.09 0,0 v 7.82 c 0,0.09 0.09,0 0,0 h -3.91 c -0.049,0 -0.09,0.04 -0.09,0.09 v 8 c 0,0.05 0.041,0.09 0.09,0.09 h 3.91 c 0.09,0 0,-0.09 0,0 v 7.81 4 c 0,0.05 0.041,0.09 0.09,0.09 z"
         id="path2618" />
    </g>
    <g
       transform="translate(-1135.8601,-60.233678)"
       id="p-10"
       style="fill:none;stroke-linecap:round;stroke-linejoin:round;stroke:#000000">
      <path
         style="stroke:#000000;stroke-width:0.18000001"
         inkscape:connector-curvature="0"
         d="m 1619.601,346.58 h 4.2 c 0.05,0 0.09,-0.04 0.09,-0.09 v -3.91 c 0,-0.09 -0.09,0 0,0 h 7.82 c 0.09,0 0,-0.09 0,0 v 3.91 c 0,0.05 0.041,0.09 0.09,0.09 h 4.2 c 0.05,0 0.09,-0.04 0.09,-0.09 v -4 -8 c 0,-0.788 -0.207,-1.562 -0.601,-2.245 -0.394,-0.683 -0.961,-1.249 -1.644,-1.643 -0.655,-0.379 -1.199,-0.923 -1.577,-1.578 -0.378,-0.655 -0.578,-1.398 -0.578,-2.155 V 168.111 c 0,-0.757 0.2,-1.5 0.578,-2.155 0.378,-0.655 0.922,-1.199 1.577,-1.578 0.683,-0.394 1.25,-0.96 1.644,-1.643 0.394,-0.683 0.601,-1.457 0.601,-2.245 v -8 -4 c 0,-0.05 -0.04,-0.09 -0.09,-0.09 h -4.2 c -0.049,0 -0.09,0.04 -0.09,0.09 v 3.91 c 0,0.09 0.09,0 0,0 h -7.82 c -0.09,0 0,0.09 0,0 v -3.91 c 0,-0.05 -0.04,-0.09 -0.09,-0.09 h -4.2 c -0.049,0 -0.09,0.04 -0.09,0.09 v 4 190 4 c 0,0.05 0.041,0.09 0.09,0.09 z"
         id="path2621" />
      <path
         style="stroke:#000000;stroke-width:0.18000001"
         inkscape:connector-curvature="0"
         d="m 1627.601,335.49 v 3.91 c 0,0.09 0.09,0 0,0 h -3.82 c -0.09,0 0,0.09 0,0 v -7.82 c 0,-0.09 -0.09,0 0,0 h 3.82 c 0.09,0 0,-0.09 0,0 z"
         id="path2623" />
      <path
         style="stroke:#000000;stroke-width:0.18000001"
         inkscape:connector-curvature="0"
         d="m 1627.601,319.49 v 3.91 c 0,0.09 0.09,0 0,0 h -3.82 c -0.09,0 0,0.09 0,0 v -7.82 c 0,-0.09 -0.09,0 0,0 h 3.82 c 0.09,0 0,-0.09 0,0 z"
         id="path2625" />
      <path
         style="stroke:#000000;stroke-width:0.18000001"
         inkscape:connector-curvature="0"
         d="m 1627.601,303.49 v 3.91 c 0,0.09 0.09,0 0,0 h -3.82 c -0.09,0 0,0.09 0,0 v -7.82 c 0,-0.09 -0.09,0 0,0 h 3.82 c 0.09,0 0,-0.09 0,0 z"
         id="path2627" />
      <path
         style="stroke:#000000;stroke-width:0.18000001"
         inkscape:connector-curvature="0"
         d="m 1627.601,287.49 v 3.91 c 0,0.09 0.09,0 0,0 h -3.82 c -0.09,0 0,0.09 0,0 v -7.82 c 0,-0.09 -0.09,0 0,0 h 3.82 c 0.09,0 0,-0.09 0,0 z"
         id="path2629" />
      <path
         style="stroke:#000000;stroke-width:0.18000001"
         inkscape:connector-curvature="0"
         d="m 1627.601,271.49 v 3.91 c 0,0.09 0.09,0 0,0 h -3.82 c -0.09,0 0,0.09 0,0 v -7.82 c 0,-0.09 -0.09,0 0,0 h 3.82 c 0.09,0 0,-0.09 0,0 z"
         id="path2631" />
      <path
         style="stroke:#000000;stroke-width:0.18000001"
         inkscape:connector-curvature="0"
         d="m 1627.601,255.49 v 3.91 c 0,0.09 0.09,0 0,0 h -3.82 c -0.09,0 0,0.09 0,0 v -7.82 c 0,-0.09 -0.09,0 0,0 h 3.82 c 0.09,0 0,-0.09 0,0 z"
         id="path2633" />
      <path
         style="stroke:#000000;stroke-width:0.18000001"
         inkscape:connector-curvature="0"
         d="m 1627.601,239.49 v 3.91 c 0,0.09 0.09,0 0,0 h -3.82 c -0.09,0 0,0.09 0,0 v -7.82 c 0,-0.09 -0.09,0 0,0 h 3.82 c 0.09,0 0,-0.09 0,0 z"
         id="path2635" />
      <path
         style="stroke:#000000;stroke-width:0.18000001"
         inkscape:connector-curvature="0"
         d="m 1627.601,223.49 v 3.91 c 0,0.09 0.09,0 0,0 h -3.82 c -0.09,0 0,0.09 0,0 v -7.82 c 0,-0.09 -0.09,0 0,0 h 3.82 c 0.09,0 0,-0.09 0,0 z"
         id="path2637" />
      <path
         style="stroke:#000000;stroke-width:0.18000001"
         inkscape:connector-curvature="0"
         d="m 1627.601,207.49 v 3.91 c 0,0.09 0.09,0 0,0 h -3.82 c -0.09,0 0,0.09 0,0 v -7.82 c 0,-0.09 -0.09,0 0,0 h 3.82 c 0.09,0 0,-0.09 0,0 z"
         id="path2639" />
      <path
         style="stroke:#000000;stroke-width:0.18000001"
         inkscape:connector-curvature="0"
         d="m 1627.601,191.49 v 3.91 c 0,0.09 0.09,0 0,0 h -3.82 c -0.09,0 0,0.09 0,0 v -7.82 c 0,-0.09 -0.09,0 0,0 h 3.82 c 0.09,0 0,-0.09 0,0 z"
         id="path2641" />
      <path
         style="stroke:#000000;stroke-width:0.18000001"
         inkscape:connector-curvature="0"
         d="m 1627.601,175.49 v 3.91 c 0,0.09 0.09,0 0,0 h -3.82 c -0.09,0 0,0.09 0,0 v -7.82 c 0,-0.09 -0.09,0 0,0 h 3.82 c 0.09,0 0,-0.09 0,0 z"
         id="path2643" />
      <path
         style="stroke:#000000;stroke-width:0.18000001"
         inkscape:connector-curvature="0"
         d="m 1627.601,159.49 v 3.91 c 0,0.09 0.09,0 0,0 h -3.82 c -0.09,0 0,0.09 0,0 v -7.82 c 0,-0.09 -0.09,0 0,0 h 3.82 c 0.09,0 0,-0.09 0,0 z"
         id="path2645" />
    </g>
    <rect
       y="100.99747"
       x="380.10001"
       height="94.796249"
       width="35.796246"
       id="rect2989"
       style="opacity:1;fill:none;fill-opacity:1;stroke:#000000;stroke-width:0.2;stroke-linecap:round;stroke-miterlimit:4;stroke-dasharray:none;stroke-dashoffset:0;stroke-opacity:1" />
  </g>
</svg>
